<svg xmlns="http://www.w3.org/2000/svg" width="90" height="100" viewBox="0 0 90 100">
    <g fill="none" fill-rule="evenodd">
        <path fill="#4BA2F2" d="M50 89.793c-21.942 0-39.794-17.852-39.794-39.794 0-21.942 17.852-39.793 39.794-39.793A39.624 39.624 0 0 1 77.4 21.143a2.323 2.323 0 1 1-3.201 3.37 34.993 34.993 0 0 0-24.2-9.66C30.62 14.853 14.854 30.62 14.854 50c0 19.38 15.767 35.146 35.146 35.146 9.618 0 18.595-3.81 25.278-10.727 5.823-6.027 9.251-13.8 9.792-22.095H50a2.324 2.324 0 1 1 0-4.647h39.793v2.323c0 10.372-3.967 20.191-11.172 27.648C71.053 85.479 60.889 89.793 50 89.793"/>
        <path fill="#4BA2F2" d="M49.64 60.31c5.892 0 10.67-4.778 10.67-10.67 0-5.893-4.778-10.67-10.67-10.67-5.894 0-10.67 4.777-10.67 10.67 0 5.892 4.776 10.67 10.67 10.67"/>
        <path fill="#1A5099" d="M78.593 83.056c-.34 1.958-1.394 3.596-2.966 4.613-.061.04-.11.09-.167.133-.11.05-.221.1-.326.169-7.392 4.795-15.987 7.33-24.853 7.33-21.211 0-39.082-14.493-44.126-34.045a42.956 42.956 0 0 1-.302-1.251l-.07-.32a45.858 45.858 0 0 1-.446-2.323c-.018-.103-.036-.206-.052-.31-.07-.436-.133-.874-.19-1.315v-.005a44.134 44.134 0 0 1-.143-1.289c-.013-.13-.024-.26-.035-.39a42.997 42.997 0 0 1-.148-2.309l-.016-.411a44.496 44.496 0 0 1-.006-2.471c.003-.125.01-.25.014-.374.008-.254.016-.507.028-.76.008-.15.02-.301.028-.452.014-.226.027-.45.044-.676.011-.159.027-.318.04-.476.019-.215.036-.43.058-.643.016-.165.036-.329.054-.493.023-.207.046-.413.071-.618.021-.168.045-.335.068-.502.027-.201.055-.402.085-.603.025-.168.053-.335.08-.502.032-.198.064-.396.099-.593.03-.17.062-.337.093-.505a40.858 40.858 0 0 1 .6-2.728 42.823 42.823 0 0 1 .59-2.106 46.862 46.862 0 0 1 .333-1.04c.053-.161.107-.322.163-.483.062-.182.127-.362.192-.543.058-.16.115-.32.175-.48.067-.18.136-.358.206-.537.06-.158.121-.315.184-.471.072-.18.147-.359.221-.538.064-.154.128-.309.194-.462.076-.178.155-.355.234-.533.068-.15.134-.302.203-.453.082-.18.167-.357.252-.535.069-.147.137-.293.207-.438.089-.182.18-.362.271-.542.07-.14.14-.281.212-.42.1-.193.202-.383.304-.573.067-.125.132-.25.2-.374.162-.296.327-.59.496-.881.07-.124.144-.244.216-.367.117-.199.234-.398.355-.596.083-.136.169-.27.253-.404.104-.168.208-.335.314-.5.092-.144.187-.285.281-.428.102-.155.203-.31.307-.463.098-.145.198-.287.298-.43.103-.15.206-.299.31-.446.104-.145.21-.288.314-.432.104-.143.209-.287.315-.428.108-.145.218-.288.327-.43.107-.14.213-.279.32-.416l.341-.427c.108-.134.217-.27.327-.403.115-.14.233-.28.35-.42l.336-.395.361-.412.344-.385a46.584 46.584 0 0 1 2.992-3.014l.421-.383c.122-.11.246-.218.37-.327.144-.126.288-.252.433-.376.123-.105.247-.208.371-.312.15-.124.298-.25.449-.372.122-.1.246-.198.37-.297.155-.123.309-.247.465-.368.121-.094.244-.186.366-.28.161-.122.322-.246.485-.366l.353-.256c.17-.124.34-.25.514-.37.105-.075.212-.147.319-.22.187-.13.373-.26.562-.387.071-.048.144-.094.216-.141.75-.498 1.517-.974 2.298-1.427.057-.033.114-.068.171-.1.21-.12.422-.238.634-.355.1-.056.2-.113.302-.168.2-.109.4-.214.602-.319.116-.06.231-.123.348-.183.195-.1.392-.197.588-.294l.375-.186c.193-.094.389-.184.584-.275l.39-.182c.194-.088.39-.174.584-.26.135-.058.27-.118.405-.175.195-.084.39-.164.586-.244a37.847 37.847 0 0 1 1.002-.397l.423-.161c.196-.073.394-.144.592-.214.143-.05.285-.101.429-.15a45.615 45.615 0 0 1 1.639-.53l.435-.13a41 41 0 0 1 1.676-.453 42.6 42.6 0 0 1 2.151-.484c.142-.029.285-.055.428-.082.22-.042.44-.084.662-.122l.419-.07c.225-.037.451-.074.678-.108.134-.02.269-.037.403-.056.235-.033.47-.066.707-.096l.36-.04c.25-.03.502-.059.754-.084.095-.01.19-.017.284-.025.28-.026.559-.052.84-.073a46.344 46.344 0 0 1 3.43-.128c8.867 0 17.462 2.536 24.854 7.331.105.068.215.118.326.168.057.044.106.094.167.133 1.572 1.017 2.625 2.656 2.966 4.613a8.291 8.291 0 0 1-1.589 6.442c-2.649 3.46-8 3.401-11.437 1.363a2.336 2.336 0 0 0-.467-.21 29.682 29.682 0 0 0-14.82-3.956c-1.292 0-2.563.092-3.812.252h-.001a29.494 29.494 0 0 0-13.425 5.283l-.089.063c-.31.224-.617.456-.919.692l-.161.127a29.946 29.946 0 0 0-1.818 1.564l-.221.21c-.246.234-.489.472-.726.714-.076.077-.15.156-.225.234-.232.242-.462.487-.686.737-.072.08-.142.163-.213.244-.223.254-.444.51-.658.771-.06.074-.118.15-.177.225-.22.275-.44.55-.65.833l-.058.08a29.646 29.646 0 0 0-1.853 2.842c-.08.14-.165.278-.243.42-.123.222-.238.449-.355.674-.095.183-.192.364-.283.549-.105.213-.203.43-.303.645-.094.203-.189.404-.278.61-.091.21-.178.422-.264.635-.088.216-.176.433-.26.651a30.581 30.581 0 0 0-1.029 3.29c-.062.248-.119.5-.175.75-.045.206-.09.412-.132.619-.052.262-.097.526-.142.79-.034.202-.07.401-.1.604-.042.28-.075.562-.109.845-.022.19-.048.38-.067.57-.031.317-.052.635-.073.954-.01.161-.026.321-.034.483-.024.481-.037.966-.037 1.454 0 .478.013.954.036 1.427.008.164.023.325.034.488.02.307.04.614.07.919.019.196.043.391.066.586.031.267.064.534.103.8.03.21.065.419.1.627a28.025 28.025 0 0 0 .424 2.066c.054.224.109.448.169.67.057.214.12.425.182.636.066.228.132.457.204.683.063.198.133.393.2.589.08.233.158.467.244.698 4.176 11.212 15.036 19.225 27.745 19.225A29.682 29.682 0 0 0 65.1 75.462c.16-.053.317-.12.467-.21 3.437-2.039 8.788-2.098 11.437 1.362a8.291 8.291 0 0 1 1.59 6.442m-15.28-11.943c-.157.052-.311.119-.459.205a24.924 24.924 0 0 1-12.574 3.394c-10.264 0-19.093-6.222-22.877-15.073a24.426 24.426 0 0 1-1.447-4.595c-.003-.018-.008-.035-.012-.053-.075-.364-.14-.73-.199-1.1l-.021-.12a24.65 24.65 0 0 1-.133-1.029c-.008-.07-.02-.14-.027-.21a25.958 25.958 0 0 1-.075-.97c-.005-.096-.016-.19-.021-.286a24.737 24.737 0 0 1-.002-2.49c.007-.133.02-.265.028-.398.018-.269.036-.537.061-.803.016-.159.038-.316.056-.474.028-.238.056-.476.091-.712.025-.166.054-.332.082-.498.038-.224.077-.448.12-.67a26.968 26.968 0 0 1 .39-1.657 26.216 26.216 0 0 1 .334-1.126c.065-.202.134-.402.205-.602.059-.166.117-.333.18-.499.074-.197.153-.391.232-.586.067-.163.132-.328.202-.49.084-.193.173-.382.261-.573.074-.159.144-.318.222-.476.094-.192.196-.382.295-.572.095-.182.188-.364.288-.543.16-.288.324-.574.495-.855.107-.176.221-.348.333-.521.093-.145.184-.291.28-.435.119-.177.244-.35.368-.523.095-.134.188-.268.286-.4.13-.175.264-.346.398-.517.098-.125.195-.25.295-.373a31.403 31.403 0 0 1 .729-.854 25.086 25.086 0 0 1 2.098-2.09l.271-.233c.198-.17.396-.338.599-.501.072-.059.146-.114.218-.171.226-.178.453-.355.685-.525l.062-.044a24.965 24.965 0 0 1 3.642-2.203l.044-.023c.287-.141.578-.274.87-.404.055-.024.108-.05.163-.073.278-.121.56-.236.843-.347l.21-.082a25.133 25.133 0 0 1 1.927-.646l.234-.066c.29-.081.584-.159.88-.23l.213-.049c.306-.07.613-.137.923-.196l.157-.029a25.116 25.116 0 0 1 4.544-.421c4.43 0 8.778 1.173 12.574 3.394.148.086.302.153.459.204 5.298 3.04 13.214 2.89 17.456-2.65a12.991 12.991 0 0 0 2.486-10.096c-.568-3.261-2.36-6.015-5.048-7.755a2.45 2.45 0 0 0-.345-.183c-.05-.037-.091-.08-.144-.114C69.556 2.8 60.069 0 50.281 0a50.907 50.907 0 0 0-5.104.256c-.193.02-.386.044-.578.065-.219.025-.437.048-.654.074-.201.026-.401.055-.602.083-.207.028-.414.056-.62.087-.203.03-.404.065-.606.098-.203.033-.406.064-.608.1-.202.035-.404.075-.605.112-.2.038-.4.075-.598.115-.201.04-.401.084-.601.127-.198.042-.397.083-.594.128l-.596.14c-.195.048-.391.094-.586.144-.198.05-.395.102-.592.154a43.325 43.325 0 0 0-1.742.494l-.58.181-.57.184a48.643 48.643 0 0 0-1.704.6 60.194 60.194 0 0 0-1.118.43 60.295 60.295 0 0 0-1.105.455c-.183.078-.364.158-.547.238-.182.08-.364.161-.545.243-.182.083-.362.168-.543.252-.178.085-.356.168-.534.254-.18.087-.36.177-.538.266-.176.088-.352.175-.527.265-.179.092-.356.186-.533.28-.172.09-.345.181-.515.274-.181.098-.36.2-.538.3-.166.092-.332.183-.496.277-.184.106-.364.214-.546.322-.158.093-.317.185-.474.28-.195.118-.387.24-.58.36-.14.089-.283.175-.424.265-.327.209-.652.422-.974.638-.126.084-.249.171-.373.256-.2.138-.4.274-.599.414-.145.102-.288.208-.431.312-.175.126-.35.251-.523.38-.15.11-.296.223-.443.335-.166.125-.332.25-.496.378-.147.115-.293.233-.44.35-.16.127-.322.255-.48.385-.147.12-.291.24-.436.362-.157.13-.313.261-.468.394-.144.122-.285.247-.427.372-.154.134-.307.268-.459.404l-.419.382c-.15.137-.299.275-.447.414-.138.13-.275.262-.413.394a49.084 49.084 0 0 0-2.863 2.99 56.674 56.674 0 0 0-.769.89 56.85 56.85 0 0 0-.749.912c-.116.146-.234.291-.349.438-.128.163-.253.328-.38.492l-.335.442c-.126.169-.25.339-.374.51l-.32.44c-.124.176-.247.353-.369.53-.101.146-.203.291-.303.438-.123.182-.243.366-.364.55-.095.145-.192.29-.286.436-.124.192-.245.388-.366.582-.087.14-.175.277-.26.417-.136.222-.268.448-.4.673-.068.114-.137.227-.203.342-.197.34-.39.682-.579 1.026-.039.073-.076.146-.116.219-.148.274-.296.55-.439.827-.068.132-.133.265-.2.397-.112.221-.223.442-.332.664-.072.148-.14.297-.21.445-.1.209-.2.418-.296.629-.073.158-.142.317-.213.476-.09.203-.182.407-.27.612-.07.163-.137.329-.206.493-.084.202-.168.404-.25.608l-.199.509c-.077.201-.156.403-.231.605l-.19.519a47.254 47.254 0 0 0-.593 1.748 47.289 47.289 0 0 0-1.1 4.04 52.68 52.68 0 0 0-.14.636c-.04.184-.079.368-.116.553-.043.214-.084.43-.124.645a45.815 45.815 0 0 0-.211 1.209c-.03.185-.061.369-.088.554-.034.222-.064.444-.095.667l-.074.55c-.028.229-.053.457-.079.685-.02.18-.041.36-.06.542-.023.237-.043.474-.063.71-.015.176-.031.35-.045.526-.018.25-.033.5-.048.75-.01.164-.021.328-.03.493-.014.279-.022.558-.032.838-.004.138-.012.276-.015.415a51.72 51.72 0 0 0 .004 2.642c.004.146.011.291.017.437.011.315.024.63.04.944l.033.498a52.73 52.73 0 0 0 .109 1.381c.027.297.057.593.09.888.018.156.035.314.055.47.037.311.078.622.122.931.019.137.037.274.058.41.052.35.108.699.168 1.046l.046.283c.162.911.347 1.814.557 2.708 5.193 22.108 25.176 38.625 48.966 38.625 9.787 0 19.275-2.8 27.438-8.096.053-.034.094-.077.144-.115a2.45 2.45 0 0 0 .345-.183c2.687-1.74 4.48-4.493 5.048-7.754a12.991 12.991 0 0 0-2.486-10.096c-4.242-5.54-12.158-5.69-17.456-2.65"/>
    </g>
</svg>
