<svg xmlns="http://www.w3.org/2000/svg" width="119" height="119" viewBox="0 0 119 119">
    <g fill="none" fill-rule="nonzero">
        <path fill="#E86C60" d="M59.472 118.943C26.679 118.943 0 92.265 0 59.472 0 26.678 26.68 0 59.472 0s59.471 26.678 59.471 59.472c0 32.793-26.679 59.471-59.471 59.471z"/>
        <path fill="#FFF" stroke="#FFF" stroke-width="3" d="M63.128 59.472l18.858-18.858a2.585 2.585 0 1 0-3.657-3.656L59.472 55.815 40.614 36.958a2.585 2.585 0 1 0-3.656 3.656l18.857 18.858-18.857 18.857a2.585 2.585 0 1 0 3.656 3.657l18.858-18.858 18.857 18.858a2.577 2.577 0 0 0 1.828.757 2.585 2.585 0 0 0 1.828-4.414L63.129 59.472z"/>
    </g>
</svg>
