<svg xmlns="http://www.w3.org/2000/svg" xmlns:xlink="http://www.w3.org/1999/xlink" width="300" height="161" viewBox="0 0 300 161">
    <defs>
        <path id="a" d="M0 40V0h116v40z"/>
        <path id="c" d="M0 41V1h66v40H0z"/>
    </defs>
    <g fill="none" fill-rule="evenodd">
        <path fill="#EFF4F7" d="M224 81c0 41.975-34.025 76-76 76-41.972 0-76-34.025-76-76s34.028-76 76-76c41.975 0 76 34.025 76 76z"/>
        <g transform="translate(42 81)">
            <mask id="b" fill="#fff">
                <use xlink:href="#a"/>
            </mask>
            <path fill="#4BA2F2" stroke="#4BA2F2" stroke-width=".5" d="M21.84 18.034a6.658 6.658 0 0 1-1.955-4.7V.001H0v13.333a26.72 26.72 0 0 0 7.756 18.867c5.203 5.2 11.964 7.8 18.759 7.8h62.971c6.794 0 13.555-2.6 18.759-7.8a26.72 26.72 0 0 0 7.755-18.867V.001H96.114v13.333c0 1.03-.266 3-1.956 4.733a6.646 6.646 0 0 1-4.673 1.934H26.514a6.574 6.574 0 0 1-4.674-1.967" mask="url(#b)"/>
        </g>
        <g transform="translate(42 40)">
            <mask id="d" fill="#fff">
                <use xlink:href="#c"/>
            </mask>
            <path fill="#7AD3FF" d="M7.721 8.8C2.57 14.032 0 20.832 0 27.665v13.333h19.8V27.666c0-1.03.264-3 1.947-4.733a6.612 6.612 0 0 1 4.653-1.934H66V1H26.4C19.634 1 12.902 3.6 7.721 8.8" mask="url(#d)"/>
        </g>
        <path fill="#7AD3FF" d="M234.2 94.333c0 1.034-.264 3-1.947 4.734A6.607 6.607 0 0 1 227.6 101H188v20h39.6c6.765 0 13.497-2.6 18.678-7.8 5.151-5.233 7.722-12.033 7.722-18.867V81h-19.8v13.333z"/>
        <path fill="#4BA2F2" stroke="#4BA2F2" stroke-width=".5" d="M145.755 48.8A26.72 26.72 0 0 0 138 67.667V81h19.886V67.667c0-1.03.265-3 1.955-4.734A6.656 6.656 0 0 1 164.514 61h62.972c1.03 0 2.986.267 4.673 1.967a6.658 6.658 0 0 1 1.955 4.7V81H254V67.667a26.72 26.72 0 0 0-7.755-18.867c-5.204-5.2-11.965-7.8-18.76-7.8h-62.97c-6.795 0-13.556 2.6-18.76 7.8"/>
        <path fill="#6CB9FF" d="M108 91h80V71h-80z"/>
        <path stroke="#DEE3E7" stroke-linejoin="round" stroke-width="2" d="M131 28h7M145 28h7M158 28h7M131 134h7M145 134h7M158 134h7"/>
        <path stroke="#DEE3E7" stroke-width="2" d="M262.438 160H239M299.875 142H253M38 1h23.438M0 20h46.875"/>
    </g>
</svg>
