<svg xmlns="http://www.w3.org/2000/svg" xmlns:xlink="http://www.w3.org/1999/xlink" width="307" height="207" viewBox="0 0 307 207">
    <defs>
        <path id="a" d="M319.476 224.437H0V.107h319.476z"/>
        <path id="c" d="M0 14.55V.15h60.137v14.4H0z"/>
    </defs>
    <g fill="none" fill-rule="evenodd">
        <g transform="translate(-.089 -8.65)">
            <mask id="b" fill="#fff">
                <use xlink:href="#a"/>
            </mask>
            <path fill="#F6FBFF" d="M88.66 211.85c-6.218-1.048-80.923-10.5-75.424-80.21 5.499-69.71 12.401-90.675 41.446-98.345 29.044-7.67 99.646-43.963 155.046-9.454 55.402 34.51 115.184 65.46 91.46 120.56-23.723 55.101-27.607 73.482-89.503 70.67-61.897-2.813-93.46 1.77-123.025-3.22" mask="url(#b)"/>
        </g>
        <path fill="#FFF" d="M269.327 74.274H155.248c-4.135 0-7.519-3.384-7.519-7.519V63.74c0-4.135 3.384-7.519 7.52-7.519h114.078c4.135 0 7.519 3.384 7.519 7.519v3.015c0 4.135-3.384 7.519-7.519 7.519M278.667 49.989h-45.738c-3.96 0-7.2-3.24-7.2-7.2s3.24-7.2 7.2-7.2h45.738c3.96 0 7.2 3.24 7.2 7.2s-3.24 7.2-7.2 7.2M287.225 94.26h-45.738c-3.96 0-7.2-3.239-7.2-7.199s3.24-7.2 7.2-7.2h45.738c3.96 0 7.2 3.24 7.2 7.2s-3.24 7.2-7.2 7.2"/>
        <path fill="#FFF" d="M263.2 80.435c-2.23 0-4.038-1.38-4.038-3.08 0-1.702 1.808-3.081 4.037-3.081h-17.616c2.23 0 4.038 1.379 4.038 3.08 0 1.702-1.808 3.08-4.038 3.08H263.2zM268.906 56.42c-2.328 0-4.215-1.44-4.215-3.216 0-1.776 1.887-3.215 4.215-3.215h-18.389c2.328 0 4.215 1.44 4.215 3.215 0 1.776-1.887 3.216-4.215 3.216h18.389zM25.008 130.851h114.08c4.135 0 7.518 3.384 7.518 7.519v3.015c0 4.135-3.383 7.519-7.519 7.519H25.008c-4.135 0-7.518-3.384-7.518-7.519v-3.015c0-4.135 3.383-7.519 7.518-7.519M15.669 155.136h45.737c3.96 0 7.2 3.24 7.2 7.2s-3.24 7.2-7.2 7.2H15.67c-3.96 0-7.2-3.24-7.2-7.2s3.24-7.2 7.2-7.2"/>
        <g transform="translate(-.089 110.714)">
            <mask id="d" fill="#fff">
                <use xlink:href="#c"/>
            </mask>
            <path fill="#FFF" d="M7.2.15h45.737c3.96 0 7.2 3.24 7.2 7.2s-3.24 7.2-7.2 7.2H7.2c-3.96 0-7.2-3.24-7.2-7.2S3.24.15 7.2.15" mask="url(#d)"/>
        </g>
        <path fill="#FFF" d="M31.136 124.69c2.23 0 4.038 1.38 4.038 3.08 0 1.702-1.808 3.081-4.038 3.081h17.616c-2.23 0-4.037-1.379-4.037-3.08s1.808-3.08 4.037-3.08H31.136zM25.43 148.705c2.327 0 4.214 1.44 4.214 3.216 0 1.776-1.887 3.215-4.214 3.215h18.388c-2.327 0-4.215-1.44-4.215-3.215 0-1.776 1.888-3.216 4.215-3.216H25.43z"/>
        <path fill="#637AAB" d="M285.097 106.735h1.588v-3.934h-1.588zM285.097 114.702h1.588v-3.933h-1.588zM279.916 109.52h3.934v-1.587h-3.934zM287.883 109.52h3.934v-1.587h-3.934zM73.787 14.23h1.588v-3.934h-1.588zM73.787 22.197h1.588v-3.934h-1.588zM68.606 17.015h3.933v-1.588h-3.933zM76.573 17.015h3.934v-1.588h-3.934z"/>
        <path fill="#FF9E81" d="M239.468 20.18h1.588v-3.933h-1.588zM239.468 28.148h1.588v-3.934h-1.588zM234.287 22.966h3.934v-1.588h-3.934zM242.255 22.966h3.934v-1.588h-3.934zM7.7 61.11h1.588v-3.934H7.7zM7.7 69.077h1.588v-3.934H7.7zM2.519 63.895h3.933v-1.588H2.52zM10.486 63.895h3.934v-1.588h-3.934zM258.942 159.01h1.588v-3.933h-1.588zM258.942 166.978h1.588v-3.934h-1.588zM253.761 161.796h3.934v-1.588h-3.934zM261.729 161.796h3.933v-1.588h-3.933z"/>
        <path fill="#637AAB" d="M57.263 82.892h1.588v-3.934h-1.588zM57.263 90.859h1.588v-3.934h-1.588zM52.082 85.677h3.934v-1.588h-3.934zM60.05 85.677h3.933v-1.588H60.05zM63.983 187.18h1.588v-3.933h-1.588zM63.983 195.148h1.588v-3.934h-1.588zM58.802 189.966h3.934v-1.588h-3.934zM66.77 189.966h3.933v-1.588H66.77z"/>
    </g>
</svg>
