<?xml version="1.0" encoding="UTF-8"?>
<svg width="1600px" height="500px" viewBox="0 0 1600 500" version="1.1" xmlns="http://www.w3.org/2000/svg" xmlns:xlink="http://www.w3.org/1999/xlink">
    <!-- Generator: Sketch 54.1 (76490) - https://sketchapp.com -->
    <title>Artboard</title>
    <desc>Created with Sketch.</desc>
    <g id="Artboard" stroke="none" stroke-width="1" fill="none" fill-rule="evenodd">
        <circle id="Oval" fill-opacity="0.101808348" fill="#000000" transform="translate(361.000000, 80.000000) scale(-1, 1) translate(-361.000000, -80.000000) " cx="361" cy="80" r="20"></circle>
        <circle id="Oval" fill-opacity="0.101808348" fill="#000000" transform="translate(504.500000, 344.500000) scale(-1, 1) translate(-504.500000, -344.500000) " cx="504.5" cy="344.5" r="13.5"></circle>
        <circle id="Oval" fill-opacity="0.101808348" fill="#000000" transform="translate(167.000000, 240.000000) scale(-1, 1) translate(-167.000000, -240.000000) " cx="167" cy="240" r="59"></circle>
        <path d="M70.2906225,25.001084 L70.2906225,45.3076731 C70.1941148,45.306122 70.0974193,45.3053435 70.000542,45.3053435 C60.2279137,45.3053435 52.3056331,53.2275111 52.3056331,63 C52.3056331,72.7724889 60.2279137,80.6946565 70.000542,80.6946565 C79.6762931,80.6946565 87.5381999,72.9287773 87.6931213,63.2900763 L108,63.2900763 C107.844091,84.1433653 90.8908835,101 70.000542,101 C49.0134222,101 32,83.9868205 32,63 C32,42.0131795 49.0134222,25 70.000542,25 C70.0973204,25 70.1940144,25.0003618 70.2906225,25.001084 Z" id="Path" fill-opacity="0.101808348" fill="#000000" transform="translate(70.000000, 63.000000) scale(-1, 1) rotate(-180.000000) translate(-70.000000, -63.000000) "></path>
        <path d="M714.000941,299.001869 L714.000941,329.003449 C713.834547,329.001152 713.667875,329 713.500934,329 C693.894546,329 678.000428,344.893891 678.000428,364.5 C678.000428,384.106109 693.894546,400 713.500934,400 C732.940382,400 748.730507,384.375617 748.997991,365 L779,365 C778.731262,400.944485 749.509286,430 713.500934,430 C677.325767,430 648,400.674651 648,364.5 C648,328.325349 677.325767,299 713.500934,299 C713.66775,299 713.834419,299.000624 714.000941,299.001869 Z" id="Path" fill-opacity="0.101808348" fill="#000000" transform="translate(713.500000, 364.500000) scale(-1, 1) translate(-713.500000, -364.500000) "></path>
        <rect id="Rectangle" fill-opacity="0.1" fill="#000000" transform="translate(599.301270, 102.483340) scale(-1, 1) rotate(-30.000000) translate(-599.301270, -102.483340) " x="549.30127" y="98.4833395" width="100" height="8"></rect>
        <rect id="Rectangle" fill-opacity="0.1" fill="#000000" transform="translate(666.262794, 98.464102) scale(-1, 1) rotate(-30.000000) translate(-666.262794, -98.464102) " x="616.262794" y="94.4641016" width="100" height="8"></rect>
        <rect id="Rectangle" fill-opacity="0.1" fill="#000000" transform="translate(344.320508, 378.464102) scale(-1, 1) rotate(-30.000000) translate(-344.320508, -378.464102) " x="324.320508" y="374.464102" width="40" height="8"></rect>
        <path d="M432,232 L479,232 L479,279 L432,279 L432,232 Z M447,247 L447,265 L465,265 L465,247 L447,247 Z" id="Combined-Shape" fill-opacity="0.1" fill="#000000" transform="translate(455.500000, 255.500000) scale(-1, 1) translate(-455.500000, -255.500000) "></path>
        <path d="M53,406 L80,406 L80,433 L53,433 L53,406 Z M62,415 L62,425 L72,425 L72,415 L62,415 Z" id="Combined-Shape" fill-opacity="0.1" fill="#000000" transform="translate(66.500000, 419.500000) scale(-1, 1) translate(-66.500000, -419.500000) "></path>
        <circle id="Oval" fill-opacity="0.101808348" fill="#000000" transform="translate(1283.000000, 446.000000) scale(-1, 1) translate(-1283.000000, -446.000000) " cx="1283" cy="446" r="15"></circle>
        <circle id="Oval" fill-opacity="0.101808348" fill="#000000" transform="translate(980.500000, 74.500000) scale(-1, 1) translate(-980.500000, -74.500000) " cx="980.5" cy="74.5" r="33.5"></circle>
        <circle id="Oval" fill-opacity="0.101808348" fill="#000000" transform="translate(1050.000000, 365.000000) scale(-1, 1) translate(-1050.000000, -365.000000) " cx="1050" cy="365" r="49"></circle>
        <path d="M1099.29062,173.001084 L1099.29062,193.307673 C1099.19411,193.306122 1099.09742,193.305344 1099.00054,193.305344 C1089.22791,193.305344 1081.30563,201.227511 1081.30563,211 C1081.30563,220.772489 1089.22791,228.694656 1099.00054,228.694656 C1108.67629,228.694656 1116.5382,220.928777 1116.69312,211.290076 L1137,211.290076 C1136.84409,232.143365 1119.89088,249 1099.00054,249 C1078.01342,249 1061,231.98682 1061,211 C1061,190.01318 1078.01342,173 1099.00054,173 C1099.09732,173 1099.19401,173.000362 1099.29062,173.001084 Z" id="Path" fill-opacity="0.101808348" fill="#000000" transform="translate(1099.000000, 211.000000) rotate(-180.000000) translate(-1099.000000, -211.000000) "></path>
        <path d="M1411.03918,193.002011 L1411.03918,225.293789 C1410.86008,225.291317 1410.68069,225.290076 1410.50101,225.290076 C1389.39795,225.290076 1372.29054,242.397242 1372.29054,263.5 C1372.29054,284.602758 1389.39795,301.709924 1410.50101,301.709924 C1431.42438,301.709924 1448.41986,284.892839 1448.70776,264.038168 L1481,264.038168 C1480.71075,302.726507 1449.25809,334 1410.50101,334 C1371.56438,334 1340,302.436075 1340,263.5 C1340,224.563925 1371.56438,193 1410.50101,193 C1410.68056,193 1410.85995,193.000671 1411.03918,193.002011 Z" id="Path" fill-opacity="0.101808348" fill="#000000"></path>
        <rect id="Rectangle" fill-opacity="0.1" fill="#000000" transform="translate(1440.301270, 430.483340) scale(-1, 1) rotate(-30.000000) translate(-1440.301270, -430.483340) " x="1390.30127" y="426.48334" width="100" height="8"></rect>
        <rect id="Rectangle" fill-opacity="0.1" fill="#000000" transform="translate(1507.262794, 426.464102) scale(-1, 1) rotate(-30.000000) translate(-1507.262794, -426.464102) " x="1457.26279" y="422.464102" width="100" height="8"></rect>
        <rect id="Rectangle" fill-opacity="0.1" fill="#000000" transform="translate(1310.310889, 102.964102) scale(-1, 1) rotate(-30.000000) translate(-1310.310889, -102.964102) " x="1275.31089" y="98.9641016" width="70" height="8"></rect>
        <path d="M1496,74 L1533,74 L1533,111 L1496,111 L1496,74 Z M1507.80851,85.8085106 L1507.80851,99.9787234 L1521.97872,99.9787234 L1521.97872,85.8085106 L1507.80851,85.8085106 Z" id="Combined-Shape" fill-opacity="0.1" fill="#000000" transform="translate(1514.500000, 92.500000) scale(-1, 1) translate(-1514.500000, -92.500000) "></path>
        <path d="M875,277 L902,277 L902,304 L875,304 L875,277 Z M884,286 L884,296 L894,296 L894,286 L884,286 Z" id="Combined-Shape" fill-opacity="0.1" fill="#000000" transform="translate(888.500000, 290.500000) scale(-1, 1) translate(-888.500000, -290.500000) "></path>
    </g>
</svg>