<svg xmlns="http://www.w3.org/2000/svg" width="23" height="23" viewBox="0 0 23 23">
    <path fill="#FFB379" fill-rule="nonzero" d="M22 4h-4c0-2.2-1.8-4-4-4H8C5.8 0 4 1.8 4 4H1c-.6 0-1 .4-1 1v10c0 .6.4 1 1 1h3.1c.5 3.9 3.9 7 7.9 7s7.4-3.1 7.9-7H22c.6 0 1-.4 1-1V5c0-.6-.4-1-1-1zM8 2h6c1.1 0 2 .9 2 2H6c0-1.1.9-2 2-2zm4 8c0 1.1-.9 2-2 2s-2-.9-2-2 .9-2 2-2 2 .9 2 2zm6 4.8v.4c-.1 3.2-2.7 5.8-6 5.8-3 0-5.4-2.2-5.9-5h5c-.1.3-.1.7-.1 1 0 .6.4 1 1 1s1-.4 1-1c0-1.2.9-3 2-3 .6 0 1-.4 1-1v-2c0-.7.7-2 2-2v5.8z"/>
</svg>
