<svg xmlns="http://www.w3.org/2000/svg" width="22" height="17" viewBox="0 0 22 17">
    <g fill="#A8ECA1" fill-rule="nonzero">
        <path d="M0 .917v14.666c0 .55.367.917.917.917h20.166c.55 0 .917-.367.917-.917V.917c0-.55-.367-.917-.917-.917H.917C.367 0 0 .367 0 .917zM19.25 11h-.917a1.839 1.839 0 0 0-1.833 1.833v.917h-11v-.917A1.839 1.839 0 0 0 3.667 11H2.75V5.5h.917A1.839 1.839 0 0 0 5.5 3.667V2.75h11v.917c0 1.008.825 1.833 1.833 1.833h.917V11z"/>
        <path d="M14.758 4.583H7.242a3.877 3.877 0 0 1-2.659 2.659V9.35a3.877 3.877 0 0 1 2.659 2.658h7.608a3.877 3.877 0 0 1 2.658-2.658V7.242c-1.375-.367-2.383-1.375-2.75-2.659zM11 10.083A1.839 1.839 0 0 1 9.167 8.25c0-1.008.825-1.833 1.833-1.833s1.833.825 1.833 1.833A1.839 1.839 0 0 1 11 10.083z"/>
    </g>
</svg>
