<svg xmlns="http://www.w3.org/2000/svg" width="21" height="22" viewBox="0 0 21 22">
    <g fill="#946FF8" fill-rule="nonzero">
        <path d="M2.938 2.336C2.721 2.224 0 4.48 0 6.133c0 2.264 3.171 7.386 3.709 9.369.457 1.702-.779 3.74-.442 3.837.313.2 3.276-2.802 3.396-4.086.153-2.04-3.46-7.988-3.749-9.521-.337-1.79.265-3.356.024-3.396zM9.738.008c-.273-.136-3.75 2.73-3.75 4.84 0 2.883 4.047 9.417 4.73 11.938.585 2.168-.996 4.769-.563 4.881.402.257 4.183-3.572 4.327-5.202.193-2.593-4.415-10.171-4.784-12.13-.418-2.28.337-4.279.04-4.327zM16.746 2.336c-.209-.104-2.938 2.144-2.938 3.797 0 2.264 3.17 7.386 3.709 9.369.457 1.702-.779 3.74-.442 3.837.313.2 3.284-2.802 3.396-4.086.144-2.04-3.46-7.988-3.75-9.521-.328-1.79.266-3.356.025-3.396z"/>
    </g>
</svg>
