<?xml version="1.0" standalone="no"?>
<!DOCTYPE svg PUBLIC "-//W3C//DTD SVG 1.1//EN" "http://www.w3.org/Graphics/SVG/1.1/DTD/svg11.dtd" >
<svg>
<metadata>
Created by FontForge 20120731 at Thu Apr 24 18:23:02 2014

</metadata>
<defs>
<font id="lineto-circular-pro-bookItalic" horiz-adv-x="560" >
  <font-face 
    font-family="Circular Book"
    font-weight="400"
    font-style="italic"
    font-stretch="normal"
    units-per-em="1000"
    panose-1="2 0 5 3 0 0 0 2 0 3"
    ascent="809"
    descent="-191"
    x-height="481"
    cap-height="709"
    bbox="-131 -233 1544 1021"
    underline-thickness="80"
    underline-position="-115"
    slope="-12"
    unicode-range="U+0020-FEFF"
  />
<missing-glyph horiz-adv-x="555" 
d="M5 709h545v-709h-545v709zM471 79v551h-387v-551h387z" />
    <glyph glyph-name="f_f" unicode="ff" horiz-adv-x="618" 
d="M617 643q-30 0 -52 -16t-32 -61l-18 -85h109l-18 -83h-109l-84 -398h-97l84 398h-189l-84 -398h-97l84 398h-81l18 83h81l21 100q10 49 30 78t44 44.5t50 20.5t48 5q29 0 45.5 -6t18.5 -8l-18 -80q-4 2 -14.5 5t-25.5 3q-30 0 -52 -16t-32 -61l-18 -85h189l21 100
q10 49 30 78t44 44.5t50 20.5t48 5q29 0 45.5 -6t18.5 -8l-18 -80q-4 2 -14.5 5t-25.5 3z" />
    <glyph glyph-name="f_f_i" unicode="ffi" horiz-adv-x="870" 
d="M738 659q0 16 6.5 29.5t17 23.5t23.5 15.5t27 5.5q27 0 44 -17.5t17 -42.5q0 -15 -6.5 -28.5t-17 -23.5t-24 -16t-26.5 -6q-27 0 -44 17.5t-17 42.5zM617 643q-30 0 -52 -16t-32 -61l-18 -85h300l-103 -481h-94l85 398h-206l-84 -398h-97l84 398h-189l-84 -398h-97
l84 398h-81l18 83h81l21 100q10 49 30 78t44 44.5t50 20.5t48 5q29 0 45.5 -6t18.5 -8l-18 -80q-4 2 -14.5 5t-25.5 3q-30 0 -52 -16t-32 -61l-18 -85h189l21 100q10 49 30 78t44 44.5t50 20.5t48 5q29 0 45.5 -6t18.5 -8l-18 -80q-4 2 -14.5 5t-25.5 3z" />
    <glyph glyph-name="f_f_l" unicode="ffl" horiz-adv-x="875" 
d="M617 643q-30 0 -52 -16t-32 -61l-18 -85h212l52 243h94l-154 -724h-94l85 398h-213l-84 -398h-97l84 398h-189l-84 -398h-97l84 398h-81l18 83h81l21 100q10 49 30 78t44 44.5t50 20.5t48 5q29 0 45.5 -6t18.5 -8l-18 -80q-4 2 -14.5 5t-25.5 3q-30 0 -52 -16t-32 -61
l-18 -85h189l21 100q10 49 30 78t44 44.5t50 20.5t48 5q29 0 45.5 -6t18.5 -8l-18 -80q-4 2 -14.5 5t-25.5 3z" />
    <glyph glyph-name="f_i" unicode="fi" horiz-adv-x="591" 
d="M127 0h-97l84 398h-81l18 83h81l21 100q10 49 30 78t44 44.5t50 20.5t48 5q29 0 45.5 -6t18.5 -8l-18 -80q-4 2 -14.5 5t-25.5 3q-30 0 -52 -16t-32 -61l-18 -85h307l-103 -481h-94l85 398h-213zM459 659q0 16 6.5 29.5t17 23.5t23.5 15.5t27 5.5q27 0 44 -17.5t17 -42.5
q0 -15 -6.5 -28.5t-17 -23.5t-24 -16t-26.5 -6q-27 0 -44 17.5t-17 42.5z" />
    <glyph glyph-name="f_l" unicode="fl" horiz-adv-x="590" 
d="M331 643q-30 0 -52 -16t-32 -61l-18 -85h213l52 243h94l-154 -724h-94l85 398h-214l-84 -398h-97l84 398h-81l18 83h81l21 100q10 49 30 78t44 44.5t50 20.5t48 5q29 0 45.5 -6t18.5 -8l-18 -80q-4 2 -14.5 5t-25.5 3z" />
    <glyph glyph-name=".notdef" horiz-adv-x="555" 
d="M5 709h545v-709h-545v709zM471 79v551h-387v-551h387z" />
    <glyph glyph-name=".null" horiz-adv-x="0" 
 />
    <glyph glyph-name="nonmarkingreturn" horiz-adv-x="261" 
 />
    <glyph glyph-name="space" unicode=" " horiz-adv-x="261" 
 />
    <glyph glyph-name="exclam" unicode="!" horiz-adv-x="304" 
d="M164 709h120l-132 -506h-67zM25 53q0 29 20.5 51t51.5 22q27 0 43.5 -16.5t16.5 -41.5q0 -31 -21.5 -52t-49.5 -21q-27 0 -44 16.5t-17 41.5z" />
    <glyph glyph-name="quotedbl" unicode="&#x22;" horiz-adv-x="400" 
d="M90 393v198q0 27 17 47.5t49 20.5q26 0 41 -15t15 -38q0 -15 -7 -32l-80 -181h-35zM263 393v198q0 27 17 47.5t49 20.5q26 0 41 -15t15 -38q0 -15 -7 -32l-80 -181h-35z" />
    <glyph glyph-name="numbersign" unicode="#" horiz-adv-x="718" 
d="M84 481h144l36 167h84l-36 -167h142l36 167h84l-36 -167h135v-76h-151l-34 -160h136v-76h-153l-36 -169h-84l36 169h-142l-36 -169h-84l36 169h-126v76h143l34 160h-128v76zM262 245h142l34 160h-142z" />
    <glyph glyph-name="dollar" unicode="$" horiz-adv-x="565" 
d="M179 -6q-44 10 -75 32t-50.5 50.5t-29 61.5t-9.5 65v4t1 9l89 15q-1 -7 -1 -10.5v-6.5q0 -45 22 -84t70 -55l47 218l-23 12q-54 28 -85 67t-31 99q0 40 16.5 75t45.5 61t68.5 41t86.5 15l22 103h76l-24 -113q39 -11 65.5 -31t43 -44.5t24 -50.5t7.5 -48l-85 -17
q0 10 -2.5 25t-10.5 30.5t-22 30t-38 23.5l-46 -221l15 -7q62 -32 94 -73t32 -95q0 -38 -16 -72.5t-45 -60.5t-69 -41.5t-89 -15.5l-21 -102h-76zM195 482q0 -61 64 -94l3 -2l42 196q-48 -3 -78.5 -31t-30.5 -69zM378 168q0 52 -67 90l-40 -190q49 5 77.5 31.5t29.5 68.5z
" />
    <glyph glyph-name="percent" unicode="%" horiz-adv-x="768" 
d="M208 422q33 0 59 24.5t26 66.5q0 30 -19 48.5t-51 18.5q-16 0 -31 -6.5t-26.5 -18.5t-18.5 -28.5t-7 -35.5q0 -30 18 -49.5t50 -19.5zM200 344q-31 0 -57.5 11t-45.5 30t-29.5 44.5t-10.5 55.5q0 35 14 66.5t37.5 55.5t55.5 38t68 14q31 0 57 -11t45.5 -30.5t30.5 -45.5
t11 -56q0 -37 -15 -68.5t-40 -54.5t-56.5 -36t-64.5 -13zM549 74q33 0 59 24.5t26 66.5q0 30 -19 48.5t-51 18.5q-16 0 -31 -6.5t-26.5 -18.5t-18.5 -28.5t-7 -35.5q0 -30 18 -49.5t50 -19.5zM541 -4q-31 0 -57.5 11t-45.5 30t-29.5 44.5t-10.5 55.5q0 35 14 66.5t37.5 55.5
t55.5 38t68 14q31 0 57 -11t45.5 -30.5t30.5 -45.5t11 -56q0 -37 -15 -68.5t-40 -54.5t-56.5 -36t-64.5 -13zM128 0h-97l606 648h95z" />
    <glyph glyph-name="ampersand" unicode="&#x26;" horiz-adv-x="680" 
d="M475 0l-62 88l-9 -8q-47 -41 -93.5 -64t-107.5 -23q-43 0 -78 14t-60 38t-38.5 56t-13.5 68q0 40 13 72t35.5 58t53 47t65.5 40l18 10l-14 19q-17 24 -33.5 56t-16.5 73q0 46 17 79.5t45 56t62.5 33.5t69.5 11q41 0 73 -12.5t54 -33.5t33.5 -49t11.5 -60q0 -35 -12.5 -62
t-32.5 -48t-44.5 -37.5t-48.5 -29.5l-34 -19l107 -154l207 179l-29 -136l-129 -112l105 -150h-114zM113 175q0 -46 30 -69.5t71 -23.5q38 0 75.5 21.5t69.5 49.5l5 4l-119 170l-45 -25q-46 -26 -66.5 -54t-20.5 -73zM318 460q51 27 68 53.5t17 55.5q0 33 -23 52t-57 19
q-14 0 -30 -5t-29.5 -16t-23 -28.5t-9.5 -42.5q0 -21 8 -40.5t18 -33.5l24 -34z" />
    <glyph glyph-name="quotesingle" unicode="'" horiz-adv-x="217" 
d="M90 393v198q0 27 17 47.5t49 20.5q26 0 41 -15t15 -38q0 -15 -7 -32l-80 -181h-35z" />
    <glyph glyph-name="parenleft" unicode="(" horiz-adv-x="285" 
d="M37 201q0 86 19.5 169t57.5 158.5t94.5 141t131.5 117.5l45 -61q-56 -41 -104.5 -94t-84.5 -118t-56.5 -142t-20.5 -166q0 -88 23.5 -165.5t65.5 -149.5l-67 -37q-45 69 -74.5 155.5t-29.5 191.5z" />
    <glyph glyph-name="parenright" unicode=")" horiz-adv-x="285" 
d="M248 432q0 -88 -20 -170t-58.5 -156.5t-95 -139t-129.5 -117.5l-45 60q56 41 104.5 94t84.5 117.5t56.5 142t20.5 167.5q0 87 -23 165t-65 150l66 37q46 -72 75 -160.5t29 -189.5z" />
    <glyph glyph-name="asterisk" unicode="*" horiz-adv-x="433" 
d="M299 575l130 42l9 -72l-132 -43l62 -103l-65 -46l-63 109l-101 -108l-56 46l103 106l-116 41l35 70l114 -43l21 135h85z" />
    <glyph glyph-name="plus" unicode="+" horiz-adv-x="567" 
d="M316 51h-82v197h-187v79h187v195h82v-195h188v-79h-188v-197z" />
    <glyph glyph-name="comma" unicode="," horiz-adv-x="282" 
d="M11 55q0 32 23 54t57 22q32 0 54 -21t22 -61q0 -39 -15 -75.5t-41 -65.5t-62.5 -47.5t-78.5 -20.5l11 54q21 4 40 13.5t34 23.5t26 31.5t15 35.5q-8 -4 -23 -4q-26 0 -44 16t-18 45z" />
    <glyph glyph-name="hyphen" unicode="-" horiz-adv-x="358" 
d="M20 246l17 82h271l-17 -82h-271z" />
    <glyph glyph-name="period" unicode="." horiz-adv-x="262" 
d="M70 -5q-29 0 -47 18t-18 43q0 16 6 30t16.5 24.5t25 17t30.5 6.5q29 0 46.5 -18t17.5 -44q0 -33 -23 -55t-54 -22z" />
    <glyph glyph-name="slash" unicode="/" horiz-adv-x="459" 
d="M21 -15h-96l517 739h97z" />
    <glyph glyph-name="zero" unicode="0" horiz-adv-x="604" 
d="M127 239q0 -73 31.5 -119t102.5 -46q55 0 93.5 35.5t62.5 87.5t34.5 111t10.5 107q0 72 -30 115.5t-104 43.5q-56 0 -94.5 -34.5t-62 -85.5t-34 -109.5t-10.5 -105.5zM254 -15q-60 0 -102.5 21t-69.5 56.5t-39.5 81.5t-12.5 96q0 71 18.5 146t56 136.5t95 101t135.5 39.5
q62 0 104.5 -21t69 -56t38.5 -80t12 -94q0 -76 -19.5 -152t-58 -137t-95.5 -99.5t-132 -38.5z" />
    <glyph glyph-name="one" unicode="1" horiz-adv-x="341" 
d="M77 0l100 468h-142l13 63q60 5 107 35.5t70 81.5h86l-137 -648h-97z" />
    <glyph glyph-name="two" unicode="2" horiz-adv-x="539" 
d="M-30 0q10 91 61 163.5t148 118.5l121 58q58 28 88.5 60t30.5 78q0 19 -6 37.5t-19.5 32.5t-34.5 22.5t-50 8.5q-63 0 -102 -41.5t-39 -116.5v-8l-95 8v7q0 48 16.5 90.5t47 74.5t75 51t101.5 19q52 0 91 -14t64 -37.5t37.5 -55.5t12.5 -68q0 -80 -45 -133.5t-121 -89.5
l-144 -68q-29 -14 -60 -40t-46 -66h354l-19 -91h-467z" />
    <glyph glyph-name="three" unicode="3" horiz-adv-x="541" 
d="M178 403l231 156h-316l18 89h437l-23 -113l-218 -146q31 -3 59 -16t50 -35t35 -53t13 -70q0 -45 -17 -86.5t-49 -73.5t-77 -51t-102 -19q-55 0 -96.5 17t-69.5 45.5t-42.5 64.5t-14.5 74v14t2 15l96 11q-2 -7 -2 -13.5v-13.5q0 -24 7.5 -47t23.5 -41t39 -29t55 -11
q31 0 58 10t46.5 28t30.5 43t11 56q0 30 -10.5 50.5t-27.5 33t-38 18.5t-41 6q-8 0 -17 -1t-14 -3z" />
    <glyph glyph-name="four" unicode="4" horiz-adv-x="588" 
d="M19 262l371 386h127l-90 -411h121l-19 -91h-121l-28 -146h-95l28 146h-318zM399 542l-292 -305h225z" />
    <glyph glyph-name="five" unicode="5" horiz-adv-x="535" 
d="M-5 191v5t1 5l95 18q-1 -5 -1 -8.5v-7.5q0 -25 7 -48.5t22.5 -42t39.5 -30t58 -11.5q28 0 54 9.5t46 28.5t32 47t12 64q0 54 -32 85.5t-87 31.5q-35 0 -60 -9.5t-45 -26.5l-88 56l139 291h347l-19 -90h-277l-78 -162q22 13 46 18.5t54 5.5q43 0 80 -12.5t63.5 -37
t41.5 -59.5t15 -80q0 -51 -18 -95.5t-51 -78t-78 -53t-99 -19.5q-50 0 -90.5 15t-69 42.5t-44.5 65.5t-16 83z" />
    <glyph glyph-name="six" unicode="6" horiz-adv-x="559" 
d="M526 554q-53 24 -115 24q-102 0 -170 -56.5t-94 -150.5q23 24 61.5 41t90.5 17q47 0 84.5 -14t64 -39t40.5 -60t14 -78q0 -60 -21.5 -107t-57.5 -79.5t-82.5 -49.5t-95.5 -17q-44 0 -83.5 15.5t-70 46t-48.5 75.5t-18 104q0 85 26 163.5t75.5 139.5t121 97.5t161.5 36.5
q41 0 82.5 -7t70.5 -25zM275 345q-32 0 -59 -11t-47 -30.5t-31 -47t-11 -59.5q0 -28 9.5 -51t26.5 -39.5t40 -26t50 -9.5q28 0 54.5 10t47.5 29.5t33.5 48t12.5 65.5q0 56 -33.5 88.5t-92.5 32.5z" />
    <glyph glyph-name="seven" unicode="7" horiz-adv-x="483" 
d="M518 554q-26 -18 -76 -58t-107.5 -107t-113.5 -163t-94 -226h-102q19 74 45.5 137.5t57.5 116.5t63.5 96t64.5 77q74 79 155 131h-365l19 90h473z" />
    <glyph glyph-name="eight" unicode="8" horiz-adv-x="556" 
d="M289 370q28 0 53 8.5t43 24t28.5 37.5t10.5 49q0 38 -27 66t-78 28q-66 0 -102.5 -33.5t-36.5 -86.5q0 -37 28.5 -65t80.5 -28zM104 167q0 -47 34.5 -74t91.5 -27q30 0 56 8.5t45.5 24.5t31 38.5t11.5 50.5q0 43 -30 73t-92 30q-32 0 -59 -8.5t-46.5 -25t-31 -39.5
t-11.5 -51zM472 187q0 -47 -19 -84t-53 -63.5t-79.5 -40.5t-98.5 -14q-55 0 -96 14t-68 38t-40 56t-13 67q0 62 41.5 110t119.5 65q-16 6 -30.5 19t-26 30.5t-18.5 37.5t-7 41q0 46 18.5 83t50.5 63t74.5 40t90.5 14q49 0 87 -13t64 -35t39 -51.5t13 -62.5q0 -61 -38 -108
t-108 -65q47 -16 72 -54.5t25 -86.5z" />
    <glyph glyph-name="nine" unicode="9" 
d="M147 429q0 -55 33.5 -88t90.5 -33q32 0 58.5 11t45 30.5t29 46t10.5 58.5q0 28 -9.5 51t-26 39t-39 24.5t-47.5 8.5q-27 0 -53 -9.5t-46.5 -28t-33 -46.5t-12.5 -64zM20 114q32 -23 68.5 -32t71.5 -9q51 0 93.5 16.5t74 46t51 70t24.5 89.5q-20 -29 -57.5 -50t-97.5 -21
q-41 0 -77 13.5t-64 38.5t-44 61.5t-16 81.5q0 57 21 102.5t56.5 77t81 48t94.5 16.5q46 0 86 -14.5t70 -44t47 -74.5t17 -107q0 -93 -23 -173t-68 -139t-112.5 -92.5t-156.5 -33.5q-48 0 -98 13t-82 40z" />
    <glyph glyph-name="colon" unicode=":" horiz-adv-x="290" 
d="M75 -5q-29 0 -47 18t-18 43q0 16 6 30t16.5 24.5t25 17t30.5 6.5q29 0 46.5 -18t17.5 -44q0 -33 -23 -55t-54 -22zM153 347q-29 0 -47 18t-18 43q0 16 6 30t16.5 24.5t25 17t30.5 6.5q29 0 46.5 -18t17.5 -44q0 -33 -23 -55t-54 -22z" />
    <glyph glyph-name="semicolon" unicode=";" horiz-adv-x="290" 
d="M3 55q0 31 22 52t54 21q31 0 52 -20.5t21 -58.5q0 -37 -14 -72t-39 -63t-60 -46t-76 -20l11 52q20 4 38 13t32.5 22.5t25 30.5t14.5 34q-8 -4 -22 -4q-25 0 -42 15.5t-17 43.5zM153 347q-29 0 -47 18t-18 43q0 16 6 30t16.5 24.5t25 17t30.5 6.5q29 0 46.5 -18t17.5 -44
q0 -33 -23 -55t-54 -22z" />
    <glyph glyph-name="less" unicode="&#x3c;" horiz-adv-x="492" 
d="M25 329l412 206v-95l-310 -153l310 -153v-95l-412 205v85z" />
    <glyph glyph-name="equal" unicode="=" horiz-adv-x="618" 
d="M65 423h463v-77h-463v77zM65 230h463v-79h-463v79z" />
    <glyph glyph-name="greater" unicode="&#x3e;" horiz-adv-x="492" 
d="M437 244l-412 -205v95l312 153l-312 153v95l412 -206v-85z" />
    <glyph glyph-name="question" unicode="?" horiz-adv-x="502" 
d="M157 203q5 60 34 109t86 82l51 30q78 46 78 117q0 37 -26.5 66t-80.5 29q-37 0 -64 -13t-45 -35t-26.5 -50.5t-8.5 -58.5l-95 13q2 51 20.5 93.5t50.5 73.5t77 48t101 17q48 0 85 -13.5t62 -36.5t38 -53.5t13 -64.5q0 -38 -11 -69t-30 -56t-45 -45.5t-55 -36.5l-54 -31
q-32 -19 -49.5 -50t-19.5 -65h-86zM118 53q0 29 20.5 51t51.5 22q27 0 43.5 -16.5t16.5 -41.5q0 -31 -21.5 -52t-49.5 -21q-27 0 -44 16.5t-17 41.5z" />
    <glyph glyph-name="at" unicode="@" horiz-adv-x="816" 
d="M435 -47q-88 0 -161.5 27.5t-126.5 77.5t-82.5 120t-29.5 155q0 87 31 159t84 123.5t123.5 80t149.5 28.5q76 0 141.5 -25t113.5 -68.5t75.5 -103.5t27.5 -130q0 -56 -15 -103.5t-41 -82.5t-60.5 -54.5t-73.5 -19.5q-35 0 -62 15t-36 47q-23 -32 -55.5 -48t-64.5 -16
q-34 0 -62 12t-48.5 34.5t-31.5 54t-11 70.5q0 50 16 93t43.5 74t63.5 48.5t77 17.5q15 0 31.5 -4t31.5 -11.5t26.5 -19t17.5 -27.5l9 49h79l-54 -251q-3 -15 -3 -28q0 -17 8.5 -29t29.5 -12t40.5 15.5t34.5 42t24 60.5t9 72q0 55 -20 101.5t-56.5 80.5t-88.5 53.5
t-115 19.5q-66 0 -122 -23t-97.5 -65t-64.5 -100.5t-23 -130.5q0 -66 21.5 -122t62.5 -97t100 -64t134 -23q55 0 107.5 17t97.5 53l41 -54q-22 -21 -51 -37.5t-61.5 -28t-67 -17.5t-66.5 -6zM505 370q0 45 -21.5 69.5t-62.5 24.5q-27 0 -49 -12.5t-37.5 -33.5t-24 -47.5
t-8.5 -54.5q0 -23 4 -42.5t14 -34t26.5 -23t40.5 -8.5q25 0 46.5 12t37 33.5t24.5 51.5t10 65z" />
    <glyph glyph-name="A" unicode="A" horiz-adv-x="654" 
d="M453 198h-297l-115 -198h-111l423 709h108l123 -709h-99zM209 289h229l-50 310z" />
    <glyph glyph-name="B" unicode="B" horiz-adv-x="603" 
d="M379 709q45 0 79.5 -12.5t58 -34t35 -51.5t11.5 -64q0 -32 -10 -62t-28.5 -55t-45 -43.5t-58.5 -27.5q45 -14 74 -52t29 -91q0 -46 -18 -85.5t-50 -68.5t-76.5 -45.5t-97.5 -16.5h-267l150 709h214zM312 399q34 0 62.5 10t48 28t30.5 42t11 53q0 42 -27.5 66.5
t-81.5 24.5h-110l-48 -224h115zM268 86q33 0 61.5 10t49.5 28t32.5 42.5t11.5 53.5q0 42 -26.5 68.5t-87.5 26.5h-130l-48 -229h137z" />
    <glyph glyph-name="C" unicode="C" horiz-adv-x="719" 
d="M417 724q63 0 112.5 -17.5t85 -48.5t58 -72t31.5 -87l-93 -27q-7 34 -23.5 63.5t-42 51.5t-60.5 34.5t-78 12.5q-65 0 -116 -27.5t-85.5 -73t-52.5 -104.5t-18 -122q0 -109 55.5 -171t153.5 -62q75 0 134 40t94 120l86 -35q-44 -100 -126 -157t-197 -57q-66 0 -121 23
t-94.5 65t-62 100t-22.5 128q0 104 33 183t87 132.5t122.5 80.5t139.5 27z" />
    <glyph glyph-name="D" unicode="D" horiz-adv-x="691" 
d="M276 87q49 0 99.5 21t90.5 63t65.5 104t25.5 145q0 100 -58.5 151t-158.5 51h-95l-114 -535h145zM15 0l150 709h193q68 0 123 -20t93.5 -57t59.5 -89.5t21 -116.5q0 -105 -33 -184.5t-86 -133.5t-121.5 -81t-138.5 -27h-261z" />
    <glyph glyph-name="E" unicode="E" horiz-adv-x="576" 
d="M15 0l150 709h426l-19 -91h-328l-46 -218h297l-20 -92h-297l-46 -217h328l-19 -91h-426z" />
    <glyph glyph-name="F" unicode="F" horiz-adv-x="561" 
d="M15 0l150 709h426l-19 -91h-328l-49 -228h297l-19 -92h-297l-63 -298h-98z" />
    <glyph glyph-name="G" unicode="G" horiz-adv-x="740" 
d="M408 634q-64 0 -115 -27t-86 -72t-54 -104t-19 -124q0 -54 14.5 -97t42 -73.5t66.5 -46.5t88 -16q38 0 75.5 12.5t69.5 36t55.5 58t34.5 78.5h-246l18 88h339l-73 -347h-76l8 80q-39 -45 -91.5 -70t-122.5 -25q-61 0 -115.5 21.5t-96 62.5t-65.5 99.5t-24 132.5
q0 104 33.5 183t87.5 132.5t122.5 80.5t139.5 27q63 0 112.5 -17.5t85 -48.5t58 -72t31.5 -87l-93 -27q-7 34 -23.5 63.5t-42 51.5t-60.5 34.5t-78 12.5z" />
    <glyph glyph-name="H" unicode="H" horiz-adv-x="708" 
d="M445 0l66 315h-332l-66 -315h-98l150 709h98l-64 -303h332l64 303h98l-150 -709h-98z" />
    <glyph glyph-name="I" unicode="I" horiz-adv-x="280" 
d="M15 0l150 709h100l-150 -709h-100z" />
    <glyph glyph-name="J" unicode="J" horiz-adv-x="544" 
d="M539 709l-110 -513q-10 -47 -28.5 -85.5t-46.5 -66.5t-65 -43t-83 -15q-48 0 -84.5 14.5t-61.5 40t-37.5 60.5t-12.5 76q0 30 8 67l5 23l100 15l-11 -52q-3 -12 -4 -24t-1 -23q0 -48 25 -78.5t77 -30.5q51 0 80 33t42 91l109 511h99z" />
    <glyph glyph-name="K" unicode="K" horiz-adv-x="662" 
d="M289 334l-130 -114l-46 -220h-98l150 709h98l-73 -344l392 344h135l-355 -312l214 -397h-111z" />
    <glyph glyph-name="L" unicode="L" horiz-adv-x="538" 
d="M15 0l150 709h98l-131 -617h325l-19 -92h-423z" />
    <glyph glyph-name="M" unicode="M" horiz-adv-x="926" 
d="M664 0l115 543l-345 -543h-74l-133 540l-115 -540h-97l150 709h115l140 -570l361 570h130l-150 -709h-97z" />
    <glyph glyph-name="N" unicode="N" horiz-adv-x="738" 
d="M471 0l-236 574l-122 -574h-98l150 709h117l225 -554l118 554h98l-150 -709h-102z" />
    <glyph glyph-name="O" unicode="O" horiz-adv-x="753" 
d="M35 294q0 106 33 186.5t86.5 134.5t121 81.5t136.5 27.5t125.5 -22t96.5 -62.5t62 -98t22 -127.5q0 -106 -33 -186.5t-86.5 -134.5t-120.5 -81t-136 -27t-126 22.5t-97 63t-62 97.5t-22 126zM618 404q0 55 -16 98t-44.5 72.5t-67 44.5t-84.5 15q-65 0 -115.5 -28t-85 -74
t-52.5 -105.5t-18 -122.5q0 -56 16 -98.5t44.5 -71.5t67 -44t84.5 -15q65 0 115.5 27.5t85 73.5t52.5 105.5t18 122.5z" />
    <glyph glyph-name="P" unicode="P" horiz-adv-x="588" 
d="M390 709q46 0 83 -13.5t62.5 -37.5t39 -57t13.5 -72q0 -54 -20.5 -97.5t-55.5 -74t-83 -47t-102 -16.5h-152l-62 -294h-98l150 709h225zM245 622l-52 -241h134q35 0 64.5 9.5t51.5 27.5t34 44.5t12 60.5q0 45 -29.5 72t-85.5 27h-129z" />
    <glyph glyph-name="Q" unicode="Q" horiz-adv-x="757" 
d="M35 294q0 106 33 186.5t86.5 134.5t121 81.5t136.5 27.5t125.5 -22t96.5 -62.5t62 -98t22 -127.5q0 -115 -37.5 -198t-97.5 -137l78 -105l-72 -49l-77 103q-83 -43 -170 -43q-69 0 -126 22.5t-97 63t-62 97.5t-22 126zM418 301l110 -148q44 47 67 113t23 138q0 55 -16 98
t-44.5 72.5t-67 44.5t-84.5 15q-65 0 -115.5 -28t-85 -74t-52.5 -105.5t-18 -122.5q0 -56 16 -98.5t44.5 -71.5t67 -44t84.5 -15q31 0 59 7t52 19l-112 151z" />
    <glyph glyph-name="R" unicode="R" horiz-adv-x="615" 
d="M301 294h-126l-62 -294h-98l150 709h230q46 0 82.5 -13.5t61.5 -37.5t38 -57t13 -72q0 -45 -14 -83t-39.5 -67.5t-60 -49t-76.5 -28.5l116 -301h-104zM332 381q70 0 114.5 37t44.5 105q0 45 -28 72t-84 27h-134l-52 -241h139z" />
    <glyph glyph-name="S" unicode="S" horiz-adv-x="581" 
d="M264 73q61 1 98.5 31t37.5 80q0 31 -17.5 58t-58.5 45l-94 42q-60 26 -94.5 71t-34.5 112q0 44 18 83t50 67.5t75.5 45t94.5 16.5q65 0 109.5 -20.5t71.5 -50.5t39 -65t12 -65l-93 -18q0 14 -5 36.5t-20.5 43.5t-44.5 36.5t-77 15.5q-27 0 -51 -8.5t-41.5 -23.5
t-27.5 -35.5t-10 -44.5q0 -35 17.5 -59.5t48.5 -38.5l97 -45q71 -33 104.5 -80.5t33.5 -106.5q0 -42 -17 -80t-48.5 -67t-75.5 -46t-97 -17q-69 0 -118.5 21.5t-80.5 55.5t-45.5 76t-14.5 83v6t1 9l99 17q-1 -7 -1 -12v-8q0 -30 9 -59t28.5 -51.5t49.5 -36t73 -13.5z" />
    <glyph glyph-name="T" unicode="T" horiz-adv-x="566" 
d="M392 619l-131 -619h-98l131 619h-229l19 90h547l-19 -90h-220z" />
    <glyph glyph-name="U" unicode="U" horiz-adv-x="666" 
d="M661 709l-104 -493q-23 -111 -94 -171t-175 -60q-106 0 -169 54.5t-63 156.5q0 17 1.5 35.5t6.5 38.5l93 439h94l-92 -451q-6 -29 -6 -54q0 -59 34 -93.5t106 -34.5q66 0 109 39t58 110l102 484h99z" />
    <glyph glyph-name="V" unicode="V" horiz-adv-x="608" 
d="M253 126l325 583h105l-406 -709h-97l-105 709h98z" />
    <glyph glyph-name="W" unicode="W" horiz-adv-x="952" 
d="M598 709l63 -561l252 561h99l-327 -709h-97l-63 575l-280 -575h-100l-55 709h95l39 -555l271 555h103z" />
    <glyph glyph-name="X" unicode="X" horiz-adv-x="627" 
d="M67 0h-122l311 356l-162 353h107l123 -275l235 275h123l-315 -361l161 -348h-108l-121 270z" />
    <glyph glyph-name="Y" unicode="Y" horiz-adv-x="611" 
d="M95 709h103l123 -311l228 311h117l-313 -410l-62 -299h-98l64 305z" />
    <glyph glyph-name="Z" unicode="Z" horiz-adv-x="614" 
d="M-30 0l20 96l510 523h-389l19 90h514l-20 -93l-512 -525h406l-19 -91h-529z" />
    <glyph glyph-name="bracketleft" unicode="[" horiz-adv-x="288" 
d="M-17 -148l198 933h193l-16 -75h-116l-166 -784h116l-16 -74h-193z" />
    <glyph glyph-name="backslash" unicode="\" horiz-adv-x="429" 
d="M65 724h86l213 -739h-86z" />
    <glyph glyph-name="bracketright" unicode="]" horiz-adv-x="288" 
d="M-101 -148l16 74h115l166 784h-116l16 75h193l-198 -933h-192z" />
    <glyph glyph-name="asciicircum" unicode="^" horiz-adv-x="556" 
d="M332 710l194 -356h-99l-136 258l-137 -258h-99l194 356h83z" />
    <glyph glyph-name="underscore" unicode="_" horiz-adv-x="532" 
d="M-60 0h512v-79h-512v79z" />
    <glyph glyph-name="grave" unicode="`" horiz-adv-x="208" 
d="M65 689h112l56 -146h-74z" />
    <glyph glyph-name="a" unicode="a" horiz-adv-x="567" 
d="M266 414q-39 0 -69.5 -19.5t-50.5 -50t-30.5 -68.5t-10.5 -74q0 -57 28 -94t86 -37q34 0 63.5 17t50.5 46t33 69t12 87q0 52 -27 88t-85 36zM517 481l-75 -356q-8 -38 -9.5 -66t-1.5 -43v-6t1 -10h-89q-2 10 -2 28v13.5t2 19.5q-25 -30 -61.5 -50.5t-81.5 -20.5
q-47 0 -82.5 16.5t-59.5 45t-36 67t-12 82.5q0 58 18.5 111.5t51.5 94t79 64.5t102 24q61 0 97.5 -23t52.5 -52l13 61h93z" />
    <glyph glyph-name="b" unicode="b" horiz-adv-x="564" 
d="M-10 0l153 724h93l-60 -283q26 27 63.5 40.5t81.5 13.5q47 0 82 -16.5t58.5 -45t35 -66t11.5 -80.5q0 -63 -18.5 -118t-52.5 -95.5t-81 -63.5t-104 -23q-53 0 -94 25t-58 67l-17 -79h-93zM286 412q-31 0 -59.5 -14.5t-50 -41.5t-34.5 -65.5t-13 -85.5q0 -57 30.5 -94.5
t86.5 -39.5q32 0 62 13.5t53 39.5t37 64.5t14 88.5q0 64 -33 99.5t-93 35.5z" />
    <glyph glyph-name="c" unicode="c" horiz-adv-x="498" 
d="M381 314q-5 19 -14 37t-23.5 31.5t-34.5 21.5t-47 8q-31 0 -60 -13t-51.5 -38.5t-36.5 -63.5t-14 -89q0 -64 35.5 -101.5t95.5 -37.5q28 0 49 8t37.5 21t28 29t19.5 33l80 -35q-14 -27 -34 -52.5t-47 -45t-61 -31t-76 -11.5q-52 0 -93 17t-69.5 47t-44 70.5t-15.5 87.5
q0 64 20.5 117t56.5 91.5t84 59.5t102 21q49 0 84 -14t58.5 -36.5t37.5 -49.5t20 -52z" />
    <glyph glyph-name="d" unicode="d" horiz-adv-x="567" 
d="M266 414q-39 0 -69.5 -19.5t-50.5 -50t-30.5 -68.5t-10.5 -74q0 -57 28 -94t86 -37q34 0 63.5 17t50.5 46t33 69t12 87q0 52 -27 88t-85 36zM343 61q-23 -30 -60.5 -50.5t-82.5 -20.5q-47 0 -82.5 16.5t-59.5 45t-36 67t-12 82.5q0 58 18.5 111.5t51.5 94t79 64.5t102 24
q61 0 97.5 -23t52.5 -52l64 304h93l-126 -599q-8 -38 -9.5 -66t-1.5 -43v-6t1 -10h-89q-2 10 -2 28v12.5t2 20.5z" />
    <glyph glyph-name="e" unicode="e" horiz-adv-x="528" 
d="M374 290q2 8 2 20q0 18 -5.5 36.5t-18 33t-33 24t-50.5 9.5t-55 -10.5t-44.5 -27.5t-32.5 -39t-19 -46h256zM105 214q-1 -5 -1 -8.5v-8.5q0 -30 9.5 -53.5t26 -40.5t39 -26t47.5 -9q28 0 50.5 7t40 18.5t30.5 25.5t21 29l71 -46q-13 -24 -33.5 -45t-47.5 -37t-60 -25.5
t-70 -9.5q-45 0 -84.5 14t-69 41.5t-47 68.5t-17.5 95q0 68 22.5 122.5t59.5 92t84.5 57.5t97.5 20q49 0 86 -14.5t62 -40t38 -61t13 -78.5q0 -29 -5 -52.5t-9 -35.5h-354z" />
    <glyph glyph-name="f" unicode="f" horiz-adv-x="332" 
d="M331 643q-30 0 -52 -16t-32 -61l-18 -85h109l-18 -83h-109l-84 -398h-97l84 398h-81l18 83h81l21 100q10 49 30 78t44 44.5t50 20.5t48 5q29 0 45.5 -6t18.5 -8l-18 -80q-4 2 -14.5 5t-25.5 3z" />
    <glyph glyph-name="g" unicode="g" horiz-adv-x="565" 
d="M378 293q0 20 -6.5 41t-21 37.5t-37 27t-53.5 10.5q-32 0 -60 -12t-48.5 -35t-32.5 -56t-12 -75q0 -27 7 -50.5t22 -41t37.5 -27.5t52.5 -10q69 0 110.5 51t41.5 140zM42 -8v-7q0 -22 7 -41.5t21.5 -34.5t36 -23.5t51.5 -8.5q70 0 111 43t58 123l8 39q-16 -24 -49 -41.5
t-79 -17.5q-47 0 -83 15.5t-61 43t-38 64.5t-13 79q0 56 18 104.5t50.5 84.5t77.5 56.5t99 20.5q51 0 90 -19.5t59 -54.5l13 64h96l-90 -435q-10 -46 -28.5 -91t-50 -80.5t-78.5 -57.5t-114 -22q-50 0 -87.5 15t-63 39.5t-38 56.5t-12.5 65z" />
    <glyph glyph-name="h" unicode="h" horiz-adv-x="555" 
d="M315 0l62 291q4 17 4 37q0 40 -22 62t-66 22q-29 0 -51.5 -11.5t-39 -30t-27.5 -42.5t-16 -48l-60 -280h-94l154 724h94l-60 -283q26 29 61 41.5t77 12.5q67 0 107.5 -39t40.5 -105q0 -11 -1.5 -22.5t-3.5 -23.5l-65 -305h-94z" />
    <glyph glyph-name="i" unicode="i" horiz-adv-x="257" 
d="M125 659q0 16 6.5 29.5t17 23.5t23.5 15.5t27 5.5q27 0 44 -17.5t17 -42.5q0 -15 -6.5 -28.5t-17 -23.5t-24 -16t-26.5 -6q-27 0 -44 17.5t-17 42.5zM5 0l103 481h94l-103 -481h-94z" />
    <glyph glyph-name="j" unicode="j" horiz-adv-x="256" 
d="M108 481h93l-119 -560q-13 -60 -51.5 -93t-93.5 -33q-27 0 -45 5.5t-23 8.5l16 75q2 -1 12.5 -3.5t24.5 -2.5q32 0 47 15.5t23 49.5zM125 659q0 16 6.5 29.5t17 23.5t23.5 15.5t27 5.5q27 0 44 -17.5t17 -42.5q0 -15 -6.5 -28.5t-17 -23.5t-24 -16t-26.5 -6
q-27 0 -44 17.5t-17 42.5z" />
    <glyph glyph-name="k" unicode="k" horiz-adv-x="527" 
d="M227 228l-98 -80l-31 -148h-93l154 724h93l-94 -440l239 197h140l-238 -194l142 -287h-105z" />
    <glyph glyph-name="l" unicode="l" horiz-adv-x="255" 
d="M5 0l154 724h94l-154 -724h-94z" />
    <glyph glyph-name="m" unicode="m" horiz-adv-x="828" 
d="M296 0l64 302q2 8 3 16t1 16q0 34 -19.5 56.5t-63.5 22.5q-51 0 -80.5 -34.5t-40.5 -88.5l-62 -290h-93l84 396q7 30 9.5 55t2.5 30h92q0 -2 -1 -17t-4 -33q26 32 59 48t80 16q44 0 75 -21t45 -56q37 47 79.5 62t85.5 15q28 0 53.5 -9t44.5 -26.5t30.5 -43t11.5 -59.5
q0 -11 -1.5 -22t-3.5 -23l-67 -312h-93l64 302q2 8 3 16.5t1 16.5q0 32 -19.5 55t-63.5 23q-50 0 -79.5 -35t-40.5 -87l-62 -291h-94z" />
    <glyph glyph-name="n" unicode="n" horiz-adv-x="555" 
d="M315 0l62 291q2 8 3 17t1 20q0 40 -22 62t-66 22q-29 0 -51.5 -11.5t-39 -30t-27.5 -42.5t-16 -48l-60 -280h-94l84 396q8 34 10 58.5t2 26.5h92q0 -3 -1.5 -19.5t-4.5 -33.5q28 38 66.5 52.5t82.5 14.5q63 0 103 -39t40 -105q0 -11 -1.5 -22.5t-3.5 -23.5l-65 -305h-94z
" />
    <glyph glyph-name="o" unicode="o" horiz-adv-x="541" 
d="M267 412q-31 0 -60 -13.5t-51.5 -39t-36 -63.5t-13.5 -87q0 -64 33 -102t89 -38q31 0 60.5 13.5t52 39.5t36 64t13.5 87q0 63 -32.5 101t-90.5 38zM486 275q0 -61 -20 -114t-55 -92t-83 -61.5t-104 -22.5q-51 0 -91 17.5t-67 48t-41.5 71t-14.5 85.5q0 62 20 115t55 91.5
t83.5 60.5t104.5 22q52 0 92 -17.5t67 -47.5t40.5 -70.5t13.5 -85.5z" />
    <glyph glyph-name="p" unicode="p" horiz-adv-x="565" 
d="M291 409q-31 0 -59.5 -13.5t-51 -39.5t-36 -64t-13.5 -87q0 -64 32 -99t88 -35q30 0 59.5 14t52 40t36.5 64.5t14 87.5q0 64 -31.5 98t-90.5 34zM173 426q27 34 67.5 51t85.5 17q47 0 81.5 -16t57 -44t33.5 -65.5t11 -80.5q0 -64 -18 -119t-51 -95.5t-79.5 -63.5
t-103.5 -23q-50 0 -93.5 23t-64.5 64l-56 -264h-93l125 586q7 32 9.5 55.5t2.5 29.5h92q0 -5 -1 -21t-5 -34z" />
    <glyph glyph-name="q" unicode="q" horiz-adv-x="565" 
d="M373 -190h-93l50 236q-25 -26 -58 -41t-72 -15q-47 0 -83.5 17t-61 45.5t-37.5 67t-13 81.5q0 58 18.5 111.5t51.5 93.5t79.5 64t102.5 24q60 0 98 -22t55 -50l12 59h93zM262 412q-39 0 -69.5 -19t-51 -49t-31 -67.5t-10.5 -74.5q0 -56 30 -93.5t91 -37.5q34 0 63 16.5
t50 45.5t32.5 68t11.5 84q0 55 -27.5 91t-88.5 36z" />
    <glyph glyph-name="r" unicode="r" horiz-adv-x="364" 
d="M347 384q-18 3 -34 3q-58 0 -103 -37.5t-63 -121.5l-49 -228h-93l84 396q7 33 9.5 56.5t2.5 28.5h92q0 -16 -2.5 -39t-6.5 -36q15 24 34 40t40 25.5t42.5 13.5t41.5 4q7 0 14.5 -0.5t12.5 -1.5z" />
    <glyph glyph-name="s" unicode="s" horiz-adv-x="441" 
d="M73 169q1 -43 28.5 -73.5t76.5 -30.5q40 0 58.5 20t18.5 44q0 36 -45 57l-70 32q-42 19 -64 49.5t-22 72.5q0 30 12 58.5t34.5 50t55.5 34.5t74 13q47 0 79 -14.5t52 -36t29 -45.5t11 -43l-84 -23q-2 14 -7.5 28.5t-16.5 26.5t-28.5 20t-43.5 8q-36 0 -56 -19t-20 -44
q0 -20 10 -33t28 -21l66 -30q48 -22 74 -56.5t26 -77.5q0 -23 -9.5 -49.5t-30.5 -49t-54.5 -37.5t-81.5 -15q-50 0 -84.5 16t-56.5 40.5t-32 53.5t-10 55z" />
    <glyph glyph-name="t" unicode="t" horiz-adv-x="337" 
d="M59 101q0 20 4 37l55 258h-88l18 85h14q43 0 67 21t32 57l16 74h86l-33 -152h97l-18 -85h-97l-53 -253q-3 -14 -3 -23q0 -43 54 -43q8 0 17 0.5t15 1.5l-16 -77q-4 -2 -16.5 -4.5t-34.5 -2.5q-53 0 -84.5 27.5t-31.5 78.5z" />
    <glyph glyph-name="u" unicode="u" horiz-adv-x="544" 
d="M318 56q-24 -34 -60.5 -50t-70.5 -16q-75 0 -115 42.5t-40 112.5q0 26 6 55l60 281h94l-59 -279q-2 -12 -3.5 -23.5t-1.5 -22.5q0 -37 19 -61.5t66 -24.5q27 0 48.5 10.5t37.5 28.5t27 41.5t16 49.5l59 281h93l-75 -356q-8 -38 -9.5 -66t-1.5 -43v-6t1 -10h-90
q-2 10 -2 28v11t1 17z" />
    <glyph glyph-name="v" unicode="v" horiz-adv-x="482" 
d="M212 0h-91l-86 481h97l53 -368l206 368h106z" />
    <glyph glyph-name="w" unicode="w" horiz-adv-x="768" 
d="M448 481l46 -359l181 359h103l-255 -481h-97l-48 364l-190 -364h-99l-49 481h90l31 -358l188 358h99z" />
    <glyph glyph-name="x" unicode="x" horiz-adv-x="495" 
d="M56 0h-121l235 246l-126 235h103q21 -42 42.5 -83.5t43.5 -83.5l152 167h120l-227 -238q33 -61 65 -121.5t66 -121.5h-103l-91 174z" />
    <glyph glyph-name="y" unicode="y" horiz-adv-x="504" 
d="M-30 -190l181 273l-118 398h102l85 -302l188 302h111l-441 -671h-108z" />
    <glyph glyph-name="z" unicode="z" horiz-adv-x="473" 
d="M-30 0l18 84l327 312h-252l18 85h372l-18 -85l-327 -311h269l-18 -85h-389z" />
    <glyph glyph-name="braceleft" unicode="{" horiz-adv-x="353" 
d="M46 361q22 0 43 5t38.5 17t30.5 31t19 47l29 138q10 51 27 86.5t42 57.5t59.5 32t81.5 10h23l-16 -75h-14q-30 0 -51.5 -6.5t-35.5 -19.5t-23 -33t-14 -46l-35 -165q-11 -51 -43.5 -83t-85.5 -39q34 -8 56 -33.5t22 -66.5q0 -15 -3 -31l-31 -146q-3 -12 -4 -23t-1 -20
q0 -36 20 -54t65 -18h13l-16 -74h-14q-76 0 -112 32t-36 93q0 29 7 60l30 138q3 15 3 28q0 21 -8 34.5t-21 22t-29.5 11.5t-33.5 3z" />
    <glyph glyph-name="bar" unicode="|" horiz-adv-x="262" 
d="M-17 -148l198 933h82l-198 -933h-82z" />
    <glyph glyph-name="braceright" unicode="}" horiz-adv-x="354" 
d="M292 273q-20 0 -40.5 -4t-38.5 -15t-32 -30t-20 -49l-30 -138q-20 -94 -72.5 -139.5t-145.5 -45.5h-14l16 74h12q57 0 87 32.5t41 82.5l35 164q10 47 44 76t85 40q-38 8 -60 33t-22 60q0 12 3 26l35 165q6 27 6 46q0 31 -18 45t-63 14h-19l16 75h23q68 0 105 -27.5
t37 -88.5q0 -28 -7 -57l-34 -151q-2 -8 -3 -15t-1 -13q0 -40 27.5 -56.5t65.5 -16.5z" />
    <glyph glyph-name="asciitilde" unicode="~" horiz-adv-x="640" 
d="M555 305q-28 -46 -66.5 -69.5t-83.5 -23.5q-48 0 -97 27l-46 25q-29 15 -54 15q-28 0 -52 -15.5t-44 -41.5l-57 46q28 46 67 70.5t85 24.5q23 0 47 -6t48 -20l46 -25q28 -16 57 -16q28 0 52 14.5t41 40.5z" />
    <glyph glyph-name="uni00A0" unicode="&#xa0;" horiz-adv-x="261" 
 />
    <glyph glyph-name="exclamdown" unicode="&#xa1;" horiz-adv-x="254" 
d="M75 -218h-120l132 506h67zM214 438q0 -29 -20.5 -51t-51.5 -22q-27 0 -43.5 16.5t-16.5 41.5q0 31 21.5 52t49.5 21q27 0 44 -16.5t17 -41.5z" />
    <glyph glyph-name="cent" unicode="&#xa2;" horiz-adv-x="554" 
d="M189 92q-34 10 -60.5 29.5t-45 45.5t-28.5 58t-10 68q0 59 19 108.5t52.5 85.5t78 57t95.5 23l17 81h76l-19 -88q31 -8 54.5 -23t39.5 -34t26 -40t15 -40l-86 -29q-6 26 -21.5 48.5t-44.5 33.5l-66 -311q48 5 74.5 29.5t42.5 53.5l78 -33q-14 -26 -33.5 -50t-45.5 -42.5
t-59.5 -29.5t-74.5 -11l-17 -82h-76zM138 294q0 -44 18.5 -74t50.5 -44l65 307q-27 -5 -51.5 -18.5t-42.5 -37t-29 -57t-11 -76.5z" />
    <glyph glyph-name="sterling" unicode="&#xa3;" horiz-adv-x="597" 
d="M82 359h74q-5 24 -8 45t-3 43q0 45 15 84.5t43 68.5t66.5 46t86.5 17q84 0 132 -42t48 -117q0 -10 -1 -19t-3 -14l-93 -14q3 16 3 32q0 35 -22.5 61.5t-67.5 26.5q-49 0 -80 -31.5t-31 -92.5q0 -23 4 -46.5t9 -47.5h193l-18 -86h-167q-3 -61 -38 -110.5t-96 -75.5h210
q51 0 81 32.5t38 77.5l88 -18q-15 -85 -70 -132t-133 -47h-342l20 104q73 21 108 68t38 101h-102z" />
    <glyph glyph-name="currency" unicode="&#xa4;" horiz-adv-x="579" 
d="M73 239q0 34 10 64t27 56l-75 78l60 59l75 -78q26 17 55 26t61 9q60 0 111 -31l72 74l60 -59l-70 -73q19 -26 30 -58t11 -67t-10 -66t-29 -57l68 -71l-59 -59l-70 72q-25 -16 -54 -24.5t-60 -8.5q-33 0 -63 10t-56 27l-73 -76l-59 59l73 76q-17 26 -26 55.5t-9 62.5z
M156 239q0 -29 10 -53.5t28 -42t41.5 -27t50.5 -9.5t50.5 9.5t40.5 27t27 42t10 53.5t-10 53t-27 41.5t-40.5 27t-50.5 9.5t-50.5 -9.5t-41.5 -27t-28 -41.5t-10 -53z" />
    <glyph glyph-name="yen" unicode="&#xa5;" horiz-adv-x="583" 
d="M88 377h122l-106 271h110l92 -262l194 262h113l-213 -271h122l-15 -71h-169l-17 -80h169l-16 -72h-168l-32 -154h-97l32 154h-169l16 72h168l17 80h-168z" />
    <glyph glyph-name="brokenbar" unicode="&#xa6;" horiz-adv-x="262" 
d="M97 386l84 399h82l-84 -399h-82zM-17 -148l85 399h82l-85 -399h-82z" />
    <glyph glyph-name="section" unicode="&#xa7;" horiz-adv-x="567" 
d="M96 0q-5 -23 -5 -39q0 -43 24.5 -70.5t77.5 -27.5q21 0 41 6.5t35.5 20t25 32.5t9.5 45q0 45 -41 75l-91 65q-21 15 -40 31t-33.5 35t-23 40.5t-8.5 47.5q0 31 11.5 55.5t29 42.5t37.5 29.5t37 17.5q-31 25 -46.5 58t-15.5 69q0 44 18.5 79.5t48.5 60t69 38t80 13.5
q47 0 82 -13t58 -35t34.5 -51.5t11.5 -62.5q0 -23 -4 -43l-93 -9q5 23 5 40q0 42 -24.5 69t-75.5 27q-22 0 -42.5 -7t-36.5 -20.5t-25.5 -32.5t-9.5 -43q0 -44 43 -75l90 -65q21 -15 40 -30.5t33.5 -33.5t23.5 -39t9 -47q0 -31 -11 -56t-28 -44.5t-37 -32t-38 -17.5
q29 -25 45 -58.5t16 -67.5q0 -45 -18.5 -81t-49 -60.5t-69.5 -37.5t-80 -13q-46 0 -80.5 13t-58 35t-35 51.5t-11.5 62.5q0 11 1 22t3 23zM229 371q-11 -3 -23.5 -11t-22.5 -20.5t-16.5 -28t-6.5 -33.5q0 -21 10.5 -39.5t34.5 -35.5l87 -64q11 3 23 11t22.5 20t17.5 27.5
t7 33.5q0 41 -46 76z" />
    <glyph glyph-name="dieresis" unicode="&#xa8;" horiz-adv-x="352" 
d="M65 614q0 26 19 45.5t45 19.5q24 0 38.5 -16t14.5 -37q0 -28 -20.5 -45.5t-45.5 -17.5q-22 0 -36.5 15t-14.5 36zM260 614q0 26 19 45.5t45 19.5q24 0 38.5 -16t14.5 -37q0 -28 -20.5 -45.5t-45.5 -17.5q-22 0 -36.5 15t-14.5 36z" />
    <glyph glyph-name="copyright" unicode="&#xa9;" horiz-adv-x="826" 
d="M40 355q0 76 28.5 143t78 117.5t115.5 79.5t142 29t143 -29t116.5 -79.5t78.5 -117.5t29 -143t-29 -143.5t-78.5 -117.5t-116.5 -79.5t-143 -29.5t-142 29.5t-115.5 79.5t-78 117.5t-28.5 143.5zM118 355q0 -63 22 -117.5t61 -94t91 -62.5t112 -23t112 23t91 62.5t61 94
t22 117.5t-22 117t-61 94t-91 62.5t-112 22.5t-112 -22.5t-91 -62.5t-61 -94t-22 -117zM522 416q-8 32 -31 56.5t-67 24.5q-25 0 -49 -10.5t-42.5 -31.5t-30 -52t-11.5 -73q0 -53 29.5 -83.5t78.5 -30.5q22 0 39.5 6.5t31 17t23 23.5t16.5 27l65 -29q-11 -22 -27.5 -42.5
t-38.5 -36.5t-50.5 -25.5t-62.5 -9.5q-42 0 -76 14t-57.5 38t-36 57.5t-12.5 72.5q0 52 17 96t46.5 75t68.5 48.5t84 17.5q40 0 68.5 -11.5t48 -30t31 -40.5t16.5 -43z" />
    <glyph glyph-name="ordfeminine" unicode="&#xaa;" horiz-adv-x="463" 
d="M242 592q-26 0 -45.5 -12.5t-33 -32.5t-20.5 -45t-7 -49q0 -38 19 -62t57 -24q45 0 74.5 40t29.5 103q0 35 -18 58.5t-56 23.5zM422 648l-53 -256q-3 -14 -5 -30t-2 -31v-22h-70q-1 5 -1 11v10v8t1 14q-16 -20 -40.5 -35t-56.5 -15q-33 0 -58 12t-42 32t-25.5 47.5
t-8.5 58.5q0 42 13 79.5t36.5 65.5t55.5 44.5t71 16.5q45 0 69 -17t35 -35l8 42h73z" />
    <glyph glyph-name="guillemotleft" unicode="&#xab;" horiz-adv-x="477" 
d="M113 99l-98 194l171 188h103l-176 -197l93 -185h-93zM306 99l-98 194l171 188h103l-176 -197l93 -185h-93z" />
    <glyph glyph-name="logicalnot" unicode="&#xac;" horiz-adv-x="618" 
d="M439 149v195h-379v82h463v-277h-84z" />
    <glyph glyph-name="uni00AD" unicode="&#xad;" horiz-adv-x="358" 
d="M20 246l17 82h271l-17 -82h-271z" />
    <glyph glyph-name="registered" unicode="&#xae;" horiz-adv-x="826" 
d="M40 355q0 76 28.5 143t78 117.5t115.5 79.5t142 29t143 -29t116.5 -79.5t78.5 -117.5t29 -143t-29 -143.5t-78.5 -117.5t-116.5 -79.5t-143 -29.5t-142 29.5t-115.5 79.5t-78 117.5t-28.5 143.5zM118 355q0 -63 22 -117.5t61 -94t91 -62.5t112 -23t112 23t91 62.5t61 94
t22 117.5t-22 117t-61 94t-91 62.5t-112 22.5t-112 -22.5t-91 -62.5t-61 -94t-22 -117zM421 367q40 0 64.5 19t24.5 57q0 51 -63 51h-50l-29 -127h53zM398 306h-42l-31 -149h-73l85 401h132q26 0 47.5 -9.5t36.5 -25t23 -35.5t8 -42q0 -54 -33 -89.5t-85 -44.5l65 -155h-74z
" />
    <glyph glyph-name="macron" unicode="&#xaf;" horiz-adv-x="330" 
d="M65 577l17 81h273l-17 -81h-273z" />
    <glyph glyph-name="degree" unicode="&#xb0;" horiz-adv-x="399" 
d="M206 426q33 0 59 24.5t26 66.5q0 30 -19 48.5t-51 18.5q-16 0 -31 -6.5t-26.5 -18.5t-18.5 -28.5t-7 -35.5q0 -30 18 -49.5t50 -19.5zM198 348q-31 0 -57.5 11t-45.5 30t-29.5 44.5t-10.5 55.5q0 35 14 66.5t37.5 55.5t55.5 38t68 14q31 0 57 -11t45.5 -30.5t30.5 -45.5
t11 -56q0 -37 -15 -68.5t-40 -54.5t-56.5 -36t-64.5 -13z" />
    <glyph glyph-name="plusminus" unicode="&#xb1;" horiz-adv-x="592" 
d="M324 175h-82v134h-177v77h177v136h82v-136h178v-77h-178v-134zM65 130h437v-79h-437v79z" />
    <glyph glyph-name="twosuperior" unicode="&#xb2;" horiz-adv-x="381" 
d="M233 538q57 25 57 65q0 17 -12.5 32.5t-38.5 15.5q-29 0 -47.5 -18.5t-18.5 -58.5h-75q0 69 40 105t103 36q31 0 55 -9t40 -24t24 -34.5t8 -40.5q0 -44 -26 -75t-70 -50l-76 -33q-19 -8 -28 -18.5t-14 -21.5h184l-14 -65h-274q6 59 35 100t85 66z" />
    <glyph glyph-name="threesuperior" unicode="&#xb3;" horiz-adv-x="425" 
d="M172 575l114 69h-160l14 65h260l-14 -74l-114 -67q36 -7 60.5 -34.5t24.5 -64.5q0 -26 -10 -49.5t-28.5 -42t-46 -29.5t-62.5 -11q-27 0 -51.5 8t-43 22.5t-29.5 36t-11 48.5q0 9 2 19l69 5q-1 -4 -1 -11q0 -25 17.5 -43.5t46.5 -18.5q30 0 51 16t21 48q0 25 -18 38.5
t-41 13.5q-14 0 -24 -4z" />
    <glyph glyph-name="acute" unicode="&#xb4;" horiz-adv-x="279" 
d="M149 543h-84l115 146h124z" />
    <glyph glyph-name="mu" unicode="&#xb5;" horiz-adv-x="577" 
d="M65 481h95v-289q0 -25 6 -47.5t19 -39.5t33.5 -27t50.5 -10q57 0 85.5 34t28.5 89v290h94v-392q0 -35 2 -59t3 -30h-90q-2 8 -3 25.5t-1 32.5q-20 -38 -60 -55.5t-82 -17.5q-49 0 -87 20v-195h-94v671z" />
    <glyph glyph-name="paragraph" unicode="&#xb6;" horiz-adv-x="626" 
d="M205 -201h-83l111 522h-9q-35 0 -65 12t-52 33.5t-34.5 50.5t-12.5 63q0 55 23.5 98t61.5 72t87 44t99 15h340l-17 -81h-97l-176 -829h-83l176 829h-93z" />
    <glyph glyph-name="periodcentered" unicode="&#xb7;" horiz-adv-x="272" 
d="M55 276q0 16 6 30t16.5 24.5t25 17t30.5 6.5q29 0 46.5 -18t17.5 -44q0 -33 -23 -55t-54 -22q-29 0 -47 18t-18 43z" />
    <glyph glyph-name="cedilla" unicode="&#xb8;" horiz-adv-x="294" 
d="M154 14l-79 -66q34 -5 51 -25.5t17 -46.5q0 -39 -32 -65.5t-83 -26.5q-26 0 -47 7t-37 17.5t-26 23t-14 23.5l52 32q2 -5 7 -13.5t13.5 -16t21 -13t29.5 -5.5t31.5 8.5t14.5 26.5q0 15 -11.5 24t-31.5 9h-6t-8 -1l-22 42l76 66h84z" />
    <glyph glyph-name="onesuperior" unicode="&#xb9;" horiz-adv-x="290" 
d="M99 344l56 250h-80l10 51q37 2 64 19.5t38 44.5h68l-79 -365h-77z" />
    <glyph glyph-name="ordmasculine" unicode="&#xba;" horiz-adv-x="455" 
d="M243 591q-21 0 -40 -9t-34 -26.5t-23.5 -42t-8.5 -55.5q0 -43 22 -67.5t58 -24.5q20 0 39.5 8.5t34.5 25.5t24 42t9 58q0 42 -21.5 66.5t-59.5 24.5zM400 502q0 -42 -14 -79t-39 -64.5t-59 -43.5t-74 -16q-36 0 -64.5 12.5t-48 33.5t-30 49.5t-10.5 60.5q0 44 14.5 81.5
t39.5 64.5t59.5 42.5t73.5 15.5q37 0 65 -12.5t47.5 -34t29.5 -50t10 -60.5z" />
    <glyph glyph-name="guillemotright" unicode="&#xbb;" horiz-adv-x="492" 
d="M141 481l98 -194l-171 -188h-103l176 197l-93 185h93zM349 481l98 -194l-171 -188h-103l176 197l-93 185h93z" />
    <glyph glyph-name="onequarter" unicode="&#xbc;" horiz-adv-x="796" 
d="M385 162l206 204h88l-48 -224h65l-14 -65h-64q-1 -4 -2.5 -11.5l-4.5 -22.5t-9 -42h-76l16 76h-173zM586 279l-138 -137h107zM113 283l56 250h-80l10 51q37 2 64 19.5t38 44.5h68l-79 -365h-77zM112 0h-97l606 648h95z" />
    <glyph glyph-name="onehalf" unicode="&#xbd;" horiz-adv-x="815" 
d="M112 0h-97l606 648h95zM113 283l56 250h-80l10 51q37 2 64 19.5t38 44.5h68l-79 -365h-77zM610 195q57 25 57 65q0 17 -12.5 32.5t-38.5 15.5q-29 0 -47.5 -18.5t-18.5 -58.5h-75q0 69 40 105t103 36q31 0 55 -9t40 -24t24 -34.5t8 -40.5q0 -44 -26 -75t-70 -50l-76 -33
q-19 -8 -28 -18.5t-14 -21.5h184l-14 -65h-274q6 59 35 100t85 66z" />
    <glyph glyph-name="threequarters" unicode="&#xbe;" horiz-adv-x="884" 
d="M473 162l206 204h88l-48 -224h65l-14 -65h-64q-1 -4 -2.5 -11.5l-4.5 -22.5t-9 -42h-76l16 76h-173zM674 279l-138 -137h107zM200 0h-97l606 648h95zM153 514l114 69h-160l14 65h260l-14 -74l-114 -67q36 -7 60.5 -34.5t24.5 -64.5q0 -26 -10 -49.5t-28.5 -42t-46 -29.5
t-62.5 -11q-27 0 -51.5 8t-43 22.5t-29.5 36t-11 48.5q0 9 2 19l69 5q-1 -4 -1 -11q0 -25 17.5 -43.5t46.5 -18.5q30 0 51 16t21 48q0 25 -18 38.5t-41 13.5q-14 0 -24 -4z" />
    <glyph glyph-name="questiondown" unicode="&#xbf;" horiz-adv-x="457" 
d="M287 288q-5 -60 -32.5 -108t-87.5 -83l-51 -30q-75 -44 -75 -117q0 -18 6 -35.5t19 -30.5t33.5 -21t48.5 -8q37 0 64 13t45 35t26.5 50.5t8.5 58.5l95 -13q-2 -51 -20.5 -93.5t-50.5 -73.5t-77.5 -48t-100.5 -17q-48 0 -85 14t-62 37t-38 53.5t-13 63.5q0 38 10.5 69
t29 56t44 45t54.5 37l54 31q35 20 51 50.5t18 64.5h86zM326 438q0 -29 -20.5 -51t-51.5 -22q-27 0 -43.5 16.5t-16.5 41.5q0 31 21.5 52t49.5 21q27 0 44 -16.5t17 -41.5z" />
    <glyph glyph-name="Agrave" unicode="&#xc0;" horiz-adv-x="654" 
d="M453 198h-297l-115 -198h-111l423 709h108l123 -709h-99zM209 289h229l-50 310zM266 878h118l75 -119h-86z" />
    <glyph glyph-name="Aacute" unicode="&#xc1;" horiz-adv-x="654" 
d="M453 198h-297l-115 -198h-111l423 709h108l123 -709h-99zM209 289h229l-50 310zM463 759h-97l119 119h131z" />
    <glyph glyph-name="Acircumflex" unicode="&#xc2;" horiz-adv-x="654" 
d="M453 198h-297l-115 -198h-111l423 709h108l123 -709h-99zM209 289h229l-50 310zM236 759l135 119h120l90 -119h-83l-74 64l-101 -64h-87z" />
    <glyph glyph-name="Atilde" unicode="&#xc3;" horiz-adv-x="654" 
d="M453 198h-297l-115 -198h-111l423 709h108l123 -709h-99zM209 289h229l-50 310zM586 881q-12 -71 -42 -98.5t-71 -27.5q-21 0 -39 7.5t-31 16.5l-12 8q-9 6 -18 10t-20 4q-14 0 -24 -10t-15 -34h-70q4 34 14.5 58t25.5 39t34 22t40 7t39 -7.5t31 -16.5l12 -8q9 -6 18 -10
t20 -4q14 0 24 10t15 34h69z" />
    <glyph glyph-name="Adieresis" unicode="&#xc4;" horiz-adv-x="654" 
d="M215 813q0 29 19 47t47 18q23 0 37.5 -15t14.5 -37q0 -29 -19.5 -47.5t-45.5 -18.5q-23 0 -38 15t-15 38zM503 813q0 29 19 47t47 18q23 0 37.5 -15t14.5 -37q0 -29 -19.5 -47.5t-45.5 -18.5q-23 0 -38 15t-15 38zM453 198h-297l-115 -198h-111l423 709h108l123 -709h-99
zM209 289h229l-50 310z" />
    <glyph glyph-name="Aring" unicode="&#xc5;" horiz-adv-x="654" 
d="M410 811q-20 0 -38 -15t-18 -40q0 -22 13 -34.5t35 -12.5q23 0 40 15t17 40q0 20 -13.5 33.5t-35.5 13.5zM209 289h229l-50 310zM453 198h-297l-115 -198h-111l396 663q-20 15 -31 36.5t-11 47.5q0 30 11.5 54.5t30.5 42t43 27t49 9.5q24 0 44.5 -9t36 -24t24 -35
t8.5 -42q0 -32 -17 -61.5t-45 -47.5l115 -661h-99z" />
    <glyph glyph-name="AE" unicode="&#xc6;" horiz-adv-x="1019" 
d="M903 91l-19 -91h-426l40 191h-281l-163 -191h-124l615 709h489l-19 -91h-328l-46 -218h297l-20 -92h-297l-46 -217h328zM517 279l74 350l-299 -350h225z" />
    <glyph glyph-name="Ccedilla" unicode="&#xc7;" horiz-adv-x="719" 
d="M279 -10q-54 9 -99 35.5t-77.5 67t-50 93.5t-17.5 115q0 104 33 183t87 132.5t122.5 80.5t139.5 27q63 0 112.5 -17.5t85 -48.5t58 -72t31.5 -87l-93 -27q-7 34 -23.5 63.5t-42 51.5t-60.5 34.5t-78 12.5q-65 0 -116 -27.5t-85.5 -73t-52.5 -104.5t-18 -122
q0 -109 55.5 -171t153.5 -62q75 0 134 40t94 120l86 -35q-42 -95 -118.5 -151.5t-182.5 -61.5l-45 -38q34 -5 51 -25.5t17 -46.5q0 -39 -32 -65.5t-83 -26.5q-26 0 -47 7.5t-36.5 18t-26 23t-14.5 22.5l52 32q2 -5 7 -13.5t13.5 -16t21 -13t29.5 -5.5t31.5 8.5t14.5 26.5
q0 15 -12.5 24t-30.5 9h-6t-8 -1l-22 42z" />
    <glyph glyph-name="Egrave" unicode="&#xc8;" horiz-adv-x="576" 
d="M15 0l150 709h426l-19 -91h-328l-46 -218h297l-20 -92h-297l-46 -217h328l-19 -91h-426zM260 878h118l75 -119h-86z" />
    <glyph glyph-name="Eacute" unicode="&#xc9;" horiz-adv-x="576" 
d="M15 0l150 709h426l-19 -91h-328l-46 -218h297l-20 -92h-297l-46 -217h328l-19 -91h-426zM409 759h-97l119 119h131z" />
    <glyph glyph-name="Ecircumflex" unicode="&#xca;" horiz-adv-x="576" 
d="M15 0l150 709h426l-19 -91h-328l-46 -218h297l-20 -92h-297l-46 -217h328l-19 -91h-426zM215 759l135 119h120l90 -119h-83l-74 64l-101 -64h-87z" />
    <glyph glyph-name="Edieresis" unicode="&#xcb;" horiz-adv-x="576" 
d="M15 0l150 709h426l-19 -91h-328l-46 -218h297l-20 -92h-297l-46 -217h328l-19 -91h-426zM221 813q0 29 19 47t47 18q23 0 37.5 -15t14.5 -37q0 -29 -19.5 -47.5t-45.5 -18.5q-23 0 -38 15t-15 38zM451 813q0 29 19 47t47 18q23 0 37.5 -15t14.5 -37q0 -29 -19.5 -47.5
t-45.5 -18.5q-23 0 -38 15t-15 38z" />
    <glyph glyph-name="Igrave" unicode="&#xcc;" horiz-adv-x="280" 
d="M89 878h118l75 -119h-86zM15 0l150 709h100l-150 -709h-100z" />
    <glyph glyph-name="Iacute" unicode="&#xcd;" horiz-adv-x="280" 
d="M275 759h-97l119 119h131zM15 0l150 709h100l-150 -709h-100z" />
    <glyph glyph-name="Icircumflex" unicode="&#xce;" horiz-adv-x="280" 
d="M52 759l135 119h120l90 -119h-83l-74 64l-101 -64h-87zM15 0l150 709h100l-150 -709h-100z" />
    <glyph glyph-name="Idieresis" unicode="&#xcf;" horiz-adv-x="280" 
d="M102 813q0 26 17 42.5t43 16.5q20 0 33 -13.5t13 -32.5q0 -26 -17.5 -43t-41.5 -17q-20 0 -33.5 13.5t-13.5 33.5zM257 813q0 26 17 42.5t43 16.5q20 0 33 -13.5t13 -32.5q0 -26 -17.5 -43t-41.5 -17q-20 0 -33.5 13.5t-13.5 33.5zM15 0l150 709h100l-150 -709h-100z" />
    <glyph glyph-name="Eth" unicode="&#xd0;" horiz-adv-x="690" 
d="M32 402h68l65 307h193q68 0 123 -20t93.5 -57t59.5 -89.5t21 -116.5q0 -105 -33 -184.5t-86 -133.5t-121.5 -81t-138.5 -27h-261l67 320h-67zM276 87q49 0 99.5 21t90.5 63t65.5 104t25.5 145q0 100 -57 151t-160 51h-95l-47 -220h150l-17 -82h-151l-49 -233h145z" />
    <glyph glyph-name="Ntilde" unicode="&#xd1;" horiz-adv-x="738" 
d="M639 881q-12 -71 -42 -98.5t-71 -27.5q-21 0 -39 7.5t-31 16.5l-12 8q-9 6 -18 10t-20 4q-14 0 -24 -10t-15 -34h-70q4 34 14.5 58t25.5 39t34 22t40 7t39 -7.5t31 -16.5l12 -8q9 -6 18 -10t20 -4q14 0 24 10t15 34h69zM471 0l-236 574l-122 -574h-98l150 709h117
l225 -554l118 554h98l-150 -709h-102z" />
    <glyph glyph-name="Ograve" unicode="&#xd2;" horiz-adv-x="753" 
d="M35 294q0 106 33 186.5t86.5 134.5t121 81.5t136.5 27.5t125.5 -22t96.5 -62.5t62 -98t22 -127.5q0 -106 -33 -186.5t-86.5 -134.5t-120.5 -81t-136 -27t-126 22.5t-97 63t-62 97.5t-22 126zM618 404q0 55 -16 98t-44.5 72.5t-67 44.5t-84.5 15q-65 0 -115.5 -28t-85 -74
t-52.5 -105.5t-18 -122.5q0 -56 16 -98.5t44.5 -71.5t67 -44t84.5 -15q65 0 115.5 27.5t85 73.5t52.5 105.5t18 122.5zM304 878h118l75 -119h-86z" />
    <glyph glyph-name="Oacute" unicode="&#xd3;" horiz-adv-x="753" 
d="M35 294q0 106 33 186.5t86.5 134.5t121 81.5t136.5 27.5t125.5 -22t96.5 -62.5t62 -98t22 -127.5q0 -106 -33 -186.5t-86.5 -134.5t-120.5 -81t-136 -27t-126 22.5t-97 63t-62 97.5t-22 126zM618 404q0 55 -16 98t-44.5 72.5t-67 44.5t-84.5 15q-65 0 -115.5 -28t-85 -74
t-52.5 -105.5t-18 -122.5q0 -56 16 -98.5t44.5 -71.5t67 -44t84.5 -15q65 0 115.5 27.5t85 73.5t52.5 105.5t18 122.5zM486 759h-97l119 119h131z" />
    <glyph glyph-name="Ocircumflex" unicode="&#xd4;" horiz-adv-x="753" 
d="M35 294q0 106 33 186.5t86.5 134.5t121 81.5t136.5 27.5t125.5 -22t96.5 -62.5t62 -98t22 -127.5q0 -106 -33 -186.5t-86.5 -134.5t-120.5 -81t-136 -27t-126 22.5t-97 63t-62 97.5t-22 126zM618 404q0 55 -16 98t-44.5 72.5t-67 44.5t-84.5 15q-65 0 -115.5 -28t-85 -74
t-52.5 -105.5t-18 -122.5q0 -56 16 -98.5t44.5 -71.5t67 -44t84.5 -15q65 0 115.5 27.5t85 73.5t52.5 105.5t18 122.5zM262 759l135 119h120l90 -119h-83l-74 64l-101 -64h-87z" />
    <glyph glyph-name="Otilde" unicode="&#xd5;" horiz-adv-x="753" 
d="M626 881q-12 -71 -42 -98.5t-71 -27.5q-21 0 -39 7.5t-31 16.5l-12 8q-9 6 -18 10t-20 4q-14 0 -24 -10t-15 -34h-70q4 34 14.5 58t25.5 39t34 22t40 7t39 -7.5t31 -16.5l12 -8q9 -6 18 -10t20 -4q14 0 24 10t15 34h69zM35 294q0 106 33 186.5t86.5 134.5t121 81.5
t136.5 27.5t125.5 -22t96.5 -62.5t62 -98t22 -127.5q0 -106 -33 -186.5t-86.5 -134.5t-120.5 -81t-136 -27t-126 22.5t-97 63t-62 97.5t-22 126zM618 404q0 55 -16 98t-44.5 72.5t-67 44.5t-84.5 15q-65 0 -115.5 -28t-85 -74t-52.5 -105.5t-18 -122.5q0 -56 16 -98.5
t44.5 -71.5t67 -44t84.5 -15q65 0 115.5 27.5t85 73.5t52.5 105.5t18 122.5z" />
    <glyph glyph-name="Odieresis" unicode="&#xd6;" horiz-adv-x="753" 
d="M230 813q0 29 19 47t47 18q23 0 37.5 -15t14.5 -37q0 -29 -19.5 -47.5t-45.5 -18.5q-23 0 -38 15t-15 38zM550 813q0 29 19 47t47 18q23 0 37.5 -15t14.5 -37q0 -29 -19.5 -47.5t-45.5 -18.5q-23 0 -38 15t-15 38zM35 294q0 106 33 186.5t86.5 134.5t121 81.5t136.5 27.5
t125.5 -22t96.5 -62.5t62 -98t22 -127.5q0 -106 -33 -186.5t-86.5 -134.5t-120.5 -81t-136 -27t-126 22.5t-97 63t-62 97.5t-22 126zM618 404q0 55 -16 98t-44.5 72.5t-67 44.5t-84.5 15q-65 0 -115.5 -28t-85 -74t-52.5 -105.5t-18 -122.5q0 -56 16 -98.5t44.5 -71.5
t67 -44t84.5 -15q65 0 115.5 27.5t85 73.5t52.5 105.5t18 122.5z" />
    <glyph glyph-name="multiply" unicode="&#xd7;" horiz-adv-x="540" 
d="M45 112l169 175l-168 175l57 57l167 -174l167 174l57 -56l-169 -175l170 -176l-56 -57l-170 175l-168 -174z" />
    <glyph glyph-name="Oslash" unicode="&#xd8;" horiz-adv-x="753" 
d="M35 294q0 106 33 186.5t86.5 134.5t121 81.5t136.5 27.5q63 0 115 -18t91 -52l77 77l59 -57l-82 -83q46 -74 46 -177q0 -106 -33 -186.5t-86.5 -134.5t-120.5 -81t-136 -27q-124 0 -204 68l-73 -74l-59 57l78 78q-49 75 -49 180zM135 304q0 -66 23 -115l391 395
q-28 25 -64.5 37.5t-78.5 12.5q-65 0 -115.5 -28t-85 -74t-52.5 -105.5t-18 -122.5zM618 404q0 64 -21 112l-389 -393q54 -48 139 -48q65 0 115.5 27.5t85 73.5t52.5 105.5t18 122.5z" />
    <glyph glyph-name="Ugrave" unicode="&#xd9;" horiz-adv-x="666" 
d="M661 709l-104 -493q-23 -111 -94 -171t-175 -60q-106 0 -169 54.5t-63 156.5q0 17 1.5 35.5t6.5 38.5l93 439h94l-92 -451q-6 -29 -6 -54q0 -59 34 -93.5t106 -34.5q66 0 109 39t58 110l102 484h99zM284 878h118l75 -119h-86z" />
    <glyph glyph-name="Uacute" unicode="&#xda;" horiz-adv-x="666" 
d="M661 709l-104 -493q-23 -111 -94 -171t-175 -60q-106 0 -169 54.5t-63 156.5q0 17 1.5 35.5t6.5 38.5l93 439h94l-92 -451q-6 -29 -6 -54q0 -59 34 -93.5t106 -34.5q66 0 109 39t58 110l102 484h99zM435 759h-97l119 119h131z" />
    <glyph glyph-name="Ucircumflex" unicode="&#xdb;" horiz-adv-x="666" 
d="M661 709l-104 -493q-23 -111 -94 -171t-175 -60q-106 0 -169 54.5t-63 156.5q0 17 1.5 35.5t6.5 38.5l93 439h94l-92 -451q-6 -29 -6 -54q0 -59 34 -93.5t106 -34.5q66 0 109 39t58 110l102 484h99zM242 759l135 119h120l90 -119h-83l-74 64l-101 -64h-87z" />
    <glyph glyph-name="Udieresis" unicode="&#xdc;" horiz-adv-x="666" 
d="M257 813q0 29 19 47t47 18q23 0 37.5 -15t14.5 -37q0 -29 -19.5 -47.5t-45.5 -18.5q-23 0 -38 15t-15 38zM467 813q0 29 19 47t47 18q23 0 37.5 -15t14.5 -37q0 -29 -19.5 -47.5t-45.5 -18.5q-23 0 -38 15t-15 38zM661 709l-104 -493q-23 -111 -94 -171t-175 -60
q-106 0 -169 54.5t-63 156.5q0 17 1.5 35.5t6.5 38.5l93 439h94l-92 -451q-6 -29 -6 -54q0 -59 34 -93.5t106 -34.5q66 0 109 39t58 110l102 484h99z" />
    <glyph glyph-name="Yacute" unicode="&#xdd;" horiz-adv-x="611" 
d="M95 709h103l123 -311l228 311h117l-313 -410l-62 -299h-98l64 305zM413 759h-97l119 119h131z" />
    <glyph glyph-name="Thorn" unicode="&#xde;" horiz-adv-x="594" 
d="M216 483l-52 -241h139q35 0 64.5 9.5t51.5 27.5t34 44.5t12 60.5q0 45 -29.5 72t-85.5 27h-134zM15 0l150 709h98l-30 -139h133q46 0 83 -13.5t62.5 -37.5t39 -57t13.5 -72q0 -54 -20.5 -97.5t-55.5 -74t-83 -47t-102 -16.5h-157l-33 -155h-98z" />
    <glyph glyph-name="germandbls" unicode="&#xdf;" horiz-adv-x="572" 
d="M359 329q0 -13 10.5 -23.5t22.5 -20.5l28 -23q29 -24 49.5 -56t20.5 -70q0 -25 -9.5 -51.5t-30 -48.5t-52 -36.5t-75.5 -14.5q-31 0 -58.5 9.5t-48.5 26.5t-33.5 42t-12.5 56v12.5t2 13.5l87 13q-3 -11 -3 -21q0 -12 3 -25t11.5 -24t22 -18t34.5 -7q19 0 32.5 6.5
t21.5 15.5t11.5 19.5t3.5 19.5q0 23 -10.5 35.5t-27.5 27.5l-25 21q-31 26 -50.5 56t-19.5 63q0 46 23.5 73.5t54.5 43.5l35 18q31 16 53.5 37.5t22.5 57.5q0 15 -6.5 30t-20 27t-33.5 19.5t-46 7.5q-22 0 -43.5 -7t-40.5 -23.5t-34 -43.5t-23 -66l-106 -501h-94l108 516
q11 54 34.5 93.5t55 65t70 37.5t79.5 12q48 0 84 -13.5t61 -36t37.5 -51.5t12.5 -61q0 -37 -11.5 -64.5t-29 -47.5t-39 -33.5t-41.5 -23.5l-31 -15q-15 -8 -25.5 -18.5t-10.5 -30.5z" />
    <glyph glyph-name="agrave" unicode="&#xe0;" horiz-adv-x="567" 
d="M168 689h112l56 -146h-74zM266 414q-39 0 -69.5 -19.5t-50.5 -50t-30.5 -68.5t-10.5 -74q0 -57 28 -94t86 -37q34 0 63.5 17t50.5 46t33 69t12 87q0 52 -27 88t-85 36zM517 481l-75 -356q-8 -38 -9.5 -66t-1.5 -43v-6t1 -10h-89q-2 10 -2 28v13.5t2 19.5
q-25 -30 -61.5 -50.5t-81.5 -20.5q-47 0 -82.5 16.5t-59.5 45t-36 67t-12 82.5q0 58 18.5 111.5t51.5 94t79 64.5t102 24q61 0 97.5 -23t52.5 -52l13 61h93z" />
    <glyph glyph-name="aacute" unicode="&#xe1;" horiz-adv-x="567" 
d="M333 543h-84l115 146h124zM266 414q-39 0 -69.5 -19.5t-50.5 -50t-30.5 -68.5t-10.5 -74q0 -57 28 -94t86 -37q34 0 63.5 17t50.5 46t33 69t12 87q0 52 -27 88t-85 36zM517 481l-75 -356q-8 -38 -9.5 -66t-1.5 -43v-6t1 -10h-89q-2 10 -2 28v13.5t2 19.5
q-25 -30 -61.5 -50.5t-81.5 -20.5q-47 0 -82.5 16.5t-59.5 45t-36 67t-12 82.5q0 58 18.5 111.5t51.5 94t79 64.5t102 24q61 0 97.5 -23t52.5 -52l13 61h93z" />
    <glyph glyph-name="acircumflex" unicode="&#xe2;" horiz-adv-x="567" 
d="M131 545l131 139h113l71 -139h-85l-52 81l-88 -81h-90zM266 414q-39 0 -69.5 -19.5t-50.5 -50t-30.5 -68.5t-10.5 -74q0 -57 28 -94t86 -37q34 0 63.5 17t50.5 46t33 69t12 87q0 52 -27 88t-85 36zM517 481l-75 -356q-8 -38 -9.5 -66t-1.5 -43v-6t1 -10h-89q-2 10 -2 28
v13.5t2 19.5q-25 -30 -61.5 -50.5t-81.5 -20.5q-47 0 -82.5 16.5t-59.5 45t-36 67t-12 82.5q0 58 18.5 111.5t51.5 94t79 64.5t102 24q61 0 97.5 -23t52.5 -52l13 61h93z" />
    <glyph glyph-name="atilde" unicode="&#xe3;" horiz-adv-x="567" 
d="M146 554q4 34 14.5 58t25.5 39t34 22t40 7t38 -7.5t30 -16.5l12 -8q9 -6 17 -10t19 -4q14 0 24 10t15 34h69q-12 -71 -42 -98.5t-71 -27.5q-21 0 -38 7.5t-30 16.5l-12 8q-9 6 -17 10t-19 4q-14 0 -24 -10t-15 -34h-70zM266 414q-39 0 -69.5 -19.5t-50.5 -50t-30.5 -68.5
t-10.5 -74q0 -57 28 -94t86 -37q34 0 63.5 17t50.5 46t33 69t12 87q0 52 -27 88t-85 36zM517 481l-75 -356q-8 -38 -9.5 -66t-1.5 -43v-6t1 -10h-89q-2 10 -2 28v13.5t2 19.5q-25 -30 -61.5 -50.5t-81.5 -20.5q-47 0 -82.5 16.5t-59.5 45t-36 67t-12 82.5q0 58 18.5 111.5
t51.5 94t79 64.5t102 24q61 0 97.5 -23t52.5 -52l13 61h93z" />
    <glyph glyph-name="adieresis" unicode="&#xe4;" horiz-adv-x="567" 
d="M156 614q0 26 19 45.5t45 19.5q24 0 38.5 -16t14.5 -37q0 -28 -20.5 -45.5t-45.5 -17.5q-22 0 -36.5 15t-14.5 36zM351 614q0 26 19 45.5t45 19.5q24 0 38.5 -16t14.5 -37q0 -28 -20.5 -45.5t-45.5 -17.5q-22 0 -36.5 15t-14.5 36zM266 414q-39 0 -69.5 -19.5t-50.5 -50
t-30.5 -68.5t-10.5 -74q0 -57 28 -94t86 -37q34 0 63.5 17t50.5 46t33 69t12 87q0 52 -27 88t-85 36zM517 481l-75 -356q-8 -38 -9.5 -66t-1.5 -43v-6t1 -10h-89q-2 10 -2 28v13.5t2 19.5q-25 -30 -61.5 -50.5t-81.5 -20.5q-47 0 -82.5 16.5t-59.5 45t-36 67t-12 82.5
q0 58 18.5 111.5t51.5 94t79 64.5t102 24q61 0 97.5 -23t52.5 -52l13 61h93z" />
    <glyph glyph-name="aring" unicode="&#xe5;" horiz-adv-x="567" 
d="M321 750q22 0 40.5 -8t32.5 -21.5t22 -31.5t8 -39q0 -23 -9.5 -44.5t-26 -38t-38.5 -26.5t-46 -10q-44 0 -74.5 28t-30.5 70q0 27 10.5 49.5t27.5 38t39 24.5t45 9zM263 637q0 -20 11.5 -31t31.5 -11q21 0 36.5 13.5t15.5 36.5q0 18 -12 30t-32 12q-19 0 -35 -13.5
t-16 -36.5zM266 414q-39 0 -69.5 -19.5t-50.5 -50t-30.5 -68.5t-10.5 -74q0 -57 28 -94t86 -37q34 0 63.5 17t50.5 46t33 69t12 87q0 52 -27 88t-85 36zM517 481l-75 -356q-8 -38 -9.5 -66t-1.5 -43v-6t1 -10h-89q-2 10 -2 28v13.5t2 19.5q-25 -30 -61.5 -50.5t-81.5 -20.5
q-47 0 -82.5 16.5t-59.5 45t-36 67t-12 82.5q0 58 18.5 111.5t51.5 94t79 64.5t102 24q61 0 97.5 -23t52.5 -52l13 61h93z" />
    <glyph glyph-name="ae" unicode="&#xe6;" horiz-adv-x="853" 
d="M313 284q21 1 34 13.5t13 36.5q0 16 -6.5 31t-20 26.5t-34 18.5t-48.5 7q-44 0 -76.5 -23t-43.5 -61l-81 26q10 33 31 58.5t49.5 43t62 26.5t69.5 9q59 0 99 -21t61 -53q36 36 81.5 55t95.5 19q49 0 86 -14.5t62 -40t38 -61t13 -78.5q0 -29 -5 -52.5t-9 -35.5h-354
q-1 -5 -1 -8.5v-8.5q0 -30 9.5 -53.5t26 -40.5t39 -26t47.5 -9q28 0 50.5 7t40 18.5t30.5 25.5t21 29l71 -46q-13 -24 -33.5 -45t-47.5 -37t-60 -25.5t-70 -9.5q-62 0 -112 26.5t-76 79.5q-13 -20 -31 -39t-42 -34t-54 -24t-68 -9q-41 0 -73 10.5t-54 29.5t-33.5 44
t-11.5 55q0 34 14 62.5t37.5 48.5t55.5 31.5t68 12.5zM95 129q0 -32 24.5 -49t58.5 -17q23 0 48 8t47.5 26t39.5 47.5t24 71.5l-158 -7q-16 -1 -31 -6t-27 -14.5t-19 -24.5t-7 -35zM594 413q-30 0 -55 -10.5t-44.5 -27.5t-32.5 -39t-19 -46h256q2 8 2 20q0 18 -5.5 36.5
t-18 33t-33 24t-50.5 9.5z" />
    <glyph glyph-name="ccedilla" unicode="&#xe7;" horiz-adv-x="498" 
d="M166 -8q-76 18 -118.5 76t-42.5 139q0 64 20.5 117t56.5 91.5t84 59.5t102 21q49 0 84 -14t58.5 -36.5t37.5 -49.5t20 -52l-87 -30q-5 19 -14 37t-23.5 31.5t-34.5 21.5t-47 8q-31 0 -60 -13t-51.5 -38.5t-36.5 -63.5t-14 -89q0 -64 35.5 -101.5t95.5 -37.5q28 0 49 8
t37.5 21t28 29t19.5 33l80 -35q-14 -26 -33 -50t-44 -43.5t-56.5 -32t-70.5 -14.5l-44 -37q34 -5 51 -25.5t17 -46.5q0 -39 -32 -65.5t-83 -26.5q-26 0 -47 7.5t-36.5 18t-26 23t-14.5 22.5l52 32q2 -5 7 -13.5t13.5 -16t21 -13t29.5 -5.5t31.5 8.5t14.5 26.5q0 15 -12.5 24
t-30.5 9h-6t-8 -1l-22 42z" />
    <glyph glyph-name="egrave" unicode="&#xe8;" horiz-adv-x="528" 
d="M187 689h112l56 -146h-74zM374 290q2 8 2 20q0 18 -5.5 36.5t-18 33t-33 24t-50.5 9.5t-55 -10.5t-44.5 -27.5t-32.5 -39t-19 -46h256zM105 214q-1 -5 -1 -8.5v-8.5q0 -30 9.5 -53.5t26 -40.5t39 -26t47.5 -9q28 0 50.5 7t40 18.5t30.5 25.5t21 29l71 -46
q-13 -24 -33.5 -45t-47.5 -37t-60 -25.5t-70 -9.5q-45 0 -84.5 14t-69 41.5t-47 68.5t-17.5 95q0 68 22.5 122.5t59.5 92t84.5 57.5t97.5 20q49 0 86 -14.5t62 -40t38 -61t13 -78.5q0 -29 -5 -52.5t-9 -35.5h-354z" />
    <glyph glyph-name="eacute" unicode="&#xe9;" horiz-adv-x="528" 
d="M314 543h-84l115 146h124zM374 290q2 8 2 20q0 18 -5.5 36.5t-18 33t-33 24t-50.5 9.5t-55 -10.5t-44.5 -27.5t-32.5 -39t-19 -46h256zM105 214q-1 -5 -1 -8.5v-8.5q0 -30 9.5 -53.5t26 -40.5t39 -26t47.5 -9q28 0 50.5 7t40 18.5t30.5 25.5t21 29l71 -46
q-13 -24 -33.5 -45t-47.5 -37t-60 -25.5t-70 -9.5q-45 0 -84.5 14t-69 41.5t-47 68.5t-17.5 95q0 68 22.5 122.5t59.5 92t84.5 57.5t97.5 20q49 0 86 -14.5t62 -40t38 -61t13 -78.5q0 -29 -5 -52.5t-9 -35.5h-354z" />
    <glyph glyph-name="ecircumflex" unicode="&#xea;" horiz-adv-x="528" 
d="M140 545l131 139h113l71 -139h-85l-52 81l-88 -81h-90zM374 290q2 8 2 20q0 18 -5.5 36.5t-18 33t-33 24t-50.5 9.5t-55 -10.5t-44.5 -27.5t-32.5 -39t-19 -46h256zM105 214q-1 -5 -1 -8.5v-8.5q0 -30 9.5 -53.5t26 -40.5t39 -26t47.5 -9q28 0 50.5 7t40 18.5t30.5 25.5
t21 29l71 -46q-13 -24 -33.5 -45t-47.5 -37t-60 -25.5t-70 -9.5q-45 0 -84.5 14t-69 41.5t-47 68.5t-17.5 95q0 68 22.5 122.5t59.5 92t84.5 57.5t97.5 20q49 0 86 -14.5t62 -40t38 -61t13 -78.5q0 -29 -5 -52.5t-9 -35.5h-354z" />
    <glyph glyph-name="edieresis" unicode="&#xeb;" horiz-adv-x="528" 
d="M152 614q0 26 19 45.5t45 19.5q24 0 38.5 -16t14.5 -37q0 -28 -20.5 -45.5t-45.5 -17.5q-22 0 -36.5 15t-14.5 36zM347 614q0 26 19 45.5t45 19.5q24 0 38.5 -16t14.5 -37q0 -28 -20.5 -45.5t-45.5 -17.5q-22 0 -36.5 15t-14.5 36zM374 290q2 8 2 20q0 18 -5.5 36.5
t-18 33t-33 24t-50.5 9.5t-55 -10.5t-44.5 -27.5t-32.5 -39t-19 -46h256zM105 214q-1 -5 -1 -8.5v-8.5q0 -30 9.5 -53.5t26 -40.5t39 -26t47.5 -9q28 0 50.5 7t40 18.5t30.5 25.5t21 29l71 -46q-13 -24 -33.5 -45t-47.5 -37t-60 -25.5t-70 -9.5q-45 0 -84.5 14t-69 41.5
t-47 68.5t-17.5 95q0 68 22.5 122.5t59.5 92t84.5 57.5t97.5 20q49 0 86 -14.5t62 -40t38 -61t13 -78.5q0 -29 -5 -52.5t-9 -35.5h-354z" />
    <glyph glyph-name="igrave" unicode="&#xec;" horiz-adv-x="257" 
d="M5 0l103 481h94l-103 -481h-94zM37 689h112l56 -146h-74z" />
    <glyph glyph-name="iacute" unicode="&#xed;" horiz-adv-x="257" 
d="M203 543h-84l115 146h124zM5 0l103 481h94l-103 -481h-94z" />
    <glyph glyph-name="icircumflex" unicode="&#xee;" horiz-adv-x="257" 
d="M5 0l103 481h94l-103 -481h-94zM9 545l131 139h113l71 -139h-85l-52 81l-88 -81h-90z" />
    <glyph glyph-name="idieresis" unicode="&#xef;" horiz-adv-x="257" 
d="M5 0l103 481h94l-103 -481h-94zM60 615q0 23 16 41.5t42 18.5q22 0 35.5 -14t13.5 -34q0 -26 -18 -42t-41 -16t-35.5 13t-12.5 33zM201 615q0 23 16 41.5t42 18.5q22 0 35.5 -14t13.5 -34q0 -26 -18 -42t-41 -16t-35.5 13t-12.5 33z" />
    <glyph glyph-name="eth" unicode="&#xf0;" horiz-adv-x="541" 
d="M427 574q29 -44 47 -101.5t18 -131.5q0 -75 -18.5 -140t-53 -113.5t-84.5 -76t-113 -27.5q-51 0 -90.5 16.5t-66.5 46t-41.5 68.5t-14.5 84q0 52 17.5 100.5t50 86t78 60t102.5 22.5q51 0 89.5 -19.5t56.5 -49.5q-7 43 -22 79.5t-37 65.5l-123 -46l-25 65l96 36
q-23 20 -49 34.5t-52 23.5l38 72q27 -9 68.5 -32t81.5 -65l122 46l27 -66zM390 257q0 31 -10 55.5t-27.5 41t-41 25t-50.5 8.5q-29 0 -57.5 -12t-50.5 -35.5t-35.5 -58.5t-13.5 -82q0 -26 8 -49.5t24 -42t38.5 -29.5t52.5 -11q28 0 57 11.5t52.5 35.5t38.5 59.5t15 83.5z
" />
    <glyph glyph-name="ntilde" unicode="&#xf1;" horiz-adv-x="555" 
d="M158 554q4 34 14.5 58t25.5 39t34 22t40 7t38 -7.5t30 -16.5l12 -8q9 -6 17 -10t19 -4q14 0 24 10t15 34h69q-12 -71 -42 -98.5t-71 -27.5q-21 0 -38 7.5t-30 16.5l-12 8q-9 6 -17 10t-19 4q-14 0 -24 -10t-15 -34h-70zM315 0l62 291q2 8 3 17t1 20q0 40 -22 62t-66 22
q-29 0 -51.5 -11.5t-39 -30t-27.5 -42.5t-16 -48l-60 -280h-94l84 396q8 34 10 58.5t2 26.5h92q0 -3 -1.5 -19.5t-4.5 -33.5q28 38 66.5 52.5t82.5 14.5q63 0 103 -39t40 -105q0 -11 -1.5 -22.5t-3.5 -23.5l-65 -305h-94z" />
    <glyph glyph-name="ograve" unicode="&#xf2;" horiz-adv-x="541" 
d="M176 689h112l56 -146h-74zM267 412q-31 0 -60 -13.5t-51.5 -39t-36 -63.5t-13.5 -87q0 -64 33 -102t89 -38q31 0 60.5 13.5t52 39.5t36 64t13.5 87q0 63 -32.5 101t-90.5 38zM486 275q0 -61 -20 -114t-55 -92t-83 -61.5t-104 -22.5q-51 0 -91 17.5t-67 48t-41.5 71
t-14.5 85.5q0 62 20 115t55 91.5t83.5 60.5t104.5 22q52 0 92 -17.5t67 -47.5t40.5 -70.5t13.5 -85.5z" />
    <glyph glyph-name="oacute" unicode="&#xf3;" horiz-adv-x="541" 
d="M332 543h-84l115 146h124zM267 412q-31 0 -60 -13.5t-51.5 -39t-36 -63.5t-13.5 -87q0 -64 33 -102t89 -38q31 0 60.5 13.5t52 39.5t36 64t13.5 87q0 63 -32.5 101t-90.5 38zM486 275q0 -61 -20 -114t-55 -92t-83 -61.5t-104 -22.5q-51 0 -91 17.5t-67 48t-41.5 71
t-14.5 85.5q0 62 20 115t55 91.5t83.5 60.5t104.5 22q52 0 92 -17.5t67 -47.5t40.5 -70.5t13.5 -85.5z" />
    <glyph glyph-name="ocircumflex" unicode="&#xf4;" horiz-adv-x="541" 
d="M145 545l131 139h113l71 -139h-85l-52 81l-88 -81h-90zM267 412q-31 0 -60 -13.5t-51.5 -39t-36 -63.5t-13.5 -87q0 -64 33 -102t89 -38q31 0 60.5 13.5t52 39.5t36 64t13.5 87q0 63 -32.5 101t-90.5 38zM486 275q0 -61 -20 -114t-55 -92t-83 -61.5t-104 -22.5
q-51 0 -91 17.5t-67 48t-41.5 71t-14.5 85.5q0 62 20 115t55 91.5t83.5 60.5t104.5 22q52 0 92 -17.5t67 -47.5t40.5 -70.5t13.5 -85.5z" />
    <glyph glyph-name="otilde" unicode="&#xf5;" horiz-adv-x="541" 
d="M131 554q4 34 14.5 58t25.5 39t34 22t40 7t38 -7.5t30 -16.5l12 -8q9 -6 17 -10t19 -4q14 0 24 10t15 34h69q-12 -71 -42 -98.5t-71 -27.5q-21 0 -38 7.5t-30 16.5l-12 8q-9 6 -17 10t-19 4q-14 0 -24 -10t-15 -34h-70zM267 412q-31 0 -60 -13.5t-51.5 -39t-36 -63.5
t-13.5 -87q0 -64 33 -102t89 -38q31 0 60.5 13.5t52 39.5t36 64t13.5 87q0 63 -32.5 101t-90.5 38zM486 275q0 -61 -20 -114t-55 -92t-83 -61.5t-104 -22.5q-51 0 -91 17.5t-67 48t-41.5 71t-14.5 85.5q0 62 20 115t55 91.5t83.5 60.5t104.5 22q52 0 92 -17.5t67 -47.5
t40.5 -70.5t13.5 -85.5z" />
    <glyph glyph-name="odieresis" unicode="&#xf6;" horiz-adv-x="541" 
d="M161 614q0 26 19 45.5t45 19.5q24 0 38.5 -16t14.5 -37q0 -28 -20.5 -45.5t-45.5 -17.5q-22 0 -36.5 15t-14.5 36zM356 614q0 26 19 45.5t45 19.5q24 0 38.5 -16t14.5 -37q0 -28 -20.5 -45.5t-45.5 -17.5q-22 0 -36.5 15t-14.5 36zM267 412q-31 0 -60 -13.5t-51.5 -39
t-36 -63.5t-13.5 -87q0 -64 33 -102t89 -38q31 0 60.5 13.5t52 39.5t36 64t13.5 87q0 63 -32.5 101t-90.5 38zM486 275q0 -61 -20 -114t-55 -92t-83 -61.5t-104 -22.5q-51 0 -91 17.5t-67 48t-41.5 71t-14.5 85.5q0 62 20 115t55 91.5t83.5 60.5t104.5 22q52 0 92 -17.5
t67 -47.5t40.5 -70.5t13.5 -85.5z" />
    <glyph glyph-name="divide" unicode="&#xf7;" horiz-adv-x="567" 
d="M198 465q0 26 19.5 45t45.5 19t45 -19t19 -45t-19 -45.5t-45 -19.5t-45.5 19.5t-19.5 45.5zM198 110q0 26 19.5 45t45.5 19t45 -19t19 -45t-19 -45.5t-45 -19.5t-45.5 19.5t-19.5 45.5zM35 329h457v-83h-457v83z" />
    <glyph glyph-name="oslash" unicode="&#xf8;" horiz-adv-x="541" 
d="M-32 26l69 66q-27 51 -27 115q0 62 20 115t55 91.5t83.5 60.5t104.5 22q84 0 138 -45l61 58l52 -54l-66 -63q28 -50 28 -117q0 -61 -20 -114t-55 -92t-83 -61.5t-104 -22.5q-44 0 -79 12.5t-61 35.5l-64 -61zM390 273q0 25 -6 48l-234 -225q32 -27 78 -27q31 0 60.5 13.5
t52 39.5t36 64t13.5 87zM267 412q-31 0 -60 -13.5t-51.5 -39t-36 -63.5t-13.5 -87q0 -24 5 -46l233 223q-31 26 -77 26z" />
    <glyph glyph-name="ugrave" unicode="&#xf9;" horiz-adv-x="544" 
d="M318 56q-24 -34 -60.5 -50t-70.5 -16q-75 0 -115 42.5t-40 112.5q0 26 6 55l60 281h94l-59 -279q-2 -12 -3.5 -23.5t-1.5 -22.5q0 -37 19 -61.5t66 -24.5q27 0 48.5 10.5t37.5 28.5t27 41.5t16 49.5l59 281h93l-75 -356q-8 -38 -9.5 -66t-1.5 -43v-6t1 -10h-90
q-2 10 -2 28v11t1 17zM178 689h112l56 -146h-74z" />
    <glyph glyph-name="uacute" unicode="&#xfa;" horiz-adv-x="544" 
d="M318 56q-24 -34 -60.5 -50t-70.5 -16q-75 0 -115 42.5t-40 112.5q0 26 6 55l60 281h94l-59 -279q-2 -12 -3.5 -23.5t-1.5 -22.5q0 -37 19 -61.5t66 -24.5q27 0 48.5 10.5t37.5 28.5t27 41.5t16 49.5l59 281h93l-75 -356q-8 -38 -9.5 -66t-1.5 -43v-6t1 -10h-90
q-2 10 -2 28v11t1 17zM332 543h-84l115 146h124z" />
    <glyph glyph-name="ucircumflex" unicode="&#xfb;" horiz-adv-x="544" 
d="M318 56q-24 -34 -60.5 -50t-70.5 -16q-75 0 -115 42.5t-40 112.5q0 26 6 55l60 281h94l-59 -279q-2 -12 -3.5 -23.5t-1.5 -22.5q0 -37 19 -61.5t66 -24.5q27 0 48.5 10.5t37.5 28.5t27 41.5t16 49.5l59 281h93l-75 -356q-8 -38 -9.5 -66t-1.5 -43v-6t1 -10h-90
q-2 10 -2 28v11t1 17zM145 545l131 139h113l71 -139h-85l-52 81l-88 -81h-90z" />
    <glyph glyph-name="udieresis" unicode="&#xfc;" horiz-adv-x="544" 
d="M318 56q-24 -34 -60.5 -50t-70.5 -16q-75 0 -115 42.5t-40 112.5q0 26 6 55l60 281h94l-59 -279q-2 -12 -3.5 -23.5t-1.5 -22.5q0 -37 19 -61.5t66 -24.5q27 0 48.5 10.5t37.5 28.5t27 41.5t16 49.5l59 281h93l-75 -356q-8 -38 -9.5 -66t-1.5 -43v-6t1 -10h-90
q-2 10 -2 28v11t1 17zM166 614q0 26 19 45.5t45 19.5q24 0 38.5 -16t14.5 -37q0 -28 -20.5 -45.5t-45.5 -17.5q-22 0 -36.5 15t-14.5 36zM361 614q0 26 19 45.5t45 19.5q24 0 38.5 -16t14.5 -37q0 -28 -20.5 -45.5t-45.5 -17.5q-22 0 -36.5 15t-14.5 36z" />
    <glyph glyph-name="yacute" unicode="&#xfd;" horiz-adv-x="504" 
d="M293 543h-84l115 146h124zM-30 -190l181 273l-118 398h102l85 -302l188 302h111l-441 -671h-108z" />
    <glyph glyph-name="thorn" unicode="&#xfe;" horiz-adv-x="580" 
d="M159 724h94l-62 -294q28 32 67.5 48t82.5 16q47 0 81.5 -16t57 -44t33.5 -65.5t11 -80.5q0 -64 -18 -119t-51 -95.5t-79.5 -63.5t-103.5 -23q-50 0 -93.5 22.5t-64.5 63.5l-56 -263h-93zM306 409q-31 0 -59.5 -13.5t-51 -39.5t-36 -64t-13.5 -87q0 -64 32 -99t88 -35
q30 0 59.5 14t52 40t36.5 64.5t14 87.5q0 64 -31.5 98t-90.5 34z" />
    <glyph glyph-name="ydieresis" unicode="&#xff;" horiz-adv-x="504" 
d="M133 614q0 26 19 45.5t45 19.5q24 0 38.5 -16t14.5 -37q0 -28 -20.5 -45.5t-45.5 -17.5q-22 0 -36.5 15t-14.5 36zM328 614q0 26 19 45.5t45 19.5q24 0 38.5 -16t14.5 -37q0 -28 -20.5 -45.5t-45.5 -17.5q-22 0 -36.5 15t-14.5 36zM-30 -190l181 273l-118 398h102
l85 -302l188 302h111l-441 -671h-108z" />
    <glyph glyph-name="Amacron" unicode="&#x100;" horiz-adv-x="654" 
d="M453 198h-297l-115 -198h-111l423 709h108l123 -709h-99zM209 289h229l-50 310zM267 779l18 83h293l-18 -83h-293z" />
    <glyph glyph-name="amacron" unicode="&#x101;" horiz-adv-x="567" 
d="M178 577l17 81h273l-17 -81h-273zM266 414q-39 0 -69.5 -19.5t-50.5 -50t-30.5 -68.5t-10.5 -74q0 -57 28 -94t86 -37q34 0 63.5 17t50.5 46t33 69t12 87q0 52 -27 88t-85 36zM517 481l-75 -356q-8 -38 -9.5 -66t-1.5 -43v-6t1 -10h-89q-2 10 -2 28v13.5t2 19.5
q-25 -30 -61.5 -50.5t-81.5 -20.5q-47 0 -82.5 16.5t-59.5 45t-36 67t-12 82.5q0 58 18.5 111.5t51.5 94t79 64.5t102 24q61 0 97.5 -23t52.5 -52l13 61h93z" />
    <glyph glyph-name="Abreve" unicode="&#x102;" horiz-adv-x="654" 
d="M453 198h-297l-115 -198h-111l423 709h108l123 -709h-99zM209 289h229l-50 310zM421 755q-68 0 -103.5 33t-35.5 80q0 6 2 16h78q-1 -4 -1 -8q0 -17 14 -31.5t52 -14.5q43 0 63 18t25 36h79q-7 -24 -21 -47t-35.5 -41.5t-50.5 -29.5t-66 -11z" />
    <glyph glyph-name="abreve" unicode="&#x103;" horiz-adv-x="567" 
d="M308 544q-30 0 -53 9.5t-38 26t-23 37.5t-8 44q0 13 3 27h69q-1 -3 -1 -5.5v-3.5q0 -10 3 -19.5t10 -17.5t19 -13t29 -5q19 0 33.5 6t25 15.5t17.5 20.5t10 22h77q-6 -27 -19.5 -52.5t-35 -46t-51 -33t-67.5 -12.5zM266 414q-39 0 -69.5 -19.5t-50.5 -50t-30.5 -68.5
t-10.5 -74q0 -57 28 -94t86 -37q34 0 63.5 17t50.5 46t33 69t12 87q0 52 -27 88t-85 36zM517 481l-75 -356q-8 -38 -9.5 -66t-1.5 -43v-6t1 -10h-89q-2 10 -2 28v13.5t2 19.5q-25 -30 -61.5 -50.5t-81.5 -20.5q-47 0 -82.5 16.5t-59.5 45t-36 67t-12 82.5q0 58 18.5 111.5
t51.5 94t79 64.5t102 24q61 0 97.5 -23t52.5 -52l13 61h93z" />
    <glyph glyph-name="Aogonek" unicode="&#x104;" horiz-adv-x="654" 
d="M209 289h229l-50 308zM395 -132q0 25 8 45t21.5 36.5t30.5 29t34 21.5h-4l-32 198h-297l-115 -198h-111l423 709h108l123 -709q-17 -7 -35.5 -17.5t-35 -24t-27 -30t-10.5 -37.5q0 -20 13 -29t31 -9q5 0 12 0.5t21 2.5l-14 -64q-11 -4 -21.5 -6t-29.5 -2q-42 0 -67.5 23
t-25.5 61z" />
    <glyph glyph-name="aogonek" unicode="&#x105;" horiz-adv-x="567" 
d="M266 414q-39 0 -69.5 -19.5t-50.5 -50t-30.5 -68.5t-10.5 -74q0 -57 28 -94t86 -37q34 0 63.5 17t50.5 46t33 69t12 87q0 52 -27 88t-85 36zM243 -132q0 26 9 47.5t23 38t31.5 28.5t35.5 21q-1 10 -1 15.5v9.5v15t1 18q-25 -30 -61 -50.5t-81 -20.5q-47 0 -82.5 16.5
t-59.5 45t-36 67t-12 82.5q0 58 18.5 111.5t51.5 94t79 64.5t102 24q61 0 97.5 -23t52.5 -52l13 61h93l-75 -356q-8 -38 -9.5 -66.5t-1.5 -42.5v-7t1 -9q-17 -7 -35.5 -17.5t-35 -24t-27 -30t-10.5 -37.5q0 -20 13 -29t31 -9q5 0 12 0.5t21 2.5l-14 -64q-11 -4 -21.5 -6
t-29.5 -2q-42 0 -67.5 23t-25.5 61z" />
    <glyph glyph-name="Cacute" unicode="&#x106;" horiz-adv-x="719" 
d="M417 724q63 0 112.5 -17.5t85 -48.5t58 -72t31.5 -87l-93 -27q-7 34 -23.5 63.5t-42 51.5t-60.5 34.5t-78 12.5q-65 0 -116 -27.5t-85.5 -73t-52.5 -104.5t-18 -122q0 -109 55.5 -171t153.5 -62q75 0 134 40t94 120l86 -35q-44 -100 -126 -157t-197 -57q-66 0 -121 23
t-94.5 65t-62 100t-22.5 128q0 104 33 183t87 132.5t122.5 80.5t139.5 27zM493 759h-97l119 119h131z" />
    <glyph glyph-name="cacute" unicode="&#x107;" horiz-adv-x="498" 
d="M306 543h-84l115 146h124zM381 314q-5 19 -14 37t-23.5 31.5t-34.5 21.5t-47 8q-31 0 -60 -13t-51.5 -38.5t-36.5 -63.5t-14 -89q0 -64 35.5 -101.5t95.5 -37.5q28 0 49 8t37.5 21t28 29t19.5 33l80 -35q-14 -27 -34 -52.5t-47 -45t-61 -31t-76 -11.5q-52 0 -93 17
t-69.5 47t-44 70.5t-15.5 87.5q0 64 20.5 117t56.5 91.5t84 59.5t102 21q49 0 84 -14t58.5 -36.5t37.5 -49.5t20 -52z" />
    <glyph glyph-name="Ccircumflex" unicode="&#x108;" horiz-adv-x="719" 
d="M417 724q63 0 112.5 -17.5t85 -48.5t58 -72t31.5 -87l-93 -27q-7 34 -23.5 63.5t-42 51.5t-60.5 34.5t-78 12.5q-65 0 -116 -27.5t-85.5 -73t-52.5 -104.5t-18 -122q0 -109 55.5 -171t153.5 -62q75 0 134 40t94 120l86 -35q-44 -100 -126 -157t-197 -57q-66 0 -121 23
t-94.5 65t-62 100t-22.5 128q0 104 33 183t87 132.5t122.5 80.5t139.5 27zM270 759l135 119h120l90 -119h-83l-74 64l-101 -64h-87z" />
    <glyph glyph-name="ccircumflex" unicode="&#x109;" horiz-adv-x="498" 
d="M127 545l131 139h113l71 -139h-85l-52 81l-88 -81h-90zM381 314q-5 19 -14 37t-23.5 31.5t-34.5 21.5t-47 8q-31 0 -60 -13t-51.5 -38.5t-36.5 -63.5t-14 -89q0 -64 35.5 -101.5t95.5 -37.5q28 0 49 8t37.5 21t28 29t19.5 33l80 -35q-14 -27 -34 -52.5t-47 -45t-61 -31
t-76 -11.5q-52 0 -93 17t-69.5 47t-44 70.5t-15.5 87.5q0 64 20.5 117t56.5 91.5t84 59.5t102 21q49 0 84 -14t58.5 -36.5t37.5 -49.5t20 -52z" />
    <glyph glyph-name="Cdotaccent" unicode="&#x10a;" horiz-adv-x="719" 
d="M417 724q63 0 112.5 -17.5t85 -48.5t58 -72t31.5 -87l-93 -27q-7 34 -23.5 63.5t-42 51.5t-60.5 34.5t-78 12.5q-65 0 -116 -27.5t-85.5 -73t-52.5 -104.5t-18 -122q0 -109 55.5 -171t153.5 -62q75 0 134 40t94 120l86 -35q-44 -100 -126 -157t-197 -57q-66 0 -121 23
t-94.5 65t-62 100t-22.5 128q0 104 33 183t87 132.5t122.5 80.5t139.5 27zM384 814q0 29 20.5 49.5t49.5 20.5q26 0 42.5 -17t16.5 -40q0 -15 -6 -28t-15.5 -22.5t-22.5 -15.5t-27 -6q-26 0 -42 17t-16 42z" />
    <glyph glyph-name="cdotaccent" unicode="&#x10b;" horiz-adv-x="498" 
d="M230 608q0 27 20.5 49.5t50.5 22.5q26 0 42 -17t16 -40q0 -15 -6 -28t-15.5 -22.5t-22.5 -15.5t-27 -6q-26 0 -42 16.5t-16 40.5zM381 314q-5 19 -14 37t-23.5 31.5t-34.5 21.5t-47 8q-31 0 -60 -13t-51.5 -38.5t-36.5 -63.5t-14 -89q0 -64 35.5 -101.5t95.5 -37.5
q28 0 49 8t37.5 21t28 29t19.5 33l80 -35q-14 -27 -34 -52.5t-47 -45t-61 -31t-76 -11.5q-52 0 -93 17t-69.5 47t-44 70.5t-15.5 87.5q0 64 20.5 117t56.5 91.5t84 59.5t102 21q49 0 84 -14t58.5 -36.5t37.5 -49.5t20 -52z" />
    <glyph glyph-name="Ccaron" unicode="&#x10c;" horiz-adv-x="719" 
d="M417 724q63 0 112.5 -17.5t85 -48.5t58 -72t31.5 -87l-93 -27q-7 34 -23.5 63.5t-42 51.5t-60.5 34.5t-78 12.5q-65 0 -116 -27.5t-85.5 -73t-52.5 -104.5t-18 -122q0 -109 55.5 -171t153.5 -62q75 0 134 40t94 120l86 -35q-44 -100 -126 -157t-197 -57q-66 0 -121 23
t-94.5 65t-62 100t-22.5 128q0 104 33 183t87 132.5t122.5 80.5t139.5 27zM634 878l-140 -119h-120l-85 119h82l69 -64l101 64h93z" />
    <glyph glyph-name="ccaron" unicode="&#x10d;" horiz-adv-x="498" 
d="M488 687l-130 -142h-115l-70 142h84l52 -81l88 81h91zM381 314q-5 19 -14 37t-23.5 31.5t-34.5 21.5t-47 8q-31 0 -60 -13t-51.5 -38.5t-36.5 -63.5t-14 -89q0 -64 35.5 -101.5t95.5 -37.5q28 0 49 8t37.5 21t28 29t19.5 33l80 -35q-14 -27 -34 -52.5t-47 -45t-61 -31
t-76 -11.5q-52 0 -93 17t-69.5 47t-44 70.5t-15.5 87.5q0 64 20.5 117t56.5 91.5t84 59.5t102 21q49 0 84 -14t58.5 -36.5t37.5 -49.5t20 -52z" />
    <glyph glyph-name="Dcaron" unicode="&#x10e;" horiz-adv-x="691" 
d="M602 878l-140 -119h-120l-85 119h82l69 -64l101 64h93zM276 87q49 0 99.5 21t90.5 63t65.5 104t25.5 145q0 100 -58.5 151t-158.5 51h-95l-114 -535h145zM15 0l150 709h193q68 0 123 -20t93.5 -57t59.5 -89.5t21 -116.5q0 -105 -33 -184.5t-86 -133.5t-121.5 -81
t-138.5 -27h-261z" />
    <glyph glyph-name="dcaron" unicode="&#x10f;" horiz-adv-x="652" 
d="M266 414q-39 0 -69.5 -19.5t-50.5 -50t-30.5 -68.5t-10.5 -74q0 -57 28 -94t86 -37q34 0 63.5 17t50.5 46t33 69t12 87q0 52 -27 88t-85 36zM343 61q-23 -30 -60.5 -50.5t-82.5 -20.5q-47 0 -82.5 16.5t-59.5 45t-36 67t-12 82.5q0 58 18.5 111.5t51.5 94t79 64.5t102 24
q61 0 97.5 -23t52.5 -52l64 304h93l-126 -599q-8 -38 -9.5 -66t-1.5 -43v-6t1 -10h-89q-2 10 -2 28v12.5t2 20.5zM655 545h-72l66 179h108z" />
    <glyph glyph-name="Dcroat" unicode="&#x110;" horiz-adv-x="690" 
d="M32 402h68l65 307h193q68 0 123 -20t93.5 -57t59.5 -89.5t21 -116.5q0 -105 -33 -184.5t-86 -133.5t-121.5 -81t-138.5 -27h-261l67 320h-67zM276 87q49 0 99.5 21t90.5 63t65.5 104t25.5 145q0 100 -57 151t-160 51h-95l-47 -220h150l-17 -82h-151l-49 -233h145z" />
    <glyph glyph-name="dcroat" unicode="&#x111;" horiz-adv-x="567" 
d="M266 414q-39 0 -69.5 -19.5t-50.5 -50t-30.5 -68.5t-10.5 -74q0 -57 28 -94t86 -37q34 0 63.5 17t50.5 46t33 69t12 87q0 52 -27 88t-85 36zM200 -10q-47 0 -82.5 16.5t-59.5 45t-36 67t-12 82.5q0 58 18.5 111.5t51.5 94t79 64.5t102 24q61 0 97.5 -23t52.5 -52l28 135
h-139l16 76h139l20 93h93l-20 -93h69l-16 -76h-69l-90 -430q-8 -38 -10 -66t-2 -43v-6t1 -10h-89q-2 10 -2 28q0 7 0.5 14.5t1.5 18.5q-25 -30 -61 -50.5t-81 -20.5z" />
    <glyph glyph-name="Emacron" unicode="&#x112;" horiz-adv-x="576" 
d="M15 0l150 709h426l-19 -91h-328l-46 -218h297l-20 -92h-297l-46 -217h328l-19 -91h-426zM242 779l18 83h293l-18 -83h-293z" />
    <glyph glyph-name="emacron" unicode="&#x113;" horiz-adv-x="528" 
d="M168 577l17 81h273l-17 -81h-273zM374 290q2 8 2 20q0 18 -5.5 36.5t-18 33t-33 24t-50.5 9.5t-55 -10.5t-44.5 -27.5t-32.5 -39t-19 -46h256zM105 214q-1 -5 -1 -8.5v-8.5q0 -30 9.5 -53.5t26 -40.5t39 -26t47.5 -9q28 0 50.5 7t40 18.5t30.5 25.5t21 29l71 -46
q-13 -24 -33.5 -45t-47.5 -37t-60 -25.5t-70 -9.5q-45 0 -84.5 14t-69 41.5t-47 68.5t-17.5 95q0 68 22.5 122.5t59.5 92t84.5 57.5t97.5 20q49 0 86 -14.5t62 -40t38 -61t13 -78.5q0 -29 -5 -52.5t-9 -35.5h-354z" />
    <glyph glyph-name="Ebreve" unicode="&#x114;" horiz-adv-x="576" 
d="M15 0l150 709h426l-19 -91h-328l-46 -218h297l-20 -92h-297l-46 -217h328l-19 -91h-426zM382 755q-68 0 -103.5 33t-35.5 80q0 6 2 16h78q-1 -4 -1 -8q0 -17 14 -31.5t52 -14.5q43 0 63 18t25 36h79q-7 -24 -21 -47t-35.5 -41.5t-50.5 -29.5t-66 -11z" />
    <glyph glyph-name="ebreve" unicode="&#x115;" horiz-adv-x="528" 
d="M301 544q-30 0 -53 9.5t-38 26t-23 37.5t-8 44q0 13 3 27h69q-1 -3 -1 -5.5v-3.5q0 -10 3 -19.5t10 -17.5t19 -13t29 -5q19 0 33.5 6t25 15.5t17.5 20.5t10 22h77q-6 -27 -19.5 -52.5t-35 -46t-51 -33t-67.5 -12.5zM374 290q2 8 2 20q0 18 -5.5 36.5t-18 33t-33 24
t-50.5 9.5t-55 -10.5t-44.5 -27.5t-32.5 -39t-19 -46h256zM105 214q-1 -5 -1 -8.5v-8.5q0 -30 9.5 -53.5t26 -40.5t39 -26t47.5 -9q28 0 50.5 7t40 18.5t30.5 25.5t21 29l71 -46q-13 -24 -33.5 -45t-47.5 -37t-60 -25.5t-70 -9.5q-45 0 -84.5 14t-69 41.5t-47 68.5t-17.5 95
q0 68 22.5 122.5t59.5 92t84.5 57.5t97.5 20q49 0 86 -14.5t62 -40t38 -61t13 -78.5q0 -29 -5 -52.5t-9 -35.5h-354z" />
    <glyph glyph-name="Edotaccent" unicode="&#x116;" horiz-adv-x="576" 
d="M15 0l150 709h426l-19 -91h-328l-46 -218h297l-20 -92h-297l-46 -217h328l-19 -91h-426zM332 814q0 29 20.5 49.5t49.5 20.5q26 0 42.5 -17t16.5 -40q0 -15 -6 -28t-15.5 -22.5t-22.5 -15.5t-27 -6q-26 0 -42 17t-16 42z" />
    <glyph glyph-name="edotaccent" unicode="&#x117;" horiz-adv-x="528" 
d="M232 608q0 27 20.5 49.5t50.5 22.5q26 0 42 -17t16 -40q0 -15 -6 -28t-15.5 -22.5t-22.5 -15.5t-27 -6q-26 0 -42 16.5t-16 40.5zM374 290q2 8 2 20q0 18 -5.5 36.5t-18 33t-33 24t-50.5 9.5t-55 -10.5t-44.5 -27.5t-32.5 -39t-19 -46h256zM105 214q-1 -5 -1 -8.5v-8.5
q0 -30 9.5 -53.5t26 -40.5t39 -26t47.5 -9q28 0 50.5 7t40 18.5t30.5 25.5t21 29l71 -46q-13 -24 -33.5 -45t-47.5 -37t-60 -25.5t-70 -9.5q-45 0 -84.5 14t-69 41.5t-47 68.5t-17.5 95q0 68 22.5 122.5t59.5 92t84.5 57.5t97.5 20q49 0 86 -14.5t62 -40t38 -61t13 -78.5
q0 -29 -5 -52.5t-9 -35.5h-354z" />
    <glyph glyph-name="Eogonek" unicode="&#x118;" horiz-adv-x="576" 
d="M252 -132q0 25 8 45t21.5 36.5t30 29t33.5 21.5h-330l150 709h426l-19 -91h-328l-46 -218h297l-20 -92h-297l-46 -217h328l-19 -91q-17 -7 -35.5 -17.5t-35 -24t-27 -30t-10.5 -37.5q0 -20 13 -29t31 -9q5 0 12 0.5t21 2.5l-14 -64q-11 -4 -21.5 -6t-29.5 -2
q-42 0 -67.5 23t-25.5 61z" />
    <glyph glyph-name="eogonek" unicode="&#x119;" horiz-adv-x="528" 
d="M374 290q2 8 2 20q0 18 -5.5 36.5t-18 33t-33 24t-50.5 9.5t-55 -10.5t-44.5 -27.5t-32.5 -39t-19 -46h256zM125 -132q0 42 21 71t50 48q-39 5 -73 21t-59 43t-39.5 65.5t-14.5 87.5q0 68 22.5 122.5t59.5 92t84.5 57.5t97.5 20q49 0 86 -14.5t62 -40t38 -61t13 -78.5
q0 -29 -5 -52.5t-9 -35.5h-354q-1 -5 -1 -8.5v-8.5q0 -30 9.5 -53.5t26 -40.5t39 -26t47.5 -9q28 0 50.5 7t40 18.5t30.5 25.5t21 29l71 -46q-18 -34 -52.5 -61t-79.5 -44q-17 -6 -34.5 -16t-32.5 -23.5t-24.5 -30t-9.5 -36.5t13 -29t31 -9q5 0 12 0.5t21 2.5l-14 -64
q-11 -4 -21.5 -6t-29.5 -2q-42 0 -67.5 23t-25.5 61z" />
    <glyph glyph-name="Ecaron" unicode="&#x11a;" horiz-adv-x="576" 
d="M15 0l150 709h426l-19 -91h-328l-46 -218h297l-20 -92h-297l-46 -217h328l-19 -91h-426zM587 878l-140 -119h-120l-85 119h82l69 -64l101 64h93z" />
    <glyph glyph-name="ecaron" unicode="&#x11b;" horiz-adv-x="528" 
d="M473 687l-130 -142h-115l-70 142h84l52 -81l88 81h91zM374 290q2 8 2 20q0 18 -5.5 36.5t-18 33t-33 24t-50.5 9.5t-55 -10.5t-44.5 -27.5t-32.5 -39t-19 -46h256zM105 214q-1 -5 -1 -8.5v-8.5q0 -30 9.5 -53.5t26 -40.5t39 -26t47.5 -9q28 0 50.5 7t40 18.5t30.5 25.5
t21 29l71 -46q-13 -24 -33.5 -45t-47.5 -37t-60 -25.5t-70 -9.5q-45 0 -84.5 14t-69 41.5t-47 68.5t-17.5 95q0 68 22.5 122.5t59.5 92t84.5 57.5t97.5 20q49 0 86 -14.5t62 -40t38 -61t13 -78.5q0 -29 -5 -52.5t-9 -35.5h-354z" />
    <glyph glyph-name="Gcircumflex" unicode="&#x11c;" horiz-adv-x="740" 
d="M408 634q-64 0 -115 -27t-86 -72t-54 -104t-19 -124q0 -54 14.5 -97t42 -73.5t66.5 -46.5t88 -16q38 0 75.5 12.5t69.5 36t55.5 58t34.5 78.5h-246l18 88h339l-73 -347h-76l8 80q-39 -45 -91.5 -70t-122.5 -25q-61 0 -115.5 21.5t-96 62.5t-65.5 99.5t-24 132.5
q0 104 33.5 183t87.5 132.5t122.5 80.5t139.5 27q63 0 112.5 -17.5t85 -48.5t58 -72t31.5 -87l-93 -27q-7 34 -23.5 63.5t-42 51.5t-60.5 34.5t-78 12.5zM270 759l135 119h120l90 -119h-83l-74 64l-101 -64h-87z" />
    <glyph glyph-name="gcircumflex" unicode="&#x11d;" horiz-adv-x="565" 
d="M149 545l131 139h113l71 -139h-85l-52 81l-88 -81h-90zM378 293q0 20 -6.5 41t-21 37.5t-37 27t-53.5 10.5q-32 0 -60 -12t-48.5 -35t-32.5 -56t-12 -75q0 -27 7 -50.5t22 -41t37.5 -27.5t52.5 -10q69 0 110.5 51t41.5 140zM42 -8v-7q0 -22 7 -41.5t21.5 -34.5t36 -23.5
t51.5 -8.5q70 0 111 43t58 123l8 39q-16 -24 -49 -41.5t-79 -17.5q-47 0 -83 15.5t-61 43t-38 64.5t-13 79q0 56 18 104.5t50.5 84.5t77.5 56.5t99 20.5q51 0 90 -19.5t59 -54.5l13 64h96l-90 -435q-10 -46 -28.5 -91t-50 -80.5t-78.5 -57.5t-114 -22q-50 0 -87.5 15
t-63 39.5t-38 56.5t-12.5 65z" />
    <glyph glyph-name="Gbreve" unicode="&#x11e;" horiz-adv-x="740" 
d="M408 634q-64 0 -115 -27t-86 -72t-54 -104t-19 -124q0 -54 14.5 -97t42 -73.5t66.5 -46.5t88 -16q38 0 75.5 12.5t69.5 36t55.5 58t34.5 78.5h-246l18 88h339l-73 -347h-76l8 80q-39 -45 -91.5 -70t-122.5 -25q-61 0 -115.5 21.5t-96 62.5t-65.5 99.5t-24 132.5
q0 104 33.5 183t87.5 132.5t122.5 80.5t139.5 27q63 0 112.5 -17.5t85 -48.5t58 -72t31.5 -87l-93 -27q-7 34 -23.5 63.5t-42 51.5t-60.5 34.5t-78 12.5zM450 755q-68 0 -103.5 33t-35.5 80q0 6 2 16h78q-1 -4 -1 -8q0 -17 14 -31.5t52 -14.5q43 0 63 18t25 36h79
q-7 -24 -21 -47t-35.5 -41.5t-50.5 -29.5t-66 -11z" />
    <glyph glyph-name="gbreve" unicode="&#x11f;" horiz-adv-x="565" 
d="M316 544q-30 0 -53 9.5t-38 26t-23 37.5t-8 44q0 13 3 27h69q-1 -3 -1 -5.5v-3.5q0 -10 3 -19.5t10 -17.5t19 -13t29 -5q19 0 33.5 6t25 15.5t17.5 20.5t10 22h77q-6 -27 -19.5 -52.5t-35 -46t-51 -33t-67.5 -12.5zM378 293q0 20 -6.5 41t-21 37.5t-37 27t-53.5 10.5
q-32 0 -60 -12t-48.5 -35t-32.5 -56t-12 -75q0 -27 7 -50.5t22 -41t37.5 -27.5t52.5 -10q69 0 110.5 51t41.5 140zM42 -8v-7q0 -22 7 -41.5t21.5 -34.5t36 -23.5t51.5 -8.5q70 0 111 43t58 123l8 39q-16 -24 -49 -41.5t-79 -17.5q-47 0 -83 15.5t-61 43t-38 64.5t-13 79
q0 56 18 104.5t50.5 84.5t77.5 56.5t99 20.5q51 0 90 -19.5t59 -54.5l13 64h96l-90 -435q-10 -46 -28.5 -91t-50 -80.5t-78.5 -57.5t-114 -22q-50 0 -87.5 15t-63 39.5t-38 56.5t-12.5 65z" />
    <glyph glyph-name="Gdotaccent" unicode="&#x120;" horiz-adv-x="740" 
d="M408 634q-64 0 -115 -27t-86 -72t-54 -104t-19 -124q0 -54 14.5 -97t42 -73.5t66.5 -46.5t88 -16q38 0 75.5 12.5t69.5 36t55.5 58t34.5 78.5h-246l18 88h339l-73 -347h-76l8 80q-39 -45 -91.5 -70t-122.5 -25q-61 0 -115.5 21.5t-96 62.5t-65.5 99.5t-24 132.5
q0 104 33.5 183t87.5 132.5t122.5 80.5t139.5 27q63 0 112.5 -17.5t85 -48.5t58 -72t31.5 -87l-93 -27q-7 34 -23.5 63.5t-42 51.5t-60.5 34.5t-78 12.5zM389 814q0 29 20.5 49.5t49.5 20.5q26 0 42.5 -17t16.5 -40q0 -15 -6 -28t-15.5 -22.5t-22.5 -15.5t-27 -6
q-26 0 -42 17t-16 42z" />
    <glyph glyph-name="gdotaccent" unicode="&#x121;" horiz-adv-x="565" 
d="M262 608q0 27 20.5 49.5t50.5 22.5q26 0 42 -17t16 -40q0 -15 -6 -28t-15.5 -22.5t-22.5 -15.5t-27 -6q-26 0 -42 16.5t-16 40.5zM378 293q0 20 -6.5 41t-21 37.5t-37 27t-53.5 10.5q-32 0 -60 -12t-48.5 -35t-32.5 -56t-12 -75q0 -27 7 -50.5t22 -41t37.5 -27.5
t52.5 -10q69 0 110.5 51t41.5 140zM42 -8v-7q0 -22 7 -41.5t21.5 -34.5t36 -23.5t51.5 -8.5q70 0 111 43t58 123l8 39q-16 -24 -49 -41.5t-79 -17.5q-47 0 -83 15.5t-61 43t-38 64.5t-13 79q0 56 18 104.5t50.5 84.5t77.5 56.5t99 20.5q51 0 90 -19.5t59 -54.5l13 64h96
l-90 -435q-10 -46 -28.5 -91t-50 -80.5t-78.5 -57.5t-114 -22q-50 0 -87.5 15t-63 39.5t-38 56.5t-12.5 65z" />
    <glyph glyph-name="Gcommaaccent" unicode="&#x122;" horiz-adv-x="740" 
d="M408 634q-64 0 -115 -27t-86 -72t-54 -104t-19 -124q0 -54 14.5 -97t42 -73.5t66.5 -46.5t88 -16q38 0 75.5 12.5t69.5 36t55.5 58t34.5 78.5h-246l18 88h339l-73 -347h-76l8 80q-39 -45 -91.5 -70t-122.5 -25q-61 0 -115.5 21.5t-96 62.5t-65.5 99.5t-24 132.5
q0 104 33.5 183t87.5 132.5t122.5 80.5t139.5 27q63 0 112.5 -17.5t85 -48.5t58 -72t31.5 -87l-93 -27q-7 34 -23.5 63.5t-42 51.5t-60.5 34.5t-78 12.5zM233 -92q0 25 18.5 40.5t45.5 15.5q21 0 40 -14.5t19 -46.5t-12.5 -54t-31 -36t-40.5 -20.5t-41 -6.5h-6t-8 1l9 39
q21 0 43.5 8.5t30.5 32.5q-6 -4 -18 -4q-22 0 -35.5 12.5t-13.5 32.5z" />
    <glyph glyph-name="gcommaaccent" unicode="&#x123;" horiz-adv-x="565" 
d="M367 596q0 -25 -17.5 -42t-43.5 -17q-20 0 -39.5 16t-19.5 44q0 34 13.5 57t33 37t42.5 20t41 6h7l-8 -40h-5q-23 0 -43.5 -11t-25.5 -30q10 4 19 4q22 0 34 -13t12 -31zM378 293q0 20 -6.5 41t-21 37.5t-37 27t-53.5 10.5q-32 0 -60 -12t-48.5 -35t-32.5 -56t-12 -75
q0 -27 7 -50.5t22 -41t37.5 -27.5t52.5 -10q69 0 110.5 51t41.5 140zM42 -8v-7q0 -22 7 -41.5t21.5 -34.5t36 -23.5t51.5 -8.5q70 0 111 43t58 123l8 39q-16 -24 -49 -41.5t-79 -17.5q-47 0 -83 15.5t-61 43t-38 64.5t-13 79q0 56 18 104.5t50.5 84.5t77.5 56.5t99 20.5
q51 0 90 -19.5t59 -54.5l13 64h96l-90 -435q-10 -46 -28.5 -91t-50 -80.5t-78.5 -57.5t-114 -22q-50 0 -87.5 15t-63 39.5t-38 56.5t-12.5 65z" />
    <glyph glyph-name="Hcircumflex" unicode="&#x124;" horiz-adv-x="708" 
d="M265 759l135 119h120l90 -119h-83l-74 64l-101 -64h-87zM445 0l66 315h-332l-66 -315h-98l150 709h98l-64 -303h332l64 303h98l-150 -709h-98z" />
    <glyph glyph-name="hcircumflex" unicode="&#x125;" horiz-adv-x="555" 
d="M315 0l62 291q4 17 4 37q0 40 -22 62t-66 22q-29 0 -51.5 -11.5t-39 -30t-27.5 -42.5t-16 -48l-60 -280h-94l154 724h94l-60 -283q26 29 61 41.5t77 12.5q67 0 107.5 -39t40.5 -105q0 -11 -1.5 -22.5t-3.5 -23.5l-65 -305h-94zM192 769l135 119h120l90 -119h-83l-74 64
l-101 -64h-87z" />
    <glyph glyph-name="Hbar" unicode="&#x126;" horiz-adv-x="708" 
d="M61 588h78l26 121h98l-26 -121h332l26 121h98l-26 -121h80l-15 -75h-81l-108 -513h-98l66 315h-332l-66 -315h-98l108 513h-77zM531 406l22 107h-332l-22 -107h332z" />
    <glyph glyph-name="hbar" unicode="&#x127;" horiz-adv-x="555" 
d="M315 0l62 291q4 17 4 37q0 40 -22 62t-66 22q-29 0 -51.5 -11.5t-39 -30t-27.5 -42.5t-16 -48l-60 -280h-94l118 557h-81l17 76h80l20 91h94l-20 -91h127l-17 -76h-126l-24 -116q26 29 61 41.5t77 12.5q67 0 107.5 -39t40.5 -105q0 -11 -1.5 -22.5t-3.5 -23.5l-65 -305
h-94z" />
    <glyph glyph-name="Itilde" unicode="&#x128;" horiz-adv-x="280" 
d="M407 881q-12 -71 -42 -98.5t-71 -27.5q-21 0 -39 7.5t-31 16.5l-12 8q-9 6 -18 10t-20 4q-14 0 -24 -10t-15 -34h-70q4 34 14.5 58t25.5 39t34 22t40 7t39 -7.5t31 -16.5l12 -8q9 -6 18 -10t20 -4q14 0 24 10t15 34h69zM15 0l150 709h100l-150 -709h-100z" />
    <glyph glyph-name="itilde" unicode="&#x129;" horiz-adv-x="257" 
d="M5 0l103 481h94l-103 -481h-94zM8 554q4 34 14.5 58t25.5 39t34 22t40 7t38 -7.5t30 -16.5l12 -8q9 -6 17 -10t19 -4q14 0 24 10t15 34h69q-12 -71 -42 -98.5t-71 -27.5q-21 0 -38 7.5t-30 16.5l-12 8q-9 6 -17 10t-19 4q-14 0 -24 -10t-15 -34h-70z" />
    <glyph glyph-name="Imacron" unicode="&#x12a;" horiz-adv-x="280" 
d="M79 779l18 83h293l-18 -83h-293zM15 0l150 709h100l-150 -709h-100z" />
    <glyph glyph-name="imacron" unicode="&#x12b;" horiz-adv-x="257" 
d="M5 0l103 481h94l-103 -481h-94zM35 577l17 81h273l-17 -81h-273z" />
    <glyph glyph-name="Ibreve" unicode="&#x12c;" horiz-adv-x="280" 
d="M233 755q-68 0 -103.5 33t-35.5 80q0 6 2 16h78q-1 -4 -1 -8q0 -17 14 -31.5t52 -14.5q43 0 63 18t25 36h79q-7 -24 -21 -47t-35.5 -41.5t-50.5 -29.5t-66 -11zM15 0l150 709h100l-150 -709h-100z" />
    <glyph glyph-name="ibreve" unicode="&#x12d;" horiz-adv-x="257" 
d="M5 0l103 481h94l-103 -481h-94zM161 544q-30 0 -53 9.5t-38 26t-23 37.5t-8 44q0 13 3 27h69q-1 -3 -1 -5.5v-3.5q0 -10 3 -19.5t10 -17.5t19 -13t29 -5q19 0 33.5 6t25 15.5t17.5 20.5t10 22h77q-6 -27 -19.5 -52.5t-35 -46t-51 -33t-67.5 -12.5z" />
    <glyph glyph-name="Iogonek" unicode="&#x12e;" horiz-adv-x="280" 
d="M-74 -132q0 25 8 45t21.5 36.5t30 29t33.5 21.5h-4l150 709h100l-150 -709q-17 -7 -35.5 -17.5t-35 -24t-27 -30t-10.5 -37.5q0 -20 13 -29t31 -9q5 0 12 0.5t21 2.5l-14 -64q-11 -4 -21.5 -6t-29.5 -2q-42 0 -67.5 23t-25.5 61z" />
    <glyph glyph-name="iogonek" unicode="&#x12f;" horiz-adv-x="257" 
d="M-9 -109q0 -20 13 -29t31 -9q5 0 12 0.5t21 2.5l-14 -64q-11 -4 -21.5 -6t-29.5 -2q-42 0 -67.5 23t-25.5 61q0 25 8.5 46t22 37.5t30.5 28.5t34 20l103 481h94l-103 -481q-17 -7 -35.5 -17.5t-35 -24t-27 -30t-10.5 -37.5zM125 659q0 16 6.5 29.5t17 23.5t23.5 15.5
t27 5.5q27 0 44 -17.5t17 -42.5q0 -15 -6.5 -28.5t-17 -23.5t-24 -16t-26.5 -6q-27 0 -44 17.5t-17 42.5z" />
    <glyph glyph-name="Idotaccent" unicode="&#x130;" horiz-adv-x="280" 
d="M173 814q0 29 20.5 49.5t49.5 20.5q26 0 42.5 -17t16.5 -40q0 -15 -6 -28t-15.5 -22.5t-22.5 -15.5t-27 -6q-26 0 -42 17t-16 42zM15 0l150 709h100l-150 -709h-100z" />
    <glyph glyph-name="dotlessi" unicode="&#x131;" horiz-adv-x="257" 
d="M5 0l103 481h94l-103 -481h-94z" />
    <glyph glyph-name="IJ" unicode="&#x132;" horiz-adv-x="594" 
d="M82 322l85 387h100l-85 -387h-100zM589 709l-110 -513q-10 -47 -28.5 -85.5t-46.5 -66.5t-65 -43t-83 -15q-48 0 -84.5 14.5t-61.5 40t-37.5 60.5t-12.5 76q0 30 8 67l101 15l-7 -29q-6 -26 -6 -48q0 -48 26 -78t77 -30t80 33t42 91l109 511h99z" />
    <glyph glyph-name="ij" unicode="&#x133;" horiz-adv-x="481" 
d="M333 481h93l-119 -560q-13 -60 -51.5 -93t-93.5 -33q-27 0 -45 5.5t-23 8.5l16 75q2 -1 12.5 -3.5t24.5 -2.5q32 0 47 15.5t23 49.5zM350 659q0 16 6.5 29.5t17 23.5t23.5 15.5t27 5.5q27 0 44 -17.5t17 -42.5q0 -15 -6.5 -28.5t-17 -23.5t-24 -16t-26.5 -6
q-27 0 -44 17.5t-17 42.5zM125 659q0 16 6.5 29.5t17 23.5t23.5 15.5t27 5.5q27 0 44 -17.5t17 -42.5q0 -15 -6.5 -28.5t-17 -23.5t-24 -16t-26.5 -6q-27 0 -44 17.5t-17 42.5zM5 0l103 481h94l-103 -481h-94z" />
    <glyph glyph-name="Jcircumflex" unicode="&#x134;" horiz-adv-x="544" 
d="M325 759l135 119h120l90 -119h-83l-74 64l-101 -64h-87zM545 709l-110 -513q-10 -47 -28.5 -85.5t-46.5 -66.5t-65 -43t-83 -15q-48 0 -84.5 14.5t-61.5 40t-37.5 60.5t-12.5 76q0 30 8 67l5 23l100 15l-11 -52q-3 -12 -4 -24t-1 -23q0 -48 25 -78.5t77 -30.5q51 0 80 33
t42 91l109 511h99z" />
    <glyph glyph-name="jcircumflex" unicode="&#x135;" horiz-adv-x="256" 
d="M10 545l131 139h113l71 -139h-85l-52 81l-88 -81h-90zM108 481h93l-119 -560q-13 -60 -51.5 -93t-93.5 -33q-27 0 -45 5.5t-23 8.5l16 75q2 -1 12.5 -3.5t24.5 -2.5q32 0 47 15.5t23 49.5z" />
    <glyph glyph-name="Kcommaaccent" unicode="&#x136;" horiz-adv-x="662" 
d="M222 -92q0 25 18.5 40.5t45.5 15.5q21 0 40 -14.5t19 -46.5t-12.5 -54t-31 -36t-40.5 -20.5t-41 -6.5h-6t-8 1l9 39q21 0 43.5 8.5t30.5 32.5q-6 -4 -18 -4q-22 0 -35.5 12.5t-13.5 32.5zM289 334l-130 -114l-46 -220h-98l150 709h98l-73 -344l392 344h135l-355 -312
l214 -397h-111z" />
    <glyph glyph-name="kcommaaccent" unicode="&#x137;" horiz-adv-x="527" 
d="M139 -92q0 25 18.5 40.5t45.5 15.5q21 0 40 -14.5t19 -46.5t-12.5 -54t-31 -36t-40.5 -20.5t-41 -6.5h-6t-8 1l9 39q21 0 43.5 8.5t30.5 32.5q-6 -4 -18 -4q-22 0 -35.5 12.5t-13.5 32.5zM227 228l-98 -80l-31 -148h-93l154 724h93l-94 -440l239 197h140l-238 -194
l142 -287h-105z" />
    <glyph glyph-name="kgreenlandic" unicode="&#x138;" horiz-adv-x="527" 
d="M227 228l-98 -80l-31 -148h-93l103 481h93l-43 -197l239 197h140l-238 -194l142 -287h-105z" />
    <glyph glyph-name="Lacute" unicode="&#x139;" horiz-adv-x="538" 
d="M272 759h-97l119 119h131zM15 0l150 709h98l-131 -617h325l-19 -92h-423z" />
    <glyph glyph-name="lacute" unicode="&#x13a;" horiz-adv-x="255" 
d="M259 769h-97l119 119h131zM5 0l154 724h94l-154 -724h-94z" />
    <glyph glyph-name="Lcommaaccent" unicode="&#x13b;" horiz-adv-x="538" 
d="M161 -92q0 25 18.5 40.5t45.5 15.5q21 0 40 -14.5t19 -46.5t-12.5 -54t-31 -36t-40.5 -20.5t-41 -6.5h-6t-8 1l9 39q21 0 43.5 8.5t30.5 32.5q-6 -4 -18 -4q-22 0 -35.5 12.5t-13.5 32.5zM15 0l150 709h98l-131 -617h325l-19 -92h-423z" />
    <glyph glyph-name="lcommaaccent" unicode="&#x13c;" horiz-adv-x="255" 
d="M-30 -92q0 25 18.5 40.5t45.5 15.5q21 0 40 -14.5t19 -46.5t-12.5 -54t-31 -36t-40.5 -20.5t-41 -6.5h-6t-8 1l9 39q21 0 43.5 8.5t30.5 32.5q-6 -4 -18 -4q-22 0 -35.5 12.5t-13.5 32.5zM5 0l154 724h94l-154 -724h-94z" />
    <glyph glyph-name="Lcaron" unicode="&#x13d;" horiz-adv-x="538" 
d="M15 0l150 709h98l-131 -617h325l-19 -92h-423zM383 570h-76l65 190h116z" />
    <glyph glyph-name="lcaron" unicode="&#x13e;" horiz-adv-x="309" 
d="M334 545h-72l66 179h108zM5 0l154 724h94l-154 -724h-94z" />
    <glyph glyph-name="Ldot" unicode="&#x13f;" horiz-adv-x="538" 
d="M15 0l150 709h98l-131 -617h325l-19 -92h-423zM287 337q0 29 20.5 49.5t49.5 20.5q26 0 42.5 -17t16.5 -40q0 -15 -6 -28t-15.5 -22.5t-22.5 -15.5t-27 -6q-26 0 -42 17t-16 42z" />
    <glyph glyph-name="ldot" unicode="&#x140;" horiz-adv-x="355" 
d="M218 304q0 27 20.5 49.5t50.5 22.5q26 0 42 -17t16 -40q0 -15 -6 -28t-15.5 -22.5t-22.5 -15.5t-27 -6q-26 0 -42 16.5t-16 40.5zM5 0l154 724h94l-154 -724h-94z" />
    <glyph glyph-name="Lslash" unicode="&#x141;" horiz-adv-x="538" 
d="M15 0l62 296l-96 -39l18 87l97 39l69 326h98l-60 -283l180 73l-18 -87l-181 -73l-52 -247h325l-19 -92h-423z" />
    <glyph glyph-name="lslash" unicode="&#x142;" horiz-adv-x="289" 
d="M5 0l66 308l-99 -40l19 87l98 40l70 329h94l-61 -288l103 42l-19 -87l-103 -42l-74 -349h-94z" />
    <glyph glyph-name="Nacute" unicode="&#x143;" horiz-adv-x="738" 
d="M476 759h-97l119 119h131zM471 0l-236 574l-122 -574h-98l150 709h117l225 -554l118 554h98l-150 -709h-102z" />
    <glyph glyph-name="nacute" unicode="&#x144;" horiz-adv-x="555" 
d="M338 543h-84l115 146h124zM315 0l62 291q2 8 3 17t1 20q0 40 -22 62t-66 22q-29 0 -51.5 -11.5t-39 -30t-27.5 -42.5t-16 -48l-60 -280h-94l84 396q8 34 10 58.5t2 26.5h92q0 -3 -1.5 -19.5t-4.5 -33.5q28 38 66.5 52.5t82.5 14.5q63 0 103 -39t40 -105q0 -11 -1.5 -22.5
t-3.5 -23.5l-65 -305h-94z" />
    <glyph glyph-name="Ncommaaccent" unicode="&#x145;" horiz-adv-x="738" 
d="M251 -92q0 25 18.5 40.5t45.5 15.5q21 0 40 -14.5t19 -46.5t-12.5 -54t-31 -36t-40.5 -20.5t-41 -6.5h-6t-8 1l9 39q21 0 43.5 8.5t30.5 32.5q-6 -4 -18 -4q-22 0 -35.5 12.5t-13.5 32.5zM471 0l-236 574l-122 -574h-98l150 709h117l225 -554l118 554h98l-150 -709h-102z
" />
    <glyph glyph-name="ncommaaccent" unicode="&#x146;" horiz-adv-x="555" 
d="M140 -92q0 25 18.5 40.5t45.5 15.5q21 0 40 -14.5t19 -46.5t-12.5 -54t-31 -36t-40.5 -20.5t-41 -6.5h-6t-8 1l9 39q21 0 43.5 8.5t30.5 32.5q-6 -4 -18 -4q-22 0 -35.5 12.5t-13.5 32.5zM315 0l62 291q2 8 3 17t1 20q0 40 -22 62t-66 22q-29 0 -51.5 -11.5t-39 -30
t-27.5 -42.5t-16 -48l-60 -280h-94l84 396q8 34 10 58.5t2 26.5h92q0 -3 -1.5 -19.5t-4.5 -33.5q28 38 66.5 52.5t82.5 14.5q63 0 103 -39t40 -105q0 -11 -1.5 -22.5t-3.5 -23.5l-65 -305h-94z" />
    <glyph glyph-name="Ncaron" unicode="&#x147;" horiz-adv-x="738" 
d="M642 878l-140 -119h-120l-85 119h82l69 -64l101 64h93zM471 0l-236 574l-122 -574h-98l150 709h117l225 -554l118 554h98l-150 -709h-102z" />
    <glyph glyph-name="ncaron" unicode="&#x148;" horiz-adv-x="555" 
d="M492 687l-130 -142h-115l-70 142h84l52 -81l88 81h91zM315 0l62 291q2 8 3 17t1 20q0 40 -22 62t-66 22q-29 0 -51.5 -11.5t-39 -30t-27.5 -42.5t-16 -48l-60 -280h-94l84 396q8 34 10 58.5t2 26.5h92q0 -3 -1.5 -19.5t-4.5 -33.5q28 38 66.5 52.5t82.5 14.5
q63 0 103 -39t40 -105q0 -11 -1.5 -22.5t-3.5 -23.5l-65 -305h-94z" />
    <glyph glyph-name="napostrophe" unicode="&#x149;" horiz-adv-x="555" 
d="M127 587q22 0 43 8.5t32 32.5q-8 -4 -19 -4q-22 0 -34.5 13t-12.5 32q0 27 18 42t43 15q21 0 40 -13.5t19 -46.5q0 -26 -10 -47.5t-27 -38t-40 -25.5t-49 -9h-4.5t-6.5 1zM315 0l62 291q2 8 3 17t1 20q0 40 -22 62t-66 22q-29 0 -51.5 -11.5t-39 -30t-27.5 -42.5t-16 -48
l-60 -280h-94l84 396q8 34 10 58.5t2 26.5h92q0 -3 -1.5 -19.5t-4.5 -33.5q28 38 66.5 52.5t82.5 14.5q63 0 103 -39t40 -105q0 -11 -1.5 -22.5t-3.5 -23.5l-65 -305h-94z" />
    <glyph glyph-name="Eng" unicode="&#x14a;" horiz-adv-x="738" 
d="M476 -11l-241 585l-122 -574h-98l150 709h117l225 -554l118 554h98l-167 -789q-13 -60 -51.5 -92.5t-93.5 -32.5q-27 0 -44 5t-24 9l16 75q4 -2 15 -4t22 -2q32 0 47 15t23 49z" />
    <glyph glyph-name="eng" unicode="&#x14b;" horiz-adv-x="555" 
d="M377 291q2 7 3 17.5t1 19.5q0 40 -22 62t-66 22q-29 0 -51.5 -11.5t-39 -30t-27.5 -42.5t-16 -48l-60 -280h-94l84 396q8 34 10 58.5t2 26.5h92q0 -3 -1.5 -19.5t-4.5 -33.5q28 38 66.5 52.5t82.5 14.5q63 0 103 -39t40 -105q0 -11 -1.5 -23.5t-3.5 -22.5l-84 -396
q-13 -60 -51.5 -92.5t-93.5 -32.5q-27 0 -45 5.5t-23 8.5l16 75q2 -1 12.5 -3.5t24.5 -2.5q32 0 47 15t23 49z" />
    <glyph glyph-name="Omacron" unicode="&#x14c;" horiz-adv-x="753" 
d="M35 294q0 106 33 186.5t86.5 134.5t121 81.5t136.5 27.5t125.5 -22t96.5 -62.5t62 -98t22 -127.5q0 -106 -33 -186.5t-86.5 -134.5t-120.5 -81t-136 -27t-126 22.5t-97 63t-62 97.5t-22 126zM618 404q0 55 -16 98t-44.5 72.5t-67 44.5t-84.5 15q-65 0 -115.5 -28t-85 -74
t-52.5 -105.5t-18 -122.5q0 -56 16 -98.5t44.5 -71.5t67 -44t84.5 -15q65 0 115.5 27.5t85 73.5t52.5 105.5t18 122.5zM294 779l18 83h293l-18 -83h-293z" />
    <glyph glyph-name="omacron" unicode="&#x14d;" horiz-adv-x="541" 
d="M163 577l17 81h273l-17 -81h-273zM267 412q-31 0 -60 -13.5t-51.5 -39t-36 -63.5t-13.5 -87q0 -64 33 -102t89 -38q31 0 60.5 13.5t52 39.5t36 64t13.5 87q0 63 -32.5 101t-90.5 38zM486 275q0 -61 -20 -114t-55 -92t-83 -61.5t-104 -22.5q-51 0 -91 17.5t-67 48
t-41.5 71t-14.5 85.5q0 62 20 115t55 91.5t83.5 60.5t104.5 22q52 0 92 -17.5t67 -47.5t40.5 -70.5t13.5 -85.5z" />
    <glyph glyph-name="Obreve" unicode="&#x14e;" horiz-adv-x="753" 
d="M35 294q0 106 33 186.5t86.5 134.5t121 81.5t136.5 27.5t125.5 -22t96.5 -62.5t62 -98t22 -127.5q0 -106 -33 -186.5t-86.5 -134.5t-120.5 -81t-136 -27t-126 22.5t-97 63t-62 97.5t-22 126zM618 404q0 55 -16 98t-44.5 72.5t-67 44.5t-84.5 15q-65 0 -115.5 -28t-85 -74
t-52.5 -105.5t-18 -122.5q0 -56 16 -98.5t44.5 -71.5t67 -44t84.5 -15q65 0 115.5 27.5t85 73.5t52.5 105.5t18 122.5zM461 755q-68 0 -103.5 33t-35.5 80q0 6 2 16h78q-1 -4 -1 -8q0 -17 14 -31.5t52 -14.5q43 0 63 18t25 36h79q-7 -24 -21 -47t-35.5 -41.5t-50.5 -29.5
t-66 -11z" />
    <glyph glyph-name="obreve" unicode="&#x14f;" horiz-adv-x="541" 
d="M289 544q-30 0 -53 9.5t-38 26t-23 37.5t-8 44q0 13 3 27h69q-1 -3 -1 -5.5v-3.5q0 -10 3 -19.5t10 -17.5t19 -13t29 -5q19 0 33.5 6t25 15.5t17.5 20.5t10 22h77q-6 -27 -19.5 -52.5t-35 -46t-51 -33t-67.5 -12.5zM267 412q-31 0 -60 -13.5t-51.5 -39t-36 -63.5
t-13.5 -87q0 -64 33 -102t89 -38q31 0 60.5 13.5t52 39.5t36 64t13.5 87q0 63 -32.5 101t-90.5 38zM486 275q0 -61 -20 -114t-55 -92t-83 -61.5t-104 -22.5q-51 0 -91 17.5t-67 48t-41.5 71t-14.5 85.5q0 62 20 115t55 91.5t83.5 60.5t104.5 22q52 0 92 -17.5t67 -47.5
t40.5 -70.5t13.5 -85.5z" />
    <glyph glyph-name="Ohungarumlaut" unicode="&#x150;" horiz-adv-x="753" 
d="M35 294q0 106 33 186.5t86.5 134.5t121 81.5t136.5 27.5t125.5 -22t96.5 -62.5t62 -98t22 -127.5q0 -106 -33 -186.5t-86.5 -134.5t-120.5 -81t-136 -27t-126 22.5t-97 63t-62 97.5t-22 126zM618 404q0 55 -16 98t-44.5 72.5t-67 44.5t-84.5 15q-65 0 -115.5 -28t-85 -74
t-52.5 -105.5t-18 -122.5q0 -56 16 -98.5t44.5 -71.5t67 -44t84.5 -15q65 0 115.5 27.5t85 73.5t52.5 105.5t18 122.5zM392 759h-73l81 119h110zM533 759h-73l91 119h110z" />
    <glyph glyph-name="ohungarumlaut" unicode="&#x151;" horiz-adv-x="541" 
d="M255 543h-69l82 146h108zM389 543h-69l92 146h108zM267 412q-31 0 -60 -13.5t-51.5 -39t-36 -63.5t-13.5 -87q0 -64 33 -102t89 -38q31 0 60.5 13.5t52 39.5t36 64t13.5 87q0 63 -32.5 101t-90.5 38zM486 275q0 -61 -20 -114t-55 -92t-83 -61.5t-104 -22.5
q-51 0 -91 17.5t-67 48t-41.5 71t-14.5 85.5q0 62 20 115t55 91.5t83.5 60.5t104.5 22q52 0 92 -17.5t67 -47.5t40.5 -70.5t13.5 -85.5z" />
    <glyph glyph-name="OE" unicode="&#x152;" horiz-adv-x="1103" 
d="M618 404q0 55 -16 98t-44.5 72.5t-67 44.5t-84.5 15q-65 0 -115.5 -28t-85 -74t-52.5 -105.5t-18 -122.5q0 -56 16 -98.5t44.5 -71.5t67 -44t84.5 -15q65 0 115.5 27.5t85 73.5t52.5 105.5t18 122.5zM542 0l13 60q-47 -37 -101.5 -56t-111.5 -19q-69 0 -126 22.5t-97 63
t-62 97.5t-22 126q0 106 33 186.5t86.5 134.5t121 81.5t136.5 27.5q91 0 154.5 -37t98.5 -104l27 126h426l-19 -91h-328l-46 -218h297l-20 -92h-297l-46 -217h328l-19 -91h-426z" />
    <glyph glyph-name="oe" unicode="&#x153;" horiz-adv-x="905" 
d="M605 -15q-59 0 -107.5 23.5t-77.5 70.5q-36 -44 -86 -69t-110 -25q-51 0 -91 17.5t-67 48t-41.5 71t-14.5 85.5q0 62 20 115t55 91.5t83.5 60.5t104.5 22q64 0 109 -26t71 -69q38 46 90 70.5t108 24.5q49 0 86 -14.5t62 -40t38 -61t13 -78.5q0 -29 -5 -52.5t-9 -35.5
h-354q-1 -5 -1 -8.5v-8.5q0 -30 9.5 -53.5t26 -40.5t39 -26t47.5 -9q28 0 50.5 7t40 18.5t30.5 25.5t21 29l71 -46q-13 -24 -33.5 -45t-47.5 -37t-60 -25.5t-70 -9.5zM751 290q2 8 2 20q0 18 -5.5 36.5t-18 33t-33 24t-50.5 9.5t-55 -10.5t-44.5 -27.5t-32.5 -39t-19 -46
h256zM390 273q0 63 -32.5 101t-90.5 38q-31 0 -60 -13.5t-51.5 -39t-36 -63.5t-13.5 -87q0 -64 33 -102t89 -38q31 0 60.5 13.5t52 39.5t36 64t13.5 87z" />
    <glyph glyph-name="Racute" unicode="&#x154;" horiz-adv-x="615" 
d="M408 759h-97l119 119h131zM301 294h-126l-62 -294h-98l150 709h230q46 0 82.5 -13.5t61.5 -37.5t38 -57t13 -72q0 -45 -14 -83t-39.5 -67.5t-60 -49t-76.5 -28.5l116 -301h-104zM332 381q70 0 114.5 37t44.5 105q0 45 -28 72t-84 27h-134l-52 -241h139z" />
    <glyph glyph-name="racute" unicode="&#x155;" horiz-adv-x="364" 
d="M278 543h-84l115 146h124zM347 384q-18 3 -34 3q-58 0 -103 -37.5t-63 -121.5l-49 -228h-93l84 396q7 33 9.5 56.5t2.5 28.5h92q0 -16 -2.5 -39t-6.5 -36q15 24 34 40t40 25.5t42.5 13.5t41.5 4q7 0 14.5 -0.5t12.5 -1.5z" />
    <glyph glyph-name="Rcommaaccent" unicode="&#x156;" horiz-adv-x="615" 
d="M186 -92q0 25 18.5 40.5t45.5 15.5q21 0 40 -14.5t19 -46.5t-12.5 -54t-31 -36t-40.5 -20.5t-41 -6.5h-6t-8 1l9 39q21 0 43.5 8.5t30.5 32.5q-6 -4 -18 -4q-22 0 -35.5 12.5t-13.5 32.5zM301 294h-126l-62 -294h-98l150 709h230q46 0 82.5 -13.5t61.5 -37.5t38 -57
t13 -72q0 -45 -14 -83t-39.5 -67.5t-60 -49t-76.5 -28.5l116 -301h-104zM332 381q70 0 114.5 37t44.5 105q0 45 -28 72t-84 27h-134l-52 -241h139z" />
    <glyph glyph-name="rcommaaccent" unicode="&#x157;" horiz-adv-x="364" 
d="M-27 -92q0 25 18.5 40.5t45.5 15.5q21 0 40 -14.5t19 -46.5t-12.5 -54t-31 -36t-40.5 -20.5t-41 -6.5h-6t-8 1l9 39q21 0 43.5 8.5t30.5 32.5q-6 -4 -18 -4q-22 0 -35.5 12.5t-13.5 32.5zM347 384q-18 3 -34 3q-58 0 -103 -37.5t-63 -121.5l-49 -228h-93l84 396
q7 33 9.5 56.5t2.5 28.5h92q0 -16 -2.5 -39t-6.5 -36q15 24 34 40t40 25.5t42.5 13.5t41.5 4q7 0 14.5 -0.5t12.5 -1.5z" />
    <glyph glyph-name="Rcaron" unicode="&#x158;" horiz-adv-x="615" 
d="M570 878l-140 -119h-120l-85 119h82l69 -64l101 64h93zM301 294h-126l-62 -294h-98l150 709h230q46 0 82.5 -13.5t61.5 -37.5t38 -57t13 -72q0 -45 -14 -83t-39.5 -67.5t-60 -49t-76.5 -28.5l116 -301h-104zM332 381q70 0 114.5 37t44.5 105q0 45 -28 72t-84 27h-134
l-52 -241h139z" />
    <glyph glyph-name="rcaron" unicode="&#x159;" horiz-adv-x="364" 
d="M424 687l-130 -142h-115l-70 142h84l52 -81l88 81h91zM347 384q-18 3 -34 3q-58 0 -103 -37.5t-63 -121.5l-49 -228h-93l84 396q7 33 9.5 56.5t2.5 28.5h92q0 -16 -2.5 -39t-6.5 -36q15 24 34 40t40 25.5t42.5 13.5t41.5 4q7 0 14.5 -0.5t12.5 -1.5z" />
    <glyph glyph-name="Sacute" unicode="&#x15a;" horiz-adv-x="581" 
d="M264 73q61 1 98.5 31t37.5 80q0 31 -17.5 58t-58.5 45l-94 42q-60 26 -94.5 71t-34.5 112q0 44 18 83t50 67.5t75.5 45t94.5 16.5q65 0 109.5 -20.5t71.5 -50.5t39 -65t12 -65l-93 -18q0 14 -5 36.5t-20.5 43.5t-44.5 36.5t-77 15.5q-27 0 -51 -8.5t-41.5 -23.5
t-27.5 -35.5t-10 -44.5q0 -35 17.5 -59.5t48.5 -38.5l97 -45q71 -33 104.5 -80.5t33.5 -106.5q0 -42 -17 -80t-48.5 -67t-75.5 -46t-97 -17q-69 0 -118.5 21.5t-80.5 55.5t-45.5 76t-14.5 83v6t1 9l99 17q-1 -7 -1 -12v-8q0 -30 9 -59t28.5 -51.5t49.5 -36t73 -13.5z
M408 759h-97l119 119h131z" />
    <glyph glyph-name="sacute" unicode="&#x15b;" horiz-adv-x="441" 
d="M288 543h-84l115 146h124zM73 169q1 -43 28.5 -73.5t76.5 -30.5q40 0 58.5 20t18.5 44q0 36 -45 57l-70 32q-42 19 -64 49.5t-22 72.5q0 30 12 58.5t34.5 50t55.5 34.5t74 13q47 0 79 -14.5t52 -36t29 -45.5t11 -43l-84 -23q-2 14 -7.5 28.5t-16.5 26.5t-28.5 20t-43.5 8
q-36 0 -56 -19t-20 -44q0 -20 10 -33t28 -21l66 -30q48 -22 74 -56.5t26 -77.5q0 -23 -9.5 -49.5t-30.5 -49t-54.5 -37.5t-81.5 -15q-50 0 -84.5 16t-56.5 40.5t-32 53.5t-10 55z" />
    <glyph glyph-name="Scircumflex" unicode="&#x15c;" horiz-adv-x="581" 
d="M198 759l135 119h120l90 -119h-83l-74 64l-101 -64h-87zM264 73q61 1 98.5 31t37.5 80q0 31 -17.5 58t-58.5 45l-94 42q-60 26 -94.5 71t-34.5 112q0 44 18 83t50 67.5t75.5 45t94.5 16.5q65 0 109.5 -20.5t71.5 -50.5t39 -65t12 -65l-93 -18q0 14 -5 36.5t-20.5 43.5
t-44.5 36.5t-77 15.5q-27 0 -51 -8.5t-41.5 -23.5t-27.5 -35.5t-10 -44.5q0 -35 17.5 -59.5t48.5 -38.5l97 -45q71 -33 104.5 -80.5t33.5 -106.5q0 -42 -17 -80t-48.5 -67t-75.5 -46t-97 -17q-69 0 -118.5 21.5t-80.5 55.5t-45.5 76t-14.5 83v6t1 9l99 17q-1 -7 -1 -12v-8
q0 -30 9 -59t28.5 -51.5t49.5 -36t73 -13.5z" />
    <glyph glyph-name="scircumflex" unicode="&#x15d;" horiz-adv-x="441" 
d="M101 545l131 139h113l71 -139h-85l-52 81l-88 -81h-90zM73 169q1 -43 28.5 -73.5t76.5 -30.5q40 0 58.5 20t18.5 44q0 36 -45 57l-70 32q-42 19 -64 49.5t-22 72.5q0 30 12 58.5t34.5 50t55.5 34.5t74 13q47 0 79 -14.5t52 -36t29 -45.5t11 -43l-84 -23q-2 14 -7.5 28.5
t-16.5 26.5t-28.5 20t-43.5 8q-36 0 -56 -19t-20 -44q0 -20 10 -33t28 -21l66 -30q48 -22 74 -56.5t26 -77.5q0 -23 -9.5 -49.5t-30.5 -49t-54.5 -37.5t-81.5 -15q-50 0 -84.5 16t-56.5 40.5t-32 53.5t-10 55z" />
    <glyph glyph-name="Scedilla" unicode="&#x15e;" horiz-adv-x="581" 
d="M196 -9q-51 10 -87 33.5t-59 55t-34 68.5t-11 73v5.5t1 9.5l99 17q-1 -8 -1 -13.5v-6.5q0 -30 9 -59t28.5 -51.5t49.5 -36t73 -13.5q61 0 98.5 30.5t37.5 80.5q0 31 -17.5 58t-58.5 45l-94 42q-60 26 -94.5 71t-34.5 112q0 44 18 83t50 67.5t75.5 45t94.5 16.5
q65 0 109.5 -20.5t71.5 -50.5t39 -65t12 -65l-93 -18q0 14 -5 36.5t-20.5 43.5t-44.5 36.5t-77 15.5q-27 0 -51 -8.5t-41.5 -23.5t-27.5 -35.5t-10 -44.5q0 -35 17.5 -59.5t48.5 -38.5l97 -45q71 -33 104.5 -80.5t33.5 -106.5q0 -41 -16.5 -78.5t-47 -66t-73 -46.5
t-94.5 -19l-44 -37q34 -5 51 -25.5t17 -46.5q0 -39 -32 -65.5t-83 -26.5q-26 0 -47 7.5t-36.5 18t-26 23t-14.5 22.5l52 32q2 -5 7 -13.5t13.5 -16t21 -13t29.5 -5.5t31.5 8.5t14.5 26.5q0 15 -12.5 24t-30.5 9h-6t-8 -1l-22 42z" />
    <glyph glyph-name="scedilla" unicode="&#x15f;" horiz-adv-x="441" 
d="M145 -52q34 -5 51 -25.5t17 -46.5q0 -39 -32 -65.5t-83 -26.5q-26 0 -47 7.5t-36.5 18t-26 23t-14.5 22.5l52 32q2 -5 7 -13.5t13.5 -16t21 -13t29.5 -5.5t31.5 8.5t14.5 26.5q0 15 -11.5 24t-31.5 9h-6t-8 -1l-22 42l51 44q-33 9 -57 26.5t-39 39.5t-22 46t-7 46l83 19
q1 -43 28.5 -73.5t76.5 -30.5q40 0 58.5 20t18.5 44q0 36 -45 57l-70 32q-42 19 -64 49.5t-22 72.5q0 30 12 58.5t34.5 50t55.5 34.5t74 13q47 0 79 -14.5t52 -36t29 -45.5t11 -43l-84 -23q-2 14 -7.5 28.5t-16.5 26.5t-28.5 20t-43.5 8q-36 0 -56 -19t-20 -44q0 -20 10 -33
t28 -21l66 -30q48 -22 74 -56.5t26 -77.5q0 -22 -8.5 -47.5t-27.5 -47t-49.5 -37t-73.5 -18.5z" />
    <glyph glyph-name="Scaron" unicode="&#x160;" horiz-adv-x="581" 
d="M264 73q61 1 98.5 31t37.5 80q0 31 -17.5 58t-58.5 45l-94 42q-60 26 -94.5 71t-34.5 112q0 44 18 83t50 67.5t75.5 45t94.5 16.5q65 0 109.5 -20.5t71.5 -50.5t39 -65t12 -65l-93 -18q0 14 -5 36.5t-20.5 43.5t-44.5 36.5t-77 15.5q-27 0 -51 -8.5t-41.5 -23.5
t-27.5 -35.5t-10 -44.5q0 -35 17.5 -59.5t48.5 -38.5l97 -45q71 -33 104.5 -80.5t33.5 -106.5q0 -42 -17 -80t-48.5 -67t-75.5 -46t-97 -17q-69 0 -118.5 21.5t-80.5 55.5t-45.5 76t-14.5 83v6t1 9l99 17q-1 -7 -1 -12v-8q0 -30 9 -59t28.5 -51.5t49.5 -36t73 -13.5z
M570 878l-140 -119h-120l-85 119h82l69 -64l101 64h93z" />
    <glyph glyph-name="scaron" unicode="&#x161;" horiz-adv-x="441" 
d="M451 687l-130 -142h-115l-70 142h84l52 -81l88 81h91zM73 169q1 -43 28.5 -73.5t76.5 -30.5q40 0 58.5 20t18.5 44q0 36 -45 57l-70 32q-42 19 -64 49.5t-22 72.5q0 30 12 58.5t34.5 50t55.5 34.5t74 13q47 0 79 -14.5t52 -36t29 -45.5t11 -43l-84 -23q-2 14 -7.5 28.5
t-16.5 26.5t-28.5 20t-43.5 8q-36 0 -56 -19t-20 -44q0 -20 10 -33t28 -21l66 -30q48 -22 74 -56.5t26 -77.5q0 -23 -9.5 -49.5t-30.5 -49t-54.5 -37.5t-81.5 -15q-50 0 -84.5 16t-56.5 40.5t-32 53.5t-10 55z" />
    <glyph glyph-name="Tcommaaccent" unicode="&#x162;" horiz-adv-x="566" 
d="M163 0l131 619h-229l19 90h547l-19 -90h-220l-131 -619l-61 -52q34 -5 51 -25.5t17 -46.5q0 -39 -32 -65.5t-83 -26.5q-26 0 -47 7t-37 17.5t-26 23t-14 23.5l52 32q2 -5 7 -13.5t13.5 -16t21 -13t29.5 -5.5t31.5 8.5t14.5 26.5q0 15 -11.5 24t-31.5 9h-6t-8 -1l-22 42
l58 52h-14z" />
    <glyph glyph-name="tcommaaccent" unicode="&#x163;" horiz-adv-x="337" 
d="M59 101q0 20 4 37l55 258h-88l18 85h14q43 0 67 21t32 57l16 74h86l-33 -152h97l-18 -85h-97l-53 -253q-3 -14 -3 -23q0 -43 54 -43q8 0 17 0.5t15 1.5l-16 -77q-3 -2 -11.5 -3.5t-22.5 -2.5l-57 -48q34 -5 51 -25.5t17 -46.5q0 -39 -32 -65.5t-83 -26.5q-26 0 -47 7
t-37 17.5t-26 23t-14 23.5l52 32q2 -5 7 -13.5t13.5 -16t21 -13t29.5 -5.5t31.5 8.5t14.5 26.5q0 15 -11.5 24t-31.5 9h-6t-8 -1l-22 42l65 57q-29 11 -44.5 36t-15.5 60z" />
    <glyph glyph-name="Tcaron" unicode="&#x164;" horiz-adv-x="566" 
d="M392 619l-131 -619h-98l131 619h-229l19 90h547l-19 -90h-220zM569 878l-140 -119h-120l-85 119h82l69 -64l101 64h93z" />
    <glyph glyph-name="tcaron" unicode="&#x165;" horiz-adv-x="337" 
d="M380 566h-72l66 179h108zM59 101q0 20 4 37l55 258h-88l18 85h14q43 0 67 21t32 57l16 74h86l-33 -152h97l-18 -85h-97l-53 -253q-3 -14 -3 -23q0 -43 54 -43q8 0 17 0.5t15 1.5l-16 -77q-4 -2 -16.5 -4.5t-34.5 -2.5q-53 0 -84.5 27.5t-31.5 78.5z" />
    <glyph glyph-name="Tbar" unicode="&#x166;" horiz-adv-x="566" 
d="M392 619l-52 -247h122l-18 -81h-122l-61 -291h-98l61 291h-116l18 81h116l52 247h-229l19 90h547l-19 -90h-220z" />
    <glyph glyph-name="tbar" unicode="&#x167;" horiz-adv-x="337" 
d="M188 284h102l-16 -76h-102l-13 -65q-3 -14 -3 -23q0 -43 54 -43q8 0 17 0.5t15 1.5l-16 -77q-4 -2 -16.5 -4.5t-34.5 -2.5q-53 0 -84.5 27.5t-31.5 78.5q0 20 4 37l15 70h-85l16 76h85l24 112h-88l18 85h14q43 0 67 21t32 57l16 74h86l-33 -152h97l-18 -85h-97z" />
    <glyph glyph-name="Utilde" unicode="&#x168;" horiz-adv-x="666" 
d="M661 709l-104 -493q-23 -111 -94 -171t-175 -60q-106 0 -169 54.5t-63 156.5q0 17 1.5 35.5t6.5 38.5l93 439h94l-92 -451q-6 -29 -6 -54q0 -59 34 -93.5t106 -34.5q66 0 109 39t58 110l102 484h99zM598 881q-12 -71 -42 -98.5t-71 -27.5q-21 0 -39 7.5t-31 16.5l-12 8
q-9 6 -18 10t-20 4q-14 0 -24 -10t-15 -34h-70q4 34 14.5 58t25.5 39t34 22t40 7t39 -7.5t31 -16.5l12 -8q9 -6 18 -10t20 -4q14 0 24 10t15 34h69z" />
    <glyph glyph-name="utilde" unicode="&#x169;" horiz-adv-x="544" 
d="M318 56q-24 -34 -60.5 -50t-70.5 -16q-75 0 -115 42.5t-40 112.5q0 26 6 55l60 281h94l-59 -279q-2 -12 -3.5 -23.5t-1.5 -22.5q0 -37 19 -61.5t66 -24.5q27 0 48.5 10.5t37.5 28.5t27 41.5t16 49.5l59 281h93l-75 -356q-8 -38 -9.5 -66t-1.5 -43v-6t1 -10h-90
q-2 10 -2 28v11t1 17zM150 554q4 34 14.5 58t25.5 39t34 22t40 7t38 -7.5t30 -16.5l12 -8q9 -6 17 -10t19 -4q14 0 24 10t15 34h69q-12 -71 -42 -98.5t-71 -27.5q-21 0 -38 7.5t-30 16.5l-12 8q-9 6 -17 10t-19 4q-14 0 -24 -10t-15 -34h-70z" />
    <glyph glyph-name="Umacron" unicode="&#x16a;" horiz-adv-x="666" 
d="M661 709l-104 -493q-23 -111 -94 -171t-175 -60q-106 0 -169 54.5t-63 156.5q0 17 1.5 35.5t6.5 38.5l93 439h94l-92 -451q-6 -29 -6 -54q0 -59 34 -93.5t106 -34.5q66 0 109 39t58 110l102 484h99zM273 779l18 83h293l-18 -83h-293z" />
    <glyph glyph-name="umacron" unicode="&#x16b;" horiz-adv-x="544" 
d="M318 56q-24 -34 -60.5 -50t-70.5 -16q-75 0 -115 42.5t-40 112.5q0 26 6 55l60 281h94l-59 -279q-2 -12 -3.5 -23.5t-1.5 -22.5q0 -37 19 -61.5t66 -24.5q27 0 48.5 10.5t37.5 28.5t27 41.5t16 49.5l59 281h93l-75 -356q-8 -38 -9.5 -66t-1.5 -43v-6t1 -10h-90
q-2 10 -2 28v11t1 17zM176 577l17 81h273l-17 -81h-273z" />
    <glyph glyph-name="Ubreve" unicode="&#x16c;" horiz-adv-x="666" 
d="M661 709l-104 -493q-23 -111 -94 -171t-175 -60q-106 0 -169 54.5t-63 156.5q0 17 1.5 35.5t6.5 38.5l93 439h94l-92 -451q-6 -29 -6 -54q0 -59 34 -93.5t106 -34.5q66 0 109 39t58 110l102 484h99zM418 755q-68 0 -103.5 33t-35.5 80q0 6 2 16h78q-1 -4 -1 -8
q0 -17 14 -31.5t52 -14.5q43 0 63 18t25 36h79q-7 -24 -21 -47t-35.5 -41.5t-50.5 -29.5t-66 -11z" />
    <glyph glyph-name="ubreve" unicode="&#x16d;" horiz-adv-x="544" 
d="M318 56q-24 -34 -60.5 -50t-70.5 -16q-75 0 -115 42.5t-40 112.5q0 26 6 55l60 281h94l-59 -279q-2 -12 -3.5 -23.5t-1.5 -22.5q0 -37 19 -61.5t66 -24.5q27 0 48.5 10.5t37.5 28.5t27 41.5t16 49.5l59 281h93l-75 -356q-8 -38 -9.5 -66t-1.5 -43v-6t1 -10h-90
q-2 10 -2 28v11t1 17zM304 544q-30 0 -53 9.5t-38 26t-23 37.5t-8 44q0 13 3 27h69q-1 -3 -1 -5.5v-3.5q0 -10 3 -19.5t10 -17.5t19 -13t29 -5q19 0 33.5 6t25 15.5t17.5 20.5t10 22h77q-6 -27 -19.5 -52.5t-35 -46t-51 -33t-67.5 -12.5z" />
    <glyph glyph-name="Uring" unicode="&#x16e;" horiz-adv-x="666" 
d="M661 709l-104 -493q-23 -111 -94 -171t-175 -60q-106 0 -169 54.5t-63 156.5q0 17 1.5 35.5t6.5 38.5l93 439h94l-92 -451q-6 -29 -6 -54q0 -59 34 -93.5t106 -34.5q66 0 109 39t58 110l102 484h99zM428 895q-19 0 -35 -13.5t-16 -36.5q0 -20 11.5 -31t31.5 -11
q21 0 36.5 13.5t15.5 36.5q0 18 -12 30t-32 12zM313 837q0 27 10.5 49.5t27.5 38t39 24.5t45 9q22 0 40.5 -8t32.5 -21.5t22 -31.5t8 -39q0 -23 -9.5 -44.5t-26 -38t-38.5 -26.5t-46 -10q-44 0 -74.5 28t-30.5 70z" />
    <glyph glyph-name="uring" unicode="&#x16f;" horiz-adv-x="544" 
d="M318 56q-24 -34 -60.5 -50t-70.5 -16q-75 0 -115 42.5t-40 112.5q0 26 6 55l60 281h94l-59 -279q-2 -12 -3.5 -23.5t-1.5 -22.5q0 -37 19 -61.5t66 -24.5q27 0 48.5 10.5t37.5 28.5t27 41.5t16 49.5l59 281h93l-75 -356q-8 -38 -9.5 -66t-1.5 -43v-6t1 -10h-90
q-2 10 -2 28v11t1 17zM326 750q22 0 40.5 -8t32.5 -21.5t22 -31.5t8 -39q0 -23 -9.5 -44.5t-26 -38t-38.5 -26.5t-46 -10q-44 0 -74.5 28t-30.5 70q0 27 10.5 49.5t27.5 38t39 24.5t45 9zM268 637q0 -20 11.5 -31t31.5 -11q21 0 36.5 13.5t15.5 36.5q0 18 -12 30t-32 12
q-19 0 -35 -13.5t-16 -36.5z" />
    <glyph glyph-name="Uhungarumlaut" unicode="&#x170;" horiz-adv-x="666" 
d="M661 709l-104 -493q-23 -111 -94 -171t-175 -60q-106 0 -169 54.5t-63 156.5q0 17 1.5 35.5t6.5 38.5l93 439h94l-92 -451q-6 -29 -6 -54q0 -59 34 -93.5t106 -34.5q66 0 109 39t58 110l102 484h99zM367 759h-73l81 119h110zM508 759h-73l91 119h110z" />
    <glyph glyph-name="uhungarumlaut" unicode="&#x171;" horiz-adv-x="544" 
d="M318 56q-24 -34 -60.5 -50t-70.5 -16q-75 0 -115 42.5t-40 112.5q0 26 6 55l60 281h94l-59 -279q-2 -12 -3.5 -23.5t-1.5 -22.5q0 -37 19 -61.5t66 -24.5q27 0 48.5 10.5t37.5 28.5t27 41.5t16 49.5l59 281h93l-75 -356q-8 -38 -9.5 -66t-1.5 -43v-6t1 -10h-90
q-2 10 -2 28v11t1 17zM247 543h-69l82 146h108zM381 543h-69l92 146h108z" />
    <glyph glyph-name="Uogonek" unicode="&#x172;" horiz-adv-x="666" 
d="M193 -132q0 42 21 70.5t48 47.5q-95 7 -150.5 60.5t-55.5 149.5q0 17 1.5 35.5t6.5 38.5l93 439h94l-92 -451q-6 -29 -6 -54q0 -59 34 -93.5t106 -34.5q66 0 109 39t58 110l102 484h99l-104 -493q-18 -85 -63 -139t-114 -78q-17 -6 -35.5 -16t-34.5 -23.5t-26 -31
t-10 -37.5t13 -29t31 -9q5 0 12 0.5t21 2.5l-14 -64q-11 -4 -21.5 -6t-29.5 -2q-42 0 -67.5 23t-25.5 61z" />
    <glyph glyph-name="uogonek" unicode="&#x173;" horiz-adv-x="544" 
d="M218 -132q0 26 9 47t23.5 37.5t32.5 29t36 21.5q-2 13 -2 19.5v8.5v11t1 14q-24 -34 -60.5 -50t-70.5 -16q-75 0 -115 42.5t-40 112.5q0 26 6 55l60 281h94l-59 -279q-2 -12 -3.5 -23.5t-1.5 -22.5q0 -37 19 -61.5t66 -24.5q27 0 48.5 10.5t37.5 28.5t27 41.5t16 49.5
l59 281h93l-75 -356q-8 -38 -10 -66t-2 -43v-16q-17 -7 -35.5 -17.5t-35 -24t-27 -30t-10.5 -37.5q0 -20 13 -29t31 -9q5 0 12 0.5t21 2.5l-14 -64q-11 -4 -21.5 -6t-29.5 -2q-42 0 -67.5 23t-25.5 61z" />
    <glyph glyph-name="Wcircumflex" unicode="&#x174;" horiz-adv-x="952" 
d="M391 759l135 119h120l90 -119h-83l-74 64l-101 -64h-87zM598 709l63 -561l252 561h99l-327 -709h-97l-63 575l-280 -575h-100l-55 709h95l39 -555l271 555h103z" />
    <glyph glyph-name="wcircumflex" unicode="&#x175;" horiz-adv-x="768" 
d="M245 545l131 139h113l71 -139h-85l-52 81l-88 -81h-90zM448 481l46 -359l181 359h103l-255 -481h-97l-48 364l-190 -364h-99l-49 481h90l31 -358l188 358h99z" />
    <glyph glyph-name="Ycircumflex" unicode="&#x176;" horiz-adv-x="611" 
d="M95 709h103l123 -311l228 311h117l-313 -410l-62 -299h-98l64 305zM204 759l135 119h120l90 -119h-83l-74 64l-101 -64h-87z" />
    <glyph glyph-name="ycircumflex" unicode="&#x177;" horiz-adv-x="504" 
d="M116 545l131 139h113l71 -139h-85l-52 81l-88 -81h-90zM-30 -190l181 273l-118 398h102l85 -302l188 302h111l-441 -671h-108z" />
    <glyph glyph-name="Ydieresis" unicode="&#x178;" horiz-adv-x="611" 
d="M226 813q0 29 19 47t47 18q23 0 37.5 -15t14.5 -37q0 -29 -19.5 -47.5t-45.5 -18.5q-23 0 -38 15t-15 38zM416 813q0 29 19 47t47 18q23 0 37.5 -15t14.5 -37q0 -29 -19.5 -47.5t-45.5 -18.5q-23 0 -38 15t-15 38zM95 709h103l123 -311l228 311h117l-313 -410l-62 -299
h-98l64 305z" />
    <glyph glyph-name="Zacute" unicode="&#x179;" horiz-adv-x="614" 
d="M-30 0l20 96l510 523h-389l19 90h514l-20 -93l-512 -525h406l-19 -91h-529zM407 759h-97l119 119h131z" />
    <glyph glyph-name="zacute" unicode="&#x17a;" horiz-adv-x="473" 
d="M294 543h-84l115 146h124zM-30 0l18 84l327 312h-252l18 85h372l-18 -85l-327 -311h269l-18 -85h-389z" />
    <glyph glyph-name="Zdotaccent" unicode="&#x17b;" horiz-adv-x="614" 
d="M-30 0l20 96l510 523h-389l19 90h514l-20 -93l-512 -525h406l-19 -91h-529zM333 814q0 29 20.5 49.5t49.5 20.5q26 0 42.5 -17t16.5 -40q0 -15 -6 -28t-15.5 -22.5t-22.5 -15.5t-27 -6q-26 0 -42 17t-16 42z" />
    <glyph glyph-name="zdotaccent" unicode="&#x17c;" horiz-adv-x="473" 
d="M222 608q0 27 20.5 49.5t50.5 22.5q26 0 42 -17t16 -40q0 -15 -6 -28t-15.5 -22.5t-22.5 -15.5t-27 -6q-26 0 -42 16.5t-16 40.5zM-30 0l18 84l327 312h-252l18 85h372l-18 -85l-327 -311h269l-18 -85h-389z" />
    <glyph glyph-name="Zcaron" unicode="&#x17d;" horiz-adv-x="614" 
d="M-30 0l20 96l510 523h-389l19 90h514l-20 -93l-512 -525h406l-19 -91h-529zM592 878l-140 -119h-120l-85 119h82l69 -64l101 64h93z" />
    <glyph glyph-name="zcaron" unicode="&#x17e;" horiz-adv-x="473" 
d="M456 687l-130 -142h-115l-70 142h84l52 -81l88 81h91zM-30 0l18 84l327 312h-252l18 85h372l-18 -85l-327 -311h269l-18 -85h-389z" />
    <glyph glyph-name="uni018F" unicode="&#x18f;" horiz-adv-x="767" 
d="M411 724q66 0 124.5 -22.5t102 -63.5t69 -100t25.5 -131q0 -104 -35.5 -183.5t-91.5 -132.5t-124.5 -80t-134.5 -27q-60 0 -116 19.5t-99.5 58.5t-69.5 96.5t-26 132.5q0 20 1.5 40.5t6.5 43.5h588q0 7 0.5 14t0.5 15q0 56 -18 98.5t-49 71.5t-73 44t-89 15
q-38 0 -74.5 -10t-68 -29t-57 -45.5t-41.5 -59.5l-77 41q21 45 55 80.5t77 61t92.5 39t101.5 13.5zM356 73q38 0 77.5 13t74.5 39t63.5 66t44.5 94h-485q0 -51 18.5 -90.5t49 -66.5t71.5 -41t86 -14z" />
    <glyph glyph-name="florin" unicode="&#x192;" horiz-adv-x="481" 
d="M182 398h-111v83h127l23 113q7 38 23.5 65.5t39 45t49 26t53.5 8.5q33 0 49 -3.5t25 -6.5v-83q-5 2 -17 4.5t-35 2.5q-13 0 -27.5 -3.5t-28 -13t-24.5 -27.5t-17 -48l-16 -80h129v-83h-146l-82 -411q-8 -38 -24 -65.5t-38.5 -45t-49 -26t-53.5 -8.5q-31 0 -47 2.5
t-30 7.5v83q11 -3 24.5 -5t31.5 -2q13 0 27.5 3t27.5 12.5t24 27.5t17 49z" />
    <glyph glyph-name="uni01B5" unicode="&#x1b5;" horiz-adv-x="614" 
d="M-30 0l20 96l226 232h-136l18 85h201l201 206h-389l19 90h514l-20 -93l-198 -203h140l-18 -85h-205l-231 -237h406l-19 -91h-529z" />
    <glyph glyph-name="uni01B6" unicode="&#x1b6;" horiz-adv-x="473" 
d="M49 287h152l114 109h-252l18 85h372l-18 -85l-115 -109h89l-17 -76h-152l-132 -126h269l-18 -85h-389l18 84l133 127h-89z" />
    <glyph glyph-name="Aringacute" unicode="&#x1fa;" horiz-adv-x="654" 
d="M209 289h229l-50 308zM417 801q-19 0 -35 -13.5t-16 -36.5q0 -20 11.5 -31t31.5 -11q21 0 36.5 13.5t15.5 36.5q0 18 -12 30t-32 12zM467 902h-97l119 119h131zM302 743q0 27 10.5 49.5t27.5 38t39 24.5t45 9q22 0 40.5 -8t32.5 -21.5t22 -31.5t8 -39q0 -30 -16 -57
t-42 -44l115 -663h-99l-32 198h-297l-115 -198h-111l402 674q-30 27 -30 69z" />
    <glyph glyph-name="aringacute" unicode="&#x1fb;" horiz-adv-x="567" 
d="M341 747q22 0 40.5 -8t32.5 -21.5t22 -31.5t8 -39q0 -23 -9.5 -44.5t-26 -38t-38.5 -26.5t-46 -10q-44 0 -74.5 28t-30.5 70q0 27 10.5 49.5t27.5 38t39 24.5t45 9zM283 634q0 -20 11.5 -31t31.5 -11q21 0 36.5 13.5t15.5 36.5q0 18 -12 30t-32 12q-19 0 -35 -13.5
t-16 -36.5zM403 783h-84l115 146h124zM266 414q-39 0 -69.5 -19.5t-50.5 -50t-30.5 -68.5t-10.5 -74q0 -57 28 -94t86 -37q34 0 63.5 17t50.5 46t33 69t12 87q0 52 -27 88t-85 36zM517 481l-75 -356q-8 -38 -9.5 -66t-1.5 -43v-6t1 -10h-89q-2 10 -2 28v13.5t2 19.5
q-25 -30 -61.5 -50.5t-81.5 -20.5q-47 0 -82.5 16.5t-59.5 45t-36 67t-12 82.5q0 58 18.5 111.5t51.5 94t79 64.5t102 24q61 0 97.5 -23t52.5 -52l13 61h93z" />
    <glyph glyph-name="AEacute" unicode="&#x1fc;" horiz-adv-x="1019" 
d="M903 91l-19 -91h-426l40 191h-281l-163 -191h-124l615 709h489l-19 -91h-328l-46 -218h297l-20 -92h-297l-46 -217h328zM517 279l74 350l-299 -350h225zM674 759h-97l119 119h131z" />
    <glyph glyph-name="aeacute" unicode="&#x1fd;" horiz-adv-x="853" 
d="M313 284q21 1 34 13.5t13 36.5q0 16 -6.5 31t-20 26.5t-34 18.5t-48.5 7q-44 0 -76.5 -23t-43.5 -61l-81 26q10 33 31 58.5t49.5 43t62 26.5t69.5 9q59 0 99 -21t61 -53q36 36 81.5 55t95.5 19q49 0 86 -14.5t62 -40t38 -61t13 -78.5q0 -29 -5 -52.5t-9 -35.5h-354
q-1 -5 -1 -8.5v-8.5q0 -30 9.5 -53.5t26 -40.5t39 -26t47.5 -9q28 0 50.5 7t40 18.5t30.5 25.5t21 29l71 -46q-13 -24 -33.5 -45t-47.5 -37t-60 -25.5t-70 -9.5q-62 0 -112 26.5t-76 79.5q-13 -20 -31 -39t-42 -34t-54 -24t-68 -9q-41 0 -73 10.5t-54 29.5t-33.5 44
t-11.5 55q0 34 14 62.5t37.5 48.5t55.5 31.5t68 12.5zM95 129q0 -32 24.5 -49t58.5 -17q23 0 48 8t47.5 26t39.5 47.5t24 71.5l-158 -7q-16 -1 -31 -6t-27 -14.5t-19 -24.5t-7 -35zM594 413q-30 0 -55 -10.5t-44.5 -27.5t-32.5 -39t-19 -46h256q2 8 2 20q0 18 -5.5 36.5
t-18 33t-33 24t-50.5 9.5zM467 543h-84l115 146h124z" />
    <glyph glyph-name="Oslashacute" unicode="&#x1fe;" horiz-adv-x="753" 
d="M486 759h-97l119 119h131zM35 294q0 106 33 186.5t86.5 134.5t121 81.5t136.5 27.5q63 0 115 -18t91 -52l77 77l59 -57l-82 -83q46 -74 46 -177q0 -106 -33 -186.5t-86.5 -134.5t-120.5 -81t-136 -27q-124 0 -204 68l-73 -74l-59 57l78 78q-49 75 -49 180zM135 304
q0 -66 23 -115l391 395q-28 25 -64.5 37.5t-78.5 12.5q-65 0 -115.5 -28t-85 -74t-52.5 -105.5t-18 -122.5zM618 404q0 64 -21 112l-389 -393q54 -48 139 -48q65 0 115.5 27.5t85 73.5t52.5 105.5t18 122.5z" />
    <glyph glyph-name="oslashacute" unicode="&#x1ff;" horiz-adv-x="541" 
d="M330 543h-84l115 146h124zM-32 26l69 66q-27 51 -27 115q0 62 20 115t55 91.5t83.5 60.5t104.5 22q84 0 138 -45l61 58l52 -54l-66 -63q28 -50 28 -117q0 -61 -20 -114t-55 -92t-83 -61.5t-104 -22.5q-44 0 -79 12.5t-61 35.5l-64 -61zM390 273q0 25 -6 48l-234 -225
q32 -27 78 -27q31 0 60.5 13.5t52 39.5t36 64t13.5 87zM267 412q-31 0 -60 -13.5t-51.5 -39t-36 -63.5t-13.5 -87q0 -24 5 -46l233 223q-31 26 -77 26z" />
    <glyph glyph-name="Scommaaccent" unicode="&#x218;" horiz-adv-x="581" 
d="M264 73q61 1 98.5 31t37.5 80q0 31 -17.5 58t-58.5 45l-94 42q-60 26 -94.5 71t-34.5 112q0 44 18 83t50 67.5t75.5 45t94.5 16.5q65 0 109.5 -20.5t71.5 -50.5t39 -65t12 -65l-93 -18q0 14 -5 36.5t-20.5 43.5t-44.5 36.5t-77 15.5q-27 0 -51 -8.5t-41.5 -23.5
t-27.5 -35.5t-10 -44.5q0 -35 17.5 -59.5t48.5 -38.5l97 -45q71 -33 104.5 -80.5t33.5 -106.5q0 -42 -17 -80t-48.5 -67t-75.5 -46t-97 -17q-69 0 -118.5 21.5t-80.5 55.5t-45.5 76t-14.5 83v6t1 9l99 17q-1 -7 -1 -12v-8q0 -30 9 -59t28.5 -51.5t49.5 -36t73 -13.5z
M148 -92q0 25 18.5 40.5t45.5 15.5q21 0 40 -14.5t19 -46.5t-12.5 -54t-31 -36t-40.5 -20.5t-41 -6.5h-6t-8 1l9 39q21 0 43.5 8.5t30.5 32.5q-6 -4 -18 -4q-22 0 -35.5 12.5t-13.5 32.5z" />
    <glyph glyph-name="scommaaccent" unicode="&#x219;" horiz-adv-x="441" 
d="M74 -92q0 25 18.5 40.5t45.5 15.5q21 0 40 -14.5t19 -46.5t-12.5 -54t-31 -36t-40.5 -20.5t-41 -6.5h-6t-8 1l9 39q21 0 43.5 8.5t30.5 32.5q-6 -4 -18 -4q-22 0 -35.5 12.5t-13.5 32.5zM73 169q1 -43 28.5 -73.5t76.5 -30.5q40 0 58.5 20t18.5 44q0 36 -45 57l-70 32
q-42 19 -64 49.5t-22 72.5q0 30 12 58.5t34.5 50t55.5 34.5t74 13q47 0 79 -14.5t52 -36t29 -45.5t11 -43l-84 -23q-2 14 -7.5 28.5t-16.5 26.5t-28.5 20t-43.5 8q-36 0 -56 -19t-20 -44q0 -20 10 -33t28 -21l66 -30q48 -22 74 -56.5t26 -77.5q0 -23 -9.5 -49.5t-30.5 -49
t-54.5 -37.5t-81.5 -15q-50 0 -84.5 16t-56.5 40.5t-32 53.5t-10 55z" />
    <glyph glyph-name="uni021A" unicode="&#x21a;" horiz-adv-x="566" 
d="M392 619l-131 -619h-98l131 619h-229l19 90h547l-19 -90h-220zM128 -92q0 25 18.5 40.5t45.5 15.5q21 0 40 -14.5t19 -46.5t-12.5 -54t-31 -36t-40.5 -20.5t-41 -6.5h-6t-8 1l9 39q21 0 43.5 8.5t30.5 32.5q-6 -4 -18 -4q-22 0 -35.5 12.5t-13.5 32.5z" />
    <glyph glyph-name="uni021B" unicode="&#x21b;" horiz-adv-x="337" 
d="M48 -92q0 25 18.5 40.5t45.5 15.5q21 0 40 -14.5t19 -46.5t-12.5 -54t-31 -36t-40.5 -20.5t-41 -6.5h-6t-8 1l9 39q21 0 43.5 8.5t30.5 32.5q-6 -4 -18 -4q-22 0 -35.5 12.5t-13.5 32.5zM59 101q0 20 4 37l55 258h-88l18 85h14q43 0 67 21t32 57l16 74h86l-33 -152h97
l-18 -85h-97l-53 -253q-3 -14 -3 -23q0 -43 54 -43q8 0 17 0.5t15 1.5l-16 -77q-4 -2 -16.5 -4.5t-34.5 -2.5q-53 0 -84.5 27.5t-31.5 78.5z" />
    <glyph glyph-name="uni0237" unicode="&#x237;" horiz-adv-x="256" 
d="M108 481h93l-119 -560q-13 -60 -51.5 -93t-93.5 -33q-27 0 -45 5.5t-23 8.5l16 75q2 -1 12.5 -3.5t24.5 -2.5q32 0 47 15.5t23 49.5z" />
    <glyph glyph-name="uni0259" unicode="&#x259;" horiz-adv-x="532" 
d="M10 195q0 23 2 39t6 30h371q0 31 -6.5 58t-21.5 47t-40 32t-63 12q-49 0 -85.5 -23t-56.5 -58l-72 38q31 57 88.5 91.5t130.5 34.5q54 0 94 -17.5t66.5 -48t40 -71t13.5 -86.5q0 -68 -20 -121t-54.5 -90.5t-80.5 -57t-99 -19.5q-49 0 -88.5 16.5t-67 45t-42.5 66.5
t-15 82zM104 188q-1 -3 -1 -6v-5q0 -49 33.5 -79.5t88.5 -30.5q22 0 45 6.5t44 20.5t37.5 37.5t25.5 56.5h-273z" />
    <glyph glyph-name="circumflex" unicode="&#x2c6;" horiz-adv-x="355" 
d="M65 545l131 139h113l71 -139h-85l-52 81l-88 -81h-90z" />
    <glyph glyph-name="caron" unicode="&#x2c7;" horiz-adv-x="355" 
d="M380 687l-130 -142h-115l-70 142h84l52 -81l88 81h91z" />
    <glyph glyph-name="uni02C9" unicode="&#x2c9;" horiz-adv-x="330" 
d="M65 577l17 81h273l-17 -81h-273z" />
    <glyph glyph-name="breve" unicode="&#x2d8;" horiz-adv-x="335" 
d="M187 544q-30 0 -53 9.5t-38 26t-23 37.5t-8 44q0 13 3 27h69q-1 -3 -1 -5.5v-3.5q0 -10 3 -19.5t10 -17.5t19 -13t29 -5q19 0 33.5 6t25 15.5t17.5 20.5t10 22h77q-6 -27 -19.5 -52.5t-35 -46t-51 -33t-67.5 -12.5z" />
    <glyph glyph-name="dotaccent" unicode="&#x2d9;" horiz-adv-x="169" 
d="M65 608q0 27 20.5 49.5t50.5 22.5q26 0 42 -17t16 -40q0 -15 -6 -28t-15.5 -22.5t-22.5 -15.5t-27 -6q-26 0 -42 16.5t-16 40.5z" />
    <glyph glyph-name="ring" unicode="&#x2da;" horiz-adv-x="265" 
d="M187 750q22 0 40.5 -8t32.5 -21.5t22 -31.5t8 -39q0 -23 -9.5 -44.5t-26 -38t-38.5 -26.5t-46 -10q-44 0 -74.5 28t-30.5 70q0 27 10.5 49.5t27.5 38t39 24.5t45 9zM129 637q0 -20 11.5 -31t31.5 -11q21 0 36.5 13.5t15.5 36.5q0 18 -12 30t-32 12q-19 0 -35 -13.5
t-16 -36.5z" />
    <glyph glyph-name="ogonek" unicode="&#x2db;" horiz-adv-x="233" 
d="M27 -216q-42 0 -67.5 23t-25.5 61q0 31 13 55.5t32 42.5t41 30t41 20l62 -16q-17 -7 -35.5 -17.5t-35 -24t-27 -30t-10.5 -37.5q0 -20 13 -29t31 -9q5 0 12 0.5t21 2.5l-14 -64q-11 -4 -21.5 -6t-29.5 -2z" />
    <glyph glyph-name="tilde" unicode="&#x2dc;" horiz-adv-x="378" 
d="M65 554q4 34 14.5 58t25.5 39t34 22t40 7t38 -7.5t30 -16.5l12 -8q9 -6 17 -10t19 -4q14 0 24 10t15 34h69q-12 -71 -42 -98.5t-71 -27.5q-21 0 -38 7.5t-30 16.5l-12 8q-9 6 -17 10t-19 4q-14 0 -24 -10t-15 -34h-70z" />
    <glyph glyph-name="hungarumlaut" unicode="&#x2dd;" horiz-adv-x="374" 
d="M134 543h-69l82 146h108zM268 543h-69l92 146h108z" />
    <glyph glyph-name="uni0394" unicode="&#x394;" horiz-adv-x="657" 
d="M304 597l-190 -507h383zM253 709h105l279 -709h-662z" />
    <glyph glyph-name="uni03A9" unicode="&#x3a9;" horiz-adv-x="816" 
d="M408 636q-46 0 -91.5 -16t-81.5 -47.5t-58 -77.5t-22 -107q0 -54 19 -98t49 -76.5t67.5 -53t74.5 -28.5v-132h-305v88h199q-38 14 -75 40.5t-65.5 65t-46 87t-17.5 106.5q0 79 29.5 142t78 106t112.5 66t133 23t133 -23t112.5 -66t78 -106t29.5 -142q0 -58 -17.5 -106.5
t-46.5 -87t-65.5 -65t-75.5 -40.5h200v-88h-305v132q37 8 74.5 28.5t67.5 53t49 76.5t19 98q0 61 -22 107t-58 77.5t-81.5 47.5t-91.5 16z" />
    <glyph glyph-name="uni03BC" unicode="&#x3bc;" horiz-adv-x="577" 
d="M65 481h95v-289q0 -25 6 -47.5t19 -39.5t33.5 -27t50.5 -10q57 0 85.5 34t28.5 89v290h94v-392q0 -35 2 -59t3 -30h-90q-2 8 -3 25.5t-1 32.5q-20 -38 -60 -55.5t-82 -17.5q-49 0 -87 20v-195h-94v671z" />
    <glyph glyph-name="pi" unicode="&#x3c0;" horiz-adv-x="625" 
d="M480 122q0 -27 15.5 -38t38.5 -11q8 0 15.5 1t15.5 3v-72q-9 -4 -23.5 -8t-37.5 -4q-31 0 -53 10t-36.5 26.5t-21.5 38t-7 44.5v287h-165v-399h-94v399h-82v82h518v-82h-83v-277z" />
    <glyph glyph-name="Wgrave" unicode="&#x1e80;" horiz-adv-x="952" 
d="M411 878h118l75 -119h-86zM598 709l63 -561l252 561h99l-327 -709h-97l-63 575l-280 -575h-100l-55 709h95l39 -555l271 555h103z" />
    <glyph glyph-name="wgrave" unicode="&#x1e81;" horiz-adv-x="768" 
d="M277 689h112l56 -146h-74zM448 481l46 -359l181 359h103l-255 -481h-97l-48 364l-190 -364h-99l-49 481h90l31 -358l188 358h99z" />
    <glyph glyph-name="Wacute" unicode="&#x1e82;" horiz-adv-x="952" 
d="M568 759h-97l119 119h131zM598 709l63 -561l252 561h99l-327 -709h-97l-63 575l-280 -575h-100l-55 709h95l39 -555l271 555h103z" />
    <glyph glyph-name="wacute" unicode="&#x1e83;" horiz-adv-x="768" 
d="M445 543h-84l115 146h124zM448 481l46 -359l181 359h103l-255 -481h-97l-48 364l-190 -364h-99l-49 481h90l31 -358l188 358h99z" />
    <glyph glyph-name="Wdieresis" unicode="&#x1e84;" horiz-adv-x="952" 
d="M337 813q0 29 19 47t47 18q23 0 37.5 -15t14.5 -37q0 -29 -19.5 -47.5t-45.5 -18.5q-23 0 -38 15t-15 38zM642 813q0 29 19 47t47 18q23 0 37.5 -15t14.5 -37q0 -29 -19.5 -47.5t-45.5 -18.5q-23 0 -38 15t-15 38zM598 709l63 -561l252 561h99l-327 -709h-97l-63 575
l-280 -575h-100l-55 709h95l39 -555l271 555h103z" />
    <glyph glyph-name="wdieresis" unicode="&#x1e85;" horiz-adv-x="768" 
d="M243 614q0 26 19 45.5t45 19.5q24 0 38.5 -16t14.5 -37q0 -28 -20.5 -45.5t-45.5 -17.5q-22 0 -36.5 15t-14.5 36zM478 614q0 26 19 45.5t45 19.5q24 0 38.5 -16t14.5 -37q0 -28 -20.5 -45.5t-45.5 -17.5q-22 0 -36.5 15t-14.5 36zM448 481l46 -359l181 359h103
l-255 -481h-97l-48 364l-190 -364h-99l-49 481h90l31 -358l188 358h99z" />
    <glyph glyph-name="uni1E8A" unicode="&#x1e8a;" horiz-adv-x="627" 
d="M67 0h-122l311 356l-162 353h107l123 -275l235 275h123l-315 -361l161 -348h-108l-121 270zM317 814q0 29 20.5 49.5t49.5 20.5q26 0 42.5 -17t16.5 -40q0 -15 -6 -28t-15.5 -22.5t-22.5 -15.5t-27 -6q-26 0 -42 17t-16 42z" />
    <glyph glyph-name="uni1E8B" unicode="&#x1e8b;" horiz-adv-x="495" 
d="M56 0h-121l235 246l-126 235h103q21 -42 42.5 -83.5t43.5 -83.5l152 167h120l-227 -238q33 -61 65 -121.5t66 -121.5h-103l-91 174zM218 608q0 27 20.5 49.5t50.5 22.5q26 0 42 -17t16 -40q0 -15 -6 -28t-15.5 -22.5t-22.5 -15.5t-27 -6q-26 0 -42 16.5t-16 40.5z" />
    <glyph glyph-name="Ygrave" unicode="&#x1ef2;" horiz-adv-x="611" 
d="M95 709h103l123 -311l228 311h117l-313 -410l-62 -299h-98l64 305zM228 878h118l75 -119h-86z" />
    <glyph glyph-name="ygrave" unicode="&#x1ef3;" horiz-adv-x="504" 
d="M175 689h112l56 -146h-74zM-30 -190l181 273l-118 398h102l85 -302l188 302h111l-441 -671h-108z" />
    <glyph glyph-name="uni2007" unicode="&#x2007;" horiz-adv-x="604" 
 />
    <glyph glyph-name="uni2008" unicode="&#x2008;" horiz-adv-x="262" 
 />
    <glyph glyph-name="uni200B" unicode="&#x200b;" horiz-adv-x="0" 
 />
    <glyph glyph-name="endash" unicode="&#x2013;" horiz-adv-x="639" 
d="M40 246l17 82h512l-17 -82h-512z" />
    <glyph glyph-name="emdash" unicode="&#x2014;" horiz-adv-x="1100" 
d="M50 246l17 82h953l-17 -82h-953z" />
    <glyph glyph-name="quoteleft" unicode="&#x2018;" horiz-adv-x="234" 
d="M226 518q0 -30 -21.5 -50.5t-53.5 -20.5q-29 0 -50 19.5t-21 56.5q0 36 14 70.5t38.5 61.5t58.5 44t73 19l-10 -50q-39 -7 -69 -34.5t-38 -62.5q2 2 8.5 3t12.5 1q24 0 41 -15.5t17 -41.5z" />
    <glyph glyph-name="quoteright" unicode="&#x2019;" horiz-adv-x="219" 
d="M103 647q0 30 21.5 50.5t53.5 20.5q29 0 50 -19.5t21 -56.5q0 -36 -14 -70.5t-38.5 -61.5t-58.5 -44t-73 -19l10 50q39 7 69 34.5t38 62.5q-2 -2 -8.5 -3t-12.5 -1q-24 0 -41 15.5t-17 41.5z" />
    <glyph glyph-name="quotesinglbase" unicode="&#x201a;" horiz-adv-x="224" 
d="M-17 52q0 30 21.5 50.5t53.5 20.5q29 0 50 -19.5t21 -56.5q0 -36 -14 -70.5t-38.5 -61.5t-58.5 -44t-73 -19l10 50q39 7 69 34.5t38 62.5q-2 -2 -8.5 -3t-12.5 -1q-24 0 -41 15.5t-17 41.5z" />
    <glyph glyph-name="quotedblleft" unicode="&#x201c;" horiz-adv-x="408" 
d="M401 526q0 -29 -20 -48.5t-52 -19.5q-28 0 -48 19t-20 54t13.5 67.5t37 58t56 42t70.5 19.5l-10 -48q-18 -3 -35 -12t-31 -22t-23.5 -28t-13.5 -31q2 2 8 2.5t12 0.5q23 0 39.5 -14t16.5 -40zM220 526q0 -29 -20 -48.5t-52 -19.5q-28 0 -48 19t-20 54t13.5 67.5t37 58
t56 42t70.5 19.5l-10 -48q-18 -3 -35 -12t-31 -22t-23.5 -28t-13.5 -31q2 2 8 2.5t12 0.5q23 0 39.5 -14t16.5 -40z" />
    <glyph glyph-name="quotedblright" unicode="&#x201d;" horiz-adv-x="393" 
d="M102 647q0 29 20.5 48.5t51.5 19.5q28 0 48 -19t20 -54t-13.5 -68t-37 -58.5t-56 -42t-70.5 -18.5l10 48q37 7 66 33.5t37 59.5q-2 -2 -8 -2.5t-12 -0.5q-23 0 -39.5 14t-16.5 40zM283 647q0 29 20.5 48.5t51.5 19.5q28 0 48 -19t20 -54t-13.5 -68t-37 -58.5t-56 -42
t-70.5 -18.5l10 48q37 7 66 33.5t37 59.5q-2 -2 -8 -2.5t-12 -0.5q-23 0 -39.5 14t-16.5 40z" />
    <glyph glyph-name="quotedblbase" unicode="&#x201e;" horiz-adv-x="388" 
d="M-18 50q0 29 20.5 48.5t51.5 19.5q28 0 48 -19t20 -54t-13.5 -68t-37 -58.5t-56 -42t-70.5 -18.5l10 48q37 7 66 33.5t37 59.5q-2 -2 -8 -2.5t-12 -0.5q-23 0 -39.5 14t-16.5 40zM153 50q0 29 20.5 48.5t51.5 19.5q28 0 48 -19t20 -54t-13.5 -68t-37 -58.5t-56 -42
t-70.5 -18.5l10 48q37 7 66 33.5t37 59.5q-2 -2 -8 -2.5t-12 -0.5q-23 0 -39.5 14t-16.5 40z" />
    <glyph glyph-name="dagger" unicode="&#x2020;" horiz-adv-x="414" 
d="M318 709l-32 -149h128l-18 -81h-127l-67 -317h-82l67 317h-127l18 81h126l32 149h82z" />
    <glyph glyph-name="daggerdbl" unicode="&#x2021;" horiz-adv-x="434" 
d="M96 0l31 149h-127l17 81h127l53 249h-127l18 81h126l32 149h82l-32 -149h128l-18 -81h-127l-53 -249h127l-17 -81h-127l-31 -149h-82z" />
    <glyph glyph-name="bullet" unicode="&#x2022;" horiz-adv-x="559" 
d="M60 289q0 43 16.5 81t44.5 66t65.5 44.5t80.5 16.5t80.5 -16.5t65.5 -44.5t44.5 -66t16.5 -81q0 -42 -16.5 -80t-44.5 -66t-65.5 -44.5t-80.5 -16.5t-80.5 16.5t-65.5 44.5t-44.5 66t-16.5 80z" />
    <glyph glyph-name="ellipsis" unicode="&#x2026;" horiz-adv-x="871" 
d="M76 -5q-28 0 -44.5 17t-16.5 40q0 29 21.5 51t51.5 22q28 0 44 -17t16 -41q0 -31 -21.5 -51.5t-50.5 -20.5zM367 -5q-28 0 -44.5 17t-16.5 40q0 29 21.5 51t51.5 22q28 0 44 -17t16 -41q0 -31 -21.5 -51.5t-50.5 -20.5zM659 -5q-28 0 -44.5 17t-16.5 40q0 29 21.5 51
t51.5 22q28 0 44 -17t16 -41q0 -31 -21.5 -51.5t-50.5 -20.5z" />
    <glyph glyph-name="perthousand" unicode="&#x2030;" horiz-adv-x="1011" 
d="M208 422q33 0 59 24.5t26 66.5q0 30 -19 48.5t-51 18.5q-16 0 -31 -6.5t-26.5 -18.5t-18.5 -28.5t-7 -35.5q0 -30 18 -49.5t50 -19.5zM200 344q-31 0 -57.5 11t-45.5 30t-29.5 44.5t-10.5 55.5q0 35 14 66.5t37.5 55.5t55.5 38t68 14q31 0 57 -11t45.5 -30.5t30.5 -45.5
t11 -56q0 -37 -15 -68.5t-40 -54.5t-56.5 -36t-64.5 -13zM549 74q33 0 59 24.5t26 66.5q0 30 -19 48.5t-51 18.5q-16 0 -31 -6.5t-26.5 -18.5t-18.5 -28.5t-7 -35.5q0 -30 18 -49.5t50 -19.5zM128 0h-97l606 648h95zM784 74q33 0 59 24.5t26 66.5q0 30 -19 48.5t-51 18.5
q-16 0 -31 -6.5t-26.5 -18.5t-18.5 -28.5t-7 -35.5q0 -30 18 -49.5t50 -19.5zM776 -4q-35 0 -64 13.5t-48 37.5q-25 -24 -57 -37.5t-66 -13.5q-31 0 -57.5 11t-45.5 30t-29.5 44.5t-10.5 55.5q0 35 14 66.5t37.5 55.5t55.5 38t68 14q35 0 63 -14t48 -38q24 24 56 38t68 14
q31 0 57 -11t45.5 -30.5t30.5 -45.5t11 -56q0 -37 -15 -68.5t-40 -54.5t-56.5 -36t-64.5 -13z" />
    <glyph glyph-name="guilsinglleft" unicode="&#x2039;" horiz-adv-x="284" 
d="M113 99l-98 194l171 188h103l-176 -197l93 -185h-93z" />
    <glyph glyph-name="guilsinglright" unicode="&#x203a;" horiz-adv-x="284" 
d="M141 481l98 -194l-171 -188h-103l176 197l-93 185h93z" />
    <glyph glyph-name="uni2042" unicode="&#x2042;" horiz-adv-x="814" 
d="M489 588l117 38l8 -65l-119 -38l56 -93l-59 -42l-56 99l-92 -98l-50 42l93 95l-105 37l32 63l103 -38l19 121h76zM212 190l117 38l8 -65l-119 -38l56 -93l-59 -42l-56 99l-92 -98l-50 42l93 95l-105 37l32 63l103 -38l19 121h76zM624 190l117 38l8 -65l-119 -38l56 -93
l-59 -42l-56 99l-92 -98l-50 42l93 95l-105 37l32 63l103 -38l19 121h76z" />
    <glyph glyph-name="fraction" unicode="&#x2044;" horiz-adv-x="541" 
d="M17 0h-97l606 648h95z" />
    <glyph glyph-name="uni2051" unicode="&#x2051;" horiz-adv-x="441" 
d="M310 588l117 38l8 -65l-119 -38l56 -93l-59 -42l-56 99l-92 -98l-50 42l93 95l-105 37l32 63l103 -38l19 121h76zM212 190l117 38l8 -65l-119 -38l56 -93l-59 -42l-56 99l-92 -98l-50 42l93 95l-105 37l32 63l103 -38l19 121h76z" />
    <glyph glyph-name="uni2070" unicode="&#x2070;" horiz-adv-x="411" 
d="M60 473q0 40 10 83t32 78.5t56.5 58.5t83.5 23q33 0 58 -10.5t42 -29.5t25.5 -44t8.5 -53q0 -47 -11 -90.5t-33.5 -77t-56.5 -54t-80 -20.5q-58 0 -96.5 35.5t-38.5 100.5zM130 475q0 -29 17 -50t52 -21q28 0 48.5 17.5t33 43.5t18.5 56t6 56q0 27 -14.5 49.5t-53.5 22.5
q-33 0 -53.5 -21t-32.5 -49.5t-16.5 -58t-4.5 -45.5z" />
    <glyph glyph-name="uni2074" unicode="&#x2074;" horiz-adv-x="427" 
d="M76 505l206 204h88l-48 -224h65l-14 -65h-64q-1 -4 -2.5 -11.5l-4.5 -22.5t-9 -42h-76l16 76h-173zM277 622l-138 -137h107z" />
    <glyph glyph-name="uni2075" unicode="&#x2075;" horiz-adv-x="407" 
d="M131 463q0 -24 14.5 -42t45.5 -18q25 0 46.5 15t21.5 49q0 29 -17.5 42.5t-41.5 13.5q-28 0 -49 -16l-64 36l72 166h213l-13 -66h-158l-31 -72q11 7 27.5 9.5t27.5 2.5q50 0 81 -27t31 -80q0 -29 -11 -54.5t-31 -44t-47 -29.5t-59 -11q-29 0 -53.5 8.5t-42.5 24.5t-28 38
t-10 48z" />
    <glyph glyph-name="uni2076" unicode="&#x2076;" horiz-adv-x="390" 
d="M349 637q-14 8 -31.5 12t-40.5 4q-37 0 -72.5 -21.5t-51.5 -63.5q14 14 36 19t39 5q54 0 85.5 -30t31.5 -81q0 -34 -13 -61t-35 -45.5t-49.5 -28t-56.5 -9.5q-26 0 -50.5 9t-43.5 27t-30.5 45.5t-11.5 64.5q0 47 16 89.5t45 74.5t70 51t91 19q28 0 55 -5t44 -19zM207 528
q-29 0 -51 -18.5t-22 -49.5q0 -28 18 -43t44 -15q25 0 47.5 17t22.5 54q0 25 -16 40t-43 15z" />
    <glyph glyph-name="uni2077" unicode="&#x2077;" horiz-adv-x="368" 
d="M379 645q-21 -15 -51.5 -38.5t-62 -59.5t-61 -86t-49.5 -117h-80q15 66 46.5 119t64.5 91t60.5 61t35.5 28h-190l13 66h288z" />
    <glyph glyph-name="uni2078" unicode="&#x2078;" horiz-adv-x="396" 
d="M187 603q0 -18 12.5 -29.5t32.5 -11.5q23 0 43 12t20 40q0 16 -11.5 27.5t-36.5 13.5q-27 0 -43.5 -14t-16.5 -38zM142 443q0 -22 18 -33.5t42 -11.5q31 0 49.5 15t18.5 42q0 19 -15 32t-43 13q-30 0 -50 -16t-20 -41zM198 337q-66 0 -99.5 28.5t-33.5 70.5
q0 32 24.5 59.5t69.5 38.5q-21 8 -34 28t-13 39q0 50 38 82.5t104 32.5q52 0 84.5 -25.5t32.5 -66.5q0 -29 -19 -55.5t-57 -40.5q22 -8 37 -29t15 -43q0 -27 -11.5 -48.5t-32 -37.5t-47.5 -24.5t-58 -8.5z" />
    <glyph glyph-name="uni2079" unicode="&#x2079;" horiz-adv-x="407" 
d="M80 430q18 -13 39.5 -19t44.5 -6q18 0 36 5.5t33.5 16t27.5 27t17 39.5q-14 -16 -34.5 -23.5t-37.5 -7.5q-53 0 -89 31t-36 84q0 33 12.5 59t34 44t49 27.5t57.5 9.5q26 0 50 -8t42.5 -25.5t29.5 -43.5t11 -62q0 -51 -13 -95t-39 -76.5t-64.5 -50.5t-90.5 -18
q-29 0 -60 9.5t-50 25.5zM217 525q29 0 49 20t20 52q0 26 -17 41t-40 15q-26 0 -47.5 -18t-21.5 -53q0 -26 16 -41.5t41 -15.5z" />
    <glyph glyph-name="uni2080" unicode="&#x2080;" horiz-adv-x="411" 
d="M26 58q0 40 10 83t32 78.5t56.5 58.5t83.5 23q33 0 58 -10.5t42 -29.5t25.5 -44t8.5 -53q0 -47 -11 -90.5t-33.5 -77t-56.5 -54t-80 -20.5q-58 0 -96.5 35.5t-38.5 100.5zM96 60q0 -29 17 -50t52 -21q28 0 48.5 17.5t33 43.5t18.5 56t6 56q0 27 -14.5 49.5t-53.5 22.5
q-33 0 -53.5 -21t-32.5 -49.5t-16.5 -58t-4.5 -45.5z" />
    <glyph glyph-name="uni2081" unicode="&#x2081;" horiz-adv-x="290" 
d="M60 -71l56 250h-80l10 51q37 2 64 19.5t38 44.5h68l-79 -365h-77z" />
    <glyph glyph-name="uni2082" unicode="&#x2082;" horiz-adv-x="381" 
d="M179 123q57 25 57 65q0 17 -12.5 32.5t-38.5 15.5q-29 0 -47.5 -18.5t-18.5 -58.5h-75q0 69 40 105t103 36q31 0 55 -9t40 -24t24 -34.5t8 -40.5q0 -44 -26 -75t-70 -50l-76 -33q-19 -8 -28 -18.5t-14 -21.5h184l-14 -65h-274q6 59 35 100t85 66z" />
    <glyph glyph-name="uni2083" unicode="&#x2083;" horiz-adv-x="425" 
d="M113 161l114 69h-160l14 65h260l-14 -74l-114 -67q36 -7 60.5 -34.5t24.5 -64.5q0 -26 -10 -49.5t-28.5 -42t-46 -29.5t-62.5 -11q-27 0 -51.5 8t-43 22.5t-29.5 36t-11 48.5q0 9 2 19l69 5q-1 -4 -1 -11q0 -25 17.5 -43.5t46.5 -18.5q30 0 51 16t21 48q0 25 -18 38.5
t-41 13.5q-14 0 -24 -4z" />
    <glyph glyph-name="uni2084" unicode="&#x2084;" horiz-adv-x="427" 
d="M22 90l206 204h88l-48 -224h65l-14 -65h-64q-1 -4 -2.5 -11.5l-4.5 -22.5t-9 -42h-76l16 76h-173zM223 207l-138 -137h107z" />
    <glyph glyph-name="uni2085" unicode="&#x2085;" horiz-adv-x="407" 
d="M82 48q0 -24 14.5 -42t45.5 -18q25 0 46.5 15t21.5 49q0 29 -17.5 42.5t-41.5 13.5q-28 0 -49 -16l-64 36l72 166h213l-13 -66h-158l-31 -72q11 7 27.5 9.5t27.5 2.5q50 0 81 -27t31 -80q0 -29 -11 -54.5t-31 -44t-47 -29.5t-59 -11q-29 0 -53.5 8.5t-42.5 24.5t-28 38
t-10 48z" />
    <glyph glyph-name="uni2086" unicode="&#x2086;" horiz-adv-x="390" 
d="M300 222q-14 8 -31.5 12t-40.5 4q-37 0 -72.5 -21.5t-51.5 -63.5q14 14 36 19t39 5q54 0 85.5 -30t31.5 -81q0 -34 -13 -61t-35 -45.5t-49.5 -28t-56.5 -9.5q-26 0 -50.5 9t-43.5 27t-30.5 45.5t-11.5 64.5q0 47 16 89.5t45 74.5t70 51t91 19q28 0 55 -5t44 -19zM158 113
q-29 0 -51 -18.5t-22 -49.5q0 -28 18 -43t44 -15q25 0 47.5 17t22.5 54q0 25 -16 40t-43 15z" />
    <glyph glyph-name="uni2087" unicode="&#x2087;" horiz-adv-x="368" 
d="M330 230q-21 -15 -51.5 -38.5t-62 -59.5t-61 -86t-49.5 -117h-80q15 66 46.5 119t64.5 91t60.5 61t35.5 28h-190l13 66h288z" />
    <glyph glyph-name="uni2088" unicode="&#x2088;" horiz-adv-x="396" 
d="M138 188q0 -18 12.5 -29.5t32.5 -11.5q23 0 43 12t20 40q0 16 -11.5 27.5t-36.5 13.5q-27 0 -43.5 -14t-16.5 -38zM93 28q0 -22 18 -33.5t42 -11.5q31 0 49.5 15t18.5 42q0 19 -15 32t-43 13q-30 0 -50 -16t-20 -41zM149 -78q-66 0 -99.5 28.5t-33.5 70.5q0 32 24.5 59.5
t69.5 38.5q-21 8 -34 28t-13 39q0 50 38 82.5t104 32.5q52 0 84.5 -25.5t32.5 -66.5q0 -29 -19 -55.5t-57 -40.5q22 -8 37 -29t15 -43q0 -27 -11.5 -48.5t-32 -37.5t-47.5 -24.5t-58 -8.5z" />
    <glyph glyph-name="uni2089" unicode="&#x2089;" horiz-adv-x="407" 
d="M46 15q18 -13 39.5 -19t44.5 -6q18 0 36 5.5t33.5 16t27.5 27t17 39.5q-14 -16 -34.5 -23.5t-37.5 -7.5q-53 0 -89 31t-36 84q0 33 12.5 59t34 44t49 27.5t57.5 9.5q26 0 50 -8t42.5 -25.5t29.5 -43.5t11 -62q0 -51 -13 -95t-39 -76.5t-64.5 -50.5t-90.5 -18
q-29 0 -60 9.5t-50 25.5zM183 110q29 0 49 20t20 52q0 26 -17 41t-40 15q-26 0 -47.5 -18t-21.5 -53q0 -26 16 -41.5t41 -15.5z" />
    <glyph glyph-name="Euro" unicode="&#x20ac;" horiz-adv-x="689" 
d="M67 443h87q24 56 63 97.5t85 68.5t96 40.5t97 13.5q62 0 114 -17.5t85 -49.5l-57 -71q-26 25 -65.5 38.5t-84.5 13.5q-32 0 -64 -8t-62 -24.5t-56 -42t-45 -59.5h316l-54 -78h-292q-5 -20 -7.5 -40t-2.5 -43h255l-54 -80h-190q21 -65 75.5 -98.5t125.5 -33.5q38 0 71.5 9
t62.5 29l33 -74q-75 -49 -177 -49q-49 0 -95.5 14.5t-86 42t-68 68t-41.5 92.5h-116l17 80h90q0 22 2 42.5t6 40.5h-80z" />
    <glyph glyph-name="uni2113" unicode="&#x2113;" horiz-adv-x="470" 
d="M96 127q0 12 2.5 28t5.5 32t6 30t5 22q-17 -4 -34.5 -6t-35.5 -4l18 87q17 3 35.5 7.5t37.5 11.5l48 230q14 69 54.5 106.5t95.5 37.5q59 0 90 -32t31 -86q0 -43 -17 -88t-48 -87.5t-75 -79t-98 -62.5l-20 -95q-2 -8 -3.5 -19.5t-1.5 -17.5q0 -34 20 -47t51 -13
q32 0 50.5 8t25.5 13l-18 -85q-6 -7 -26.5 -15t-48.5 -8q-39 0 -67.5 10t-47 28t-27 42t-8.5 52zM242 391q51 35 85 84.5t34 110.5q0 17 -7.5 26.5t-24.5 9.5t-30.5 -14.5t-21.5 -51.5z" />
    <glyph glyph-name="trademark" unicode="&#x2122;" horiz-adv-x="874" 
d="M252 641l-63 -297h-76l63 297h-112l14 68h300l-14 -68h-112zM698 344l49 233l-147 -233h-59l-52 230l-49 -230h-76l77 365h91l56 -254l158 254h101l-77 -365h-72z" />
    <glyph glyph-name="Omega" unicode="&#x2126;" horiz-adv-x="816" 
d="M408 636q-46 0 -91.5 -16t-81.5 -47.5t-58 -77.5t-22 -107q0 -54 19 -98t49 -76.5t67.5 -53t74.5 -28.5v-132h-305v88h199q-38 14 -75 40.5t-65.5 65t-46 87t-17.5 106.5q0 79 29.5 142t78 106t112.5 66t133 23t133 -23t112.5 -66t78 -106t29.5 -142q0 -58 -17.5 -106.5
t-46.5 -87t-65.5 -65t-75.5 -40.5h200v-88h-305v132q37 8 74.5 28.5t67.5 53t49 76.5t19 98q0 61 -22 107t-58 77.5t-81.5 47.5t-91.5 16z" />
    <glyph glyph-name="uni2160" unicode="&#x2160;" horiz-adv-x="493" 
d="M508 648l-18 -88h-151l-100 -472h150l-18 -88h-396l18 88h150l100 472h-149l18 88h396z" />
    <glyph glyph-name="uni2161" unicode="&#x2161;" horiz-adv-x="757" 
d="M772 648l-18 -88h-141l-100 -472h140l-18 -88h-660l18 88h140l100 472h-139l18 88h660zM417 88l100 472h-188l-100 -472h188z" />
    <glyph glyph-name="uni2162" unicode="&#x2162;" horiz-adv-x="1031" 
d="M791 560h-183l-99 -472h183zM512 560h-183l-99 -472h183zM-7 88h141l99 472h-139l18 88h934l-18 -88h-141l-99 -472h139l-18 -88h-934z" />
    <glyph glyph-name="uni2163" unicode="&#x2163;" horiz-adv-x="982" 
d="M112 648h895l-18 -88h-115l-264 -472h279l-18 -88h-896l18 88h130l100 472h-129zM219 88h241l-61 472h-80zM548 141l226 419h-272z" />
    <glyph glyph-name="uni2164" unicode="&#x2164;" horiz-adv-x="765" 
d="M248 88l-61 472h-108l18 88h693l-18 -88h-110l-264 -472h269l-18 -88h-684l18 88h265zM336 141l226 419h-272z" />
    <glyph glyph-name="uni2165" unicode="&#x2165;" horiz-adv-x="982" 
d="M102 648h895l-18 -88h-130l-100 -472h130l-18 -88h-896l18 88h275l-61 472h-113zM408 88h245l100 472h-81zM346 141l226 419h-272z" />
    <glyph glyph-name="uni2166" unicode="&#x2166;" horiz-adv-x="1270" 
d="M572 560h-272l45 -419zM752 560h-81l-263 -472h245zM1030 560h-182l-99 -472h182zM-35 0l18 88h274l-59 472h-115l18 88h1183l-18 -88h-140l-99 -472h139l-18 -88h-1183z" />
    <glyph glyph-name="uni2167" unicode="&#x2167;" horiz-adv-x="1529" 
d="M112 648h1432l-18 -88h-136l-100 -472h135l-18 -88h-1432l18 88h270l-56 472h-113zM752 88h173l100 472h-173zM1021 88h173l100 472h-173zM413 88h243l100 472h-84zM351 141l222 419h-264z" />
    <glyph glyph-name="uni2168" unicode="&#x2168;" horiz-adv-x="952" 
d="M112 648h865l-18 -88h-105l-222 -243l112 -229h115l-18 -88h-866l18 88h130l100 472h-129zM405 560h-86l-100 -472h93l213 229zM594 392l150 168h-229zM419 88h216l-74 155z" />
    <glyph glyph-name="uni2169" unicode="&#x2169;" horiz-adv-x="733" 
d="M186 560h-102l18 88h656l-18 -88h-105l-222 -243l112 -229h115l-18 -88h-657l18 88h110l213 229zM375 392l150 168h-229zM200 88h216l-74 155z" />
    <glyph glyph-name="uni216C" unicode="&#x216c;" horiz-adv-x="623" 
d="M478 648l-18 -88h-141l-100 -472h212l41 193h96l-59 -281h-534l18 88h130l100 472h-129l18 88h366z" />
    <glyph glyph-name="uni216D" unicode="&#x216d;" horiz-adv-x="711" 
d="M716 648l-48 -224h-95q-2 33 -17.5 61t-41 47.5t-58.5 30.5t-69 11q-44 0 -88 -18t-79 -54.5t-57 -93t-22 -134.5q0 -48 15.5 -85.5t42.5 -63.5t63 -39.5t77 -13.5q45 0 78.5 12.5t57 32.5t37.5 45t19 50l4 19h95l-49 -231h-93l10 52q-32 -32 -73 -49.5t-95 -17.5
q-57 0 -108.5 20.5t-91 58.5t-62.5 91.5t-23 118.5q0 96 32.5 168.5t83.5 121.5t114 74t124 25q79 0 128.5 -26t75.5 -72l18 83h95z" />
    <glyph glyph-name="uni216E" unicode="&#x216e;" horiz-adv-x="737" 
d="M224 88h82q51 0 99.5 19t86.5 57t61 95t23 133q0 42 -12.5 73.5t-34.5 52.5t-53 31.5t-67 10.5h-84zM-7 88h136l99 472h-134l16 88h312q51 0 96.5 -15.5t79.5 -47t54 -79t20 -111.5q0 -100 -33 -174t-84.5 -123t-114.5 -73.5t-124 -24.5h-341z" />
    <glyph glyph-name="uni216F" unicode="&#x216f;" horiz-adv-x="1036" 
d="M290 0h-315l18 88h118l99 472h-116l18 88h252l100 -515l321 515h266l-18 -88h-123l-99 -472h121l-18 -88h-315l18 88h100l90 428l-328 -516h-76l-108 518l-90 -430h103z" />
    <glyph glyph-name="arrowleft" unicode="&#x2190;" horiz-adv-x="1026" 
d="M0 287l221 186v-144h735v-83h-735v-144z" />
    <glyph glyph-name="arrowup" unicode="&#x2191;" horiz-adv-x="449" 
d="M439 555h-158v-703h-83v703h-158l200 245z" />
    <glyph glyph-name="arrowright" unicode="&#x2192;" horiz-adv-x="1026" 
d="M730 76v169h-696v83h696v171l252 -212z" />
    <glyph glyph-name="arrowdown" unicode="&#x2193;" horiz-adv-x="449" 
d="M210 -162l-211 252h169v696h83v-696h171z" />
    <glyph glyph-name="uni2196" unicode="&#x2196;" horiz-adv-x="874" 
d="M347 709l-116 -117l543 -542l-59 -58l-543 541l-117 -118v294h292z" />
    <glyph glyph-name="uni2197" unicode="&#x2197;" horiz-adv-x="773" 
d="M673 709v-294l-118 118l-542 -541l-59 58l543 542l-116 117h292z" />
    <glyph glyph-name="uni2198" unicode="&#x2198;" horiz-adv-x="874" 
d="M482 0l116 117l-543 542l59 58l542 -542l118 119v-294h-292z" />
    <glyph glyph-name="uni2199" unicode="&#x2199;" horiz-adv-x="764" 
d="M45 0v294l117 -119l543 542l59 -58l-543 -542l116 -117h-292z" />
    <glyph glyph-name="uni21A9" unicode="&#x21a9;" horiz-adv-x="833" 
d="M398 664h189q45 0 85 -15t70 -43t47.5 -66.5t17.5 -84.5t-17.5 -84.5t-47.5 -66t-70 -43t-85 -15.5h-368v-144l-221 185l221 186v-144h363q28 0 54 8.5t45.5 24.5t31.5 39.5t12 53.5t-11.5 53.5t-31.5 39.5t-47 24.5t-57 8.5h-180v83z" />
    <glyph glyph-name="uni21B0" unicode="&#x21b0;" horiz-adv-x="775" 
d="M50 538l221 186v-144h414v-580h-83v497h-331v-144z" />
    <glyph glyph-name="uni21B1" unicode="&#x21b1;" horiz-adv-x="720" 
d="M35 0v580h464v144l221 -186l-221 -185v144h-381v-497h-83z" />
    <glyph glyph-name="uni21B2" unicode="&#x21b2;" horiz-adv-x="760" 
d="M675 709v-580h-464v-144l-221 186l221 185v-144h381v497h83z" />
    <glyph glyph-name="uni21B3" unicode="&#x21b3;" horiz-adv-x="840" 
d="M770 171l-221 -186v144h-464v580h83v-497h381v144z" />
    <glyph glyph-name="uni21B4" unicode="&#x21b4;" horiz-adv-x="814" 
d="M55 709h580v-504h144l-186 -221l-185 221h144v421h-497v83z" />
    <glyph glyph-name="uni21C6" unicode="&#x21c6;" horiz-adv-x="1106" 
d="M55 540l221 186v-144h755v-83h-755v-144zM830 -15v144h-755v83h755v144l221 -186z" />
    <glyph glyph-name="partialdiff" unicode="&#x2202;" horiz-adv-x="653" 
d="M272 638q-24 0 -62.5 -6t-77.5 -25l-32 74q42 24 90 33.5t90 9.5q45 0 98.5 -15t100 -56.5t77.5 -114.5t31 -190q0 -84 -17.5 -151t-52.5 -114t-86.5 -72.5t-118.5 -25.5q-46 0 -89.5 14.5t-77 44t-54 74t-20.5 103.5q0 54 19.5 96.5t53.5 72.5t78.5 46t94.5 16
q60 0 104 -17t67 -40q-5 64 -23 110.5t-46 75.5t-65 43t-82 14zM331 369q-41 0 -71.5 -12.5t-51 -33.5t-31 -49t-10.5 -59q0 -35 12.5 -61.5t33.5 -44.5t48 -27.5t56 -9.5q47 0 79 20t51.5 49t28.5 61t11 55q1 10 1.5 20t0.5 20q-25 34 -67.5 53t-90.5 19z" />
    <glyph glyph-name="Delta" unicode="&#x2206;" horiz-adv-x="657" 
d="M304 597l-190 -507h383zM253 709h105l279 -709h-662z" />
    <glyph glyph-name="product" unicode="&#x220f;" horiz-adv-x="687" 
d="M499 0v622h-314v-622h-98v709h507v-709h-95z" />
    <glyph glyph-name="summation" unicode="&#x2211;" horiz-adv-x="567" 
d="M40 86l273 271l-273 266v86h497v-90h-365l269 -262l-278 -267h374v-90h-497v86z" />
    <glyph glyph-name="minus" unicode="&#x2212;" horiz-adv-x="533" 
d="M42 327h423v-79h-423v79z" />
    <glyph glyph-name="uni2215" unicode="&#x2215;" horiz-adv-x="386" 
d="M466 648l-446 -648h-95l446 648h95z" />
    <glyph glyph-name="uni2219" unicode="&#x2219;" horiz-adv-x="272" 
d="M55 276q0 16 6 30t16.5 24.5t25 17t30.5 6.5q29 0 46.5 -18t17.5 -44q0 -33 -23 -55t-54 -22q-29 0 -47 18t-18 43z" />
    <glyph glyph-name="radical" unicode="&#x221a;" horiz-adv-x="665" 
d="M593 780l-266 -780h-91l-189 529h108l127 -374l235 713h195v-88h-119z" />
    <glyph glyph-name="infinity" unicode="&#x221e;" horiz-adv-x="811" 
d="M45 290q0 36 13 67t36 53.5t55 35.5t70 13q97 0 184 -108q44 54 87 81t92 27q38 0 70 -13t55 -35.5t36 -53.5t13 -67t-13 -67t-36 -53.5t-55 -35t-70 -12.5q-59 0 -104.5 31.5t-78.5 74.5q-45 -52 -87.5 -79t-92.5 -27q-38 0 -70 12.5t-55 35t-36 53.5t-13 67zM221 379
q-43 0 -68 -26t-25 -64t25 -63.5t68 -25.5q38 0 68 24.5t61 62.5q-32 39 -61 65.5t-68 26.5zM580 200q43 0 68 25.5t25 63.5t-25 64t-68 26q-39 0 -68 -25.5t-61 -62.5q32 -39 61.5 -65t67.5 -26z" />
    <glyph glyph-name="integral" unicode="&#x222b;" horiz-adv-x="310" 
d="M91 551q0 74 42 116t117 42h37v-86h-30q-33 0 -52.5 -19.5t-19.5 -59.5v-585q0 -74 -40.5 -116.5t-114.5 -42.5h-43v86h31q32 0 52.5 20.5t20.5 60.5v584z" />
    <glyph glyph-name="approxequal" unicode="&#x2248;" horiz-adv-x="654" 
d="M564 384q-28 -40 -65 -61.5t-81 -21.5q-48 0 -100 30l-47 26q-32 17 -62 17q-52 0 -91 -45l-53 47q29 42 65 63.5t78 21.5q26 0 50.5 -8t52.5 -23l46 -25q35 -20 70 -20q49 0 86 44zM564 190q-28 -40 -65 -61.5t-81 -21.5q-48 0 -100 30l-47 26q-32 17 -62 17
q-52 0 -91 -45l-53 47q29 42 65 63.5t78 21.5q26 0 50.5 -8t52.5 -23l46 -25q35 -20 70 -20q49 0 86 44z" />
    <glyph glyph-name="notequal" unicode="&#x2260;" horiz-adv-x="619" 
d="M65 423h295l73 99h96l-73 -99h72v-77h-129l-85 -116h214v-79h-273l-73 -100h-96l73 100h-94v79h152l86 116h-238v77z" />
    <glyph glyph-name="lessequal" unicode="&#x2264;" horiz-adv-x="567" 
d="M65 130h412v-79h-412v79zM65 389l412 146v-84l-307 -104l307 -104v-84l-412 145v85z" />
    <glyph glyph-name="greaterequal" unicode="&#x2265;" horiz-adv-x="567" 
d="M477 51h-412v79h412v-79zM477 304l-412 -145v84l307 104l-307 104v84l412 -146v-85z" />
    <glyph glyph-name="dotmath" unicode="&#x22c5;" horiz-adv-x="272" 
d="M55 276q0 16 6 30t16.5 24.5t25 17t30.5 6.5q29 0 46.5 -18t17.5 -44q0 -33 -23 -55t-54 -22q-29 0 -47 18t-18 43z" />
    <glyph glyph-name="uni24C5" unicode="&#x24c5;" horiz-adv-x="826" 
d="M40 355q0 76 28.5 143t78 117.5t115.5 79.5t142 29t143 -29t116.5 -79.5t78.5 -117.5t29 -143t-29 -143.5t-78.5 -117.5t-116.5 -79.5t-143 -29.5t-142 29.5t-115.5 79.5t-78 117.5t-28.5 143.5zM118 355q0 -63 22 -117.5t61 -94t91 -62.5t112 -23t112 23t91 62.5t61 94
t22 117.5t-22 117t-61 94t-91 62.5t-112 22.5t-112 -22.5t-91 -62.5t-61 -94t-22 -117zM426 367q40 0 64.5 19t24.5 57q0 51 -63 51h-50l-28 -127h52zM360 303l-30 -146h-73l85 401h132q26 0 47.5 -9.5t36.5 -25t23 -35.5t8 -42q0 -30 -11 -56.5t-30.5 -45.5t-46.5 -30
t-58 -11h-83z" />
    <glyph glyph-name="filledbox" unicode="&#x25a0;" horiz-adv-x="879" 
d="M85 709h709v-709h-709v709z" />
    <glyph glyph-name="H22073" unicode="&#x25a1;" horiz-adv-x="879" 
d="M85 0v709h709v-709h-709zM167 75h545v558h-545v-558z" />
    <glyph glyph-name="uni25AF" unicode="&#x25af;" horiz-adv-x="555" 
d="M5 709h545v-709h-545v709zM471 79v551h-387v-551h387z" />
    <glyph glyph-name="triagup" unicode="&#x25b2;" horiz-adv-x="847" 
d="M777 0h-837l420 724z" />
    <glyph glyph-name="uni25B3" unicode="&#x25b3;" horiz-adv-x="847" 
d="M360 724l417 -724h-837zM76 75h564l-281 486z" />
    <glyph glyph-name="lozenge" unicode="&#x25ca;" horiz-adv-x="556" 
d="M418 354l-140 243l-141 -243l141 -242zM237 0l-202 354l202 355h82l202 -355l-202 -354h-82z" />
    <glyph glyph-name="circle" unicode="&#x25cb;" horiz-adv-x="846" 
d="M791 354q0 -77 -29 -144.5t-79.5 -117.5t-118 -79t-144.5 -29t-144.5 29t-117.5 79t-79 117.5t-29 144.5t29 144.5t79 118t117.5 79.5t144.5 29t144.5 -29t118 -79.5t79.5 -118t29 -144.5zM708 354q0 61 -22.5 114t-61.5 92.5t-91.5 62t-112.5 22.5t-112.5 -22.5
t-91.5 -62t-61.5 -92.5t-22.5 -114t22.5 -114t61.5 -92.5t91.5 -62t112.5 -22.5t112.5 22.5t91.5 62t61.5 92.5t22.5 114z" />
    <glyph glyph-name="H18533" unicode="&#x25cf;" horiz-adv-x="846" 
d="M50 354q0 77 29 144.5t79 118t117.5 79.5t144.5 29t144.5 -29t118 -79.5t79.5 -118t29 -144.5t-29 -144.5t-79.5 -117.5t-118 -79t-144.5 -29t-144.5 29t-117.5 79t-79 117.5t-29 144.5z" />
    <glyph glyph-name="uni262E" unicode="&#x262e;" horiz-adv-x="826" 
d="M771 355q0 -76 -29 -143.5t-78.5 -117.5t-116.5 -79.5t-143 -29.5t-142 29.5t-115.5 79.5t-78 117.5t-28.5 143.5t28.5 143t78 117.5t115.5 79.5t142 29t143 -29t116.5 -79.5t78.5 -117.5t29 -143zM690 355q0 57 -19 107.5t-52 89t-78 63.5t-97 33v-240l206 -207
q19 34 29.5 72.5t10.5 81.5zM118 355q0 -42 10 -80.5t29 -71.5l205 205v240q-53 -8 -97.5 -33t-77 -63.5t-51 -89t-18.5 -107.5zM444 61q45 6 84.5 25.5t71.5 49.5l-156 156v-231zM207 137q31 -31 70.5 -50.5t84.5 -25.5v231z" />
    <glyph glyph-name="uni2713" unicode="&#x2713;" horiz-adv-x="780" 
d="M232 -17l-282 315l60 57l226 -247l574 621l60 -59z" />
    <glyph glyph-name="uni2715" unicode="&#x2715;" horiz-adv-x="774" 
d="M35 53l294 301l-294 301l59 58l293 -300l293 300l59 -58l-295 -301l295 -301l-58 -58l-294 300l-294 -300z" />
    <glyph glyph-name="uni2780" unicode="&#x2780;" horiz-adv-x="826" 
d="M40 355q0 76 28.5 143t78 117.5t115.5 79.5t142 29t143 -29t116.5 -79.5t78.5 -117.5t29 -143t-29 -143.5t-78.5 -117.5t-116.5 -79.5t-143 -29.5t-142 29.5t-115.5 79.5t-78 117.5t-28.5 143.5zM118 355q0 -63 22 -117.5t61 -94t91 -62.5t112 -23t112 23t91 62.5t61 94
t22 117.5t-22 117t-61 94t-91 62.5t-112 22.5t-112 -22.5t-91 -62.5t-61 -94t-22 -117zM374 173v245h-86v52q37 1 62 20.5t30 47.5h71v-365h-77z" />
    <glyph glyph-name="uni2781" unicode="&#x2781;" horiz-adv-x="826" 
d="M404 724q76 0 143 -29t116.5 -79.5t78.5 -117.5t29 -143t-29 -143.5t-78.5 -117.5t-116.5 -79.5t-143 -29.5t-142 29.5t-115.5 79.5t-78 117.5t-28.5 143.5t28.5 143t78 117.5t115.5 79.5t142 29zM118 355q0 -63 22 -117.5t61 -94t91 -62.5t112 -23t112 23t91 62.5t61 94
t22 117.5t-22 117t-61 94t-91 62.5t-112 22.5t-112 -22.5t-91 -62.5t-61 -94t-22 -117zM413 373q43 26 43 63q0 20 -14 35t-40 15t-41.5 -16t-15.5 -42q0 -3 0.5 -11t2.5 -15h-74q-2 8 -2.5 16.5t-0.5 14.5q0 24 9 45t26 37t41.5 25.5t55.5 9.5t55 -9.5t41 -25t26 -36.5
t9 -44q0 -35 -19 -62.5t-51 -47.5l-72 -45q-11 -8 -20 -17t-11 -20h175v-65h-268v10q0 45 20 82.5t65 65.5z" />
    <glyph glyph-name="uni2782" unicode="&#x2782;" horiz-adv-x="826" 
d="M40 355q0 76 28.5 143t78 117.5t115.5 79.5t142 29t143 -29t116.5 -79.5t78.5 -117.5t29 -143t-29 -143.5t-78.5 -117.5t-116.5 -79.5t-143 -29.5t-142 29.5t-115.5 79.5t-78 117.5t-28.5 143.5zM118 355q0 -63 22 -117.5t61 -94t91 -62.5t112 -23t112 23t91 62.5t61 94
t22 117.5t-22 117t-61 94t-91 62.5t-112 22.5t-112 -22.5t-91 -62.5t-61 -94t-22 -117zM340 395l93 77h-169v65h271v-63l-100 -78q21 -2 40.5 -10t34.5 -22t24 -34t9 -45t-10.5 -47t-29.5 -38.5t-45.5 -26t-59.5 -9.5t-58 9t-43.5 23t-30 32.5t-15.5 38.5l67 27
q5 -29 26.5 -46.5t52.5 -17.5t49.5 16t18.5 39q0 32 -21.5 45t-46.5 13q-8 0 -15.5 -1t-12.5 -3z" />
    <glyph glyph-name="uni2783" unicode="&#x2783;" horiz-adv-x="826" 
d="M40 355q0 76 28.5 143t78 117.5t115.5 79.5t142 29t143 -29t116.5 -79.5t78.5 -117.5t29 -143t-29 -143.5t-78.5 -117.5t-116.5 -79.5t-143 -29.5t-142 29.5t-115.5 79.5t-78 117.5t-28.5 143.5zM118 355q0 -63 22 -117.5t61 -94t91 -62.5t112 -23t112 23t91 62.5t61 94
t22 117.5t-22 117t-61 94t-91 62.5t-112 22.5t-112 -22.5t-91 -62.5t-61 -94t-22 -117zM230 323l177 220h85v-228h64v-65h-64v-72h-77v72h-185v73zM415 454l-111 -139h111v139z" />
    <glyph glyph-name="uni2784" unicode="&#x2784;" horiz-adv-x="826" 
d="M40 355q0 76 28.5 143t78 117.5t115.5 79.5t142 29t143 -29t116.5 -79.5t78.5 -117.5t29 -143t-29 -143.5t-78.5 -117.5t-116.5 -79.5t-143 -29.5t-142 29.5t-115.5 79.5t-78 117.5t-28.5 143.5zM118 355q0 -63 22 -117.5t61 -94t91 -62.5t112 -23t112 23t91 62.5t61 94
t22 117.5t-22 117t-61 94t-91 62.5t-112 22.5t-112 -22.5t-91 -62.5t-61 -94t-22 -117zM318 285q7 -26 26.5 -41.5t46.5 -15.5q29 0 48 16t19 45q0 31 -19 46.5t-48 15.5q-20 0 -36 -7.5t-28 -19.5l-64 24l49 187h204v-66h-154l-23 -86q14 15 33.5 21.5t39.5 6.5
q56 0 90 -32t34 -87q0 -27 -9.5 -50.5t-28 -41t-45.5 -27.5t-62 -10q-27 0 -50.5 8t-41.5 20.5t-30 29t-17 34.5z" />
    <glyph glyph-name="uni2785" unicode="&#x2785;" horiz-adv-x="826" 
d="M40 355q0 76 28.5 143t78 117.5t115.5 79.5t142 29t143 -29t116.5 -79.5t78.5 -117.5t29 -143t-29 -143.5t-78.5 -117.5t-116.5 -79.5t-143 -29.5t-142 29.5t-115.5 79.5t-78 117.5t-28.5 143.5zM118 355q0 -63 22 -117.5t61 -94t91 -62.5t112 -23t112 23t91 62.5t61 94
t22 117.5t-22 117t-61 94t-91 62.5t-112 22.5t-112 -22.5t-91 -62.5t-61 -94t-22 -117zM505 470q-29 13 -62 13q-48 0 -81.5 -26.5t-41.5 -78.5q13 19 38 31t53 12q58 0 94 -33t36 -93q0 -29 -11.5 -52.5t-31 -40.5t-46.5 -26.5t-58 -9.5q-28 0 -55 10t-48.5 30.5t-34.5 52
t-13 74.5q0 49 14.5 88t40.5 67t61.5 43t77.5 15q25 0 48 -5t38 -14zM326 294q0 -31 21.5 -47t47.5 -16t47 16t21 47t-21 47t-47 16t-47.5 -16t-21.5 -47z" />
    <glyph glyph-name="uni2786" unicode="&#x2786;" horiz-adv-x="826" 
d="M40 355q0 76 28.5 143t78 117.5t115.5 79.5t142 29t143 -29t116.5 -79.5t78.5 -117.5t29 -143t-29 -143.5t-78.5 -117.5t-116.5 -79.5t-143 -29.5t-142 29.5t-115.5 79.5t-78 117.5t-28.5 143.5zM118 355q0 -63 22 -117.5t61 -94t91 -62.5t112 -23t112 23t91 62.5t61 94
t22 117.5t-22 117t-61 94t-91 62.5t-112 22.5t-112 -22.5t-91 -62.5t-61 -94t-22 -117zM554 464q-13 -9 -36 -30t-47 -56.5t-44 -87t-27 -122.5h-82q7 75 29 130.5t46 93.5q28 44 61 75h-197v66h297v-69z" />
    <glyph glyph-name="uni2787" unicode="&#x2787;" horiz-adv-x="826" 
d="M40 355q0 76 28.5 143t78 117.5t115.5 79.5t142 29t143 -29t116.5 -79.5t78.5 -117.5t29 -143t-29 -143.5t-78.5 -117.5t-116.5 -79.5t-143 -29.5t-142 29.5t-115.5 79.5t-78 117.5t-28.5 143.5zM118 355q0 -63 22 -117.5t61 -94t91 -62.5t112 -23t112 23t91 62.5t61 94
t22 117.5t-22 117t-61 94t-91 62.5t-112 22.5t-112 -22.5t-91 -62.5t-61 -94t-22 -117zM403 390q26 0 41.5 13t15.5 35q0 20 -15 32.5t-42 12.5t-42 -12.5t-15 -32.5q0 -22 15.5 -35t41.5 -13zM403 230q33 0 50 13.5t17 36.5q0 22 -17.5 36t-49.5 14t-49.5 -14t-17.5 -36
q0 -23 17 -36.5t50 -13.5zM403 166q-70 0 -107.5 31t-37.5 77q0 27 18 50.5t50 35.5q-27 11 -41.5 33t-14.5 47q0 47 37.5 76t95.5 29t95.5 -29t37.5 -76q0 -25 -14.5 -47t-41.5 -33q32 -12 50 -35.5t18 -50.5q0 -46 -37.5 -77t-107.5 -31z" />
    <glyph glyph-name="uni2788" unicode="&#x2788;" horiz-adv-x="826" 
d="M40 355q0 76 28.5 143t78 117.5t115.5 79.5t142 29t143 -29t116.5 -79.5t78.5 -117.5t29 -143t-29 -143.5t-78.5 -117.5t-116.5 -79.5t-143 -29.5t-142 29.5t-115.5 79.5t-78 117.5t-28.5 143.5zM118 355q0 -63 22 -117.5t61 -94t91 -62.5t112 -23t112 23t91 62.5t61 94
t22 117.5t-22 117t-61 94t-91 62.5t-112 22.5t-112 -22.5t-91 -62.5t-61 -94t-22 -117zM294 242q29 -13 62 -13q48 0 82.5 24.5t40.5 78.5q-13 -19 -38 -31t-53 -12q-57 0 -93.5 33.5t-36.5 92.5q0 28 11.5 52t31 41t46.5 26.5t58 9.5q28 0 54.5 -10t47.5 -30.5t34 -52
t13 -74.5q0 -52 -14.5 -91.5t-40 -66.5t-60.5 -41t-77 -14q-25 0 -48 5t-38 14zM471 415q0 31 -21 47.5t-48 16.5t-47.5 -16.5t-20.5 -47.5t20.5 -47.5t47.5 -16.5t48 16.5t21 47.5z" />
    <glyph glyph-name="uniE000" unicode="&#xe000;" horiz-adv-x="814" 
d="M35 205h144v504h580v-83h-497v-421h144l-185 -221z" />
    <glyph glyph-name="uniE021" unicode="&#xe021;" horiz-adv-x="1080" 
d="M45 355h131q0 76 29.5 143.5t79.5 117.5t117 79t143 29q50 0 95.5 -12t86.5 -35l-37 -74q-32 18 -68.5 28t-75.5 10q-60 0 -112 -22.5t-91 -61t-61 -90.5t-22 -112h143l-179 -210zM914 354q0 -77 -29.5 -144t-79.5 -117t-117 -79t-143 -29q-50 0 -95.5 12t-86.5 35l37 74
q32 -18 68.5 -28t75.5 -10q60 0 112 22.5t91 61t61 90.5t22 112h-138l179 210l179 -210h-136z" />
    <glyph glyph-name="uniE002" unicode="&#xe002;" horiz-adv-x="949" 
d="M740 564l179 -210h-130q0 -77 -29 -144t-79 -117t-117.5 -79t-144.5 -29t-144 29t-117 79t-79 117t-29 144t29 144.5t79 117.5t117 79t144 29q50 0 95.5 -12t86.5 -35l-37 -74q-32 18 -68.5 28t-75.5 10q-60 0 -112 -22.5t-91 -61t-61 -91t-22 -112.5t22 -112.5t61 -91.5
t91 -61.5t112 -22.5t112 22.5t90.5 61.5t60.5 91.5t22 112.5h-144z" />
    <glyph glyph-name="uniFB00" unicode="&#xfb00;" horiz-adv-x="618" 
d="M617 643q-30 0 -52 -16t-32 -61l-18 -85h109l-18 -83h-109l-84 -398h-97l84 398h-189l-84 -398h-97l84 398h-81l18 83h81l21 100q10 49 30 78t44 44.5t50 20.5t48 5q29 0 45.5 -6t18.5 -8l-18 -80q-4 2 -14.5 5t-25.5 3q-30 0 -52 -16t-32 -61l-18 -85h189l21 100
q10 49 30 78t44 44.5t50 20.5t48 5q29 0 45.5 -6t18.5 -8l-18 -80q-4 2 -14.5 5t-25.5 3z" />
    <glyph glyph-name="fi" unicode="&#xfb01;" horiz-adv-x="591" 
d="M127 0h-97l84 398h-81l18 83h81l21 100q10 49 30 78t44 44.5t50 20.5t48 5q29 0 45.5 -6t18.5 -8l-18 -80q-4 2 -14.5 5t-25.5 3q-30 0 -52 -16t-32 -61l-18 -85h307l-103 -481h-94l85 398h-213zM459 659q0 16 6.5 29.5t17 23.5t23.5 15.5t27 5.5q27 0 44 -17.5t17 -42.5
q0 -15 -6.5 -28.5t-17 -23.5t-24 -16t-26.5 -6q-27 0 -44 17.5t-17 42.5z" />
    <glyph glyph-name="fl" unicode="&#xfb02;" horiz-adv-x="590" 
d="M331 643q-30 0 -52 -16t-32 -61l-18 -85h213l52 243h94l-154 -724h-94l85 398h-214l-84 -398h-97l84 398h-81l18 83h81l21 100q10 49 30 78t44 44.5t50 20.5t48 5q29 0 45.5 -6t18.5 -8l-18 -80q-4 2 -14.5 5t-25.5 3z" />
    <glyph glyph-name="uniFB03" unicode="&#xfb03;" horiz-adv-x="870" 
d="M738 659q0 16 6.5 29.5t17 23.5t23.5 15.5t27 5.5q27 0 44 -17.5t17 -42.5q0 -15 -6.5 -28.5t-17 -23.5t-24 -16t-26.5 -6q-27 0 -44 17.5t-17 42.5zM617 643q-30 0 -52 -16t-32 -61l-18 -85h300l-103 -481h-94l85 398h-206l-84 -398h-97l84 398h-189l-84 -398h-97
l84 398h-81l18 83h81l21 100q10 49 30 78t44 44.5t50 20.5t48 5q29 0 45.5 -6t18.5 -8l-18 -80q-4 2 -14.5 5t-25.5 3q-30 0 -52 -16t-32 -61l-18 -85h189l21 100q10 49 30 78t44 44.5t50 20.5t48 5q29 0 45.5 -6t18.5 -8l-18 -80q-4 2 -14.5 5t-25.5 3z" />
    <glyph glyph-name="uniFB04" unicode="&#xfb04;" horiz-adv-x="875" 
d="M617 643q-30 0 -52 -16t-32 -61l-18 -85h212l52 243h94l-154 -724h-94l85 398h-213l-84 -398h-97l84 398h-189l-84 -398h-97l84 398h-81l18 83h81l21 100q10 49 30 78t44 44.5t50 20.5t48 5q29 0 45.5 -6t18.5 -8l-18 -80q-4 2 -14.5 5t-25.5 3q-30 0 -52 -16t-32 -61
l-18 -85h189l21 100q10 49 30 78t44 44.5t50 20.5t48 5q29 0 45.5 -6t18.5 -8l-18 -80q-4 2 -14.5 5t-25.5 3z" />
    <glyph glyph-name="uniFEFF" unicode="&#xfeff;" horiz-adv-x="0" 
 />
    <glyph glyph-name="i.latn_TRK" horiz-adv-x="257" 
d="M125 659q0 16 6.5 29.5t17 23.5t23.5 15.5t27 5.5q27 0 44 -17.5t17 -42.5q0 -15 -6.5 -28.5t-17 -23.5t-24 -16t-26.5 -6q-27 0 -44 17.5t-17 42.5zM5 0l103 481h94l-103 -481h-94z" />
    <glyph glyph-name="Ldot.latn_CAT" horiz-adv-x="538" 
d="M15 0l150 709h98l-131 -617h325l-19 -92h-423zM287 337q0 29 20.5 49.5t49.5 20.5q26 0 42.5 -17t16.5 -40q0 -15 -6 -28t-15.5 -22.5t-22.5 -15.5t-27 -6q-26 0 -42 17t-16 42z" />
    <glyph glyph-name="ldot.latn_CAT" horiz-adv-x="355" 
d="M218 304q0 27 20.5 49.5t50.5 22.5q26 0 42 -17t16 -40q0 -15 -6 -28t-15.5 -22.5t-22.5 -15.5t-27 -6q-26 0 -42 16.5t-16 40.5zM5 0l154 724h94l-154 -724h-94z" />
    <glyph glyph-name="zero.numr" horiz-adv-x="411" 
d="M55 412q0 40 10 83t32 78.5t56.5 58.5t83.5 23q33 0 58 -10.5t42 -29.5t25.5 -44t8.5 -53q0 -47 -11 -90.5t-33.5 -77t-56.5 -54t-80 -20.5q-58 0 -96.5 35.5t-38.5 100.5zM125 414q0 -29 17 -50t52 -21q28 0 48.5 17.5t33 43.5t18.5 56t6 56q0 27 -14.5 49.5t-53.5 22.5
q-33 0 -53.5 -21t-32.5 -49.5t-16.5 -58t-4.5 -45.5z" />
    <glyph glyph-name="one.numr" horiz-adv-x="290" 
d="M89 283l56 250h-80l10 51q37 2 64 19.5t38 44.5h68l-79 -365h-77z" />
    <glyph glyph-name="two.numr" horiz-adv-x="388" 
d="M228 477q57 25 57 65q0 17 -12.5 32.5t-38.5 15.5q-29 0 -47.5 -18.5t-18.5 -58.5h-75q0 69 40 105t103 36q31 0 55 -9t40 -24t24 -34.5t8 -40.5q0 -44 -26 -75t-70 -50l-76 -33q-19 -8 -28 -18.5t-14 -21.5h184l-14 -65h-274q6 59 35 100t85 66z" />
    <glyph glyph-name="three.numr" horiz-adv-x="425" 
d="M162 514l114 69h-160l14 65h260l-14 -74l-114 -67q36 -7 60.5 -34.5t24.5 -64.5q0 -26 -10 -49.5t-28.5 -42t-46 -29.5t-62.5 -11q-27 0 -51.5 8t-43 22.5t-29.5 36t-11 48.5q0 9 2 19l69 5q-1 -4 -1 -11q0 -25 17.5 -43.5t46.5 -18.5q30 0 51 16t21 48q0 25 -18 38.5
t-41 13.5q-14 0 -24 -4z" />
    <glyph glyph-name="four.numr" horiz-adv-x="427" 
d="M71 444l206 204h88l-48 -224h65l-14 -65h-64q-1 -4 -2.5 -11.5l-4.5 -22.5t-9 -42h-76l16 76h-173zM272 561l-138 -137h107z" />
    <glyph glyph-name="five.numr" horiz-adv-x="407" 
d="M131 402q0 -24 14.5 -42t45.5 -18q25 0 46.5 15t21.5 49q0 29 -17.5 42.5t-41.5 13.5q-28 0 -49 -16l-64 36l72 166h213l-13 -66h-158l-31 -72q11 7 27.5 9.5t27.5 2.5q50 0 81 -27t31 -80q0 -29 -11 -54.5t-31 -44t-47 -29.5t-59 -11q-29 0 -53.5 8.5t-42.5 24.5t-28 38
t-10 48z" />
    <glyph glyph-name="six.numr" horiz-adv-x="390" 
d="M349 576q-14 8 -31.5 12t-40.5 4q-37 0 -72.5 -21.5t-51.5 -63.5q14 14 36 19t39 5q54 0 85.5 -30t31.5 -81q0 -34 -13 -61t-35 -45.5t-49.5 -28t-56.5 -9.5q-26 0 -50.5 9t-43.5 27t-30.5 45.5t-11.5 64.5q0 47 16 89.5t45 74.5t70 51t91 19q28 0 55 -5t44 -19zM207 467
q-29 0 -51 -18.5t-22 -49.5q0 -28 18 -43t44 -15q25 0 47.5 17t22.5 54q0 25 -16 40t-43 15z" />
    <glyph glyph-name="seven.numr" horiz-adv-x="368" 
d="M369 584q-21 -15 -51.5 -38.5t-62 -59.5t-61 -86t-49.5 -117h-80q15 66 46.5 119t64.5 91t60.5 61t35.5 28h-190l13 66h288z" />
    <glyph glyph-name="eight.numr" horiz-adv-x="396" 
d="M177 542q0 -18 12.5 -29.5t32.5 -11.5q23 0 43 12t20 40q0 16 -11.5 27.5t-36.5 13.5q-27 0 -43.5 -14t-16.5 -38zM132 382q0 -22 18 -33.5t42 -11.5q31 0 49.5 15t18.5 42q0 19 -15 32t-43 13q-30 0 -50 -16t-20 -41zM188 276q-66 0 -99.5 28.5t-33.5 70.5
q0 32 24.5 59.5t69.5 38.5q-21 8 -34 28t-13 39q0 50 38 82.5t104 32.5q52 0 84.5 -25.5t32.5 -66.5q0 -29 -19 -55.5t-57 -40.5q22 -8 37 -29t15 -43q0 -27 -11.5 -48.5t-32 -37.5t-47.5 -24.5t-58 -8.5z" />
    <glyph glyph-name="nine.numr" horiz-adv-x="407" 
d="M80 367q18 -13 39.5 -19t44.5 -6q18 0 36 5.5t33.5 16t27.5 27t17 39.5q-14 -16 -34.5 -23.5t-37.5 -7.5q-53 0 -89 31t-36 84q0 33 12.5 59t34 44t49 27.5t57.5 9.5q26 0 50 -8t42.5 -25.5t29.5 -43.5t11 -62q0 -51 -13 -95t-39 -76.5t-64.5 -50.5t-90.5 -18
q-29 0 -60 9.5t-50 25.5zM217 462q29 0 49 20t20 52q0 26 -17 41t-40 15q-26 0 -47.5 -18t-21.5 -53q0 -26 16 -41.5t41 -15.5z" />
    <glyph glyph-name="zero.dnom" horiz-adv-x="411" 
d="M36 130q0 40 10 83t32 78.5t56.5 58.5t83.5 23q33 0 58 -10.5t42 -29.5t25.5 -44t8.5 -53q0 -47 -11 -90.5t-33.5 -77t-56.5 -54t-80 -20.5q-58 0 -96.5 35.5t-38.5 100.5zM106 132q0 -29 17 -50t52 -21q28 0 48.5 17.5t33 43.5t18.5 56t6 56q0 27 -14.5 49.5t-53.5 22.5
q-33 0 -53.5 -21t-32.5 -49.5t-16.5 -58t-4.5 -45.5z" />
    <glyph glyph-name="one.dnom" horiz-adv-x="290" 
d="M60 1l56 250h-80l10 51q37 2 64 19.5t38 44.5h68l-79 -365h-77z" />
    <glyph glyph-name="two.dnom" horiz-adv-x="381" 
d="M189 195q57 25 57 65q0 17 -12.5 32.5t-38.5 15.5q-29 0 -47.5 -18.5t-18.5 -58.5h-75q0 69 40 105t103 36q31 0 55 -9t40 -24t24 -34.5t8 -40.5q0 -44 -26 -75t-70 -50l-76 -33q-19 -8 -28 -18.5t-14 -21.5h184l-14 -65h-274q6 59 35 100t85 66z" />
    <glyph glyph-name="three.dnom" horiz-adv-x="425" 
d="M123 233l114 69h-160l14 65h260l-14 -74l-114 -67q36 -7 60.5 -34.5t24.5 -64.5q0 -26 -10 -49.5t-28.5 -42t-46 -29.5t-62.5 -11q-27 0 -51.5 8t-43 22.5t-29.5 36t-11 48.5q0 9 2 19l69 5q-1 -4 -1 -11q0 -25 17.5 -43.5t46.5 -18.5q30 0 51 16t21 48q0 25 -18 38.5
t-41 13.5q-14 0 -24 -4z" />
    <glyph glyph-name="four.dnom" horiz-adv-x="427" 
d="M22 162l206 204h88l-48 -224h65l-14 -65h-64q-1 -4 -2.5 -11.5l-4.5 -22.5t-9 -42h-76l16 76h-173zM223 279l-138 -137h107z" />
    <glyph glyph-name="five.dnom" horiz-adv-x="407" 
d="M92 120q0 -24 14.5 -42t45.5 -18q25 0 46.5 15t21.5 49q0 29 -17.5 42.5t-41.5 13.5q-28 0 -49 -16l-64 36l72 166h213l-13 -66h-158l-31 -72q11 7 27.5 9.5t27.5 2.5q50 0 81 -27t31 -80q0 -29 -11 -54.5t-31 -44t-47 -29.5t-59 -11q-29 0 -53.5 8.5t-42.5 24.5t-28 38
t-10 48z" />
    <glyph glyph-name="six.dnom" horiz-adv-x="390" 
d="M310 294q-14 8 -31.5 12t-40.5 4q-37 0 -72.5 -21.5t-51.5 -63.5q14 14 36 19t39 5q54 0 85.5 -30t31.5 -81q0 -34 -13 -61t-35 -45.5t-49.5 -28t-56.5 -9.5q-26 0 -50.5 9t-43.5 27t-30.5 45.5t-11.5 64.5q0 47 16 89.5t45 74.5t70 51t91 19q28 0 55 -5t44 -19zM168 185
q-29 0 -51 -18.5t-22 -49.5q0 -28 18 -43t44 -15q25 0 47.5 17t22.5 54q0 25 -16 40t-43 15z" />
    <glyph glyph-name="seven.dnom" horiz-adv-x="368" 
d="M330 302q-21 -15 -51.5 -38.5t-62 -59.5t-61 -86t-49.5 -117h-80q15 66 46.5 119t64.5 91t60.5 61t35.5 28h-190l13 66h288z" />
    <glyph glyph-name="eight.dnom" horiz-adv-x="396" 
d="M138 260q0 -18 12.5 -29.5t32.5 -11.5q23 0 43 12t20 40q0 16 -11.5 27.5t-36.5 13.5q-27 0 -43.5 -14t-16.5 -38zM93 100q0 -22 18 -33.5t42 -11.5q31 0 49.5 15t18.5 42q0 19 -15 32t-43 13q-30 0 -50 -16t-20 -41zM149 -6q-66 0 -99.5 28.5t-33.5 70.5q0 32 24.5 59.5
t69.5 38.5q-21 8 -34 28t-13 39q0 50 38 82.5t104 32.5q52 0 84.5 -25.5t32.5 -66.5q0 -29 -19 -55.5t-57 -40.5q22 -8 37 -29t15 -43q0 -27 -11.5 -48.5t-32 -37.5t-47.5 -24.5t-58 -8.5z" />
    <glyph glyph-name="nine.dnom" horiz-adv-x="407" 
d="M46 87q18 -13 39.5 -19t44.5 -6q18 0 36 5.5t33.5 16t27.5 27t17 39.5q-14 -16 -34.5 -23.5t-37.5 -7.5q-53 0 -89 31t-36 84q0 33 12.5 59t34 44t49 27.5t57.5 9.5q26 0 50 -8t42.5 -25.5t29.5 -43.5t11 -62q0 -51 -13 -95t-39 -76.5t-64.5 -50.5t-90.5 -18
q-29 0 -60 9.5t-50 25.5zM183 182q29 0 49 20t20 52q0 26 -17 41t-40 15q-26 0 -47.5 -18t-21.5 -53q0 -26 16 -41.5t41 -15.5z" />
    <glyph glyph-name="space.frac" horiz-adv-x="52" 
 />
    <glyph glyph-name="a.ordn" horiz-adv-x="463" 
d="M242 592q-26 0 -45.5 -12.5t-33 -32.5t-20.5 -45t-7 -49q0 -38 19 -62t57 -24q45 0 74.5 40t29.5 103q0 35 -18 58.5t-56 23.5zM422 648l-53 -256q-3 -14 -5 -30t-2 -31v-22h-70q-1 5 -1 11v10v8t1 14q-16 -20 -40.5 -35t-56.5 -15q-33 0 -58 12t-42 32t-25.5 47.5
t-8.5 58.5q0 42 13 79.5t36.5 65.5t55.5 44.5t71 16.5q45 0 69 -17t35 -35l8 42h73z" />
    <glyph glyph-name="b.ordn" horiz-adv-x="485" 
d="M87 309l107 507h73l-41 -196q17 18 43 28t56 10q33 0 57.5 -11.5t41 -32t25 -47.5t8.5 -57q0 -45 -13.5 -83.5t-37.5 -66.5t-57 -44t-72 -16q-38 0 -66.5 17.5t-39.5 44.5l-11 -53h-73zM297 591q-21 0 -39.5 -9.5t-33 -27t-23 -42.5t-8.5 -56q0 -39 21 -64t57 -25
q19 0 39 9t35.5 26t25.5 42.5t10 58.5q0 43 -23 65.5t-61 22.5z" />
    <glyph glyph-name="c.ordn" horiz-adv-x="433" 
d="M323 527q-5 25 -24 44.5t-55 19.5q-20 0 -39.5 -8.5t-34.5 -25t-24.5 -42t-9.5 -58.5q0 -42 24 -66.5t63 -24.5q36 0 56.5 18.5t31.5 40.5l63 -26q-9 -20 -23.5 -38t-33.5 -31.5t-43 -22t-54 -8.5q-37 0 -66.5 12t-50 33t-31.5 49.5t-11 62.5q0 45 15 82.5t40.5 64.5
t60 41.5t72.5 14.5q34 0 59.5 -10t42.5 -26t27 -35.5t14 -38.5z" />
    <glyph glyph-name="d.ordn" horiz-adv-x="464" 
d="M242 592q-26 0 -45.5 -12.5t-33 -32.5t-20.5 -45t-7 -49q0 -38 19 -62t57 -24q45 0 74.5 40t29.5 103q0 35 -18 58.5t-56 23.5zM292 352q-16 -20 -40.5 -35t-56.5 -15q-33 0 -58 12t-42 32t-25.5 47.5t-8.5 58.5q0 42 13 79.5t36.5 65.5t55.5 44.5t71 16.5q43 0 67.5 -16
t35.5 -34l43 208h75l-89 -424q-3 -14 -5 -30t-2 -31v-22h-70q-1 5 -1 11v10v8t1 14z" />
    <glyph glyph-name="e.ordn" horiz-adv-x="436" 
d="M312 515q0 2 0.5 5t0.5 7q0 12 -4 24t-12.5 21.5t-22 16t-33.5 6.5q-40 0 -65 -24t-34 -56h170zM133 458q-1 -4 -1 -10q0 -38 24 -61.5t59 -23.5t57.5 16t33.5 36l58 -33q-18 -33 -56.5 -58t-93.5 -25q-32 0 -60 10t-49 30t-33.5 48.5t-12.5 66.5q0 48 16 86t42 64.5
t59 40.5t68 14q69 0 106.5 -39t37.5 -100q0 -19 -3.5 -35.5t-6.5 -26.5h-245z" />
    <glyph glyph-name="f.ordn" horiz-adv-x="341" 
d="M233 583l-57 -274h-77l58 274h-58l14 65h58l14 66q7 33 20.5 53.5t31 32.5t36.5 16t37 4q20 0 33 -4.5t15 -6.5l-13 -63q-3 2 -10.5 4t-18.5 2q-21 0 -36 -11.5t-22 -40.5l-11 -52h76l-14 -65h-76z" />
    <glyph glyph-name="g.ordn" horiz-adv-x="461" 
d="M346 513q0 14 -4.5 27.5t-14.5 24.5t-24.5 18t-34.5 7q-43 0 -72 -31t-29 -85q0 -36 19 -60.5t60 -24.5q44 0 72 33t28 91zM120 307q0 -15 4 -28.5t13 -24t23.5 -17t36.5 -6.5q47 0 74 27.5t39 80.5l6 26q-11 -15 -33 -27t-54 -12t-57.5 11t-43 30t-27 45t-9.5 56
q0 39 12.5 73.5t35.5 59.5t54.5 39.5t69.5 14.5t64 -13.5t39 -36.5l9 43h75l-64 -308q-7 -33 -20.5 -64.5t-36 -55.5t-55.5 -39t-79 -15q-37 0 -64.5 11t-45.5 28.5t-27 40t-9 46.5z" />
    <glyph glyph-name="h.ordn" horiz-adv-x="460" 
d="M285 308l43 202q2 6 2 12v12q0 26 -14.5 41.5t-43.5 15.5q-18 0 -32.5 -7.5t-25.5 -19.5t-18.5 -27.5t-10.5 -31.5l-42 -197h-75l108 507h75l-42 -196q18 20 42 29t53 9q49 0 77 -28t28 -75q0 -11 -1 -19t-3 -15l-45 -212h-75z" />
    <glyph glyph-name="i.ordn" horiz-adv-x="269" 
d="M167 767q0 24 17 40t38 16t33.5 -13t12.5 -32q0 -23 -17.5 -39t-37.5 -16t-33 13t-13 31zM82 309l73 339h74l-72 -339h-75z" />
    <glyph glyph-name="j.ordn" horiz-adv-x="279" 
d="M184 648h74l-83 -390q-10 -45 -38 -68.5t-69 -23.5q-23 0 -36.5 5t-15.5 6l13 59q2 0 10.5 -2.5t19.5 -2.5q20 1 29.5 11.5t14.5 32.5zM196 767q0 24 17 40t38 16q20 0 33 -13t13 -32q0 -23 -17.5 -39t-38.5 -16q-20 0 -32.5 13t-12.5 31z" />
    <glyph glyph-name="k.ordn" horiz-adv-x="423" 
d="M219 461l-63 -52l-21 -100h-74l108 507h74l-64 -300l157 132h109l-168 -139l98 -200h-83z" />
    <glyph glyph-name="l.ordn" horiz-adv-x="246" 
d="M68 309l108 507h75l-108 -507h-75z" />
    <glyph glyph-name="m.ordn" horiz-adv-x="657" 
d="M276 309l44 209q1 5 1.5 10t0.5 10q0 23 -13 38.5t-43 15.5q-35 0 -53.5 -23t-25.5 -56l-44 -204h-74l60 280q5 25 6 41t1 18h73q0 -4 -0.5 -15.5t-2.5 -19.5q36 45 96 45q32 0 54 -14.5t33 -39.5q27 34 58 44t60 10q42 0 70 -27.5t28 -74.5q0 -15 -3 -31l-46 -216h-75
l44 209q3 12 3 22q0 23 -13.5 37.5t-42.5 14.5q-32 0 -52 -23t-27 -56l-43 -204h-74z" />
    <glyph glyph-name="n.ordn" horiz-adv-x="460" 
d="M296 309l43 202q3 12 3 24q0 26 -15 41.5t-44 15.5q-18 0 -32.5 -7.5t-25.5 -19.5t-18.5 -27.5t-10.5 -31.5l-42 -197h-75l60 280q5 25 6 41t1 18h73q0 -3 -0.5 -15.5t-2.5 -20.5q19 26 46 36t56 10q47 0 74.5 -28t27.5 -75q0 -11 -1 -18t-3 -16l-45 -212h-75z" />
    <glyph glyph-name="o.ordn" horiz-adv-x="455" 
d="M243 591q-21 0 -40 -9t-34 -26.5t-23.5 -42t-8.5 -55.5q0 -43 22 -67.5t58 -24.5q20 0 39.5 8.5t34.5 25.5t24 42t9 58q0 42 -21.5 66.5t-59.5 24.5zM400 502q0 -42 -14 -79t-39 -64.5t-59 -43.5t-74 -16q-36 0 -64.5 12.5t-48 33.5t-30 49.5t-10.5 60.5q0 44 14.5 81.5
t39.5 64.5t59.5 42.5t73.5 15.5q37 0 65 -12.5t47.5 -34t29.5 -50t10 -60.5z" />
    <glyph glyph-name="p.ordn" horiz-adv-x="481" 
d="M288 590q-21 0 -40 -9.5t-34 -26.5t-23.5 -42t-8.5 -56q0 -43 21.5 -66t58.5 -23q19 0 38 9t34.5 26t25 42.5t9.5 58.5q0 42 -21.5 64.5t-59.5 22.5zM211 611q18 22 45.5 34t58.5 12q33 0 57.5 -11.5t40.5 -31.5t24 -46.5t8 -57.5q0 -45 -13 -83.5t-37 -66.5t-56.5 -44
t-71.5 -16q-35 0 -64.5 15.5t-43.5 41.5l-39 -181h-74l88 413q5 25 6.5 41t1.5 18h73q0 -2 -0.5 -14t-3.5 -23z" />
    <glyph glyph-name="q.ordn" horiz-adv-x="480" 
d="M326 176h-75l35 163q-17 -17 -38.5 -27t-48.5 -10q-33 0 -58.5 12t-43 32.5t-26.5 47.5t-9 58q0 42 13 79.5t36.5 65t56 44t71.5 16.5q43 0 68.5 -16t36.5 -33l8 40h74zM244 591q-26 0 -46 -12.5t-33.5 -32t-20.5 -44.5t-7 -49q0 -38 20.5 -62t59.5 -24q22 0 41 10.5
t32.5 29t21.5 44.5t8 56q0 38 -18.5 61t-57.5 23z" />
    <glyph glyph-name="r.ordn" horiz-adv-x="282" 
d="M300 571q-14 3 -27 3q-38 0 -67.5 -23.5t-42.5 -81.5l-35 -160h-74l60 280q5 25 6 41t1 18h74q0 -8 -1.5 -24t-4.5 -25q10 16 23.5 26.5t28 16.5t29 8t27.5 2h10t10 -1z" />
    <glyph glyph-name="s.ordn" horiz-adv-x="387" 
d="M129 428q0 -29 17.5 -49t49.5 -20q26 0 38 13t12 29q0 23 -30 37l-45 21q-65 30 -65 89q0 22 9 42t25.5 35.5t39.5 24.5t52 9q35 0 58 -10.5t37 -26t20.5 -33t7.5 -30.5l-66 -16q0 18 -14.5 37t-47.5 19q-23 0 -36 -12t-13 -29q0 -24 25 -35l45 -20q36 -17 54 -42t18 -55
q0 -17 -7 -36t-22.5 -35t-39.5 -26t-57 -10q-38 0 -63 11.5t-40 29t-21 37.5t-6 37z" />
    <glyph glyph-name="t.ordn" horiz-adv-x="314" 
d="M187 415q-1 -5 -1.5 -8.5t-0.5 -7.5q0 -29 37 -29q8 0 14.5 1t8.5 2l-13 -62q-5 -2 -14.5 -3.5t-23.5 -1.5q-40 0 -63.5 20.5t-23.5 57.5q0 12 3 26l37 171h-62l14 67h11q30 0 46.5 14.5t22.5 40.5l11 50h68l-22 -105h67l-14 -67h-68z" />
    <glyph glyph-name="u.ordn" horiz-adv-x="422" 
d="M254 347q-16 -23 -40.5 -34.5t-48.5 -11.5q-54 0 -82 30.5t-28 79.5q0 20 4 39l42 198h75l-41 -196q-3 -15 -3 -29q0 -24 12.5 -40.5t43.5 -16.5q35 0 56 25.5t28 58.5l42 198h74l-54 -256q-3 -14 -5 -30t-2 -31v-22h-73q-1 5 -1 9v8v8t1 13z" />
    <glyph glyph-name="v.ordn" horiz-adv-x="384" 
d="M209 309h-73l-60 339h77l35 -248l137 248h84z" />
    <glyph glyph-name="w.ordn" horiz-adv-x="584" 
d="M364 648l30 -241l120 241h80l-177 -339h-77l-32 248l-129 -248h-78l-34 339h72l21 -240l125 240h79z" />
    <glyph glyph-name="x.ordn" horiz-adv-x="413" 
d="M134 309h-94l164 174l-88 165h82l57 -111l100 111h93l-159 -169l92 -170h-82l-60 115z" />
    <glyph glyph-name="y.ordn" horiz-adv-x="403" 
d="M55 176l124 190l-80 282h80l55 -205l127 205h87l-308 -472h-85z" />
    <glyph glyph-name="z.ordn" horiz-adv-x="410" 
d="M57 309l14 66l219 207h-169l14 66h266l-14 -65l-221 -208h182l-14 -66h-277z" />
    <glyph glyph-name="space.tf" 
 />
    <glyph glyph-name="numbersign.tf" 
d="M43 481h104l36 167h84l-36 -167h112l36 167h84l-36 -167h95v-76h-111l-34 -160h96v-76h-113l-36 -169h-84l36 169h-112l-36 -169h-84l36 169h-86v76h103l34 160h-88v76zM181 245h112l34 160h-112z" />
    <glyph glyph-name="dollar.tf" 
d="M177 3q-44 10 -75 32t-50.5 50.5t-29 61.5t-9.5 65v4t1 9l89 15q-1 -7 -1 -10.5v-6.5q0 -45 22 -84t70 -55l47 218l-23 12q-54 28 -85 67t-31 99q0 40 16.5 75t45.5 61t68.5 41t86.5 15l22 103h76l-24 -113q39 -11 65.5 -31t43 -44.5t24 -50.5t7.5 -48l-85 -17
q0 10 -2.5 25t-10.5 30.5t-22 30t-38 23.5l-46 -221l15 -7q62 -32 94 -73t32 -95q0 -38 -16 -72.5t-45 -60.5t-69 -41.5t-89 -15.5l-21 -102h-76zM193 491q0 -61 64 -94l3 -2l42 196q-48 -3 -78.5 -31t-30.5 -69zM376 177q0 52 -67 90l-40 -190q49 5 77.5 31.5t29.5 68.5z
" />
    <glyph glyph-name="percent.tf" 
d="M244 532q0 25 -15.5 40t-41.5 15q-27 0 -48.5 -20.5t-21.5 -52.5q0 -25 15.5 -41t41.5 -16q27 0 48.5 20.5t21.5 54.5zM194 657q26 0 48.5 -9.5t39 -26t26 -39t9.5 -47.5q0 -31 -13 -58t-34 -46.5t-48 -30.5t-55 -11q-26 0 -48.5 9t-38.5 25.5t-25 38t-9 47.5
q0 30 11.5 57t32 47t47.5 32t57 12zM523 449l-489 -321l20 96l489 323zM428 139q0 25 -15.5 40t-41.5 15q-27 0 -48.5 -20.5t-21.5 -52.5q0 -25 15.5 -41t41.5 -16q27 0 48.5 20.5t21.5 54.5zM501 142q0 -31 -13 -58t-34 -46.5t-48 -30.5t-55 -11q-26 0 -48.5 9t-38.5 25.5
t-25 38t-9 47.5q0 30 11.5 57t32 47t47.5 32t57 12q26 0 48.5 -9.5t39 -26t26 -39t9.5 -47.5z" />
    <glyph glyph-name="plus.tf" 
d="M296 51h-82v197h-187v79h187v195h82v-195h188v-79h-188v-197z" />
    <glyph glyph-name="comma.tf" 
d="M149 63q0 37 26.5 62.5t65.5 25.5q36 0 61.5 -24.5t25.5 -70.5q0 -45 -17 -86.5t-47 -75t-72 -55t-90 -23.5l12 62q24 5 46 16t39 27t30 36t17 41q-9 -5 -26 -5q-30 0 -50.5 18.5t-20.5 51.5z" />
    <glyph glyph-name="period.tf" 
d="M209 -6q-33 0 -53.5 21t-20.5 49q0 19 7 35t19 28t28.5 19.5t34.5 7.5q34 0 54 -20.5t20 -50.5q0 -38 -26.5 -63.5t-62.5 -25.5z" />
    <glyph glyph-name="zero.tf" 
d="M104 222q0 -28 5.5 -54.5t19 -47.5t37.5 -33.5t62 -12.5q37 0 65.5 18.5t50 48.5t36.5 68.5t24.5 78.5t13.5 77.5t4 66.5q0 28 -5.5 54t-19.5 46t-38.5 32t-61.5 12q-43 0 -73.5 -22t-52 -56t-34.5 -75t-20.5 -80.5t-10 -72t-2.5 -48.5zM221 -15q-54 0 -94 17t-66.5 48
t-40 73.5t-13.5 92.5q0 44 7 94.5t22 100.5t39 95.5t57 80t76.5 55.5t98.5 21q53 0 93 -18t66.5 -49t40 -73t13.5 -91q0 -77 -18 -156t-55 -144t-93.5 -106t-132.5 -41z" />
    <glyph glyph-name="one.tf" 
d="M194 88l81 380h-152l13 63q30 2 58.5 11.5t53.5 24.5t44.5 35.5t30.5 45.5h86l-119 -560h188l-18 -88h-453l18 88h169z" />
    <glyph glyph-name="two.tf" 
d="M-28 0q10 91 61 163.5t148 118.5l121 58q58 28 88.5 60t30.5 78q0 19 -6 37.5t-19.5 32.5t-34.5 22.5t-50 8.5q-63 0 -102 -41.5t-39 -116.5v-8l-95 8v7q0 48 16.5 90.5t47 74.5t75 51t101.5 19q52 0 91 -14t64 -37.5t37.5 -55.5t12.5 -68q0 -80 -45 -133.5t-121 -89.5
l-144 -68q-29 -14 -60 -40t-46 -66h354l-19 -91h-467z" />
    <glyph glyph-name="three.tf" 
d="M172 403l231 156h-316l18 89h437l-23 -113l-218 -146q31 -3 59 -16t50 -35t35 -53t13 -70q0 -45 -17 -86.5t-49 -73.5t-77 -51t-102 -19q-55 0 -96.5 17t-69.5 45.5t-42.5 64.5t-14.5 74v14t2 15l96 11q-2 -7 -2 -13.5v-13.5q0 -24 7.5 -47t23.5 -41t39 -29t55 -11
q31 0 58 10t46.5 28t30.5 43t11 56q0 30 -10.5 50.5t-27.5 33t-38 18.5t-41 6q-8 0 -17 -1t-14 -3z" />
    <glyph glyph-name="four.tf" 
d="M10 262l361 386h127l-90 -411h106l-19 -91h-106l-28 -146h-95l28 146h-308zM380 542l-282 -305h215z" />
    <glyph glyph-name="five.tf" 
d="M5 191v5t1 5l95 18q-1 -5 -1 -8.5v-7.5q0 -25 7 -48.5t22.5 -42t39.5 -30t58 -11.5q28 0 54 9.5t46 28.5t32 47t12 64q0 54 -32 85.5t-87 31.5q-35 0 -60 -9.5t-45 -26.5l-88 56l139 291h347l-19 -90h-277l-78 -162q22 13 46 18.5t54 5.5q43 0 80 -12.5t63.5 -37
t41.5 -59.5t15 -80q0 -51 -18 -95.5t-51 -78t-78 -53t-99 -19.5q-50 0 -90.5 15t-69 42.5t-44.5 65.5t-16 83z" />
    <glyph glyph-name="six.tf" 
d="M524 554q-53 24 -115 24q-102 0 -170 -56.5t-94 -150.5q23 24 61.5 41t90.5 17q47 0 84.5 -14t64 -39t40.5 -60t14 -78q0 -60 -21.5 -107t-57.5 -79.5t-82.5 -49.5t-95.5 -17q-44 0 -83.5 15.5t-70 46t-48.5 75.5t-18 104q0 85 26 163.5t75.5 139.5t121 97.5t161.5 36.5
q41 0 82.5 -7t70.5 -25zM273 345q-32 0 -59 -11t-47 -30.5t-31 -47t-11 -59.5q0 -28 9.5 -51t26.5 -39.5t40 -26t50 -9.5q28 0 54.5 10t47.5 29.5t33.5 48t12.5 65.5q0 56 -33.5 88.5t-92.5 32.5z" />
    <glyph glyph-name="seven.tf" 
d="M58 648h503l-20 -94q-26 -18 -76 -58t-107.5 -107t-113.5 -163t-94 -226h-102q19 74 45.5 137.5t57.5 116.5t63.5 96t64.5 77q74 79 155 131h-395z" />
    <glyph glyph-name="eight.tf" 
d="M290 370q28 0 53 8.5t43 24t28.5 37.5t10.5 49q0 38 -27 66t-78 28q-66 0 -102.5 -33.5t-36.5 -86.5q0 -37 28.5 -65t80.5 -28zM105 167q0 -47 34.5 -74t91.5 -27q30 0 56 8.5t45.5 24.5t31 38.5t11.5 50.5q0 43 -30 73t-92 30q-32 0 -59 -8.5t-46.5 -25t-31 -39.5
t-11.5 -51zM473 187q0 -47 -19 -84t-53 -63.5t-79.5 -40.5t-98.5 -14q-55 0 -96 14t-68 38t-40 56t-13 67q0 62 41.5 110t119.5 65q-16 6 -30.5 19t-26 30.5t-18.5 37.5t-7 41q0 46 18.5 83t50.5 63t74.5 40t90.5 14q49 0 87 -13t64 -35t39 -51.5t13 -62.5q0 -61 -38 -108
t-108 -65q47 -16 72 -54.5t25 -86.5z" />
    <glyph glyph-name="nine.tf" 
d="M129 429q0 -55 33.5 -88t90.5 -33q32 0 58.5 11t45 30.5t29 46t10.5 58.5q0 28 -9.5 51t-26 39t-39 24.5t-47.5 8.5q-27 0 -53 -9.5t-46.5 -28t-33 -46.5t-12.5 -64zM2 114q32 -23 68.5 -32t71.5 -9q51 0 93.5 16.5t74 46t51 70t24.5 89.5q-20 -29 -57.5 -50t-97.5 -21
q-41 0 -77 13.5t-64 38.5t-44 61.5t-16 81.5q0 57 21 102.5t56.5 77t81 48t94.5 16.5q46 0 86 -14.5t70 -44t47 -74.5t17 -107q0 -93 -23 -173t-68 -139t-112.5 -92.5t-156.5 -33.5q-48 0 -98 13t-82 40z" />
    <glyph glyph-name="colon.tf" 
d="M199 -11q-32 0 -51.5 20t-19.5 48q0 17 6.5 32.5t18 27t27 18.5t33.5 7q32 0 51.5 -19.5t19.5 -48.5q0 -36 -25.5 -60.5t-59.5 -24.5zM273 336q-32 0 -51.5 20t-19.5 48q0 17 6.5 32.5t18 27t27 18.5t33.5 7q32 0 51.5 -19.5t19.5 -48.5q0 -36 -25.5 -60.5t-59.5 -24.5z
" />
    <glyph glyph-name="semicolon.tf" 
d="M283 336q-32 0 -51.5 20t-19.5 48q0 17 6.5 32.5t18 27t27.5 18.5t33 7q32 0 51.5 -19.5t19.5 -48.5q0 -36 -25.5 -60.5t-59.5 -24.5zM141 60q0 34 24 57.5t60 23.5q34 0 57.5 -22.5t23.5 -64.5q0 -41 -16 -80t-43.5 -69.5t-66 -50t-83.5 -22.5l12 58q22 4 42 14t36 25
t28 33.5t16 37.5q-9 -4 -25 -4q-27 0 -46 17t-19 47z" />
    <glyph glyph-name="less.tf" 
d="M61 329l412 206v-95l-310 -153l310 -153v-95l-412 205v85z" />
    <glyph glyph-name="equal.tf" 
d="M28 423h463v-77h-463v77zM28 230h463v-79h-463v79z" />
    <glyph glyph-name="greater.tf" 
d="M473 244l-412 -205v95l312 153l-312 153v95l412 -206v-85z" />
    <glyph glyph-name="cent.tf" 
d="M192 100q-66 19 -103.5 72t-37.5 125q0 58 18.5 106t51 83t76 55.5t93.5 23.5l18 84h76l-19 -91q30 -8 52.5 -22.5t38 -33t25 -39t14.5 -39.5l-83 -28q-7 25 -22.5 47.5t-41.5 33.5l-65 -308q47 5 72.5 30t40.5 54l77 -33q-13 -25 -32 -48.5t-44.5 -41.5t-58 -29
t-72.5 -11l-19 -90h-76zM141 297q0 -42 18 -72.5t50 -44.5l65 305q-26 -4 -50 -18t-42.5 -37.5t-29.5 -56.5t-11 -76z" />
    <glyph glyph-name="sterling.tf" horiz-adv-x="597" 
d="M61 359h74q-5 24 -8 45t-3 43q0 45 15 84.5t43 68.5t66.5 46t86.5 17q84 0 132 -42t48 -117q0 -10 -1 -19t-3 -14l-93 -14q3 16 3 32q0 35 -22.5 61.5t-67.5 26.5q-49 0 -80 -31.5t-31 -92.5q0 -23 4 -46.5t9 -47.5h193l-18 -86h-167q-3 -61 -38 -110.5t-96 -75.5h210
q51 0 81 32.5t38 77.5l88 -18q-15 -85 -70 -132t-133 -47h-342l20 104q73 21 108 68t38 101h-102z" />
    <glyph glyph-name="currency.tf" 
d="M62 239q0 34 10 64t27 56l-75 78l60 59l75 -78q26 17 55 26t61 9q60 0 111 -31l72 74l60 -59l-70 -73q19 -26 30 -58t11 -67t-10 -66t-29 -57l68 -71l-59 -59l-70 72q-25 -16 -54 -24.5t-60 -8.5q-33 0 -63 10t-56 27l-73 -76l-59 59l73 76q-17 26 -26 55.5t-9 62.5z
M145 239q0 -29 10 -53.5t28 -42t41.5 -27t50.5 -9.5t50.5 9.5t40.5 27t27 42t10 53.5t-10 53t-27 41.5t-40.5 27t-50.5 9.5t-50.5 -9.5t-41.5 -27t-28 -41.5t-10 -53z" />
    <glyph glyph-name="yen.tf" 
d="M44 377h122l-106 271h110l92 -262l194 262h113l-213 -271h122l-15 -71h-169l-17 -80h169l-16 -72h-168l-32 -154h-97l32 154h-169l16 72h168l17 80h-168z" />
    <glyph glyph-name="section.tf" 
d="M97 8q-5 -23 -5 -39q0 -43 24.5 -70.5t77.5 -27.5q21 0 41 6.5t35.5 20t25 32.5t9.5 45q0 45 -41 75l-91 65q-21 15 -40 31t-33.5 35t-23 40.5t-8.5 47.5q0 31 11.5 55.5t29 42.5t37.5 29.5t37 17.5q-31 25 -46.5 58t-15.5 69q0 44 18.5 79.5t48.5 60t69 38t80 13.5
q47 0 82 -13t58 -35t34.5 -51.5t11.5 -62.5q0 -23 -4 -43l-93 -9q5 23 5 40q0 42 -24.5 69t-75.5 27q-22 0 -42.5 -7t-36.5 -20.5t-25.5 -32.5t-9.5 -43q0 -44 43 -75l90 -65q21 -15 40 -30.5t33.5 -33.5t23.5 -39t9 -47q0 -31 -11 -56t-28 -44.5t-37 -32t-38 -17.5
q29 -25 45 -58.5t16 -67.5q0 -45 -18.5 -81t-49 -60.5t-69.5 -37.5t-80 -13q-46 0 -80.5 13t-58 35t-35 51.5t-11.5 62.5q0 11 1 22t3 23zM230 379q-11 -3 -23.5 -11t-22.5 -20.5t-16.5 -28t-6.5 -33.5q0 -21 10.5 -39.5t34.5 -35.5l87 -64q11 3 23 11t22.5 20t17.5 27.5
t7 33.5q0 41 -46 76z" />
    <glyph glyph-name="logicalnot.tf" 
d="M392 149v195h-349v82h433v-277h-84z" />
    <glyph glyph-name="plusminus.tf" 
d="M298 175h-82v134h-177v77h177v136h82v-136h178v-77h-178v-134zM39 130h437v-79h-437v79z" />
    <glyph glyph-name="multiply.tf" 
d="M49 112l169 175l-168 175l57 57l167 -174l167 174l57 -56l-169 -175l170 -176l-56 -57l-170 175l-168 -174z" />
    <glyph glyph-name="divide.tf" 
d="M21 329h457v-83h-457v83zM184 110q0 26 19.5 45t45.5 19t45 -19t19 -45t-19 -45.5t-45 -19.5t-45.5 19.5t-19.5 45.5zM184 465q0 26 19.5 45t45.5 19t45 -19t19 -45t-19 -45.5t-45 -19.5t-45.5 19.5t-19.5 45.5z" />
    <glyph glyph-name="florin.tf" 
d="M227 398h-111v83h127l23 113q7 38 23.5 65.5t39 45t49 26t53.5 8.5q33 0 49 -3.5t25 -6.5v-83q-5 2 -17 4.5t-35 2.5q-13 0 -27.5 -3.5t-28 -13t-24.5 -27.5t-17 -48l-16 -80h129v-83h-146l-82 -411q-8 -38 -24 -65.5t-38.5 -45t-49 -26t-53.5 -8.5q-31 0 -47 2.5
t-30 7.5v83q11 -3 24.5 -5t31.5 -2q13 0 27.5 3t27.5 12.5t24 27.5t17 49z" />
    <glyph glyph-name="uni2007.tf" 
 />
    <glyph glyph-name="uni2008.tf" 
 />
    <glyph glyph-name="perthousand.tf" 
d="M155 103q0 -20 12.5 -33t32.5 -13q22 0 39 16.5t17 44.5q0 20 -12.5 32t-33.5 12q-22 0 -38.5 -17t-16.5 -42zM39 529q0 26 10 49.5t27.5 41t41 27.5t50.5 10q23 0 43 -8.5t34.5 -22.5t22.5 -34t8 -42q0 -27 -10.5 -51t-28.5 -41t-41.5 -27t-48.5 -10q-48 0 -78 31
t-30 77zM193 -8q-47 0 -77 30.5t-30 75.5q0 26 10.5 49.5t28 41.5t41.5 28.5t51 10.5q26 0 46 -10.5t32 -28.5q16 18 38.5 28.5t49.5 10.5q23 0 43 -8.5t34.5 -22.5t22.5 -34t8 -42q0 -27 -10.5 -51t-28.5 -41t-41 -27t-48 -10q-28 0 -48.5 10.5t-33.5 28.5
q-17 -18 -39.5 -28.5t-48.5 -10.5zM499 480l-480 -301l21 96l480 303zM422 118q0 20 -12.5 32t-33.5 12q-22 0 -38.5 -17t-16.5 -42q0 -20 12.5 -33t32.5 -13q22 0 39 16.5t17 44.5zM161 591q-22 0 -38.5 -17t-16.5 -42q0 -20 12.5 -33t32.5 -13q22 0 39 16.5t17 44.5
q0 20 -12.5 32t-33.5 12z" />
    <glyph glyph-name="Euro.tf" 
d="M58 443h76q21 48 53.5 88.5t74.5 70t93 46.5t109 17t90 -11t49 -19l-42 -77q-12 5 -36.5 12.5t-69.5 7.5q-30 0 -61.5 -8t-61 -25t-55 -42.5t-43.5 -59.5h267l-41 -78h-255q-9 -38 -9 -83h229l-41 -80h-176q22 -65 76.5 -96t123.5 -31q14 0 27.5 1.5t27.5 3.5l5 -84
q-8 -2 -27 -5t-39 -3q-48 0 -95 13.5t-86.5 40.5t-69 67t-42.5 93h-103l17 80h77q0 42 9 83h-68z" />
    <glyph glyph-name="minus.tf" 
d="M45 327h423v-79h-423v79z" />
    <glyph glyph-name="approxequal.tf" 
d="M454 190q-28 -40 -65 -61.5t-81 -21.5q-48 0 -100 30l-47 26q-32 17 -62 17q-52 0 -91 -45l-53 47q29 42 65 63.5t78 21.5q26 0 50.5 -8t52.5 -23l46 -25q35 -20 70 -20q49 0 86 44zM454 384q-28 -40 -65 -61.5t-81 -21.5q-48 0 -100 30l-47 26q-32 17 -62 17
q-52 0 -91 -45l-53 47q29 42 65 63.5t78 21.5q26 0 50.5 -8t52.5 -23l46 -25q35 -20 70 -20q49 0 86 44z" />
    <glyph glyph-name="notequal.tf" 
d="M33 423h295l73 99h96l-73 -99h72v-77h-129l-85 -116h214v-79h-272l-74 -100h-96l74 100h-95v79h153l85 116h-238v77z" />
    <glyph glyph-name="lessequal.tf" 
d="M60 130h412v-79h-412v79zM60 389l412 146v-84l-307 -104l307 -104v-84l-412 145v85z" />
    <glyph glyph-name="greaterequal.tf" 
d="M458 51h-412v79h412v-79zM458 304l-412 -145v84l307 104l-307 104v84l412 -146v-85z" />
    <glyph glyph-name="parenleft.case" horiz-adv-x="283" 
d="M31 248q0 81 17 158t52.5 146.5t90 129t128.5 106.5l43 -54q-59 -43 -106 -93t-79.5 -110t-49.5 -131t-17 -155q0 -81 23 -153.5t65 -139.5l-62 -43q-21 30 -40 67.5t-33.5 81t-23 91.5t-8.5 99z" />
    <glyph glyph-name="parenright.case" horiz-adv-x="283" 
d="M252 449q0 -164 -72.5 -303t-215.5 -237l-43 54q56 45 102.5 95.5t79.5 110t51.5 129.5t18.5 154q0 81 -23 153.5t-65 139.5l62 43q21 -30 40 -67.5t33.5 -81t23 -91.5t8.5 -99z" />
    <glyph glyph-name="hyphen.case" horiz-adv-x="358" 
d="M30 296l17 82h271l-17 -82h-271z" />
    <glyph glyph-name="bracketleft.case" horiz-adv-x="288" 
d="M-5 -90l189 891h193l-16 -76h-111l-157 -740h111l-16 -75h-193z" />
    <glyph glyph-name="bracketright.case" horiz-adv-x="288" 
d="M-89 -90l15 75h111l157 740h-111l16 76h193l-189 -891h-192z" />
    <glyph glyph-name="braceleft.case" horiz-adv-x="353" 
d="M54 399q21 0 42.5 5t39.5 16.5t31.5 30.5t19.5 47l24 115q11 55 30.5 91t46.5 57t62.5 29.5t79.5 8.5h13l-16 -75h-13q-51 0 -79.5 -25t-40.5 -80l-31 -142q-11 -51 -44 -84.5t-86 -41.5q38 -8 58 -36.5t20 -68.5q0 -8 -1 -17t-3 -18l-25 -121q-4 -19 -4 -38
q0 -67 79 -67h13l-16 -75h-13q-69 0 -107.5 35.5t-38.5 99.5q0 24 6 51l24 114q3 15 3 27q0 41 -27 58.5t-65 17.5z" />
    <glyph glyph-name="braceright.case" horiz-adv-x="354" 
d="M299 310q-22 0 -43.5 -5t-39.5 -16.5t-31 -30.5t-19 -47l-24 -115q-12 -55 -31 -91t-46 -57t-62.5 -29.5t-79.5 -8.5h-13l16 75h13q51 0 79 24t41 81l31 142q11 51 43.5 85.5t86.5 40.5q-37 9 -57.5 37.5t-20.5 68.5q0 17 4 34l25 121q4 19 4 37q0 68 -79 68h-13l16 75
h13q69 0 107 -36t38 -100q0 -11 -1 -23.5t-4 -26.5l-24 -114q-3 -15 -3 -28q0 -40 27 -57.5t65 -17.5z" />
    <glyph glyph-name="exclamdown.case" horiz-adv-x="304" 
d="M135 0h-120l132 506h67zM274 656q0 -29 -20.5 -51t-51.5 -22q-27 0 -43.5 16.5t-16.5 41.5q0 31 21.5 52t49.5 21q27 0 44 -16.5t17 -41.5z" />
    <glyph glyph-name="guillemotleft.case" horiz-adv-x="477" 
d="M113 149l-98 194l171 188h103l-176 -197l93 -185h-93zM306 149l-98 194l171 188h103l-176 -197l93 -185h-93z" />
    <glyph glyph-name="uni00AD.case" horiz-adv-x="358" 
d="M34 313l17 82h271l-17 -82h-271z" />
    <glyph glyph-name="guillemotright.case" horiz-adv-x="492" 
d="M146 531l98 -194l-171 -188h-103l176 197l-93 185h93zM354 531l98 -194l-171 -188h-103l176 197l-93 185h93z" />
    <glyph glyph-name="questiondown.case" horiz-adv-x="502" 
d="M342 509q-5 -60 -32.5 -108t-87.5 -83l-51 -30q-75 -44 -75 -117q0 -18 6 -35.5t19 -30.5t33.5 -21t48.5 -8q37 0 64 13t45 35t26.5 50.5t8.5 58.5l95 -13q-2 -51 -20.5 -93.5t-50.5 -73.5t-77.5 -48t-100.5 -17q-48 0 -85 14t-62 37t-38 53.5t-13 63.5q0 38 10.5 69
t29 56t44 45t54.5 37l54 31q35 20 51 50.5t18 64.5h86zM381 659q0 -29 -20.5 -51t-51.5 -22q-27 0 -43.5 16.5t-16.5 41.5q0 31 21.5 52t49.5 21q27 0 44 -16.5t17 -41.5z" />
    <glyph glyph-name="endash.case" horiz-adv-x="639" 
d="M40 296l17 82h512l-17 -82h-512z" />
    <glyph glyph-name="emdash.case" horiz-adv-x="1100" 
d="M50 296l17 82h953l-17 -82h-953z" />
    <glyph glyph-name="guilsinglleft.case" horiz-adv-x="284" 
d="M113 149l-98 194l171 188h103l-176 -197l93 -185h-93z" />
    <glyph glyph-name="guilsinglright.case" horiz-adv-x="284" 
d="M146 531l98 -194l-171 -188h-103l176 197l-93 185h93z" />
    <glyph glyph-name="G.ss01" horiz-adv-x="740" 
d="M418 725q62 0 111 -17.5t85 -48.5t59 -72t32 -87l-93 -27q-7 34 -23.5 63.5t-42 51t-60.5 34t-78 12.5q-65 0 -116 -27t-86 -72.5t-53.5 -104.5t-18.5 -122q0 -54 15 -97t43 -73.5t67.5 -46.5t88.5 -16q44 0 82 12.5t68 36t50.5 56t30.5 71.5h-268l19 88h363
q-4 -74 -29.5 -138.5t-70 -112.5t-107 -75.5t-141.5 -27.5q-68 0 -125 23.5t-98 65.5t-64 100.5t-23 127.5q0 104 33.5 183t87.5 132.5t122.5 80.5t139.5 27z" />
    <glyph glyph-name="Gcircumflex.ss01" horiz-adv-x="740" 
d="M418 725q62 0 111 -17.5t85 -48.5t59 -72t32 -87l-93 -27q-7 34 -23.5 63.5t-42 51t-60.5 34t-78 12.5q-65 0 -116 -27t-86 -72.5t-53.5 -104.5t-18.5 -122q0 -54 15 -97t43 -73.5t67.5 -46.5t88.5 -16q44 0 82 12.5t68 36t50.5 56t30.5 71.5h-268l19 88h363
q-4 -74 -29.5 -138.5t-70 -112.5t-107 -75.5t-141.5 -27.5q-68 0 -125 23.5t-98 65.5t-64 100.5t-23 127.5q0 104 33.5 183t87.5 132.5t122.5 80.5t139.5 27zM246 759l135 119h120l90 -119h-83l-74 64l-101 -64h-87z" />
    <glyph glyph-name="Gbreve.ss01" horiz-adv-x="740" 
d="M418 725q62 0 111 -17.5t85 -48.5t59 -72t32 -87l-93 -27q-7 34 -23.5 63.5t-42 51t-60.5 34t-78 12.5q-65 0 -116 -27t-86 -72.5t-53.5 -104.5t-18.5 -122q0 -54 15 -97t43 -73.5t67.5 -46.5t88.5 -16q44 0 82 12.5t68 36t50.5 56t30.5 71.5h-268l19 88h363
q-4 -74 -29.5 -138.5t-70 -112.5t-107 -75.5t-141.5 -27.5q-68 0 -125 23.5t-98 65.5t-64 100.5t-23 127.5q0 104 33.5 183t87.5 132.5t122.5 80.5t139.5 27zM442 755q-68 0 -103.5 33t-35.5 80q0 6 2 16h78q-1 -4 -1 -8q0 -17 14 -31.5t52 -14.5q43 0 63 18t25 36h79
q-7 -24 -21 -47t-35.5 -41.5t-50.5 -29.5t-66 -11z" />
    <glyph glyph-name="Gdotaccent.ss01" horiz-adv-x="740" 
d="M418 725q62 0 111 -17.5t85 -48.5t59 -72t32 -87l-93 -27q-7 34 -23.5 63.5t-42 51t-60.5 34t-78 12.5q-65 0 -116 -27t-86 -72.5t-53.5 -104.5t-18.5 -122q0 -54 15 -97t43 -73.5t67.5 -46.5t88.5 -16q44 0 82 12.5t68 36t50.5 56t30.5 71.5h-268l19 88h363
q-4 -74 -29.5 -138.5t-70 -112.5t-107 -75.5t-141.5 -27.5q-68 0 -125 23.5t-98 65.5t-64 100.5t-23 127.5q0 104 33.5 183t87.5 132.5t122.5 80.5t139.5 27zM379 814q0 29 20.5 49.5t49.5 20.5q26 0 42.5 -17t16.5 -40q0 -15 -6 -28t-15.5 -22.5t-22.5 -15.5t-27 -6
q-26 0 -42 17t-16 42z" />
    <glyph glyph-name="Gcommaaccent.ss01" horiz-adv-x="740" 
d="M418 725q62 0 111 -17.5t85 -48.5t59 -72t32 -87l-93 -27q-7 34 -23.5 63.5t-42 51t-60.5 34t-78 12.5q-65 0 -116 -27t-86 -72.5t-53.5 -104.5t-18.5 -122q0 -54 15 -97t43 -73.5t67.5 -46.5t88.5 -16q44 0 82 12.5t68 36t50.5 56t30.5 71.5h-268l19 88h363
q-4 -74 -29.5 -138.5t-70 -112.5t-107 -75.5t-141.5 -27.5q-68 0 -125 23.5t-98 65.5t-64 100.5t-23 127.5q0 104 33.5 183t87.5 132.5t122.5 80.5t139.5 27zM265 -92q0 25 18.5 40.5t45.5 15.5q21 0 40 -14.5t19 -46.5t-12.5 -54t-31 -36t-40.5 -20.5t-41 -6.5h-6t-8 1
l9 39q21 0 43.5 8.5t30.5 32.5q-6 -4 -18 -4q-22 0 -35.5 12.5t-13.5 32.5z" />
    <glyph glyph-name="r.ss03" horiz-adv-x="347" 
d="M187 420q8 32 31 49t49 17q29 0 47 -18.5t18 -44.5q0 -34 -23.5 -56.5t-55.5 -22.5q-29 0 -47.5 18t-18.5 44v13l-88 -419h-94l102 481h94z" />
    <glyph glyph-name="racute.ss03" horiz-adv-x="347" 
d="M187 420q8 32 31 49t49 17q29 0 47 -18.5t18 -44.5q0 -34 -23.5 -56.5t-55.5 -22.5q-29 0 -47.5 18t-18.5 44v13l-88 -419h-94l102 481h94zM227 543h-84l115 146h124z" />
    <glyph glyph-name="rcommaaccent.ss03" horiz-adv-x="347" 
d="M187 420q8 32 31 49t49 17q29 0 47 -18.5t18 -44.5q0 -34 -23.5 -56.5t-55.5 -22.5q-29 0 -47.5 18t-18.5 44v13l-88 -419h-94l102 481h94zM-25 -92q0 25 18.5 40.5t45.5 15.5q21 0 40 -14.5t19 -46.5t-12.5 -54t-31 -36t-40.5 -20.5t-41 -6.5h-6t-8 1l9 39
q21 0 43.5 8.5t30.5 32.5q-6 -4 -18 -4q-22 0 -35.5 12.5t-13.5 32.5z" />
    <glyph glyph-name="rcaron.ss03" horiz-adv-x="347" 
d="M187 420q8 32 31 49t49 17q29 0 47 -18.5t18 -44.5q0 -34 -23.5 -56.5t-55.5 -22.5q-29 0 -47.5 18t-18.5 44v13l-88 -419h-94l102 481h94zM412 687l-130 -142h-115l-70 142h84l52 -81l88 81h91z" />
    <glyph glyph-name="ampersand.ss04" horiz-adv-x="681" 
d="M539 212q-10 -47 -33.5 -88t-58 -72t-80 -49t-99.5 -18q-56 0 -100.5 15.5t-76.5 42.5t-49 63.5t-17 78.5q0 55 19.5 95t49.5 67.5t66 42.5t69 19q-32 18 -53 50t-21 74q0 41 17 76t45 60.5t65 40t77 14.5q41 0 75.5 -12.5t59.5 -34.5t39 -52t14 -66v-14.5t-2 -14.5
l-98 -12q1 7 1.5 13t0.5 12q0 40 -23 65.5t-71 25.5q-19 0 -37 -7t-32.5 -19.5t-23 -31.5t-8.5 -43q0 -40 29.5 -63t74.5 -23l-19 -88h-33q-23 0 -54 -7t-59 -25t-47 -48.5t-19 -77.5q0 -23 9 -45t27 -39t46 -28t66 -11q59 0 104 36t62 98h-101l18 89h298l-18 -89h-99z" />
    <glyph glyph-name="one.ss05" horiz-adv-x="426" 
d="M114 88l81 380h-142l13 63q60 5 107 35.5t70 81.5h86l-119 -560h161l-18 -88h-398l18 88h141z" />
    <glyph glyph-name="registered.ss06" horiz-adv-x="429" 
d="M60 526q0 39 15 73.5t40.5 60t60 40.5t73.5 15t73.5 -15t60.5 -40.5t41 -60t15 -73.5t-15 -73.5t-41 -60t-60.5 -40.5t-73.5 -15t-73.5 15t-60 40.5t-40.5 60t-15 73.5zM109 526q0 -30 11 -56t29.5 -45.5t44 -30.5t55.5 -11t55.5 11t44.5 30.5t30 45.5t11 56t-11 56
t-30 45.5t-44.5 30.5t-55.5 11t-55.5 -11t-44 -30.5t-29.5 -45.5t-11 -56zM255 539q14 0 23.5 6.5t9.5 18.5q0 20 -28 20h-11l-10 -45h16zM216 431h-51l41 196h70q31 0 46.5 -16.5t15.5 -38.5q0 -26 -14 -44t-34 -23l25 -74h-52l-18 66h-15z" />
    <glyph glyph-name="caron.alt" horiz-adv-x="214" 
d="M137 545h-72l66 179h108z" />
    <glyph glyph-name="commaaccent" horiz-adv-x="177" 
d="M73 587q22 0 43 8.5t32 32.5q-8 -4 -19 -4q-22 0 -34.5 13t-12.5 32q0 27 18 42t43 15q21 0 40 -13.5t19 -46.5q0 -26 -10 -47.5t-27 -38t-40 -25.5t-49 -9h-4.5t-6.5 1z" />
    <glyph glyph-name="commaturn" horiz-adv-x="177" 
d="M185 596q0 -25 -17.5 -42t-43.5 -17q-20 0 -39.5 16t-19.5 44q0 34 13.5 57t33 37t42.5 20t41 6h7l-8 -40h-5q-23 0 -43.5 -11t-25.5 -30q10 4 19 4q22 0 34 -13t12 -31z" />
    <glyph glyph-name="dieresis.narrow" horiz-adv-x="288" 
d="M65 615q0 23 16 41.5t42 18.5q22 0 35.5 -14t13.5 -34q0 -26 -18 -42t-41 -16t-35.5 13t-12.5 33zM206 615q0 23 16 41.5t42 18.5q22 0 35.5 -14t13.5 -34q0 -26 -18 -42t-41 -16t-35.5 13t-12.5 33z" />
    <glyph glyph-name="dieresis.uc.narrow" horiz-adv-x="301" 
d="M65 813q0 26 17 42.5t43 16.5q20 0 33 -13.5t13 -32.5q0 -26 -17.5 -43t-41.5 -17q-20 0 -33.5 13.5t-13.5 33.5zM220 813q0 26 17 42.5t43 16.5q20 0 33 -13.5t13 -32.5q0 -26 -17.5 -43t-41.5 -17q-20 0 -33.5 13.5t-13.5 33.5z" />
    <glyph glyph-name="grave.uc" horiz-adv-x="233" 
d="M65 878h118l75 -119h-86z" />
    <glyph glyph-name="dieresis.uc" horiz-adv-x="388" 
d="M65 813q0 29 19 47t47 18q23 0 37.5 -15t14.5 -37q0 -29 -19.5 -47.5t-45.5 -18.5q-23 0 -38 15t-15 38zM295 813q0 29 19 47t47 18q23 0 37.5 -15t14.5 -37q0 -29 -19.5 -47.5t-45.5 -18.5q-23 0 -38 15t-15 38z" />
    <glyph glyph-name="macron.uc" horiz-adv-x="351" 
d="M65 779l18 83h293l-18 -83h-293z" />
    <glyph glyph-name="acute.uc" horiz-adv-x="290" 
d="M162 759h-97l119 119h131z" />
    <glyph glyph-name="circumflex.uc" horiz-adv-x="385" 
d="M65 759l135 119h120l90 -119h-83l-74 64l-101 -64h-87z" />
    <glyph glyph-name="caron.uc" horiz-adv-x="385" 
d="M410 878l-140 -119h-120l-85 119h82l69 -64l101 64h93z" />
    <glyph glyph-name="breve.uc" horiz-adv-x="352" 
d="M204 755q-68 0 -103.5 33t-35.5 80q0 6 2 16h78q-1 -4 -1 -8q0 -17 14 -31.5t52 -14.5q43 0 63 18t25 36h79q-7 -24 -21 -47t-35.5 -41.5t-50.5 -29.5t-66 -11z" />
    <glyph glyph-name="dotaccent.uc" horiz-adv-x="169" 
d="M65 814q0 29 20.5 49.5t49.5 20.5q26 0 42.5 -17t16.5 -40q0 -15 -6 -28t-15.5 -22.5t-22.5 -15.5t-27 -6q-26 0 -42 17t-16 42z" />
    <glyph glyph-name="ring.uc" horiz-adv-x="265" 
d="M180 895q-19 0 -35 -13.5t-16 -36.5q0 -20 11.5 -31t31.5 -11q21 0 36.5 13.5t15.5 36.5q0 18 -12 30t-32 12zM65 837q0 27 10.5 49.5t27.5 38t39 24.5t45 9q22 0 40.5 -8t32.5 -21.5t22 -31.5t8 -39q0 -23 -9.5 -44.5t-26 -38t-38.5 -26.5t-46 -10q-44 0 -74.5 28
t-30.5 70z" />
    <glyph glyph-name="tilde.uc" horiz-adv-x="382" 
d="M407 881q-12 -71 -42 -98.5t-71 -27.5q-21 0 -39 7.5t-31 16.5l-12 8q-9 6 -18 10t-20 4q-14 0 -24 -10t-15 -34h-70q4 34 14.5 58t25.5 39t34 22t40 7t39 -7.5t31 -16.5l12 -8q9 -6 18 -10t20 -4q14 0 24 10t15 34h69z" />
    <glyph glyph-name="hungarumlaut.uc" horiz-adv-x="382" 
d="M138 759h-73l81 119h110zM279 759h-73l91 119h110z" />
    <glyph glyph-name="caron.alt.uc" horiz-adv-x="221" 
d="M141 570h-76l65 190h116z" />
    <glyph glyph-name="undercommaaccent" horiz-adv-x="224" 
d="M-14 -92q0 25 18.5 40.5t45.5 15.5q21 0 40 -14.5t19 -46.5t-12.5 -54t-31 -36t-40.5 -20.5t-41 -6.5h-6t-8 1l9 39q21 0 43.5 8.5t30.5 32.5q-6 -4 -18 -4q-22 0 -35.5 12.5t-13.5 32.5z" />
    </font>
</defs>
</svg>
