<?xml version="1.0" encoding="utf-8"?>
<!-- Generator: Adobe Illustrator 13.0.0, SVG Export Plug-In . SVG Version: 6.00 Build 14948)  -->
<!DOCTYPE svg PUBLIC "-//W3C//DTD SVG 1.1//EN" "http://www.w3.org/Graphics/SVG/1.1/DTD/svg11.dtd">
<svg version="1.1" id="Layer_1" xmlns="http://www.w3.org/2000/svg" xmlns:xlink="http://www.w3.org/1999/xlink" x="0px" y="0px"
	 width="24px" height="24px" viewBox="-0.5 -0.5 24 24" enable-background="new -0.5 -0.5 24 24" xml:space="preserve">
<path fill="#27D0A9" d="M23.5,19.5c0,2.209-1.791,4-4,4h-16c-2.209,0-4-1.791-4-4v-16c0-2.209,1.791-4,4-4h16c2.209,0,4,1.791,4,4
	V19.5z"/>
<g>
	<g id="XMLID_1_">
		<g>
			<path fill="#FFFFFF" d="M17.238,5.877v3.442h-2.755V5.877C14.484,5.116,15.1,4.5,15.86,4.5c0.381,0,0.727,0.154,0.975,0.402
				C17.086,5.151,17.238,5.496,17.238,5.877z"/>
			<path fill="#FFFFFF" d="M8.518,5.877v3.442H5.763V5.877c0-0.761,0.616-1.377,1.378-1.377c0.381,0,0.725,0.154,0.974,0.402
				C8.364,5.151,8.518,5.496,8.518,5.877z"/>
		</g>
	</g>
	<g id="XMLID_2_">
		<g>
			<path fill="#FFFFFF" d="M17.238,11.844v2.066c0,2.534-2.058,4.59-4.591,4.59h-2.295c-2.535,0-4.591-2.056-4.591-4.59v-2.066
				h2.755v2.203c0,1.318,1.067,2.385,2.387,2.385h1.194c1.319,0,2.386-1.066,2.386-2.385v-2.203H17.238z"/>
		</g>
	</g>
</g>
</svg>
