<svg xmlns="http://www.w3.org/2000/svg" width="257" height="60" viewBox="0 0 257 60">
    <g fill="none" fill-rule="evenodd" opacity=".03" style="mix-blend-mode:luminosity">
        <path fill="#4BA2F2" stroke="#4BA2F2" stroke-width=".5" d="M178.207 226.292c-79.164 0-143.57-64.406-143.57-143.57 0-79.165 64.406-143.57 143.57-143.57 36.965 0 72.072 14.014 98.861 39.46a8.382 8.382 0 0 1 .303 11.852c-3.185 3.357-8.489 3.495-11.852.306-23.658-22.474-54.664-34.852-87.312-34.852-69.917 0-126.803 56.886-126.803 126.803 0 69.92 56.886 126.804 126.803 126.804 34.701 0 67.09-13.746 91.202-38.705 21.007-21.742 33.377-49.785 35.329-79.715h-126.53a8.384 8.384 0 1 1 0-16.766h143.57v8.382c0 37.421-14.314 72.847-40.31 99.75-27.303 28.257-63.974 43.821-103.26 43.821"/>
        <path fill="#4BA2F2" d="M177.153 121.497c21.415 0 38.775-17.361 38.775-38.775 0-21.413-17.36-38.776-38.775-38.776-21.414 0-38.775 17.363-38.775 38.776 0 21.414 17.36 38.775 38.775 38.775"/>
        <path fill="#1A5099" d="M277.47 200.482c-1.209 6.973-4.94 12.81-10.51 16.435-.217.14-.391.318-.59.473-.394.178-.786.358-1.158.6-26.192 17.084-56.643 26.119-88.058 26.119-75.155 0-138.472-51.638-156.344-121.297-.38-1.476-.733-2.963-1.07-4.458-.087-.378-.167-.76-.25-1.14a164.172 164.172 0 0 1-.966-4.754 164.97 164.97 0 0 1-.615-3.52c-.061-.37-.126-.737-.184-1.107-.244-1.555-.47-3.115-.67-4.684-.001-.007-.001-.013-.003-.018-.193-1.523-.359-3.057-.508-4.593-.046-.461-.083-.924-.124-1.387a154.02 154.02 0 0 1-.522-8.228c-.02-.49-.041-.976-.057-1.466a169.634 169.634 0 0 1-.074-4.736c0-1.36.018-2.716.052-4.068.011-.445.033-.89.049-1.333.03-.902.058-1.805.102-2.704.028-.54.066-1.076.099-1.614.047-.803.094-1.605.153-2.406.041-.567.096-1.133.143-1.698.066-.764.129-1.531.204-2.29.06-.589.129-1.172.193-1.757.082-.736.162-1.472.253-2.203.073-.596.158-1.19.238-1.785.097-.719.195-1.436.303-2.151.09-.596.187-1.191.282-1.787.115-.706.228-1.41.352-2.115.105-.6.218-1.198.33-1.798.128-.692.258-1.383.396-2.07.12-.6.246-1.196.373-1.794a154.31 154.31 0 0 1 1.816-7.624 162.908 162.908 0 0 1 1.63-5.736c.178-.582.357-1.164.54-1.744.208-.655.423-1.307.638-1.958.191-.576.381-1.15.579-1.723.22-.646.451-1.29.68-1.933.206-.57.41-1.142.622-1.711.238-.64.483-1.277.73-1.914.214-.562.43-1.122.652-1.679.256-.641.52-1.277.783-1.915.227-.548.452-1.1.685-1.644.272-.637.553-1.268.832-1.9.238-.538.474-1.078.717-1.615.29-.638.593-1.272.892-1.907.245-.521.487-1.044.736-1.561.314-.647.639-1.287.96-1.928.25-.5.496-1.003.75-1.497.353-.687.717-1.365 1.08-2.044.236-.444.465-.891.706-1.332.574-1.054 1.16-2.1 1.758-3.14.251-.439.51-.869.764-1.305.417-.709.832-1.42 1.258-2.122.294-.485.598-.96.896-1.442.37-.596.738-1.192 1.114-1.782.326-.512.664-1.015.996-1.522.363-.552.72-1.106 1.089-1.652.347-.514.701-1.023 1.054-1.533.366-.531.73-1.062 1.102-1.587.365-.516.738-1.026 1.109-1.538.37-.511.74-1.023 1.117-1.528.381-.516.772-1.024 1.16-1.533.376-.494.752-.99 1.133-1.477.399-.512.804-1.017 1.207-1.522.384-.48.768-.96 1.158-1.436.409-.503.826-.999 1.242-1.495.395-.47.792-.943 1.19-1.408.424-.493.851-.983 1.28-1.469.404-.458.809-.916 1.217-1.371a165.64 165.64 0 0 1 9.31-9.537c.43-.405.86-.805 1.292-1.203.496-.457.99-.913 1.492-1.364.433-.392.872-.778 1.31-1.164.51-.45 1.02-.899 1.536-1.34.434-.374.874-.743 1.313-1.113.529-.443 1.056-.888 1.589-1.326.435-.356.874-.706 1.313-1.057.548-.44 1.094-.88 1.647-1.312.429-.336.863-.663 1.296-.994.571-.438 1.14-.877 1.718-1.307.416-.308.835-.609 1.252-.913.606-.441 1.208-.887 1.82-1.32.373-.265.753-.522 1.131-.784.662-.461 1.322-.924 1.992-1.376.253-.17.51-.334.764-.504a162.054 162.054 0 0 1 8.144-5.081c.203-.12.402-.242.606-.36.742-.428 1.495-.845 2.245-1.262.357-.2.712-.403 1.071-.6.706-.387 1.42-.76 2.132-1.135.411-.217.82-.438 1.233-.651.69-.358 1.389-.702 2.085-1.05.443-.221.884-.444 1.328-.66.685-.334 1.377-.658 2.069-.982.461-.217.92-.435 1.385-.648.686-.313 1.376-.618 2.066-.923.477-.21.956-.422 1.436-.627.688-.297 1.38-.582 2.075-.87.487-.2.973-.401 1.462-.599.692-.277 1.389-.547 2.087-.814.499-.193 1-.386 1.501-.574a174.24 174.24 0 0 1 2.096-.763c.507-.18 1.012-.36 1.52-.536a161.009 161.009 0 0 1 5.808-1.887c.513-.157 1.026-.308 1.54-.46a144.65 144.65 0 0 1 3.727-1.042c.734-.197 1.471-.39 2.212-.576.514-.13 1.03-.254 1.548-.38a128.983 128.983 0 0 1 3.787-.864c.76-.164 1.52-.326 2.286-.48.504-.1 1.012-.196 1.519-.291.78-.15 1.56-.299 2.344-.435.494-.086.99-.165 1.484-.246.8-.134 1.6-.265 2.405-.386.473-.07.95-.134 1.426-.201.833-.116 1.666-.234 2.504-.34.423-.052.848-.096 1.273-.145.892-.105 1.783-.209 2.677-.3.334-.03.67-.058 1.004-.089.99-.09 1.98-.183 2.974-.259 4.015-.3 8.069-.456 12.159-.456 31.415 0 61.866 9.035 88.058 26.119.372.242.764.422 1.158.6.199.155.373.333.59.473 5.57 3.624 9.301 9.462 10.51 16.435 1.394 8.054-.655 16.418-5.63 22.952C262.454.242 243.493.032 231.316-7.231a8.253 8.253 0 0 0-1.655-.748c-15.894-9.218-34.034-14.094-52.507-14.094-4.581 0-9.084.328-13.51.899l-.004.001c-17.588 2.275-33.814 8.92-47.565 18.818-.104.076-.21.15-.316.225-1.102.8-2.186 1.625-3.256 2.467-.192.151-.383.299-.573.45a106.229 106.229 0 0 0-6.438 5.575c-.264.246-.524.497-.785.746-.872.835-1.732 1.682-2.573 2.545-.268.275-.53.555-.795.835-.822.861-1.638 1.733-2.432 2.624-.256.287-.503.58-.754.871-.79.905-1.574 1.815-2.332 2.747-.213.264-.417.537-.629.802a105.3 105.3 0 0 0-2.3 2.965c-.069.096-.135.193-.205.288a105.686 105.686 0 0 0-6.569 10.124c-.284.499-.582.992-.86 1.495-.436.792-.844 1.6-1.258 2.404-.336.65-.68 1.295-1 1.953-.374.76-.722 1.531-1.077 2.3-.332.721-.667 1.44-.984 2.171-.323.748-.629 1.506-.936 2.264-.312.77-.623 1.542-.918 2.32-.28.745-.547 1.495-.813 2.248a99.736 99.736 0 0 0-1.523 4.683 98.016 98.016 0 0 0-.73 2.562c-.2.739-.398 1.48-.581 2.226-.22.887-.422 1.78-.62 2.677-.162.732-.323 1.463-.47 2.202a103.58 103.58 0 0 0-.503 2.818c-.12.715-.248 1.427-.354 2.148-.148.997-.265 2.004-.385 3.01-.078.68-.17 1.352-.237 2.035-.111 1.126-.185 2.26-.26 3.398-.036.573-.093 1.142-.12 1.718a107.031 107.031 0 0 0-.133 5.18c0 1.705.05 3.4.13 5.086.027.582.08 1.158.118 1.738.07 1.094.145 2.189.25 3.275.067.698.153 1.393.235 2.088.11.952.226 1.901.362 2.847.109.748.231 1.494.355 2.237a100.35 100.35 0 0 0 1.503 7.36c.193.798.386 1.597.598 2.387.202.763.425 1.513.644 2.267.237.813.47 1.629.725 2.432.225.706.472 1.4.71 2.099.285.83.558 1.665.862 2.485v.002c14.797 39.945 53.277 68.493 98.306 68.493 18.473 0 36.613-4.876 52.507-14.094a8.253 8.253 0 0 0 1.655-.749c12.177-7.262 31.138-7.472 40.524 4.856 4.975 6.534 7.024 14.897 5.63 22.952m-54.138-42.552a8.425 8.425 0 0 0-1.625.73c-13.45 7.91-28.857 12.09-44.553 12.09-36.367 0-67.651-22.167-81.057-53.7a87.375 87.375 0 0 1-5.126-16.372c-.013-.063-.03-.124-.043-.187a87.486 87.486 0 0 1-.704-3.92c-.024-.143-.055-.283-.077-.426a88.286 88.286 0 0 1-.47-3.666c-.027-.25-.07-.497-.095-.748a92.987 92.987 0 0 1-.265-3.456c-.02-.342-.06-.68-.077-1.022a88.62 88.62 0 0 1-.116-4.532c0-1.453.04-2.9.111-4.336.022-.477.068-.948.1-1.422.06-.957.125-1.91.216-2.858.056-.566.132-1.126.197-1.691.1-.847.2-1.694.324-2.534.087-.594.19-1.184.288-1.774.135-.8.273-1.597.429-2.39.119-.603.249-1.203.38-1.802a86.683 86.683 0 0 1 .997-4.1 93.802 93.802 0 0 1 1.184-4.012c.233-.72.477-1.433.727-2.143.208-.595.416-1.19.637-1.778.263-.703.544-1.396.825-2.09.237-.582.466-1.167.714-1.743.296-.688.612-1.363.925-2.044.26-.564.512-1.134.785-1.694.335-.687.695-1.363 1.046-2.041.337-.648.668-1.296 1.021-1.934a85.99 85.99 0 0 1 1.754-3.045c.38-.628.783-1.24 1.179-1.856.33-.517.652-1.039.993-1.549.422-.63.866-1.245 1.303-1.865.336-.477.669-.956 1.014-1.425.46-.624.936-1.231 1.41-1.843.347-.444.692-.89 1.047-1.329a84.055 84.055 0 0 1 1.521-1.818c.352-.41.703-.819 1.06-1.224a89.194 89.194 0 0 1 2.704-2.908c.582-.601 1.172-1.194 1.77-1.776.343-.334.691-.664 1.04-.992.634-.596 1.27-1.189 1.922-1.766.316-.283.638-.557.96-.833.7-.604 1.402-1.205 2.12-1.787.256-.207.517-.405.774-.609.8-.632 1.605-1.263 2.427-1.868.07-.054.146-.104.218-.157a88.363 88.363 0 0 1 12.905-7.85c.054-.027.105-.056.157-.08a84.732 84.732 0 0 1 3.084-1.44c.193-.087.382-.177.575-.261.985-.432 1.984-.84 2.988-1.236.248-.098.496-.198.745-.294a88.731 88.731 0 0 1 3.802-1.357c1-.33 2.01-.646 3.024-.943.277-.081.553-.157.829-.235 1.03-.29 2.069-.566 3.115-.819.251-.06.504-.116.757-.174a84.148 84.148 0 0 1 3.272-.701c.185-.036.37-.065.554-.1a93.71 93.71 0 0 1 3.553-.594c4.101-.587 8.287-.908 12.548-.908 15.696 0 31.103 4.18 44.553 12.09.524.308 1.07.547 1.625.73 18.774 10.831 46.82 10.296 61.85-9.442 7.787-10.23 10.998-23.34 8.81-35.97-2.015-11.62-8.365-21.43-17.886-27.629a8.665 8.665 0 0 0-1.224-.651c-.176-.133-.323-.287-.51-.408-28.921-18.87-62.54-28.844-97.218-28.844-4.697 0-9.349.185-13.955.544-1.38.107-2.756.23-4.127.367-.686.07-1.368.157-2.05.232-.774.088-1.548.17-2.317.265-.713.091-1.42.197-2.132.295-.734.1-1.468.198-2.199.308-.717.108-1.43.232-2.146.35-.719.117-1.439.23-2.154.356-.717.127-1.43.267-2.145.401-.706.135-1.415.266-2.12.408-.711.145-1.419.298-2.128.452-.701.15-1.404.298-2.102.458-.706.162-1.41.331-2.112.5-.693.169-1.388.333-2.079.51-.7.178-1.4.363-2.097.55a152.835 152.835 0 0 0-4.13 1.154c-.682.2-1.363.4-2.04.607-.69.212-1.373.429-2.057.645-.673.217-1.345.435-2.016.656-.68.228-1.357.457-2.032.692a167.024 167.024 0 0 0-5.982 2.192c-.665.257-1.328.516-1.989.78-.654.264-1.305.533-1.956.802a214.7 214.7 0 0 0-1.958.823c-.648.279-1.291.564-1.938.848-.644.287-1.29.574-1.932.866-.644.297-1.282.598-1.922.9-.63.299-1.265.595-1.892.901-.64.312-1.274.63-1.91.95-.622.312-1.247.624-1.865.942-.634.328-1.261.665-1.889.998-.61.323-1.222.646-1.826.976-.64.35-1.272.71-1.906 1.067-.587.33-1.175.655-1.757.991-.65.375-1.29.761-1.933 1.145-.561.333-1.125.66-1.681 1-.69.42-1.368.852-2.05 1.281-.501.316-1.008.623-1.505.943a176.92 176.92 0 0 0-3.452 2.274c-.445.3-.882.611-1.322.914-.708.49-1.42.974-2.121 1.473-.513.364-1.02.742-1.53 1.113-.618.448-1.24.894-1.853 1.35-.527.393-1.046.797-1.569 1.196-.586.447-1.175.89-1.755 1.346-.524.41-1.04.83-1.56 1.245-.569.457-1.14.91-1.703 1.373-.518.427-1.03.858-1.542 1.291-.556.465-1.111.93-1.66 1.403-.509.438-1.01.883-1.513 1.326-.544.478-1.088.957-1.625 1.441-.499.45-.991.905-1.484 1.36-.53.49-1.06.981-1.586 1.477-.49.463-.974.932-1.46 1.4a174.355 174.355 0 0 0-7.35 7.537 179.06 179.06 0 0 0-2.797 3.114c-.442.502-.88 1.006-1.315 1.513-.473.55-.94 1.106-1.408 1.663-.428.513-.856 1.026-1.28 1.543-.461.565-.918 1.133-1.374 1.704-.413.52-.828 1.039-1.236 1.563-.454.58-.9 1.167-1.346 1.752-.397.524-.797 1.046-1.19 1.575-.445.601-.884 1.207-1.324 1.814-.38.524-.759 1.045-1.132 1.572-.443.626-.876 1.256-1.309 1.885-.359.521-.72 1.039-1.073 1.563-.436.648-.863 1.304-1.291 1.96-.337.516-.68 1.03-1.013 1.551-.44.686-.866 1.382-1.296 2.074-.308.496-.62.987-.924 1.486-.48.792-.948 1.595-1.417 2.397-.238.405-.483.808-.718 1.217a181.434 181.434 0 0 0-2.05 3.659c-.139.257-.27.519-.41.778-.526.977-1.05 1.958-1.557 2.946-.241.47-.472.945-.71 1.417-.396.787-.791 1.572-1.177 2.366-.253.524-.497 1.055-.745 1.582-.352.746-.706 1.49-1.048 2.242-.256.562-.5 1.128-.752 1.695-.321.726-.644 1.45-.957 2.182-.247.582-.487 1.17-.73 1.755-.297.722-.597 1.442-.885 2.167-.24.602-.471 1.208-.705 1.814-.276.716-.554 1.435-.82 2.157-.228.613-.45 1.231-.67 1.846a168.98 168.98 0 0 0-.766 2.17c-.213.624-.422 1.25-.629 1.876-.24.725-.478 1.453-.71 2.182-.2.634-.394 1.271-.589 1.906a169.181 169.181 0 0 0-2.854 10.535 160.284 160.284 0 0 0-.95 4.22c-.138.656-.278 1.312-.41 1.97-.152.763-.298 1.532-.44 2.299-.123.657-.247 1.315-.361 1.975-.137.775-.262 1.553-.388 2.331-.107.658-.215 1.315-.312 1.976-.12.789-.226 1.581-.334 2.373-.09.654-.18 1.307-.262 1.964-.1.811-.19 1.624-.28 2.438-.072.644-.147 1.285-.211 1.932-.083.842-.154 1.686-.226 2.53-.052.624-.112 1.247-.159 1.872-.066.89-.116 1.78-.17 2.671-.034.587-.076 1.17-.106 1.759-.05.992-.08 1.988-.114 2.984-.016.493-.041.984-.054 1.478C-.98 79.726-1 81.22-1 82.72c0 1.649.027 3.291.07 4.93.016.519.041 1.036.06 1.556.04 1.123.085 2.245.146 3.363.033.593.075 1.185.113 1.776.069 1.051.141 2.1.227 3.146.049.59.104 1.182.159 1.774.097 1.056.204 2.11.32 3.161.063.559.125 1.119.193 1.676.133 1.109.28 2.215.433 3.318.067.486.133.975.205 1.462.184 1.247.385 2.488.595 3.726.056.335.108.673.166 1.007a178.3 178.3 0 0 0 1.97 9.648v.002C22.06 202.03 92.864 260.875 177.155 260.875c34.679 0 68.297-9.975 97.218-28.844.187-.121.334-.275.51-.408a8.665 8.665 0 0 0 1.224-.651c9.52-6.199 15.871-16.01 17.886-27.629 2.188-12.63-1.023-25.74-8.81-35.97-15.03-19.739-43.076-20.274-61.85-9.443"/>
    </g>
</svg>
