<svg xmlns="http://www.w3.org/2000/svg" width="174" height="30" viewBox="0 0 174 30">
    <g fill="none" fill-rule="evenodd">
        <path fill="#4BA2F2" stroke="#4BA2F2" stroke-width=".5" d="M14.9 26.88c-6.582 0-11.937-5.356-11.937-11.938C2.963 8.36 8.318 3.006 14.9 3.006c3.073 0 5.992 1.165 8.22 3.28a.697.697 0 1 1-.961 1.011 10.497 10.497 0 0 0-7.26-2.897C9.088 4.4 4.358 9.13 4.358 14.942c0 5.814 4.73 10.543 10.543 10.543 2.885 0 5.578-1.143 7.582-3.218a10.483 10.483 0 0 0 2.938-6.628H14.9a.697.697 0 1 1 0-1.394h11.936v.697c0 3.112-1.19 6.057-3.351 8.294a11.84 11.84 0 0 1-8.585 3.643"/>
        <path fill="#4BA2F2" d="M14.812 18.166a3.224 3.224 0 1 0 0-6.448 3.224 3.224 0 0 0 0 6.448"/>
        <path fill="#1A5099" d="M23.153 24.733c-.101.58-.411 1.065-.874 1.367-.018.011-.033.026-.05.039a.702.702 0 0 0-.096.05 13.366 13.366 0 0 1-7.321 2.171c-6.248 0-11.513-4.293-12.999-10.084-.031-.123-.06-.247-.089-.371l-.02-.095a13.65 13.65 0 0 1-.132-.688l-.015-.092c-.02-.13-.04-.259-.056-.39-.016-.127-.03-.255-.042-.383l-.01-.115a12.805 12.805 0 0 1-.044-.684l-.005-.122a14.104 14.104 0 0 1-.002-.732l.004-.11.009-.225.008-.135.013-.2c.003-.047.008-.094.012-.14.005-.064.01-.128.017-.191l.016-.146.02-.184.02-.148.026-.179.023-.148.03-.176.027-.15a12.163 12.163 0 0 1 .26-1.121 13.458 13.458 0 0 1 .09-.31l.045-.146.053-.163.048-.143.057-.16.052-.143a13.765 13.765 0 0 1 .115-.298c.02-.054.043-.107.065-.16.019-.045.037-.091.057-.136.022-.053.046-.106.069-.158l.06-.135.074-.158.06-.13.08-.16.063-.125.09-.17.058-.11c.048-.088.097-.175.147-.261.02-.037.042-.073.063-.109L3.334 8l.074-.12.093-.148.083-.127.09-.137.088-.128.091-.132c.03-.043.062-.085.093-.128.03-.042.061-.085.093-.127.031-.043.064-.085.096-.127l.094-.123.1-.126.097-.12.103-.124a17.352 17.352 0 0 1 .307-.353 13.772 13.772 0 0 1 .881-.893l.124-.114.109-.096.128-.112.109-.092.132-.11.11-.089.136-.109.108-.082.143-.109.104-.076.151-.11.094-.065c.055-.038.11-.077.166-.114l.063-.042c.222-.147.447-.288.677-.423l.05-.03.187-.104.09-.05.177-.095.102-.054.174-.087.11-.055.172-.082.115-.053.172-.077.12-.052.172-.073a16.907 16.907 0 0 1 .42-.165l.174-.063.126-.045a13.387 13.387 0 0 1 .483-.157l.128-.038a12.026 12.026 0 0 1 .494-.134l.129-.032a12.492 12.492 0 0 1 .505-.112l.126-.024.195-.036.123-.02c.067-.012.133-.023.2-.033l.119-.016.208-.029.106-.012.222-.025.084-.007.247-.022a13.366 13.366 0 0 1 8.332 2.134c.031.02.064.035.097.05.016.013.03.028.049.04.463.3.773.786.874 1.366a2.466 2.466 0 0 1-.469 1.908c-.78 1.025-2.356 1.007-3.369.404a.686.686 0 0 0-.137-.063 8.707 8.707 0 0 0-5.49-1.097A8.661 8.661 0 0 0 9.734 7.87l-.026.019a8.625 8.625 0 0 0-.271.205l-.048.037a8.832 8.832 0 0 0-.535.464l-.065.062c-.073.07-.144.14-.214.211l-.066.07a8.66 8.66 0 0 0-.203.218l-.062.072c-.066.076-.131.151-.194.229l-.052.066c-.065.082-.13.163-.192.247a8.787 8.787 0 0 0-.563.866l-.071.124c-.037.066-.07.133-.105.2-.028.054-.056.107-.083.162-.031.063-.06.127-.09.191l-.081.18a9.114 9.114 0 0 0-.222.568 8.863 8.863 0 0 0-.287 1.01l-.04.184a8.612 8.612 0 0 0-.041.234l-.03.179c-.012.083-.022.167-.032.25l-.02.17c-.009.093-.015.187-.021.282-.003.047-.008.095-.01.143a8.899 8.899 0 0 0 0 .853c.002.049.006.096.01.145.005.09.012.182.02.272l.02.174a8.38 8.38 0 0 0 .184 1.034l.05.199c.017.063.036.125.054.188.02.068.039.136.06.202.019.059.04.117.06.175.023.069.045.138.07.206 1.231 3.322 4.43 5.695 8.174 5.695a8.707 8.707 0 0 0 4.366-1.172.686.686 0 0 0 .137-.062c1.013-.604 2.589-.621 3.37.404.413.543.583 1.239.468 1.908m-4.502-3.538a.7.7 0 0 0-.135.061 7.311 7.311 0 0 1-3.704 1.005 7.33 7.33 0 0 1-7.165-5.826l-.004-.015a7.274 7.274 0 0 1-.058-.326l-.007-.036a7.34 7.34 0 0 1-.039-.304l-.008-.063a7.731 7.731 0 0 1-.022-.287c-.002-.028-.005-.056-.006-.085a7.368 7.368 0 0 1 0-.737c.001-.04.005-.079.008-.118.005-.08.01-.16.018-.238a6.983 6.983 0 0 1 .043-.351c.007-.05.016-.099.024-.148a7.61 7.61 0 0 1 .035-.198l.032-.15a7.207 7.207 0 0 1 .242-.853 7.171 7.171 0 0 1 .122-.322c.02-.048.038-.097.059-.144.024-.058.05-.114.077-.17.021-.047.042-.095.065-.141.028-.057.058-.114.087-.17.028-.054.056-.108.085-.16a7.15 7.15 0 0 1 .146-.254c.031-.052.065-.103.098-.154.027-.043.054-.087.082-.129.035-.052.072-.104.109-.155.028-.04.055-.08.084-.118.038-.052.078-.103.117-.154l.087-.11c.041-.051.084-.101.127-.151l.088-.102a7.416 7.416 0 0 1 .618-.619l.08-.07c.058-.05.116-.1.176-.148l.064-.05a7.53 7.53 0 0 1 .202-.156l.018-.013a7.347 7.347 0 0 1 1.073-.652l.013-.007c.085-.042.17-.081.257-.12l.048-.021c.081-.036.165-.07.248-.103l.062-.025a7.377 7.377 0 0 1 .567-.19 7.12 7.12 0 0 1 .328-.088l.063-.015c.09-.021.181-.04.272-.058l.046-.009a7.359 7.359 0 0 1 1.339-.125c1.305 0 2.586.348 3.704 1.006a.7.7 0 0 0 .135.06c1.561.9 3.893.856 5.143-.785.647-.85.914-1.94.732-2.99-.167-.966-.695-1.782-1.487-2.297a.72.72 0 0 0-.102-.054c-.014-.012-.027-.024-.042-.034A14.754 14.754 0 0 0 13.652.176c-.115.009-.23.019-.343.03l-.17.02-.193.022c-.06.007-.119.016-.178.024l-.182.026-.179.029c-.06.01-.12.019-.179.03-.06.01-.119.022-.178.033-.059.01-.118.022-.177.034l-.177.037-.174.038-.176.042-.173.042a13.16 13.16 0 0 0-.518.142l-.17.05-.17.054a25.106 25.106 0 0 0-.337.112 13.887 13.887 0 0 0-.988.382l-.16.07-.162.073-.16.075-.157.075-.158.078-.155.079-.158.083-.151.08-.159.09-.146.082-.16.095-.14.083c-.058.035-.114.071-.17.107l-.126.078a14.71 14.71 0 0 0-.287.19c-.037.024-.073.05-.11.075-.059.041-.118.081-.176.123l-.127.092-.154.113c-.044.032-.087.066-.13.099-.05.037-.099.074-.147.112l-.13.104-.141.114a14.313 14.313 0 0 0-.266.224c-.043.036-.084.073-.126.11l-.135.12a14.568 14.568 0 0 0-.256.236l-.121.116a14.496 14.496 0 0 0-1.07 1.15l-.106.128-.115.142-.102.13-.112.145-.1.131-.11.15-.093.132-.11.156-.088.13c-.037.054-.072.109-.108.163l-.084.13c-.037.056-.072.114-.108.172l-.077.123c-.04.066-.078.133-.117.2l-.06.1c-.058.101-.115.203-.17.305l-.035.065a14.13 14.13 0 0 0-.13.244l-.058.118c-.033.066-.066.13-.098.197l-.062.132c-.03.062-.059.123-.087.186l-.063.14-.08.182-.06.146c-.025.06-.05.12-.073.18l-.059.151-.068.18c-.02.05-.038.102-.056.153a14.05 14.05 0 0 0-.175.518l-.049.158a14.066 14.066 0 0 0-.316 1.227l-.034.164-.037.19-.03.165-.032.194-.026.164-.028.198-.022.163-.023.203-.017.16-.02.21-.012.156c-.006.074-.01.148-.014.222l-.01.146-.009.249-.004.122a15.405 15.405 0 0 0 0 .783l.006.13.012.28.01.147a15.705 15.705 0 0 0 .058.672l.016.139.036.276.017.121c.015.104.032.207.05.31l.013.084c.048.27.102.537.164.802 1.53 6.549 7.417 11.441 14.425 11.441 2.883 0 5.678-.829 8.083-2.398.015-.01.028-.023.042-.034a.72.72 0 0 0 .102-.054c.792-.515 1.32-1.33 1.487-2.297a3.864 3.864 0 0 0-.732-2.99c-1.25-1.642-3.582-1.686-5.143-.786"/>
        <g>
            <path fill="#4BA2F2" stroke="#4BA2F2" stroke-width=".5" d="M14.9 26.88c-6.582 0-11.937-5.356-11.937-11.938C2.963 8.36 8.318 3.006 14.9 3.006c3.073 0 5.992 1.165 8.22 3.28a.697.697 0 1 1-.961 1.011 10.497 10.497 0 0 0-7.26-2.897C9.088 4.4 4.358 9.13 4.358 14.942c0 5.814 4.73 10.543 10.543 10.543 2.885 0 5.578-1.143 7.582-3.218a10.483 10.483 0 0 0 2.938-6.628H14.9a.697.697 0 1 1 0-1.394h11.936v.697c0 3.112-1.19 6.057-3.351 8.294a11.84 11.84 0 0 1-8.585 3.643"/>
            <path fill="#4BA2F2" d="M14.812 18.166a3.224 3.224 0 1 0 0-6.448 3.224 3.224 0 0 0 0 6.448"/>
            <path fill="#1A5099" d="M23.153 24.733c-.101.58-.411 1.065-.874 1.367-.018.011-.033.026-.05.039a.702.702 0 0 0-.096.05 13.366 13.366 0 0 1-7.321 2.171c-6.248 0-11.513-4.293-12.999-10.084-.031-.123-.06-.247-.089-.371l-.02-.095a13.65 13.65 0 0 1-.132-.688l-.015-.092c-.02-.13-.04-.259-.056-.39-.016-.127-.03-.255-.042-.383l-.01-.115a12.805 12.805 0 0 1-.044-.684l-.005-.122a14.104 14.104 0 0 1-.002-.732l.004-.11.009-.225.008-.135.013-.2c.003-.047.008-.094.012-.14.005-.064.01-.128.017-.191l.016-.146.02-.184.02-.148.026-.179.023-.148.03-.176.027-.15a12.163 12.163 0 0 1 .26-1.121 13.458 13.458 0 0 1 .09-.31l.045-.146.053-.163.048-.143.057-.16.052-.143a13.765 13.765 0 0 1 .115-.298c.02-.054.043-.107.065-.16.019-.045.037-.091.057-.136.022-.053.046-.106.069-.158l.06-.135.074-.158.06-.13.08-.16.063-.125.09-.17.058-.11c.048-.088.097-.175.147-.261.02-.037.042-.073.063-.109L3.334 8l.074-.12.093-.148.083-.127.09-.137.088-.128.091-.132c.03-.043.062-.085.093-.128.03-.042.061-.085.093-.127.031-.043.064-.085.096-.127l.094-.123.1-.126.097-.12.103-.124a17.352 17.352 0 0 1 .307-.353 13.772 13.772 0 0 1 .881-.893l.124-.114.109-.096.128-.112.109-.092.132-.11.11-.089.136-.109.108-.082.143-.109.104-.076.151-.11.094-.065c.055-.038.11-.077.166-.114l.063-.042c.222-.147.447-.288.677-.423l.05-.03.187-.104.09-.05.177-.095.102-.054.174-.087.11-.055.172-.082.115-.053.172-.077.12-.052.172-.073a16.907 16.907 0 0 1 .42-.165l.174-.063.126-.045a13.387 13.387 0 0 1 .483-.157l.128-.038a12.026 12.026 0 0 1 .494-.134l.129-.032a12.492 12.492 0 0 1 .505-.112l.126-.024.195-.036.123-.02c.067-.012.133-.023.2-.033l.119-.016.208-.029.106-.012.222-.025.084-.007.247-.022a13.366 13.366 0 0 1 8.332 2.134c.031.02.064.035.097.05.016.013.03.028.049.04.463.3.773.786.874 1.366a2.466 2.466 0 0 1-.469 1.908c-.78 1.025-2.356 1.007-3.369.404a.686.686 0 0 0-.137-.063 8.707 8.707 0 0 0-5.49-1.097A8.661 8.661 0 0 0 9.734 7.87l-.026.019a8.625 8.625 0 0 0-.271.205l-.048.037a8.832 8.832 0 0 0-.535.464l-.065.062c-.073.07-.144.14-.214.211l-.066.07a8.66 8.66 0 0 0-.203.218l-.062.072c-.066.076-.131.151-.194.229l-.052.066c-.065.082-.13.163-.192.247a8.787 8.787 0 0 0-.563.866l-.071.124c-.037.066-.07.133-.105.2-.028.054-.056.107-.083.162-.031.063-.06.127-.09.191l-.081.18a9.114 9.114 0 0 0-.222.568 8.863 8.863 0 0 0-.287 1.01l-.04.184a8.612 8.612 0 0 0-.041.234l-.03.179c-.012.083-.022.167-.032.25l-.02.17c-.009.093-.015.187-.021.282-.003.047-.008.095-.01.143a8.899 8.899 0 0 0 0 .853c.002.049.006.096.01.145.005.09.012.182.02.272l.02.174a8.38 8.38 0 0 0 .184 1.034l.05.199c.017.063.036.125.054.188.02.068.039.136.06.202.019.059.04.117.06.175.023.069.045.138.07.206 1.231 3.322 4.43 5.695 8.174 5.695a8.707 8.707 0 0 0 4.366-1.172.686.686 0 0 0 .137-.062c1.013-.604 2.589-.621 3.37.404.413.543.583 1.239.468 1.908m-4.502-3.538a.7.7 0 0 0-.135.061 7.311 7.311 0 0 1-3.704 1.005 7.33 7.33 0 0 1-7.165-5.826l-.004-.015a7.274 7.274 0 0 1-.058-.326l-.007-.036a7.34 7.34 0 0 1-.039-.304l-.008-.063a7.731 7.731 0 0 1-.022-.287c-.002-.028-.005-.056-.006-.085a7.368 7.368 0 0 1 0-.737c.001-.04.005-.079.008-.118.005-.08.01-.16.018-.238a6.983 6.983 0 0 1 .043-.351c.007-.05.016-.099.024-.148a7.61 7.61 0 0 1 .035-.198l.032-.15a7.207 7.207 0 0 1 .242-.853 7.171 7.171 0 0 1 .122-.322c.02-.048.038-.097.059-.144.024-.058.05-.114.077-.17.021-.047.042-.095.065-.141.028-.057.058-.114.087-.17.028-.054.056-.108.085-.16a7.15 7.15 0 0 1 .146-.254c.031-.052.065-.103.098-.154.027-.043.054-.087.082-.129.035-.052.072-.104.109-.155.028-.04.055-.08.084-.118.038-.052.078-.103.117-.154l.087-.11c.041-.051.084-.101.127-.151l.088-.102a7.416 7.416 0 0 1 .618-.619l.08-.07c.058-.05.116-.1.176-.148l.064-.05a7.53 7.53 0 0 1 .202-.156l.018-.013a7.347 7.347 0 0 1 1.073-.652l.013-.007c.085-.042.17-.081.257-.12l.048-.021c.081-.036.165-.07.248-.103l.062-.025a7.377 7.377 0 0 1 .567-.19 7.12 7.12 0 0 1 .328-.088l.063-.015c.09-.021.181-.04.272-.058l.046-.009a7.359 7.359 0 0 1 1.339-.125c1.305 0 2.586.348 3.704 1.006a.7.7 0 0 0 .135.06c1.561.9 3.893.856 5.143-.785.647-.85.914-1.94.732-2.99-.167-.966-.695-1.782-1.487-2.297a.72.72 0 0 0-.102-.054c-.014-.012-.027-.024-.042-.034A14.754 14.754 0 0 0 13.652.176c-.115.009-.23.019-.343.03l-.17.02-.193.022c-.06.007-.119.016-.178.024l-.182.026-.179.029c-.06.01-.12.019-.179.03-.06.01-.119.022-.178.033-.059.01-.118.022-.177.034l-.177.037-.174.038-.176.042-.173.042a13.16 13.16 0 0 0-.518.142l-.17.05-.17.054a25.106 25.106 0 0 0-.337.112 13.887 13.887 0 0 0-.988.382l-.16.07-.162.073-.16.075-.157.075-.158.078-.155.079-.158.083-.151.08-.159.09-.146.082-.16.095-.14.083c-.058.035-.114.071-.17.107l-.126.078a14.71 14.71 0 0 0-.287.19c-.037.024-.073.05-.11.075-.059.041-.118.081-.176.123l-.127.092-.154.113c-.044.032-.087.066-.13.099-.05.037-.099.074-.147.112l-.13.104-.141.114a14.313 14.313 0 0 0-.266.224c-.043.036-.084.073-.126.11l-.135.12a14.568 14.568 0 0 0-.256.236l-.121.116a14.496 14.496 0 0 0-1.07 1.15l-.106.128-.115.142-.102.13-.112.145-.1.131-.11.15-.093.132-.11.156-.088.13c-.037.054-.072.109-.108.163l-.084.13c-.037.056-.072.114-.108.172l-.077.123c-.04.066-.078.133-.117.2l-.06.1c-.058.101-.115.203-.17.305l-.035.065a14.13 14.13 0 0 0-.13.244l-.058.118c-.033.066-.066.13-.098.197l-.062.132c-.03.062-.059.123-.087.186l-.063.14-.08.182-.06.146c-.025.06-.05.12-.073.18l-.059.151-.068.18c-.02.05-.038.102-.056.153a14.05 14.05 0 0 0-.175.518l-.049.158a14.066 14.066 0 0 0-.316 1.227l-.034.164-.037.19-.03.165-.032.194-.026.164-.028.198-.022.163-.023.203-.017.16-.02.21-.012.156c-.006.074-.01.148-.014.222l-.01.146-.009.249-.004.122a15.405 15.405 0 0 0 0 .783l.006.13.012.28.01.147a15.705 15.705 0 0 0 .058.672l.016.139.036.276.017.121c.015.104.032.207.05.31l.013.084c.048.27.102.537.164.802 1.53 6.549 7.417 11.441 14.425 11.441 2.883 0 5.678-.829 8.083-2.398.015-.01.028-.023.042-.034a.72.72 0 0 0 .102-.054c.792-.515 1.32-1.33 1.487-2.297a3.864 3.864 0 0 0-.732-2.99c-1.25-1.642-3.582-1.686-5.143-.786"/>
        </g>
        <text fill="#42474D" font-family="SourceSansPro-Regular, Source Sans Pro" font-size="22">
            <tspan x="39.714" y="24.198">steem</tspan> <tspan x="95.352" y="23.714" font-family="SourceSansPro-Bold, Source Sans Pro" font-weight="bold">connect</tspan>
        </text>
    </g>
</svg>
