<?xml version="1.0" encoding="UTF-8"?>
<svg width="174px" height="30px" viewBox="0 0 174 30" version="1.1" xmlns="http://www.w3.org/2000/svg" xmlns:xlink="http://www.w3.org/1999/xlink">
    <!-- Generator: Sketch 46.1 (44463) - http://www.bohemiancoding.com/sketch -->
    <title>SClogo</title>
    <desc>Created with Sketch.</desc>
    <defs></defs>
    <g id="v2-Hot-Sign-In-" stroke="none" stroke-width="1" fill="none" fill-rule="evenodd">
        <g id="Confirmation-Single-Transaction" transform="translate(-487.000000, -195.000000)">
            <g id="Page-1" transform="translate(470.000000, 180.000000)">
                <g id="SClogo" transform="translate(17.000000, 15.000000)">
                    <g id="Page-1">
                        <g id="Group-3" transform="translate(2.869565, 2.884826)" stroke="#4BA2F2" stroke-width="0.5" fill="#4BA2F2">
                            <path d="M12.0300652,23.9942739 C5.44819565,23.9942739 0.093326087,18.6394043 0.093326087,12.0575348 C0.093326087,5.47566522 5.44819565,0.120926087 12.0300652,0.120926087 C15.1033696,0.120926087 18.0222391,1.2861 20.2495435,3.40162174 C20.5286739,3.66679565 20.5400217,4.10805652 20.2747174,4.38705652 C20.0099348,4.66618696 19.5689348,4.67766522 19.2892826,4.4124913 C17.3223261,2.54401304 14.744413,1.51488261 12.0300652,1.51488261 C6.21697826,1.51488261 1.48741304,6.24444783 1.48741304,12.0575348 C1.48741304,17.8707522 6.21697826,22.600187 12.0300652,22.600187 C14.9151522,22.600187 17.6079783,21.4573174 19.6127609,19.3822304 C21.3592826,17.5745348 22.3877609,15.243013 22.5500217,12.7545783 L12.0300652,12.7545783 C11.6451522,12.7545783 11.3330217,12.4425783 11.3330217,12.0575348 C11.3330217,11.6726217 11.6451522,11.3606217 12.0300652,11.3606217 L23.9668043,11.3606217 L23.9668043,12.0575348 C23.9668043,15.1687957 22.7767174,18.1141435 20.615413,20.3508391 C18.3453261,22.7002304 15.296413,23.9942739 12.0300652,23.9942739" id="Fill-1"></path>
                        </g>
                        <path d="M14.8119913,18.1662 C16.5924261,18.1662 18.0358174,16.7228087 18.0358174,14.9423739 C18.0358174,13.1620696 16.5924261,11.7185478 14.8119913,11.7185478 C13.0315565,11.7185478 11.5881652,13.1620696 11.5881652,14.9423739 C11.5881652,16.7228087 13.0315565,18.1662 14.8119913,18.1662" id="Fill-4" fill="#4BA2F2"></path>
                        <g id="Group-8" transform="translate(0.000000, 0.015261)" fill="#1A5099">
                            <path d="M23.1525522,24.7179 C23.051987,25.2976826 22.741813,25.7830304 22.2786391,26.0843348 C22.2606391,26.0959435 22.2461609,26.110813 22.2295957,26.1237261 C22.1968565,26.1384652 22.1642478,26.1534652 22.1333348,26.1735522 C19.9557261,27.593987 17.423987,28.3451609 14.8120304,28.3451609 C8.56355217,28.3451609 3.29920435,24.0519 1.8132913,18.2603348 C1.78172609,18.1375957 1.75237826,18.0139435 1.72433478,17.8896391 C1.71716087,17.8582043 1.7105087,17.8265087 1.70359565,17.7949435 C1.68285652,17.7001174 1.66316087,17.6051609 1.64437826,17.5095522 C1.63720435,17.4729 1.63016087,17.4362478 1.62324783,17.3995957 C1.60511739,17.3022913 1.58816087,17.2047261 1.57211739,17.1069 C1.56703043,17.0762478 1.56168261,17.0457261 1.55685652,17.0149435 C1.5365087,16.8856826 1.51772609,16.7559 1.50116087,16.6254652 C1.50103043,16.6249435 1.50103043,16.6244217 1.5009,16.6240304 C1.48485652,16.4973783 1.47103043,16.369813 1.45863913,16.2421174 C1.45485652,16.2037696 1.45172609,16.1652913 1.44833478,16.126813 C1.44011739,16.0351174 1.43268261,15.9432913 1.42642174,15.8510739 C1.42342174,15.8067261 1.42055217,15.7622478 1.41794348,15.7177696 C1.41259565,15.6263348 1.40842174,15.5346391 1.4049,15.4426826 C1.40333478,15.401987 1.4015087,15.3615522 1.40020435,15.3208565 C1.39655217,15.1900304 1.39407391,15.058813 1.39407391,14.9270739 C1.39407391,14.813987 1.3955087,14.7012913 1.39837826,14.5888565 C1.3992913,14.551813 1.40111739,14.5149 1.40242174,14.477987 C1.4049,14.402987 1.40724783,14.327987 1.4109,14.2532478 C1.41324783,14.2083783 1.41637826,14.1637696 1.41911739,14.1190304 C1.42303043,14.0522478 1.42694348,13.9855957 1.4319,13.9189435 C1.4352913,13.8718565 1.43985652,13.8247696 1.44376957,13.777813 C1.44924783,13.7142913 1.45446522,13.6505087 1.46072609,13.5873783 C1.46568261,13.5384652 1.47142174,13.4899435 1.47676957,13.4412913 C1.48355217,13.3801174 1.49020435,13.3189435 1.49776957,13.2581609 C1.5039,13.2085957 1.51094348,13.1591609 1.51759565,13.1097261 C1.52568261,13.049987 1.53376957,12.9903783 1.54276957,12.9309 C1.55020435,12.8813348 1.5582913,12.8319 1.56624783,12.7823348 C1.57576957,12.7236391 1.58516087,12.6650739 1.59546522,12.6065087 C1.60420435,12.5565522 1.61359565,12.5068565 1.62285652,12.4570304 C1.63355217,12.3995087 1.64437826,12.341987 1.65585652,12.2848565 C1.6659,12.2350304 1.67633478,12.1854652 1.6869,12.1357696 C1.69903043,12.0789 1.7112913,12.0219 1.72420435,11.9651609 C1.7352913,11.9158565 1.7469,11.8666826 1.7585087,11.8176391 C1.77207391,11.7611609 1.78576957,11.704813 1.79985652,11.6488565 C1.81224783,11.5996826 1.8249,11.5506391 1.83781304,11.5018565 C1.85255217,11.4461609 1.86755217,11.3907261 1.88294348,11.3354217 C1.8965087,11.2865087 1.91033478,11.2377261 1.92442174,11.1890739 C1.94046522,11.1341609 1.95676957,11.0795087 1.97333478,11.024987 C1.98820435,10.9765957 2.00307391,10.9282043 2.01833478,10.8799435 C2.03555217,10.8255522 2.05342174,10.7712913 2.0712913,10.7171609 C2.08720435,10.6692913 2.10298696,10.6215522 2.11942174,10.5739435 C2.13781304,10.5202043 2.15698696,10.4667261 2.17603043,10.4132478 C2.19311739,10.3657696 2.21007391,10.3182913 2.22768261,10.2709435 C2.2475087,10.2177261 2.26785652,10.1647696 2.28833478,10.111813 C2.30620435,10.0651174 2.32407391,10.0185522 2.34259565,9.97224783 C2.36385652,9.9189 2.38576957,9.86607391 2.40768261,9.81298696 C2.42659565,9.76746522 2.44524783,9.72155217 2.46468261,9.6762913 C2.48724783,9.62333478 2.51059565,9.5709 2.53381304,9.51833478 C2.55363913,9.47359565 2.57320435,9.42872609 2.59342174,9.38411739 C2.61755217,9.33103043 2.64272609,9.27833478 2.66763913,9.2255087 C2.68798696,9.18220435 2.70807391,9.13876957 2.72881304,9.09572609 C2.7549,9.04198696 2.7819,8.98876957 2.80863913,8.93542174 C2.82937826,8.89394348 2.84985652,8.85207391 2.87098696,8.81098696 C2.90033478,8.75385652 2.93059565,8.6975087 2.96072609,8.64103043 C2.98042174,8.60411739 2.99946522,8.56694348 3.01942174,8.5302913 C3.06716087,8.44263913 3.11594348,8.35563913 3.16563913,8.2692913 C3.1865087,8.23276957 3.20803043,8.19703043 3.22916087,8.16076957 C3.26385652,8.10181304 3.2982913,8.04272609 3.33376957,7.9842913 C3.35816087,7.94398696 3.38346522,7.90446522 3.40824783,7.86442174 C3.43903043,7.81485652 3.46955217,7.7652913 3.50085652,7.71624783 C3.52798696,7.67372609 3.55603043,7.63185652 3.58368261,7.58972609 C3.61381304,7.54381304 3.64355217,7.49776957 3.67420435,7.45237826 C3.70303043,7.40959565 3.7325087,7.36733478 3.76185652,7.32494348 C3.79224783,7.28072609 3.8225087,7.23663913 3.85342174,7.19294348 C3.88381304,7.15003043 3.91485652,7.10763913 3.94563913,7.06511739 C3.97642174,7.02259565 4.00720435,6.98007391 4.0385087,6.93807391 C4.07020435,6.89516087 4.10268261,6.8529 4.1349,6.81063913 C4.16620435,6.76955217 4.1975087,6.72833478 4.22920435,6.68776957 C4.26233478,6.64524783 4.29598696,6.60324783 4.3295087,6.56124783 C4.36146522,6.52133478 4.39342174,6.48142174 4.42576957,6.4419 C4.45981304,6.40003043 4.4945087,6.35881304 4.52907391,6.31759565 C4.56194348,6.27846522 4.59494348,6.23920435 4.62807391,6.20046522 C4.6632913,6.1595087 4.69876957,6.11881304 4.73437826,6.07837826 C4.76803043,6.0402913 4.80168261,6.00220435 4.83559565,5.96437826 C4.87185652,5.92407391 4.9085087,5.8839 4.94516087,5.84411739 C4.97946522,5.80694348 5.0139,5.7699 5.04859565,5.73311739 C5.0859,5.69346522 5.12359565,5.65394348 5.16155217,5.61468261 C5.19624783,5.57868261 5.23120435,5.54294348 5.26642174,5.50733478 C5.30503043,5.46820435 5.3439,5.42920435 5.38303043,5.39046522 C5.41824783,5.35576957 5.45372609,5.32107391 5.48933478,5.28663913 C5.52924783,5.24803043 5.5692913,5.20955217 5.60972609,5.17146522 C5.64533478,5.13781304 5.68120435,5.10455217 5.71707391,5.07142174 C5.7582913,5.03346522 5.79937826,4.9955087 5.84111739,4.95807391 C5.87711739,4.92546522 5.91363913,4.89337826 5.95003043,4.8612913 C5.99242174,4.82385652 6.03481304,4.78655217 6.07772609,4.74976957 C6.11385652,4.71872609 6.15037826,4.68807391 6.1869,4.6572913 C6.23085652,4.6205087 6.27468261,4.58346522 6.31903043,4.54707391 C6.35516087,4.51746522 6.39168261,4.48837826 6.42820435,4.45916087 C6.47372609,4.42263913 6.51911739,4.38598696 6.56516087,4.35011739 C6.60076957,4.32220435 6.6369,4.29494348 6.6729,4.26742174 C6.72037826,4.23103043 6.76772609,4.1945087 6.81572609,4.15876957 C6.8502913,4.13320435 6.88511739,4.10816087 6.91981304,4.08285652 C6.97016087,4.04620435 7.02024783,4.00916087 7.07111739,3.97316087 C7.10216087,3.95111739 7.13372609,3.92972609 7.16516087,3.90794348 C7.22020435,3.86959565 7.27511739,3.83111739 7.33081304,3.79355217 C7.35181304,3.77946522 7.37320435,3.76576957 7.39433478,3.75168261 C7.61555217,3.60442174 7.84133478,3.46342174 8.07142174,3.32920435 C8.08824783,3.3192913 8.10481304,3.30911739 8.12176957,3.29933478 C8.18346522,3.26372609 8.24607391,3.22903043 8.30842174,3.19433478 C8.33816087,3.17776957 8.36763913,3.16081304 8.3975087,3.1445087 C8.45620435,3.1122913 8.51555217,3.08124783 8.57476957,3.05007391 C8.60894348,3.03207391 8.64298696,3.01368261 8.6772913,2.99594348 C8.73468261,2.96620435 8.79272609,2.93763913 8.85063913,2.90868261 C8.88742174,2.8902913 8.92407391,2.87176957 8.96098696,2.85376957 C9.01798696,2.82598696 9.0755087,2.79911739 9.13303043,2.77211739 C9.17137826,2.75411739 9.20959565,2.73598696 9.24820435,2.71824783 C9.30520435,2.6922913 9.36259565,2.66685652 9.41998696,2.64155217 C9.45963913,2.62407391 9.49942174,2.60646522 9.53933478,2.58937826 C9.59659565,2.56472609 9.65411739,2.54098696 9.7119,2.51711739 C9.75233478,2.50042174 9.79276957,2.48372609 9.83346522,2.4672913 C9.89098696,2.44420435 9.9489,2.42176957 10.0069435,2.39959565 C10.0484217,2.38355217 10.0900304,2.3675087 10.1317696,2.35185652 C10.1895522,2.33033478 10.2477261,2.30933478 10.3060304,2.28846522 C10.3481609,2.27346522 10.3901609,2.25846522 10.4324217,2.24385652 C10.4911174,2.2235087 10.5500739,2.20368261 10.6091609,2.18411739 C10.6514217,2.17016087 10.693813,2.15633478 10.7363348,2.14276957 C10.795813,2.12372609 10.8554217,2.10520435 10.9152913,2.08694348 C10.9579435,2.0739 11.0005957,2.06137826 11.0433783,2.04872609 C11.1036391,2.03098696 11.1640304,2.01376957 11.2246826,1.99694348 C11.2674652,1.98507391 11.3102478,1.97359565 11.3531609,1.96211739 C11.4142043,1.94568261 11.4755087,1.92963913 11.5370739,1.91424783 C11.5798565,1.90342174 11.6227696,1.89311739 11.665813,1.88268261 C11.7277696,1.86768261 11.7898565,1.85294348 11.8522043,1.83885652 C11.8948565,1.82920435 11.9379,1.81994348 11.9806826,1.81081304 C12.043813,1.79711739 12.1070739,1.78368261 12.1707261,1.7709 C12.2125957,1.76255217 12.2548565,1.75459565 12.296987,1.74663913 C12.361813,1.73424783 12.4267696,1.72185652 12.4918565,1.7105087 C12.5329435,1.70333478 12.5741609,1.69681304 12.6152478,1.69003043 C12.6817696,1.67894348 12.7482913,1.66798696 12.8152043,1.65794348 C12.8545957,1.65207391 12.8942478,1.64685652 12.9337696,1.64124783 C13.0030304,1.63159565 13.0722913,1.62181304 13.1419435,1.61294348 C13.1771609,1.60863913 13.2125087,1.60498696 13.2478565,1.60094348 C13.3219435,1.59220435 13.3960304,1.58359565 13.4703783,1.57603043 C13.4981609,1.57342174 13.5260739,1.57120435 13.5538565,1.56859565 C13.6361609,1.56103043 13.7184652,1.55333478 13.8011609,1.54707391 C14.1349435,1.52216087 14.471987,1.50911739 14.8120304,1.50911739 C17.423987,1.50911739 19.9557261,2.2602913 22.1333348,3.68072609 C22.1642478,3.70081304 22.1968565,3.71581304 22.2295957,3.73055217 C22.2461609,3.74346522 22.2606391,3.75833478 22.2786391,3.76994348 C22.741813,4.07124783 23.051987,4.55659565 23.1525522,5.13637826 C23.2683783,5.80603043 23.0980304,6.50137826 22.6844217,7.04463913 C21.9040304,8.06959565 20.3275957,8.05211739 19.3151609,7.44833478 C19.270813,7.42172609 19.2246391,7.40176957 19.1775522,7.38611739 C17.8561174,6.61968261 16.3479,6.2142913 14.8120304,6.2142913 C14.4311609,6.2142913 14.056813,6.24155217 13.6887261,6.28903043 C13.6885957,6.28903043 13.6885957,6.28903043 13.6884652,6.28916087 C12.2261609,6.4782913 10.8770739,7.03068261 9.73381304,7.85372609 C9.72520435,7.85998696 9.71633478,7.86611739 9.70759565,7.87237826 C9.6159,7.9389 9.52576957,8.0075087 9.43681304,8.07755217 C9.4209,8.09007391 9.40498696,8.10233478 9.38920435,8.11498696 C9.30546522,8.18176957 9.22316087,8.24998696 9.1419,8.31976957 C9.12207391,8.33685652 9.10237826,8.35394348 9.08268261,8.3712913 C9.00520435,8.43898696 8.9289,8.50798696 8.8539,8.57842174 C8.83198696,8.5989 8.81033478,8.61976957 8.78868261,8.6405087 C8.71616087,8.7099 8.64468261,8.78033478 8.57476957,8.85207391 C8.55246522,8.8749 8.53068261,8.89824783 8.50863913,8.92146522 C8.4402913,8.99307391 8.37246522,9.06559565 8.30646522,9.13968261 C8.28520435,9.16355217 8.26459565,9.18794348 8.24372609,9.21207391 C8.17811739,9.28733478 8.1129,9.36298696 8.0499,9.44046522 C8.03216087,9.46237826 8.01520435,9.48507391 7.99759565,9.50711739 C7.93276957,9.58837826 7.86833478,9.67003043 7.80637826,9.75363913 C7.80063913,9.76159565 7.79516087,9.76968261 7.7892913,9.77763913 C7.59155217,10.0467261 7.40972609,10.3280739 7.24316087,10.6193348 C7.21955217,10.660813 7.19476957,10.7017696 7.17168261,10.7436391 C7.13542174,10.8095087 7.1015087,10.8766826 7.06707391,10.9434652 C7.03916087,10.9975957 7.01059565,11.0512043 6.98385652,11.1058565 C6.95281304,11.168987 6.92385652,11.2331609 6.89437826,11.2970739 C6.86672609,11.3570739 6.83894348,11.416813 6.81259565,11.4775957 C6.78572609,11.539813 6.7602913,11.602813 6.73472609,11.665813 C6.70876957,11.7298565 6.68294348,11.7940304 6.65842174,11.8587261 C6.63507391,11.9206826 6.6129,11.9830304 6.59085652,12.0456391 C6.56724783,12.1130739 6.54403043,12.1807696 6.52198696,12.248987 C6.50203043,12.3106826 6.48272609,12.3727696 6.46420435,12.434987 C6.44307391,12.5055522 6.42285652,12.5765087 6.40355217,12.647987 C6.38685652,12.7094217 6.37042174,12.770987 6.35516087,12.8330739 C6.3369,12.9067696 6.32007391,12.9811174 6.30363913,13.0555957 C6.29020435,13.1165087 6.27676957,13.1772913 6.26463913,13.2387261 C6.24937826,13.3163348 6.23594348,13.3945957 6.22276957,13.472987 C6.21272609,13.5324652 6.20216087,13.5916826 6.1932913,13.6515522 C6.18103043,13.7345087 6.17124783,13.8182478 6.16133478,13.9018565 C6.15481304,13.9583348 6.14711739,14.0142913 6.14163913,14.0710304 C6.13237826,14.1646826 6.12624783,14.258987 6.11998696,14.3535522 C6.11698696,14.4011609 6.1122913,14.4485087 6.10994348,14.4963783 C6.10303043,14.6390739 6.09898696,14.7826826 6.09898696,14.9270739 C6.09898696,15.0688565 6.10303043,15.2097261 6.10981304,15.3499435 C6.11203043,15.3983348 6.11646522,15.4462043 6.11959565,15.4944652 C6.12546522,15.5853783 6.13159565,15.6764217 6.14033478,15.7666826 C6.14594348,15.8247261 6.15311739,15.8825087 6.1599,15.9402913 C6.16903043,16.0194652 6.17868261,16.0983783 6.19003043,16.1770304 C6.19903043,16.2392478 6.20920435,16.3012043 6.2195087,16.3630304 C6.2315087,16.4355522 6.24442174,16.5079435 6.25824783,16.5796826 C6.27076957,16.6445087 6.28381304,16.7092043 6.29776957,16.7735087 C6.3125087,16.8409435 6.3282913,16.907987 6.34446522,16.9749 C6.3605087,17.0412913 6.37655217,17.1076826 6.39416087,17.1734217 C6.41098696,17.236813 6.4295087,17.2991609 6.44776957,17.3619 C6.46746522,17.4294652 6.48676957,17.4972913 6.50803043,17.5640739 C6.52668261,17.6227696 6.5472913,17.6805522 6.56711739,17.7385957 C6.59072609,17.8075957 6.61342174,17.876987 6.63872609,17.9452043 L6.63872609,17.9453348 C7.86898696,21.2664652 11.0682913,23.639987 14.8120304,23.639987 C16.3479,23.639987 17.8561174,23.2345957 19.1775522,22.4681609 C19.2246391,22.4525087 19.270813,22.4325522 19.3151609,22.4059435 C20.3275957,21.8021609 21.9040304,21.7846826 22.6844217,22.8096391 C23.0980304,23.3529 23.2683783,24.0482478 23.1525522,24.7179 M18.6513783,21.1801174 C18.6052043,21.1953783 18.559813,21.2152043 18.5162478,21.2407696 C17.3980304,21.8984217 16.1170304,22.2460304 14.8120304,22.2460304 C11.7884217,22.2460304 9.18742174,20.402987 8.07285652,17.7812478 C7.8882913,17.3472913 7.74494348,16.891813 7.64659565,16.4200304 C7.64555217,16.414813 7.64411739,16.4097261 7.64307391,16.4045087 C7.6209,16.2966391 7.60185652,16.187987 7.5845087,16.0785522 C7.58255217,16.0666826 7.57994348,16.0550739 7.57811739,16.0432043 C7.56259565,15.9423783 7.55046522,15.8403783 7.53911739,15.7383783 C7.53676957,15.7175087 7.53324783,15.6970304 7.53116087,15.6761609 C7.5215087,15.5809435 7.51524783,15.4849435 7.50911739,15.388813 C7.50742174,15.3603783 7.50416087,15.3323348 7.50272609,15.3039 C7.49633478,15.1790739 7.49307391,15.0534652 7.49307391,14.9270739 C7.49307391,14.8062913 7.49646522,14.6860304 7.50233478,14.5665522 C7.50416087,14.5269 7.50794348,14.4877696 7.51055217,14.4483783 C7.51563913,14.368813 7.52098696,14.2895087 7.52855217,14.2107261 C7.53324783,14.1636391 7.5395087,14.1170739 7.54498696,14.0701174 C7.55320435,13.9996826 7.56155217,13.9292478 7.57185652,13.8594652 C7.57916087,13.8100304 7.58763913,13.760987 7.59585652,13.7119435 C7.60707391,13.6454217 7.61855217,13.5791609 7.63146522,13.5132913 C7.64137826,13.4630739 7.65220435,13.4132478 7.66303043,13.3634217 C7.67698696,13.2996391 7.69146522,13.2361174 7.70711739,13.1728565 C7.7195087,13.1226391 7.73255217,13.0724217 7.74598696,13.0224652 C7.76268261,12.9609 7.78016087,12.8997261 7.7982913,12.838813 C7.8132913,12.7887261 7.82842174,12.7386391 7.84446522,12.6889435 C7.86376957,12.6290739 7.88411739,12.5698565 7.90485652,12.5107696 C7.92220435,12.4613348 7.93942174,12.4119 7.95781304,12.362987 C7.97972609,12.3045522 8.00307391,12.2469 8.02642174,12.1892478 C8.04611739,12.1408565 8.06516087,12.0922043 8.08576957,12.0443348 C8.11042174,11.9870739 8.13663913,11.930987 8.16272609,11.8743783 C8.18437826,11.8274217 8.20524783,11.7800739 8.22794348,11.7335087 C8.25585652,11.6763783 8.28572609,11.6201609 8.31494348,11.563813 C8.34298696,11.5099435 8.3705087,11.4560739 8.39985652,11.402987 C8.44694348,11.3176826 8.49520435,11.2330304 8.54568261,11.149813 C8.57724783,11.0976391 8.61076957,11.0467696 8.64363913,10.9955087 C8.67116087,10.9525957 8.6979,10.9091609 8.72620435,10.8667696 C8.7612913,10.8143348 8.79820435,10.7632043 8.83459565,10.7116826 C8.8625087,10.6720304 8.89016087,10.6322478 8.91885652,10.5932478 C8.95707391,10.5413348 8.99672609,10.4908565 9.03611739,10.439987 C9.06494348,10.4030739 9.09363913,10.3660304 9.12311739,10.3295087 C9.16446522,10.2783783 9.20685652,10.2282913 9.24963913,10.1783348 C9.27885652,10.1442913 9.30807391,10.1102478 9.33781304,10.0765957 C9.38268261,10.0261174 9.42820435,9.9762913 9.47437826,9.92711739 C9.50346522,9.89607391 9.53294348,9.8652913 9.56255217,9.83476957 C9.61094348,9.78481304 9.65998696,9.7355087 9.70968261,9.68711739 C9.73824783,9.65933478 9.76720435,9.63194348 9.79616087,9.60468261 C9.84885652,9.55511739 9.90181304,9.50581304 9.95594348,9.45781304 C9.9822913,9.43433478 10.0090304,9.4115087 10.0357696,9.38855217 C10.0939435,9.33833478 10.1523783,9.28837826 10.2121174,9.23998696 C10.2333783,9.22276957 10.2550304,9.20633478 10.2764217,9.18937826 C10.3429435,9.13681304 10.4098565,9.08437826 10.4782043,9.03403043 C10.4840739,9.02959565 10.4903348,9.02542174 10.4963348,9.02098696 C10.8333783,8.77433478 11.1920739,8.55546522 11.5692913,8.3682913 C11.5737261,8.36607391 11.5780304,8.36372609 11.5823348,8.36163913 C11.6668565,8.31976957 11.7525522,8.28037826 11.8387696,8.2419 C11.854813,8.23472609 11.8704652,8.2272913 11.8865087,8.22024783 C11.9684217,8.18437826 12.0515087,8.15046522 12.134987,8.11746522 C12.1555957,8.10937826 12.1762043,8.10103043 12.1969435,8.09307391 C12.2788565,8.06163913 12.3616826,8.0319 12.4449,8.00333478 C12.4675957,7.9955087 12.4901609,7.98781304 12.512987,7.98024783 C12.5962043,7.95272609 12.6800739,7.9265087 12.7644652,7.90185652 C12.7874217,7.89507391 12.8103783,7.88881304 12.8333348,7.8822913 C12.9190304,7.85816087 13.0053783,7.83520435 13.0923783,7.81420435 C13.1132478,7.80924783 13.1342478,7.80455217 13.1552478,7.79972609 C13.2453783,7.77872609 13.3360304,7.7589 13.4273348,7.74142174 C13.4427261,7.73842174 13.4581174,7.73607391 13.4733783,7.73307391 C13.5712043,7.71507391 13.6695522,7.69811739 13.768813,7.68376957 C14.1097696,7.63498696 14.4577696,7.60824783 14.8120304,7.60824783 C16.1170304,7.60824783 17.3980304,7.95585652 18.5162478,8.6135087 C18.559813,8.63907391 18.6052043,8.6589 18.6513783,8.67416087 C20.2122913,9.57468261 22.5440739,9.53020435 23.7936391,7.88907391 C24.4411174,7.0385087 24.7081174,5.94859565 24.5261609,4.89846522 C24.3586826,3.93246522 23.8306826,3.11672609 23.0390739,2.60137826 C23.0062043,2.57998696 22.9720304,2.56263913 22.9373348,2.54724783 C22.9227261,2.53616087 22.9104652,2.52337826 22.8949435,2.51333478 C20.4903783,0.944465217 17.6952913,0.11516087 14.8120304,0.11516087 C14.4215087,0.11516087 14.0347696,0.130552174 13.651813,0.160421739 C13.5370304,0.169291304 13.4226391,0.179465217 13.3086391,0.190943478 C13.2516391,0.196813043 13.1949,0.203986957 13.1381609,0.210247826 C13.0738565,0.217552174 13.0095522,0.224334783 12.9456391,0.232291304 C12.8862913,0.239856522 12.8274652,0.248595652 12.7683783,0.256813043 C12.7073348,0.26516087 12.6462913,0.273247826 12.5855087,0.282378261 C12.5259,0.291378261 12.4665522,0.301682609 12.4070739,0.311465217 C12.3473348,0.321247826 12.2874652,0.33063913 12.227987,0.341073913 C12.1683783,0.35163913 12.1090304,0.363247826 12.0496826,0.374465217 C11.990987,0.385682609 11.9320304,0.396508696 11.8734652,0.408378261 C11.8142478,0.420378261 11.7554217,0.43316087 11.6964652,0.445943478 C11.6381609,0.458465217 11.5797261,0.470726087 11.5216826,0.484030435 C11.462987,0.497465217 11.4045522,0.511552174 11.3461174,0.52563913 C11.2884652,0.539595652 11.2306826,0.553291304 11.1732913,0.568030435 C11.114987,0.582769565 11.0569435,0.59816087 10.9989,0.613682609 C10.9417696,0.628813043 10.8847696,0.644204348 10.8279,0.660117391 C10.7702478,0.67616087 10.7128565,0.692856522 10.6554652,0.709682609 C10.5988565,0.726247826 10.5422478,0.742943478 10.4859,0.76016087 C10.4286391,0.777769565 10.3717696,0.795769565 10.3149,0.813769565 C10.2589435,0.831769565 10.2031174,0.8499 10.1472913,0.868291304 C10.090813,0.887204348 10.0344652,0.906247826 9.97837826,0.925813043 C9.92281304,0.944986957 9.86737826,0.964552174 9.81220435,0.984378261 C9.75624783,1.00446522 9.70055217,1.02494348 9.64498696,1.04568261 C9.59020435,1.06616087 9.53555217,1.08703043 9.48103043,1.10803043 C9.42572609,1.12942174 9.37055217,1.15094348 9.31563913,1.17298696 C9.26124783,1.1949 9.20711739,1.21720435 9.15298696,1.23963913 C9.09859565,1.26220435 9.04433478,1.2849 8.99020435,1.30798696 C8.93633478,1.33120435 8.88285652,1.35494348 8.82911739,1.37855217 C8.7755087,1.40242174 8.72176957,1.4262913 8.66842174,1.45055217 C8.61494348,1.47520435 8.56185652,1.50024783 8.50863913,1.5252913 C8.45620435,1.55020435 8.4035087,1.57485652 8.35133478,1.6002913 C8.29811739,1.62624783 8.24542174,1.65272609 8.19259565,1.67920435 C8.14081304,1.70516087 8.0889,1.73111739 8.0375087,1.75759565 C7.98481304,1.78485652 7.93263913,1.8129 7.88046522,1.84055217 C7.82972609,1.86742174 7.77885652,1.8942913 7.72863913,1.92168261 C7.67542174,1.95076957 7.62285652,1.98076957 7.57016087,2.01037826 C7.52137826,2.03776957 7.47246522,2.0649 7.42407391,2.09281304 C7.37007391,2.12398696 7.31685652,2.15607391 7.26337826,2.18803043 C7.21668261,2.21568261 7.16985652,2.24281304 7.12355217,2.27111739 C7.0662913,2.30607391 7.00981304,2.34194348 6.95307391,2.37768261 C6.91146522,2.4039 6.86933478,2.42946522 6.82798696,2.45607391 C6.73146522,2.51803043 6.63585652,2.58103043 6.54103043,2.64507391 C6.50398696,2.67011739 6.46772609,2.69594348 6.43107391,2.72111739 C6.37224783,2.76181304 6.31303043,2.80211739 6.25472609,2.84359565 C6.21207391,2.87385652 6.16994348,2.9052913 6.12755217,2.93607391 C6.07616087,2.97337826 6.0245087,3.01042174 5.9735087,3.04837826 C5.92968261,3.08098696 5.8865087,3.11463913 5.84307391,3.14776957 C5.7942913,3.18494348 5.74537826,3.22185652 5.69711739,3.25968261 C5.65355217,3.29385652 5.61063913,3.32868261 5.56746522,3.36324783 C5.52011739,3.40120435 5.47263913,3.4389 5.42581304,3.47737826 C5.38276957,3.51285652 5.34024783,3.54872609 5.29759565,3.58472609 C5.25142174,3.62333478 5.20524783,3.66207391 5.15959565,3.70133478 C5.11733478,3.73772609 5.07559565,3.77476957 5.03385652,3.81155217 C4.98859565,3.85133478 4.94333478,3.89111739 4.89872609,3.93142174 C4.85724783,3.96885652 4.8162913,4.00668261 4.77533478,4.0445087 C4.73124783,4.08520435 4.68716087,4.12603043 4.64346522,4.16724783 C4.60276957,4.20572609 4.56246522,4.24472609 4.52203043,4.28372609 C4.47911739,4.32520435 4.43633478,4.36694348 4.39394348,4.40894348 C4.35403043,4.44846522 4.3145087,4.48824783 4.27498696,4.5282913 C4.23298696,4.57081304 4.19124783,4.61346522 4.14976957,4.6565087 C4.1109,4.69694348 4.0722913,4.73737826 4.03394348,4.77820435 C3.99259565,4.82203043 3.95163913,4.86598696 3.91094348,4.91033478 C3.87337826,4.95116087 3.83594348,4.99237826 3.79876957,5.03359565 C3.75833478,5.07859565 3.7182913,5.12372609 3.67837826,5.16924783 C3.64172609,5.21098696 3.60533478,5.25285652 3.56907391,5.29498696 C3.52981304,5.34076957 3.49094348,5.38694348 3.45207391,5.43324783 C3.41646522,5.4759 3.38085652,5.51855217 3.34563913,5.56159565 C3.3072913,5.60855217 3.26933478,5.65576957 3.23137826,5.70324783 C3.19707391,5.74642174 3.1625087,5.78959565 3.12859565,5.83316087 C3.0909,5.88142174 3.05385652,5.93020435 3.01668261,5.97885652 C2.98368261,6.02242174 2.95042174,6.06585652 2.91781304,6.10981304 C2.88076957,6.15976957 2.84424783,6.21011739 2.80772609,6.26059565 C2.77616087,6.30416087 2.74459565,6.34746522 2.71355217,6.3912913 C2.67676957,6.44333478 2.64076957,6.49576957 2.60476957,6.54807391 C2.5749,6.59137826 2.5449,6.63442174 2.51555217,6.67798696 C2.4792913,6.73185652 2.44381304,6.78637826 2.40820435,6.8409 C2.38016087,6.88381304 2.35159565,6.92659565 2.32394348,6.9699 C2.28742174,7.0269 2.25194348,7.08481304 2.21620435,7.14233478 C2.19063913,7.18355217 2.16468261,7.22437826 2.13937826,7.26585652 C2.09946522,7.33172609 2.06059565,7.3985087 2.02159565,7.46516087 C2.00176957,7.49881304 1.98142174,7.53233478 1.96185652,7.56637826 C1.90394348,7.66707391 1.84707391,7.76855217 1.7915087,7.87055217 C1.7799,7.89194348 1.76894348,7.91372609 1.75733478,7.93524783 C1.71363913,8.0165087 1.67007391,8.09803043 1.62794348,8.18020435 C1.60785652,8.21933478 1.58868261,8.25872609 1.56885652,8.29798696 C1.53598696,8.36346522 1.50311739,8.42868261 1.47103043,8.49468261 C1.45003043,8.53824783 1.42968261,8.58246522 1.40907391,8.6262913 C1.37985652,8.68824783 1.35037826,8.75020435 1.32194348,8.81268261 C1.30068261,8.85937826 1.28033478,8.90646522 1.25946522,8.95355217 C1.23272609,9.01394348 1.20585652,9.07420435 1.1799,9.13498696 C1.1592913,9.18337826 1.13933478,9.2322913 1.11924783,9.28094348 C1.09446522,9.34094348 1.06955217,9.40081304 1.04555217,9.46107391 C1.02559565,9.51116087 1.00642174,9.5615087 0.986986957,9.61185652 C0.964030435,9.67146522 0.940943478,9.73120435 0.918769565,9.79120435 C0.899856522,9.84220435 0.881465217,9.89359565 0.863073913,9.94472609 C0.841552174,10.0047261 0.82016087,10.0647261 0.799421739,10.1251174 C0.781682609,10.1770304 0.764334783,10.2290739 0.747117391,10.2811174 C0.72716087,10.3413783 0.707334783,10.4019 0.688030435,10.4625522 C0.671465217,10.5152478 0.655291304,10.5682043 0.639117391,10.6210304 C0.620595652,10.681813 0.602334783,10.7425957 0.584595652,10.8037696 C0.569204348,10.856987 0.554204348,10.9103348 0.539204348,10.963813 C0.522117391,11.0251174 0.505421739,11.086813 0.489117391,11.1486391 C0.475030435,11.2021174 0.461204348,11.2558565 0.44763913,11.3095957 C0.431986957,11.3719435 0.416726087,11.4341609 0.401856522,11.4969 C0.388943478,11.5509 0.376291304,11.6049 0.364030435,11.6591609 C0.349813043,11.7219 0.336247826,11.7849 0.322813043,11.8477696 C0.311334783,11.9022913 0.299726087,11.956813 0.288769565,12.0114652 C0.276117391,12.074987 0.263986957,12.1389 0.252117391,12.2026826 C0.241943478,12.2573348 0.23163913,12.311987 0.222117391,12.3669 C0.210769565,12.4313348 0.200334783,12.4960304 0.1899,12.5607261 C0.181030435,12.6153783 0.172030435,12.6700304 0.163943478,12.7249435 C0.154030435,12.7905522 0.14516087,12.8564217 0.13616087,12.9222913 C0.128726087,12.9766826 0.12116087,13.0309435 0.114378261,13.0855957 C0.106030435,13.1530304 0.0985956522,13.2205957 0.0911608696,13.2882913 C0.0851608696,13.3417696 0.0789,13.3951174 0.0735521739,13.4488565 C0.0666391304,13.5189 0.0607695652,13.5890739 0.0547695652,13.6592478 C0.0504652174,13.7111609 0.0455086957,13.7629435 0.0415956522,13.8148565 C0.0361173913,13.888813 0.0319434783,13.9629 0.0275086957,14.036987 C0.0246391304,14.0857696 0.0211173913,14.1342913 0.0186391304,14.1832043 C0.0144652174,14.2656391 0.0119869565,14.3484652 0.0091173913,14.4312913 C0.00781304348,14.4722478 0.00572608696,14.5130739 0.0046826087,14.5541609 C0.0016826087,14.6780739 -1.30434783e-05,14.8023783 -1.30434783e-05,14.9270739 C-1.30434783e-05,15.0641609 0.00220434783,15.2007261 0.00585652174,15.3369 C0.00716086957,15.3800739 0.00924782609,15.4231174 0.0108130435,15.4662913 C0.0142043478,15.5596826 0.0178565217,15.6529435 0.0229434783,15.7459435 C0.0256826087,15.7952478 0.0292043478,15.8444217 0.0323347826,15.8935957 C0.038073913,15.980987 0.044073913,16.0681174 0.0512478261,16.1551174 C0.0552913043,16.2042913 0.0598565217,16.2534652 0.0644217391,16.3026391 C0.0725086957,16.3904217 0.0813782609,16.4780739 0.0910304348,16.5654652 C0.0962478261,16.6119 0.101465217,16.6584652 0.107073913,16.7047696 C0.11816087,16.796987 0.130291304,16.8889435 0.143073913,16.9806391 C0.148682609,17.0210739 0.15416087,17.0617696 0.16016087,17.1022043 C0.175421739,17.2059 0.192117391,17.3090739 0.209595652,17.411987 C0.214291304,17.4399 0.218595652,17.4679435 0.223421739,17.4957261 C0.2709,17.7655957 0.325421739,18.0331174 0.387247826,18.2979 L0.387247826,18.2980304 C1.91724783,24.8466391 7.8039,29.7391174 14.8120304,29.7391174 C17.6952913,29.7391174 20.4903783,28.909813 22.8949435,27.3409435 C22.9104652,27.3309 22.9227261,27.3181174 22.9373348,27.3070304 C22.9720304,27.2916391 23.0062043,27.2742913 23.0390739,27.2529 C23.8306826,26.7375522 24.3586826,25.921813 24.5261609,24.955813 C24.7081174,23.9056826 24.4411174,22.8157696 23.7936391,21.9652043 C22.5440739,20.3240739 20.2122913,20.2795957 18.6513783,21.1801174" id="Fill-6"></path>
                        </g>
                    </g>
                    <g id="Page-1">
                        <g id="Group-3" transform="translate(2.869565, 2.884826)" stroke="#4BA2F2" stroke-width="0.5" fill="#4BA2F2">
                            <path d="M12.0300652,23.9942739 C5.44819565,23.9942739 0.093326087,18.6394043 0.093326087,12.0575348 C0.093326087,5.47566522 5.44819565,0.120926087 12.0300652,0.120926087 C15.1033696,0.120926087 18.0222391,1.2861 20.2495435,3.40162174 C20.5286739,3.66679565 20.5400217,4.10805652 20.2747174,4.38705652 C20.0099348,4.66618696 19.5689348,4.67766522 19.2892826,4.4124913 C17.3223261,2.54401304 14.744413,1.51488261 12.0300652,1.51488261 C6.21697826,1.51488261 1.48741304,6.24444783 1.48741304,12.0575348 C1.48741304,17.8707522 6.21697826,22.600187 12.0300652,22.600187 C14.9151522,22.600187 17.6079783,21.4573174 19.6127609,19.3822304 C21.3592826,17.5745348 22.3877609,15.243013 22.5500217,12.7545783 L12.0300652,12.7545783 C11.6451522,12.7545783 11.3330217,12.4425783 11.3330217,12.0575348 C11.3330217,11.6726217 11.6451522,11.3606217 12.0300652,11.3606217 L23.9668043,11.3606217 L23.9668043,12.0575348 C23.9668043,15.1687957 22.7767174,18.1141435 20.615413,20.3508391 C18.3453261,22.7002304 15.296413,23.9942739 12.0300652,23.9942739" id="Fill-1"></path>
                        </g>
                        <path d="M14.8119913,18.1662 C16.5924261,18.1662 18.0358174,16.7228087 18.0358174,14.9423739 C18.0358174,13.1620696 16.5924261,11.7185478 14.8119913,11.7185478 C13.0315565,11.7185478 11.5881652,13.1620696 11.5881652,14.9423739 C11.5881652,16.7228087 13.0315565,18.1662 14.8119913,18.1662" id="Fill-4" fill="#4BA2F2"></path>
                        <g id="Group-8" transform="translate(0.000000, 0.015261)" fill="#1A5099">
                            <path d="M23.1525522,24.7179 C23.051987,25.2976826 22.741813,25.7830304 22.2786391,26.0843348 C22.2606391,26.0959435 22.2461609,26.110813 22.2295957,26.1237261 C22.1968565,26.1384652 22.1642478,26.1534652 22.1333348,26.1735522 C19.9557261,27.593987 17.423987,28.3451609 14.8120304,28.3451609 C8.56355217,28.3451609 3.29920435,24.0519 1.8132913,18.2603348 C1.78172609,18.1375957 1.75237826,18.0139435 1.72433478,17.8896391 C1.71716087,17.8582043 1.7105087,17.8265087 1.70359565,17.7949435 C1.68285652,17.7001174 1.66316087,17.6051609 1.64437826,17.5095522 C1.63720435,17.4729 1.63016087,17.4362478 1.62324783,17.3995957 C1.60511739,17.3022913 1.58816087,17.2047261 1.57211739,17.1069 C1.56703043,17.0762478 1.56168261,17.0457261 1.55685652,17.0149435 C1.5365087,16.8856826 1.51772609,16.7559 1.50116087,16.6254652 C1.50103043,16.6249435 1.50103043,16.6244217 1.5009,16.6240304 C1.48485652,16.4973783 1.47103043,16.369813 1.45863913,16.2421174 C1.45485652,16.2037696 1.45172609,16.1652913 1.44833478,16.126813 C1.44011739,16.0351174 1.43268261,15.9432913 1.42642174,15.8510739 C1.42342174,15.8067261 1.42055217,15.7622478 1.41794348,15.7177696 C1.41259565,15.6263348 1.40842174,15.5346391 1.4049,15.4426826 C1.40333478,15.401987 1.4015087,15.3615522 1.40020435,15.3208565 C1.39655217,15.1900304 1.39407391,15.058813 1.39407391,14.9270739 C1.39407391,14.813987 1.3955087,14.7012913 1.39837826,14.5888565 C1.3992913,14.551813 1.40111739,14.5149 1.40242174,14.477987 C1.4049,14.402987 1.40724783,14.327987 1.4109,14.2532478 C1.41324783,14.2083783 1.41637826,14.1637696 1.41911739,14.1190304 C1.42303043,14.0522478 1.42694348,13.9855957 1.4319,13.9189435 C1.4352913,13.8718565 1.43985652,13.8247696 1.44376957,13.777813 C1.44924783,13.7142913 1.45446522,13.6505087 1.46072609,13.5873783 C1.46568261,13.5384652 1.47142174,13.4899435 1.47676957,13.4412913 C1.48355217,13.3801174 1.49020435,13.3189435 1.49776957,13.2581609 C1.5039,13.2085957 1.51094348,13.1591609 1.51759565,13.1097261 C1.52568261,13.049987 1.53376957,12.9903783 1.54276957,12.9309 C1.55020435,12.8813348 1.5582913,12.8319 1.56624783,12.7823348 C1.57576957,12.7236391 1.58516087,12.6650739 1.59546522,12.6065087 C1.60420435,12.5565522 1.61359565,12.5068565 1.62285652,12.4570304 C1.63355217,12.3995087 1.64437826,12.341987 1.65585652,12.2848565 C1.6659,12.2350304 1.67633478,12.1854652 1.6869,12.1357696 C1.69903043,12.0789 1.7112913,12.0219 1.72420435,11.9651609 C1.7352913,11.9158565 1.7469,11.8666826 1.7585087,11.8176391 C1.77207391,11.7611609 1.78576957,11.704813 1.79985652,11.6488565 C1.81224783,11.5996826 1.8249,11.5506391 1.83781304,11.5018565 C1.85255217,11.4461609 1.86755217,11.3907261 1.88294348,11.3354217 C1.8965087,11.2865087 1.91033478,11.2377261 1.92442174,11.1890739 C1.94046522,11.1341609 1.95676957,11.0795087 1.97333478,11.024987 C1.98820435,10.9765957 2.00307391,10.9282043 2.01833478,10.8799435 C2.03555217,10.8255522 2.05342174,10.7712913 2.0712913,10.7171609 C2.08720435,10.6692913 2.10298696,10.6215522 2.11942174,10.5739435 C2.13781304,10.5202043 2.15698696,10.4667261 2.17603043,10.4132478 C2.19311739,10.3657696 2.21007391,10.3182913 2.22768261,10.2709435 C2.2475087,10.2177261 2.26785652,10.1647696 2.28833478,10.111813 C2.30620435,10.0651174 2.32407391,10.0185522 2.34259565,9.97224783 C2.36385652,9.9189 2.38576957,9.86607391 2.40768261,9.81298696 C2.42659565,9.76746522 2.44524783,9.72155217 2.46468261,9.6762913 C2.48724783,9.62333478 2.51059565,9.5709 2.53381304,9.51833478 C2.55363913,9.47359565 2.57320435,9.42872609 2.59342174,9.38411739 C2.61755217,9.33103043 2.64272609,9.27833478 2.66763913,9.2255087 C2.68798696,9.18220435 2.70807391,9.13876957 2.72881304,9.09572609 C2.7549,9.04198696 2.7819,8.98876957 2.80863913,8.93542174 C2.82937826,8.89394348 2.84985652,8.85207391 2.87098696,8.81098696 C2.90033478,8.75385652 2.93059565,8.6975087 2.96072609,8.64103043 C2.98042174,8.60411739 2.99946522,8.56694348 3.01942174,8.5302913 C3.06716087,8.44263913 3.11594348,8.35563913 3.16563913,8.2692913 C3.1865087,8.23276957 3.20803043,8.19703043 3.22916087,8.16076957 C3.26385652,8.10181304 3.2982913,8.04272609 3.33376957,7.9842913 C3.35816087,7.94398696 3.38346522,7.90446522 3.40824783,7.86442174 C3.43903043,7.81485652 3.46955217,7.7652913 3.50085652,7.71624783 C3.52798696,7.67372609 3.55603043,7.63185652 3.58368261,7.58972609 C3.61381304,7.54381304 3.64355217,7.49776957 3.67420435,7.45237826 C3.70303043,7.40959565 3.7325087,7.36733478 3.76185652,7.32494348 C3.79224783,7.28072609 3.8225087,7.23663913 3.85342174,7.19294348 C3.88381304,7.15003043 3.91485652,7.10763913 3.94563913,7.06511739 C3.97642174,7.02259565 4.00720435,6.98007391 4.0385087,6.93807391 C4.07020435,6.89516087 4.10268261,6.8529 4.1349,6.81063913 C4.16620435,6.76955217 4.1975087,6.72833478 4.22920435,6.68776957 C4.26233478,6.64524783 4.29598696,6.60324783 4.3295087,6.56124783 C4.36146522,6.52133478 4.39342174,6.48142174 4.42576957,6.4419 C4.45981304,6.40003043 4.4945087,6.35881304 4.52907391,6.31759565 C4.56194348,6.27846522 4.59494348,6.23920435 4.62807391,6.20046522 C4.6632913,6.1595087 4.69876957,6.11881304 4.73437826,6.07837826 C4.76803043,6.0402913 4.80168261,6.00220435 4.83559565,5.96437826 C4.87185652,5.92407391 4.9085087,5.8839 4.94516087,5.84411739 C4.97946522,5.80694348 5.0139,5.7699 5.04859565,5.73311739 C5.0859,5.69346522 5.12359565,5.65394348 5.16155217,5.61468261 C5.19624783,5.57868261 5.23120435,5.54294348 5.26642174,5.50733478 C5.30503043,5.46820435 5.3439,5.42920435 5.38303043,5.39046522 C5.41824783,5.35576957 5.45372609,5.32107391 5.48933478,5.28663913 C5.52924783,5.24803043 5.5692913,5.20955217 5.60972609,5.17146522 C5.64533478,5.13781304 5.68120435,5.10455217 5.71707391,5.07142174 C5.7582913,5.03346522 5.79937826,4.9955087 5.84111739,4.95807391 C5.87711739,4.92546522 5.91363913,4.89337826 5.95003043,4.8612913 C5.99242174,4.82385652 6.03481304,4.78655217 6.07772609,4.74976957 C6.11385652,4.71872609 6.15037826,4.68807391 6.1869,4.6572913 C6.23085652,4.6205087 6.27468261,4.58346522 6.31903043,4.54707391 C6.35516087,4.51746522 6.39168261,4.48837826 6.42820435,4.45916087 C6.47372609,4.42263913 6.51911739,4.38598696 6.56516087,4.35011739 C6.60076957,4.32220435 6.6369,4.29494348 6.6729,4.26742174 C6.72037826,4.23103043 6.76772609,4.1945087 6.81572609,4.15876957 C6.8502913,4.13320435 6.88511739,4.10816087 6.91981304,4.08285652 C6.97016087,4.04620435 7.02024783,4.00916087 7.07111739,3.97316087 C7.10216087,3.95111739 7.13372609,3.92972609 7.16516087,3.90794348 C7.22020435,3.86959565 7.27511739,3.83111739 7.33081304,3.79355217 C7.35181304,3.77946522 7.37320435,3.76576957 7.39433478,3.75168261 C7.61555217,3.60442174 7.84133478,3.46342174 8.07142174,3.32920435 C8.08824783,3.3192913 8.10481304,3.30911739 8.12176957,3.29933478 C8.18346522,3.26372609 8.24607391,3.22903043 8.30842174,3.19433478 C8.33816087,3.17776957 8.36763913,3.16081304 8.3975087,3.1445087 C8.45620435,3.1122913 8.51555217,3.08124783 8.57476957,3.05007391 C8.60894348,3.03207391 8.64298696,3.01368261 8.6772913,2.99594348 C8.73468261,2.96620435 8.79272609,2.93763913 8.85063913,2.90868261 C8.88742174,2.8902913 8.92407391,2.87176957 8.96098696,2.85376957 C9.01798696,2.82598696 9.0755087,2.79911739 9.13303043,2.77211739 C9.17137826,2.75411739 9.20959565,2.73598696 9.24820435,2.71824783 C9.30520435,2.6922913 9.36259565,2.66685652 9.41998696,2.64155217 C9.45963913,2.62407391 9.49942174,2.60646522 9.53933478,2.58937826 C9.59659565,2.56472609 9.65411739,2.54098696 9.7119,2.51711739 C9.75233478,2.50042174 9.79276957,2.48372609 9.83346522,2.4672913 C9.89098696,2.44420435 9.9489,2.42176957 10.0069435,2.39959565 C10.0484217,2.38355217 10.0900304,2.3675087 10.1317696,2.35185652 C10.1895522,2.33033478 10.2477261,2.30933478 10.3060304,2.28846522 C10.3481609,2.27346522 10.3901609,2.25846522 10.4324217,2.24385652 C10.4911174,2.2235087 10.5500739,2.20368261 10.6091609,2.18411739 C10.6514217,2.17016087 10.693813,2.15633478 10.7363348,2.14276957 C10.795813,2.12372609 10.8554217,2.10520435 10.9152913,2.08694348 C10.9579435,2.0739 11.0005957,2.06137826 11.0433783,2.04872609 C11.1036391,2.03098696 11.1640304,2.01376957 11.2246826,1.99694348 C11.2674652,1.98507391 11.3102478,1.97359565 11.3531609,1.96211739 C11.4142043,1.94568261 11.4755087,1.92963913 11.5370739,1.91424783 C11.5798565,1.90342174 11.6227696,1.89311739 11.665813,1.88268261 C11.7277696,1.86768261 11.7898565,1.85294348 11.8522043,1.83885652 C11.8948565,1.82920435 11.9379,1.81994348 11.9806826,1.81081304 C12.043813,1.79711739 12.1070739,1.78368261 12.1707261,1.7709 C12.2125957,1.76255217 12.2548565,1.75459565 12.296987,1.74663913 C12.361813,1.73424783 12.4267696,1.72185652 12.4918565,1.7105087 C12.5329435,1.70333478 12.5741609,1.69681304 12.6152478,1.69003043 C12.6817696,1.67894348 12.7482913,1.66798696 12.8152043,1.65794348 C12.8545957,1.65207391 12.8942478,1.64685652 12.9337696,1.64124783 C13.0030304,1.63159565 13.0722913,1.62181304 13.1419435,1.61294348 C13.1771609,1.60863913 13.2125087,1.60498696 13.2478565,1.60094348 C13.3219435,1.59220435 13.3960304,1.58359565 13.4703783,1.57603043 C13.4981609,1.57342174 13.5260739,1.57120435 13.5538565,1.56859565 C13.6361609,1.56103043 13.7184652,1.55333478 13.8011609,1.54707391 C14.1349435,1.52216087 14.471987,1.50911739 14.8120304,1.50911739 C17.423987,1.50911739 19.9557261,2.2602913 22.1333348,3.68072609 C22.1642478,3.70081304 22.1968565,3.71581304 22.2295957,3.73055217 C22.2461609,3.74346522 22.2606391,3.75833478 22.2786391,3.76994348 C22.741813,4.07124783 23.051987,4.55659565 23.1525522,5.13637826 C23.2683783,5.80603043 23.0980304,6.50137826 22.6844217,7.04463913 C21.9040304,8.06959565 20.3275957,8.05211739 19.3151609,7.44833478 C19.270813,7.42172609 19.2246391,7.40176957 19.1775522,7.38611739 C17.8561174,6.61968261 16.3479,6.2142913 14.8120304,6.2142913 C14.4311609,6.2142913 14.056813,6.24155217 13.6887261,6.28903043 C13.6885957,6.28903043 13.6885957,6.28903043 13.6884652,6.28916087 C12.2261609,6.4782913 10.8770739,7.03068261 9.73381304,7.85372609 C9.72520435,7.85998696 9.71633478,7.86611739 9.70759565,7.87237826 C9.6159,7.9389 9.52576957,8.0075087 9.43681304,8.07755217 C9.4209,8.09007391 9.40498696,8.10233478 9.38920435,8.11498696 C9.30546522,8.18176957 9.22316087,8.24998696 9.1419,8.31976957 C9.12207391,8.33685652 9.10237826,8.35394348 9.08268261,8.3712913 C9.00520435,8.43898696 8.9289,8.50798696 8.8539,8.57842174 C8.83198696,8.5989 8.81033478,8.61976957 8.78868261,8.6405087 C8.71616087,8.7099 8.64468261,8.78033478 8.57476957,8.85207391 C8.55246522,8.8749 8.53068261,8.89824783 8.50863913,8.92146522 C8.4402913,8.99307391 8.37246522,9.06559565 8.30646522,9.13968261 C8.28520435,9.16355217 8.26459565,9.18794348 8.24372609,9.21207391 C8.17811739,9.28733478 8.1129,9.36298696 8.0499,9.44046522 C8.03216087,9.46237826 8.01520435,9.48507391 7.99759565,9.50711739 C7.93276957,9.58837826 7.86833478,9.67003043 7.80637826,9.75363913 C7.80063913,9.76159565 7.79516087,9.76968261 7.7892913,9.77763913 C7.59155217,10.0467261 7.40972609,10.3280739 7.24316087,10.6193348 C7.21955217,10.660813 7.19476957,10.7017696 7.17168261,10.7436391 C7.13542174,10.8095087 7.1015087,10.8766826 7.06707391,10.9434652 C7.03916087,10.9975957 7.01059565,11.0512043 6.98385652,11.1058565 C6.95281304,11.168987 6.92385652,11.2331609 6.89437826,11.2970739 C6.86672609,11.3570739 6.83894348,11.416813 6.81259565,11.4775957 C6.78572609,11.539813 6.7602913,11.602813 6.73472609,11.665813 C6.70876957,11.7298565 6.68294348,11.7940304 6.65842174,11.8587261 C6.63507391,11.9206826 6.6129,11.9830304 6.59085652,12.0456391 C6.56724783,12.1130739 6.54403043,12.1807696 6.52198696,12.248987 C6.50203043,12.3106826 6.48272609,12.3727696 6.46420435,12.434987 C6.44307391,12.5055522 6.42285652,12.5765087 6.40355217,12.647987 C6.38685652,12.7094217 6.37042174,12.770987 6.35516087,12.8330739 C6.3369,12.9067696 6.32007391,12.9811174 6.30363913,13.0555957 C6.29020435,13.1165087 6.27676957,13.1772913 6.26463913,13.2387261 C6.24937826,13.3163348 6.23594348,13.3945957 6.22276957,13.472987 C6.21272609,13.5324652 6.20216087,13.5916826 6.1932913,13.6515522 C6.18103043,13.7345087 6.17124783,13.8182478 6.16133478,13.9018565 C6.15481304,13.9583348 6.14711739,14.0142913 6.14163913,14.0710304 C6.13237826,14.1646826 6.12624783,14.258987 6.11998696,14.3535522 C6.11698696,14.4011609 6.1122913,14.4485087 6.10994348,14.4963783 C6.10303043,14.6390739 6.09898696,14.7826826 6.09898696,14.9270739 C6.09898696,15.0688565 6.10303043,15.2097261 6.10981304,15.3499435 C6.11203043,15.3983348 6.11646522,15.4462043 6.11959565,15.4944652 C6.12546522,15.5853783 6.13159565,15.6764217 6.14033478,15.7666826 C6.14594348,15.8247261 6.15311739,15.8825087 6.1599,15.9402913 C6.16903043,16.0194652 6.17868261,16.0983783 6.19003043,16.1770304 C6.19903043,16.2392478 6.20920435,16.3012043 6.2195087,16.3630304 C6.2315087,16.4355522 6.24442174,16.5079435 6.25824783,16.5796826 C6.27076957,16.6445087 6.28381304,16.7092043 6.29776957,16.7735087 C6.3125087,16.8409435 6.3282913,16.907987 6.34446522,16.9749 C6.3605087,17.0412913 6.37655217,17.1076826 6.39416087,17.1734217 C6.41098696,17.236813 6.4295087,17.2991609 6.44776957,17.3619 C6.46746522,17.4294652 6.48676957,17.4972913 6.50803043,17.5640739 C6.52668261,17.6227696 6.5472913,17.6805522 6.56711739,17.7385957 C6.59072609,17.8075957 6.61342174,17.876987 6.63872609,17.9452043 L6.63872609,17.9453348 C7.86898696,21.2664652 11.0682913,23.639987 14.8120304,23.639987 C16.3479,23.639987 17.8561174,23.2345957 19.1775522,22.4681609 C19.2246391,22.4525087 19.270813,22.4325522 19.3151609,22.4059435 C20.3275957,21.8021609 21.9040304,21.7846826 22.6844217,22.8096391 C23.0980304,23.3529 23.2683783,24.0482478 23.1525522,24.7179 M18.6513783,21.1801174 C18.6052043,21.1953783 18.559813,21.2152043 18.5162478,21.2407696 C17.3980304,21.8984217 16.1170304,22.2460304 14.8120304,22.2460304 C11.7884217,22.2460304 9.18742174,20.402987 8.07285652,17.7812478 C7.8882913,17.3472913 7.74494348,16.891813 7.64659565,16.4200304 C7.64555217,16.414813 7.64411739,16.4097261 7.64307391,16.4045087 C7.6209,16.2966391 7.60185652,16.187987 7.5845087,16.0785522 C7.58255217,16.0666826 7.57994348,16.0550739 7.57811739,16.0432043 C7.56259565,15.9423783 7.55046522,15.8403783 7.53911739,15.7383783 C7.53676957,15.7175087 7.53324783,15.6970304 7.53116087,15.6761609 C7.5215087,15.5809435 7.51524783,15.4849435 7.50911739,15.388813 C7.50742174,15.3603783 7.50416087,15.3323348 7.50272609,15.3039 C7.49633478,15.1790739 7.49307391,15.0534652 7.49307391,14.9270739 C7.49307391,14.8062913 7.49646522,14.6860304 7.50233478,14.5665522 C7.50416087,14.5269 7.50794348,14.4877696 7.51055217,14.4483783 C7.51563913,14.368813 7.52098696,14.2895087 7.52855217,14.2107261 C7.53324783,14.1636391 7.5395087,14.1170739 7.54498696,14.0701174 C7.55320435,13.9996826 7.56155217,13.9292478 7.57185652,13.8594652 C7.57916087,13.8100304 7.58763913,13.760987 7.59585652,13.7119435 C7.60707391,13.6454217 7.61855217,13.5791609 7.63146522,13.5132913 C7.64137826,13.4630739 7.65220435,13.4132478 7.66303043,13.3634217 C7.67698696,13.2996391 7.69146522,13.2361174 7.70711739,13.1728565 C7.7195087,13.1226391 7.73255217,13.0724217 7.74598696,13.0224652 C7.76268261,12.9609 7.78016087,12.8997261 7.7982913,12.838813 C7.8132913,12.7887261 7.82842174,12.7386391 7.84446522,12.6889435 C7.86376957,12.6290739 7.88411739,12.5698565 7.90485652,12.5107696 C7.92220435,12.4613348 7.93942174,12.4119 7.95781304,12.362987 C7.97972609,12.3045522 8.00307391,12.2469 8.02642174,12.1892478 C8.04611739,12.1408565 8.06516087,12.0922043 8.08576957,12.0443348 C8.11042174,11.9870739 8.13663913,11.930987 8.16272609,11.8743783 C8.18437826,11.8274217 8.20524783,11.7800739 8.22794348,11.7335087 C8.25585652,11.6763783 8.28572609,11.6201609 8.31494348,11.563813 C8.34298696,11.5099435 8.3705087,11.4560739 8.39985652,11.402987 C8.44694348,11.3176826 8.49520435,11.2330304 8.54568261,11.149813 C8.57724783,11.0976391 8.61076957,11.0467696 8.64363913,10.9955087 C8.67116087,10.9525957 8.6979,10.9091609 8.72620435,10.8667696 C8.7612913,10.8143348 8.79820435,10.7632043 8.83459565,10.7116826 C8.8625087,10.6720304 8.89016087,10.6322478 8.91885652,10.5932478 C8.95707391,10.5413348 8.99672609,10.4908565 9.03611739,10.439987 C9.06494348,10.4030739 9.09363913,10.3660304 9.12311739,10.3295087 C9.16446522,10.2783783 9.20685652,10.2282913 9.24963913,10.1783348 C9.27885652,10.1442913 9.30807391,10.1102478 9.33781304,10.0765957 C9.38268261,10.0261174 9.42820435,9.9762913 9.47437826,9.92711739 C9.50346522,9.89607391 9.53294348,9.8652913 9.56255217,9.83476957 C9.61094348,9.78481304 9.65998696,9.7355087 9.70968261,9.68711739 C9.73824783,9.65933478 9.76720435,9.63194348 9.79616087,9.60468261 C9.84885652,9.55511739 9.90181304,9.50581304 9.95594348,9.45781304 C9.9822913,9.43433478 10.0090304,9.4115087 10.0357696,9.38855217 C10.0939435,9.33833478 10.1523783,9.28837826 10.2121174,9.23998696 C10.2333783,9.22276957 10.2550304,9.20633478 10.2764217,9.18937826 C10.3429435,9.13681304 10.4098565,9.08437826 10.4782043,9.03403043 C10.4840739,9.02959565 10.4903348,9.02542174 10.4963348,9.02098696 C10.8333783,8.77433478 11.1920739,8.55546522 11.5692913,8.3682913 C11.5737261,8.36607391 11.5780304,8.36372609 11.5823348,8.36163913 C11.6668565,8.31976957 11.7525522,8.28037826 11.8387696,8.2419 C11.854813,8.23472609 11.8704652,8.2272913 11.8865087,8.22024783 C11.9684217,8.18437826 12.0515087,8.15046522 12.134987,8.11746522 C12.1555957,8.10937826 12.1762043,8.10103043 12.1969435,8.09307391 C12.2788565,8.06163913 12.3616826,8.0319 12.4449,8.00333478 C12.4675957,7.9955087 12.4901609,7.98781304 12.512987,7.98024783 C12.5962043,7.95272609 12.6800739,7.9265087 12.7644652,7.90185652 C12.7874217,7.89507391 12.8103783,7.88881304 12.8333348,7.8822913 C12.9190304,7.85816087 13.0053783,7.83520435 13.0923783,7.81420435 C13.1132478,7.80924783 13.1342478,7.80455217 13.1552478,7.79972609 C13.2453783,7.77872609 13.3360304,7.7589 13.4273348,7.74142174 C13.4427261,7.73842174 13.4581174,7.73607391 13.4733783,7.73307391 C13.5712043,7.71507391 13.6695522,7.69811739 13.768813,7.68376957 C14.1097696,7.63498696 14.4577696,7.60824783 14.8120304,7.60824783 C16.1170304,7.60824783 17.3980304,7.95585652 18.5162478,8.6135087 C18.559813,8.63907391 18.6052043,8.6589 18.6513783,8.67416087 C20.2122913,9.57468261 22.5440739,9.53020435 23.7936391,7.88907391 C24.4411174,7.0385087 24.7081174,5.94859565 24.5261609,4.89846522 C24.3586826,3.93246522 23.8306826,3.11672609 23.0390739,2.60137826 C23.0062043,2.57998696 22.9720304,2.56263913 22.9373348,2.54724783 C22.9227261,2.53616087 22.9104652,2.52337826 22.8949435,2.51333478 C20.4903783,0.944465217 17.6952913,0.11516087 14.8120304,0.11516087 C14.4215087,0.11516087 14.0347696,0.130552174 13.651813,0.160421739 C13.5370304,0.169291304 13.4226391,0.179465217 13.3086391,0.190943478 C13.2516391,0.196813043 13.1949,0.203986957 13.1381609,0.210247826 C13.0738565,0.217552174 13.0095522,0.224334783 12.9456391,0.232291304 C12.8862913,0.239856522 12.8274652,0.248595652 12.7683783,0.256813043 C12.7073348,0.26516087 12.6462913,0.273247826 12.5855087,0.282378261 C12.5259,0.291378261 12.4665522,0.301682609 12.4070739,0.311465217 C12.3473348,0.321247826 12.2874652,0.33063913 12.227987,0.341073913 C12.1683783,0.35163913 12.1090304,0.363247826 12.0496826,0.374465217 C11.990987,0.385682609 11.9320304,0.396508696 11.8734652,0.408378261 C11.8142478,0.420378261 11.7554217,0.43316087 11.6964652,0.445943478 C11.6381609,0.458465217 11.5797261,0.470726087 11.5216826,0.484030435 C11.462987,0.497465217 11.4045522,0.511552174 11.3461174,0.52563913 C11.2884652,0.539595652 11.2306826,0.553291304 11.1732913,0.568030435 C11.114987,0.582769565 11.0569435,0.59816087 10.9989,0.613682609 C10.9417696,0.628813043 10.8847696,0.644204348 10.8279,0.660117391 C10.7702478,0.67616087 10.7128565,0.692856522 10.6554652,0.709682609 C10.5988565,0.726247826 10.5422478,0.742943478 10.4859,0.76016087 C10.4286391,0.777769565 10.3717696,0.795769565 10.3149,0.813769565 C10.2589435,0.831769565 10.2031174,0.8499 10.1472913,0.868291304 C10.090813,0.887204348 10.0344652,0.906247826 9.97837826,0.925813043 C9.92281304,0.944986957 9.86737826,0.964552174 9.81220435,0.984378261 C9.75624783,1.00446522 9.70055217,1.02494348 9.64498696,1.04568261 C9.59020435,1.06616087 9.53555217,1.08703043 9.48103043,1.10803043 C9.42572609,1.12942174 9.37055217,1.15094348 9.31563913,1.17298696 C9.26124783,1.1949 9.20711739,1.21720435 9.15298696,1.23963913 C9.09859565,1.26220435 9.04433478,1.2849 8.99020435,1.30798696 C8.93633478,1.33120435 8.88285652,1.35494348 8.82911739,1.37855217 C8.7755087,1.40242174 8.72176957,1.4262913 8.66842174,1.45055217 C8.61494348,1.47520435 8.56185652,1.50024783 8.50863913,1.5252913 C8.45620435,1.55020435 8.4035087,1.57485652 8.35133478,1.6002913 C8.29811739,1.62624783 8.24542174,1.65272609 8.19259565,1.67920435 C8.14081304,1.70516087 8.0889,1.73111739 8.0375087,1.75759565 C7.98481304,1.78485652 7.93263913,1.8129 7.88046522,1.84055217 C7.82972609,1.86742174 7.77885652,1.8942913 7.72863913,1.92168261 C7.67542174,1.95076957 7.62285652,1.98076957 7.57016087,2.01037826 C7.52137826,2.03776957 7.47246522,2.0649 7.42407391,2.09281304 C7.37007391,2.12398696 7.31685652,2.15607391 7.26337826,2.18803043 C7.21668261,2.21568261 7.16985652,2.24281304 7.12355217,2.27111739 C7.0662913,2.30607391 7.00981304,2.34194348 6.95307391,2.37768261 C6.91146522,2.4039 6.86933478,2.42946522 6.82798696,2.45607391 C6.73146522,2.51803043 6.63585652,2.58103043 6.54103043,2.64507391 C6.50398696,2.67011739 6.46772609,2.69594348 6.43107391,2.72111739 C6.37224783,2.76181304 6.31303043,2.80211739 6.25472609,2.84359565 C6.21207391,2.87385652 6.16994348,2.9052913 6.12755217,2.93607391 C6.07616087,2.97337826 6.0245087,3.01042174 5.9735087,3.04837826 C5.92968261,3.08098696 5.8865087,3.11463913 5.84307391,3.14776957 C5.7942913,3.18494348 5.74537826,3.22185652 5.69711739,3.25968261 C5.65355217,3.29385652 5.61063913,3.32868261 5.56746522,3.36324783 C5.52011739,3.40120435 5.47263913,3.4389 5.42581304,3.47737826 C5.38276957,3.51285652 5.34024783,3.54872609 5.29759565,3.58472609 C5.25142174,3.62333478 5.20524783,3.66207391 5.15959565,3.70133478 C5.11733478,3.73772609 5.07559565,3.77476957 5.03385652,3.81155217 C4.98859565,3.85133478 4.94333478,3.89111739 4.89872609,3.93142174 C4.85724783,3.96885652 4.8162913,4.00668261 4.77533478,4.0445087 C4.73124783,4.08520435 4.68716087,4.12603043 4.64346522,4.16724783 C4.60276957,4.20572609 4.56246522,4.24472609 4.52203043,4.28372609 C4.47911739,4.32520435 4.43633478,4.36694348 4.39394348,4.40894348 C4.35403043,4.44846522 4.3145087,4.48824783 4.27498696,4.5282913 C4.23298696,4.57081304 4.19124783,4.61346522 4.14976957,4.6565087 C4.1109,4.69694348 4.0722913,4.73737826 4.03394348,4.77820435 C3.99259565,4.82203043 3.95163913,4.86598696 3.91094348,4.91033478 C3.87337826,4.95116087 3.83594348,4.99237826 3.79876957,5.03359565 C3.75833478,5.07859565 3.7182913,5.12372609 3.67837826,5.16924783 C3.64172609,5.21098696 3.60533478,5.25285652 3.56907391,5.29498696 C3.52981304,5.34076957 3.49094348,5.38694348 3.45207391,5.43324783 C3.41646522,5.4759 3.38085652,5.51855217 3.34563913,5.56159565 C3.3072913,5.60855217 3.26933478,5.65576957 3.23137826,5.70324783 C3.19707391,5.74642174 3.1625087,5.78959565 3.12859565,5.83316087 C3.0909,5.88142174 3.05385652,5.93020435 3.01668261,5.97885652 C2.98368261,6.02242174 2.95042174,6.06585652 2.91781304,6.10981304 C2.88076957,6.15976957 2.84424783,6.21011739 2.80772609,6.26059565 C2.77616087,6.30416087 2.74459565,6.34746522 2.71355217,6.3912913 C2.67676957,6.44333478 2.64076957,6.49576957 2.60476957,6.54807391 C2.5749,6.59137826 2.5449,6.63442174 2.51555217,6.67798696 C2.4792913,6.73185652 2.44381304,6.78637826 2.40820435,6.8409 C2.38016087,6.88381304 2.35159565,6.92659565 2.32394348,6.9699 C2.28742174,7.0269 2.25194348,7.08481304 2.21620435,7.14233478 C2.19063913,7.18355217 2.16468261,7.22437826 2.13937826,7.26585652 C2.09946522,7.33172609 2.06059565,7.3985087 2.02159565,7.46516087 C2.00176957,7.49881304 1.98142174,7.53233478 1.96185652,7.56637826 C1.90394348,7.66707391 1.84707391,7.76855217 1.7915087,7.87055217 C1.7799,7.89194348 1.76894348,7.91372609 1.75733478,7.93524783 C1.71363913,8.0165087 1.67007391,8.09803043 1.62794348,8.18020435 C1.60785652,8.21933478 1.58868261,8.25872609 1.56885652,8.29798696 C1.53598696,8.36346522 1.50311739,8.42868261 1.47103043,8.49468261 C1.45003043,8.53824783 1.42968261,8.58246522 1.40907391,8.6262913 C1.37985652,8.68824783 1.35037826,8.75020435 1.32194348,8.81268261 C1.30068261,8.85937826 1.28033478,8.90646522 1.25946522,8.95355217 C1.23272609,9.01394348 1.20585652,9.07420435 1.1799,9.13498696 C1.1592913,9.18337826 1.13933478,9.2322913 1.11924783,9.28094348 C1.09446522,9.34094348 1.06955217,9.40081304 1.04555217,9.46107391 C1.02559565,9.51116087 1.00642174,9.5615087 0.986986957,9.61185652 C0.964030435,9.67146522 0.940943478,9.73120435 0.918769565,9.79120435 C0.899856522,9.84220435 0.881465217,9.89359565 0.863073913,9.94472609 C0.841552174,10.0047261 0.82016087,10.0647261 0.799421739,10.1251174 C0.781682609,10.1770304 0.764334783,10.2290739 0.747117391,10.2811174 C0.72716087,10.3413783 0.707334783,10.4019 0.688030435,10.4625522 C0.671465217,10.5152478 0.655291304,10.5682043 0.639117391,10.6210304 C0.620595652,10.681813 0.602334783,10.7425957 0.584595652,10.8037696 C0.569204348,10.856987 0.554204348,10.9103348 0.539204348,10.963813 C0.522117391,11.0251174 0.505421739,11.086813 0.489117391,11.1486391 C0.475030435,11.2021174 0.461204348,11.2558565 0.44763913,11.3095957 C0.431986957,11.3719435 0.416726087,11.4341609 0.401856522,11.4969 C0.388943478,11.5509 0.376291304,11.6049 0.364030435,11.6591609 C0.349813043,11.7219 0.336247826,11.7849 0.322813043,11.8477696 C0.311334783,11.9022913 0.299726087,11.956813 0.288769565,12.0114652 C0.276117391,12.074987 0.263986957,12.1389 0.252117391,12.2026826 C0.241943478,12.2573348 0.23163913,12.311987 0.222117391,12.3669 C0.210769565,12.4313348 0.200334783,12.4960304 0.1899,12.5607261 C0.181030435,12.6153783 0.172030435,12.6700304 0.163943478,12.7249435 C0.154030435,12.7905522 0.14516087,12.8564217 0.13616087,12.9222913 C0.128726087,12.9766826 0.12116087,13.0309435 0.114378261,13.0855957 C0.106030435,13.1530304 0.0985956522,13.2205957 0.0911608696,13.2882913 C0.0851608696,13.3417696 0.0789,13.3951174 0.0735521739,13.4488565 C0.0666391304,13.5189 0.0607695652,13.5890739 0.0547695652,13.6592478 C0.0504652174,13.7111609 0.0455086957,13.7629435 0.0415956522,13.8148565 C0.0361173913,13.888813 0.0319434783,13.9629 0.0275086957,14.036987 C0.0246391304,14.0857696 0.0211173913,14.1342913 0.0186391304,14.1832043 C0.0144652174,14.2656391 0.0119869565,14.3484652 0.0091173913,14.4312913 C0.00781304348,14.4722478 0.00572608696,14.5130739 0.0046826087,14.5541609 C0.0016826087,14.6780739 -1.30434783e-05,14.8023783 -1.30434783e-05,14.9270739 C-1.30434783e-05,15.0641609 0.00220434783,15.2007261 0.00585652174,15.3369 C0.00716086957,15.3800739 0.00924782609,15.4231174 0.0108130435,15.4662913 C0.0142043478,15.5596826 0.0178565217,15.6529435 0.0229434783,15.7459435 C0.0256826087,15.7952478 0.0292043478,15.8444217 0.0323347826,15.8935957 C0.038073913,15.980987 0.044073913,16.0681174 0.0512478261,16.1551174 C0.0552913043,16.2042913 0.0598565217,16.2534652 0.0644217391,16.3026391 C0.0725086957,16.3904217 0.0813782609,16.4780739 0.0910304348,16.5654652 C0.0962478261,16.6119 0.101465217,16.6584652 0.107073913,16.7047696 C0.11816087,16.796987 0.130291304,16.8889435 0.143073913,16.9806391 C0.148682609,17.0210739 0.15416087,17.0617696 0.16016087,17.1022043 C0.175421739,17.2059 0.192117391,17.3090739 0.209595652,17.411987 C0.214291304,17.4399 0.218595652,17.4679435 0.223421739,17.4957261 C0.2709,17.7655957 0.325421739,18.0331174 0.387247826,18.2979 L0.387247826,18.2980304 C1.91724783,24.8466391 7.8039,29.7391174 14.8120304,29.7391174 C17.6952913,29.7391174 20.4903783,28.909813 22.8949435,27.3409435 C22.9104652,27.3309 22.9227261,27.3181174 22.9373348,27.3070304 C22.9720304,27.2916391 23.0062043,27.2742913 23.0390739,27.2529 C23.8306826,26.7375522 24.3586826,25.921813 24.5261609,24.955813 C24.7081174,23.9056826 24.4411174,22.8157696 23.7936391,21.9652043 C22.5440739,20.3240739 20.2122913,20.2795957 18.6513783,21.1801174" id="Fill-6"></path>
                        </g>
                    </g>
                    <path d="M41.4182857,19.2942857 C41.8876214,19.675621 42.3679499,19.9836179 42.8592857,20.2182857 C43.3506215,20.4529536 43.9189492,20.5702857 44.5642857,20.5702857 C45.2682892,20.5702857 45.796284,20.408954 46.1482857,20.0862857 C46.5002875,19.7636174 46.6762857,19.3676214 46.6762857,18.8982857 C46.6762857,18.6196177 46.6029531,18.3776201 46.4562857,18.1722857 C46.3096183,17.9669514 46.1226202,17.7872865 45.8952857,17.6332857 C45.6679512,17.4792849 45.4076205,17.3436196 45.1142857,17.2262857 L44.2342857,16.8742857 C43.8529505,16.7422851 43.471621,16.5919532 43.0902857,16.4232857 C42.7089505,16.2546182 42.3679539,16.0492869 42.0672857,15.8072857 C41.7666175,15.5652845 41.5209533,15.282954 41.3302857,14.9602857 C41.1396181,14.6376174 41.0442857,14.2489547 41.0442857,13.7942857 C41.0442857,13.3689503 41.1286182,12.9692876 41.2972857,12.5952857 C41.4659532,12.2212838 41.7079508,11.8986204 42.0232857,11.6272857 C42.3386206,11.355951 42.7236168,11.1432865 43.1782857,10.9892857 C43.6329547,10.8352849 44.1462829,10.7582857 44.7182857,10.7582857 C45.3929558,10.7582857 46.0126162,10.8756179 46.5772857,11.1102857 C47.1419552,11.3449536 47.629617,11.6309507 48.0402857,11.9682857 L47.1822857,13.1122857 C46.8156172,12.8336177 46.4342877,12.6062866 46.0382857,12.4302857 C45.6422837,12.2542848 45.2096214,12.1662857 44.7402857,12.1662857 C44.0656157,12.1662857 43.5706206,12.3202842 43.2552857,12.6282857 C42.9399508,12.9362873 42.7822857,13.295617 42.7822857,13.7062857 C42.7822857,13.9556203 42.8482851,14.1719515 42.9802857,14.3552857 C43.1122864,14.53862 43.2882846,14.6999517 43.5082857,14.8392857 C43.7282868,14.9786197 43.9812843,15.1032852 44.2672857,15.2132857 C44.5532871,15.3232863 44.8502842,15.4369518 45.1582857,15.5542857 C45.539621,15.7009531 45.9246171,15.8549516 46.3132857,16.0162857 C46.7019543,16.1776199 47.0502842,16.3792845 47.3582857,16.6212857 C47.6662873,16.8632869 47.9192847,17.160284 48.1172857,17.5122857 C48.3152867,17.8642875 48.4142857,18.2896166 48.4142857,18.7882857 C48.4142857,19.2282879 48.3299532,19.6389505 48.1612857,20.0202857 C47.9926182,20.401621 47.7432874,20.7389509 47.4132857,21.0322857 C47.0832841,21.3256205 46.6726215,21.5566182 46.1812857,21.7252857 C45.6899499,21.8939532 45.1289555,21.9782857 44.4982857,21.9782857 C43.7356152,21.9782857 43.0096225,21.8389538 42.3202857,21.5602857 C41.6309489,21.2816177 41.0296216,20.9296212 40.5162857,20.5042857 L41.4182857,19.2942857 Z M51.2302857,12.4962857 L49.6462857,12.4962857 L49.6462857,11.1322857 L51.3182857,11.0222857 L51.5382857,8.03028571 L53.0562857,8.03028571 L53.0562857,11.0222857 L55.9382857,11.0222857 L55.9382857,12.4962857 L53.0562857,12.4962857 L53.0562857,18.4362857 C53.0562857,19.096289 53.1772845,19.6059506 53.4192857,19.9652857 C53.6612869,20.3246208 54.0902826,20.5042857 54.7062857,20.5042857 C54.8969533,20.5042857 55.1022846,20.4749527 55.3222857,20.4162857 C55.5422868,20.3576188 55.7402848,20.2916194 55.9162857,20.2182857 L56.2682857,21.5822857 C55.9749509,21.6849529 55.6559541,21.7766186 55.3112857,21.8572857 C54.9666173,21.9379528 54.6256207,21.9782857 54.2882857,21.9782857 C53.7162829,21.9782857 53.2359543,21.8902866 52.8472857,21.7142857 C52.4586171,21.5382848 52.1432869,21.2962873 51.9012857,20.9882857 C51.6592845,20.6802842 51.4869529,20.3062879 51.3842857,19.8662857 C51.2816185,19.4262835 51.2302857,18.9422884 51.2302857,18.4142857 L51.2302857,12.4962857 Z M57.3462857,16.3902857 C57.3462857,15.5102813 57.481951,14.7219559 57.7532857,14.0252857 C58.0246204,13.3286156 58.3839501,12.7382881 58.8312857,12.2542857 C59.2786213,11.7702833 59.7882829,11.3999537 60.3602857,11.1432857 C60.9322886,10.8866178 61.5262826,10.7582857 62.1422857,10.7582857 C62.8169558,10.7582857 63.4219497,10.8756179 63.9572857,11.1102857 C64.4926217,11.3449536 64.9399506,11.6822835 65.2992857,12.1222857 C65.6586208,12.5622879 65.9336181,13.0902826 66.1242857,13.7062857 C66.3149533,14.3222888 66.4102857,15.0116152 66.4102857,15.7742857 C66.4102857,16.1702877 66.3882859,16.5002844 66.3442857,16.7642857 L59.1282857,16.7642857 C59.2016194,17.9229582 59.5572825,18.8396157 60.1952857,19.5142857 C60.8332889,20.1889558 61.6656139,20.5262857 62.6922857,20.5262857 C63.2056216,20.5262857 63.6786169,20.4492865 64.1112857,20.2952857 C64.5439545,20.1412849 64.9582837,19.9396203 65.3542857,19.6902857 L65.9922857,20.8782857 C65.52295,21.1716205 65.0022886,21.4282846 64.4302857,21.6482857 C63.8582829,21.8682868 63.2056227,21.9782857 62.4722857,21.9782857 C61.7536155,21.9782857 61.0826222,21.8499537 60.4592857,21.5932857 C59.8359493,21.3366178 59.293288,20.9699548 58.8312857,20.4932857 C58.3692834,20.0166167 58.006287,19.4336225 57.7422857,18.7442857 C57.4782844,18.0549489 57.3462857,17.2702901 57.3462857,16.3902857 Z M64.8262857,15.5762857 C64.8262857,14.4762802 64.595288,13.6366219 64.1332857,13.0572857 C63.6712834,12.4779495 63.0222899,12.1882857 62.1862857,12.1882857 C61.8049505,12.1882857 61.4419541,12.2652849 61.0972857,12.4192857 C60.7526173,12.5732865 60.4409538,12.7932843 60.1622857,13.0792857 C59.8836177,13.3652871 59.65262,13.7172836 59.4692857,14.1352857 C59.2859515,14.5532878 59.1649527,15.0336163 59.1062857,15.5762857 L64.8262857,15.5762857 Z M68.2582857,16.3902857 C68.2582857,15.5102813 68.393951,14.7219559 68.6652857,14.0252857 C68.9366204,13.3286156 69.2959501,12.7382881 69.7432857,12.2542857 C70.1906213,11.7702833 70.7002829,11.3999537 71.2722857,11.1432857 C71.8442886,10.8866178 72.4382826,10.7582857 73.0542857,10.7582857 C73.7289558,10.7582857 74.3339497,10.8756179 74.8692857,11.1102857 C75.4046217,11.3449536 75.8519506,11.6822835 76.2112857,12.1222857 C76.5706208,12.5622879 76.8456181,13.0902826 77.0362857,13.7062857 C77.2269533,14.3222888 77.3222857,15.0116152 77.3222857,15.7742857 C77.3222857,16.1702877 77.3002859,16.5002844 77.2562857,16.7642857 L70.0402857,16.7642857 C70.1136194,17.9229582 70.4692825,18.8396157 71.1072857,19.5142857 C71.7452889,20.1889558 72.5776139,20.5262857 73.6042857,20.5262857 C74.1176216,20.5262857 74.5906169,20.4492865 75.0232857,20.2952857 C75.4559545,20.1412849 75.8702837,19.9396203 76.2662857,19.6902857 L76.9042857,20.8782857 C76.43495,21.1716205 75.9142886,21.4282846 75.3422857,21.6482857 C74.7702829,21.8682868 74.1176227,21.9782857 73.3842857,21.9782857 C72.6656155,21.9782857 71.9946222,21.8499537 71.3712857,21.5932857 C70.7479493,21.3366178 70.205288,20.9699548 69.7432857,20.4932857 C69.2812834,20.0166167 68.918287,19.4336225 68.6542857,18.7442857 C68.3902844,18.0549489 68.2582857,17.2702901 68.2582857,16.3902857 Z M75.7382857,15.5762857 C75.7382857,14.4762802 75.507288,13.6366219 75.0452857,13.0572857 C74.5832834,12.4779495 73.9342899,12.1882857 73.0982857,12.1882857 C72.7169505,12.1882857 72.3539541,12.2652849 72.0092857,12.4192857 C71.6646173,12.5732865 71.3529538,12.7932843 71.0742857,13.0792857 C70.7956177,13.3652871 70.56462,13.7172836 70.3812857,14.1352857 C70.1979515,14.5532878 70.0769527,15.0336163 70.0182857,15.5762857 L75.7382857,15.5762857 Z M79.9622857,11.0222857 L81.4582857,11.0222857 L81.6122857,12.5622857 L81.6782857,12.5622857 C82.1476214,12.0489498 82.657283,11.6199541 83.2072857,11.2752857 C83.7572885,10.9306173 84.3549492,10.7582857 85.0002857,10.7582857 C85.8216232,10.7582857 86.4632834,10.9379506 86.9252857,11.2972857 C87.387288,11.6566208 87.7282846,12.1589492 87.9482857,12.8042857 C88.5056218,12.1882826 89.0666162,11.6932876 89.6312857,11.3192857 C90.1959552,10.9452838 90.8082824,10.7582857 91.4682857,10.7582857 C92.5682912,10.7582857 93.3859497,11.1102822 93.9212857,11.8142857 C94.4566217,12.5182892 94.7242857,13.5596122 94.7242857,14.9382857 L94.7242857,21.7142857 L92.9202857,21.7142857 L92.9202857,15.1802857 C92.9202857,14.1682807 92.758954,13.4386213 92.4362857,12.9912857 C92.1136174,12.5439501 91.6149558,12.3202857 90.9402857,12.3202857 C90.133615,12.3202857 89.2389573,12.8702802 88.2562857,13.9702857 L88.2562857,21.7142857 L86.4522857,21.7142857 L86.4522857,15.1802857 C86.4522857,14.1682807 86.290954,13.4386213 85.9682857,12.9912857 C85.6456174,12.5439501 85.1396225,12.3202857 84.4502857,12.3202857 C83.643615,12.3202857 82.7489573,12.8702802 81.7662857,13.9702857 L81.7662857,21.7142857 L79.9622857,21.7142857 L79.9622857,11.0222857 Z M97.1882857,16.2582857 C97.1882857,15.3489478 97.3422842,14.5386226 97.6502857,13.8272857 C97.9582873,13.1159488 98.3726164,12.5182881 98.8932857,12.0342857 C99.413955,11.5502833 100.018949,11.1799537 100.708286,10.9232857 C101.397622,10.6666178 102.116282,10.5382857 102.864286,10.5382857 C103.538956,10.5382857 104.147616,10.6519512 104.690286,10.8792857 C105.232955,11.1066202 105.687617,11.4109505 106.054286,11.7922857 L104.580286,13.7942857 C104.06695,13.3689503 103.560955,13.1562857 103.062286,13.1562857 C102.270282,13.1562857 101.646955,13.4349496 101.192286,13.9922857 C100.737617,14.5496218 100.510286,15.3049476 100.510286,16.2582857 C100.510286,17.2116238 100.741283,17.9669496 101.203286,18.5242857 C101.665288,19.0816218 102.248282,19.3602857 102.952286,19.3602857 C103.348288,19.3602857 103.707617,19.2796199 104.030286,19.1182857 C104.352954,18.9569516 104.646284,18.7736201 104.910286,18.5682857 L106.208286,20.6142857 C105.680283,21.0836214 105.093622,21.4282846 104.448286,21.6482857 C103.802949,21.8682868 103.179622,21.9782857 102.578286,21.9782857 C101.815615,21.9782857 101.107956,21.8499537 100.455286,21.5932857 C99.8026158,21.3366178 99.2342881,20.9662881 98.7502857,20.4822857 C98.2662833,19.9982833 97.8849538,19.4006226 97.6062857,18.6892857 C97.3276177,17.9779488 97.1882857,17.1676236 97.1882857,16.2582857 Z M106.846286,16.2582857 C106.846286,15.3489478 106.992951,14.5386226 107.286286,13.8272857 C107.579621,13.1159488 107.97195,12.5182881 108.463286,12.0342857 C108.954622,11.5502833 109.522949,11.1799537 110.168286,10.9232857 C110.813622,10.6666178 111.480949,10.5382857 112.170286,10.5382857 C112.859622,10.5382857 113.523283,10.6666178 114.161286,10.9232857 C114.799289,11.1799537 115.36395,11.5502833 115.855286,12.0342857 C116.346622,12.5182881 116.738951,13.1159488 117.032286,13.8272857 C117.325621,14.5386226 117.472286,15.3489478 117.472286,16.2582857 C117.472286,17.1676236 117.325621,17.9779488 117.032286,18.6892857 C116.738951,19.4006226 116.346622,19.9982833 115.855286,20.4822857 C115.36395,20.9662881 114.799289,21.3366178 114.161286,21.5932857 C113.523283,21.8499537 112.859622,21.9782857 112.170286,21.9782857 C111.480949,21.9782857 110.813622,21.8499537 110.168286,21.5932857 C109.522949,21.3366178 108.954622,20.9662881 108.463286,20.4822857 C107.97195,19.9982833 107.579621,19.4006226 107.286286,18.6892857 C106.992951,17.9779488 106.846286,17.1676236 106.846286,16.2582857 Z M110.168286,16.2582857 C110.168286,17.2116238 110.333284,17.9669496 110.663286,18.5242857 C110.993287,19.0816218 111.495616,19.3602857 112.170286,19.3602857 C112.830289,19.3602857 113.328951,19.0816218 113.666286,18.5242857 C114.003621,17.9669496 114.172286,17.2116238 114.172286,16.2582857 C114.172286,15.3049476 114.003621,14.5496218 113.666286,13.9922857 C113.328951,13.4349496 112.830289,13.1562857 112.170286,13.1562857 C111.495616,13.1562857 110.993287,13.4349496 110.663286,13.9922857 C110.333284,14.5496218 110.168286,15.3049476 110.168286,16.2582857 Z M119.694286,10.8022857 L122.334286,10.8022857 L122.554286,12.1882857 L122.642286,12.1882857 C123.111621,11.7482835 123.62495,11.3632874 124.182286,11.0332857 C124.739622,10.7032841 125.392282,10.5382857 126.140286,10.5382857 C127.328292,10.5382857 128.18995,10.9269485 128.725286,11.7042857 C129.260622,12.4816229 129.528286,13.5596122 129.528286,14.9382857 L129.528286,21.7142857 L126.294286,21.7142857 L126.294286,15.3562857 C126.294286,14.5642818 126.187953,14.0216205 125.975286,13.7282857 C125.762618,13.4349509 125.421621,13.2882857 124.952286,13.2882857 C124.541617,13.2882857 124.189621,13.3799515 123.896286,13.5632857 C123.602951,13.74662 123.280287,14.0069507 122.928286,14.3442857 L122.928286,21.7142857 L119.694286,21.7142857 L119.694286,10.8022857 Z M132.278286,10.8022857 L134.918286,10.8022857 L135.138286,12.1882857 L135.226286,12.1882857 C135.695621,11.7482835 136.20895,11.3632874 136.766286,11.0332857 C137.323622,10.7032841 137.976282,10.5382857 138.724286,10.5382857 C139.912292,10.5382857 140.77395,10.9269485 141.309286,11.7042857 C141.844622,12.4816229 142.112286,13.5596122 142.112286,14.9382857 L142.112286,21.7142857 L138.878286,21.7142857 L138.878286,15.3562857 C138.878286,14.5642818 138.771953,14.0216205 138.559286,13.7282857 C138.346618,13.4349509 138.005621,13.2882857 137.536286,13.2882857 C137.125617,13.2882857 136.773621,13.3799515 136.480286,13.5632857 C136.186951,13.74662 135.864287,14.0069507 135.512286,14.3442857 L135.512286,21.7142857 L132.278286,21.7142857 L132.278286,10.8022857 Z M144.224286,16.2582857 C144.224286,15.3782813 144.370951,14.5826226 144.664286,13.8712857 C144.957621,13.1599488 145.342617,12.5586215 145.819286,12.0672857 C146.295955,11.5759499 146.842283,11.198287 147.458286,10.9342857 C148.074289,10.6702844 148.712282,10.5382857 149.372286,10.5382857 C150.149623,10.5382857 150.827949,10.6702844 151.407286,10.9342857 C151.986622,11.198287 152.470617,11.56495 152.859286,12.0342857 C153.247954,12.5036214 153.537618,13.0572825 153.728286,13.6952857 C153.918953,14.3332889 154.014286,15.026282 154.014286,15.7742857 C154.014286,16.0676205 153.999619,16.3352845 153.970286,16.5772857 C153.940952,16.8192869 153.911619,17.0062851 153.882286,17.1382857 L147.348286,17.1382857 C147.494953,17.9742899 147.821283,18.5792838 148.327286,18.9532857 C148.833288,19.3272876 149.452949,19.5142857 150.186286,19.5142857 C150.963623,19.5142857 151.748282,19.2722881 152.540286,18.7882857 L153.618286,20.7462857 C153.06095,21.127621 152.441289,21.4282846 151.759286,21.6482857 C151.077282,21.8682868 150.406289,21.9782857 149.746286,21.9782857 C148.968948,21.9782857 148.242956,21.8499537 147.568286,21.5932857 C146.893616,21.3366178 146.306955,20.9626215 145.808286,20.4712857 C145.309617,19.9799499 144.920954,19.3822892 144.642286,18.6782857 C144.363618,17.9742822 144.224286,17.1676236 144.224286,16.2582857 Z M151.264286,15.1362857 C151.264286,14.5056159 151.124954,13.9922877 150.846286,13.5962857 C150.567618,13.2002837 150.098289,13.0022857 149.438286,13.0022857 C148.92495,13.0022857 148.473954,13.1746173 148.085286,13.5192857 C147.696617,13.8639541 147.44362,14.4029487 147.326286,15.1362857 L151.264286,15.1362857 Z M155.620286,16.2582857 C155.620286,15.3489478 155.774284,14.5386226 156.082286,13.8272857 C156.390287,13.1159488 156.804616,12.5182881 157.325286,12.0342857 C157.845955,11.5502833 158.450949,11.1799537 159.140286,10.9232857 C159.829622,10.6666178 160.548282,10.5382857 161.296286,10.5382857 C161.970956,10.5382857 162.579616,10.6519512 163.122286,10.8792857 C163.664955,11.1066202 164.119617,11.4109505 164.486286,11.7922857 L163.012286,13.7942857 C162.49895,13.3689503 161.992955,13.1562857 161.494286,13.1562857 C160.702282,13.1562857 160.078955,13.4349496 159.624286,13.9922857 C159.169617,14.5496218 158.942286,15.3049476 158.942286,16.2582857 C158.942286,17.2116238 159.173283,17.9669496 159.635286,18.5242857 C160.097288,19.0816218 160.680282,19.3602857 161.384286,19.3602857 C161.780288,19.3602857 162.139617,19.2796199 162.462286,19.1182857 C162.784954,18.9569516 163.078284,18.7736201 163.342286,18.5682857 L164.640286,20.6142857 C164.112283,21.0836214 163.525622,21.4282846 162.880286,21.6482857 C162.234949,21.8682868 161.611622,21.9782857 161.010286,21.9782857 C160.247615,21.9782857 159.539956,21.8499537 158.887286,21.5932857 C158.234616,21.3366178 157.666288,20.9662881 157.182286,20.4822857 C156.698283,19.9982833 156.316954,19.4006226 156.038286,18.6892857 C155.759618,17.9779488 155.620286,17.1676236 155.620286,16.2582857 Z M166.972286,13.3322857 L165.476286,13.3322857 L165.476286,10.9342857 L167.148286,10.8022857 L167.522286,7.89828571 L170.206286,7.89828571 L170.206286,10.8022857 L172.824286,10.8022857 L172.824286,13.3322857 L170.206286,13.3322857 L170.206286,17.7102857 C170.206286,18.3262888 170.334618,18.769951 170.591286,19.0412857 C170.847954,19.3126204 171.18895,19.4482857 171.614286,19.4482857 C171.790287,19.4482857 171.969951,19.4262859 172.153286,19.3822857 C172.33662,19.3382855 172.501618,19.2869527 172.648286,19.2282857 L173.154286,21.5822857 C172.860951,21.6702862 172.516288,21.7582853 172.120286,21.8462857 C171.724284,21.9342862 171.262288,21.9782857 170.734286,21.9782857 C170.059616,21.9782857 169.483955,21.8756201 169.007286,21.6702857 C168.530617,21.4649514 168.141954,21.1789542 167.841286,20.8122857 C167.540618,20.4456172 167.32062,20.001955 167.181286,19.4812857 C167.041952,18.9606164 166.972286,18.3849555 166.972286,17.7542857 L166.972286,13.3322857 Z" id="steemconnect" fill="#42474D"></path>
                </g>
            </g>
        </g>
    </g>
</svg>