<svg xmlns="http://www.w3.org/2000/svg" xmlns:xlink="http://www.w3.org/1999/xlink" viewBox="0 0 114.75 89.43"><defs><style>.a{fill:#fff;}.b{fill:#eff7ff;}.c{fill:#1a5099;}.d{mask:url(#a);}.e{fill:#d8e8f8;}.f{mask:url(#b);}.g{fill:#4ba2f2;}</style><mask id="a" x="16.74" y="42.13" width="70.4" height="44.65" maskUnits="userSpaceOnUse"><g transform="translate(-18.75 -15)"><polygon class="a" points="105.89 101.78 35.49 101.78 35.49 57.13 105.89 57.13 105.89 101.78"/></g></mask><mask id="b" x="84.5" y="0" width="7.13" height="7.13" maskUnits="userSpaceOnUse"><g transform="translate(-18.75 -15)"><polygon class="a" points="103.25 15 110.38 15 110.38 22.13 103.25 22.13 103.25 15"/></g></mask></defs><title>account</title><path class="b" d="M73.06,103.19,48.2,88.91a9.36,9.36,0,0,1-4.7-8.1l-.07-28.68A9.36,9.36,0,0,1,48.09,44l24.8-14.4a9.36,9.36,0,0,1,9.36,0l24.87,14.28a9.36,9.36,0,0,1,4.7,8.1l.07,28.68a9.36,9.36,0,0,1-4.66,8.12l-24.8,14.4A9.36,9.36,0,0,1,73.06,103.19Z" transform="translate(-18.75 -15)"/><path class="c" d="M91.5,35.93a1,1,0,0,1-.5-.13l-5.43-3.12a1,1,0,0,1,1-1.73L92,34.07a1,1,0,0,1-.5,1.87" transform="translate(-18.75 -15)"/><path class="c" d="M36.48,68.93a1,1,0,0,1-1-1l0-21.11a8.1,8.1,0,0,1,4-7L66.53,24.1a8.1,8.1,0,0,1,8.08,0l9.25,5.31a1,1,0,1,1-1,1.73l-9.25-5.31a6.1,6.1,0,0,0-6.08,0L40.46,41.54a6.09,6.09,0,0,0-3,5.27l0,21.11a1,1,0,0,1-1,1Z" transform="translate(-18.75 -15)"/><g class="d"><path class="c" d="M70.73,101.78a8.08,8.08,0,0,1-4-1.07L39.56,85.12a8.1,8.1,0,0,1-4.06-7v-6a1,1,0,0,1,1-1h0a1,1,0,0,1,1,1v6a6.09,6.09,0,0,0,3.05,5.26L67.7,99a6.1,6.1,0,0,0,6.08,0l27.08-15.72a6.1,6.1,0,0,0,3-5.27l0-19.83a1,1,0,0,1,1-1h0a1,1,0,0,1,1,1l0,19.84a8.1,8.1,0,0,1-4,7L74.79,100.69a8.08,8.08,0,0,1-4.06,1.09" transform="translate(-18.75 -15)"/></g><path class="c" d="M104.84,56.13a1,1,0,0,1-1-1l0-8.47a6.1,6.1,0,0,0-3.05-5.26l-4-2.32a1,1,0,1,1,1-1.73l4,2.32a8.1,8.1,0,0,1,4.06,7l0,8.47a1,1,0,0,1-1,1Z" transform="translate(-18.75 -15)"/><path class="c" d="M94.5,37.66a1,1,0,0,1-.5-.13l-.19-.11a1,1,0,0,1,1-1.73l.19.11a1,1,0,0,1-.5,1.87" transform="translate(-18.75 -15)"/><polygon class="e" points="84.5 0 91.63 0 91.63 7.13 84.5 7.13 84.5 0"/><g class="f"><path class="e" d="M106.81,17a1.57,1.57,0,1,0,1.56,1.57A1.57,1.57,0,0,0,106.81,17m0,5.13a3.57,3.57,0,1,1,3.56-3.57,3.57,3.57,0,0,1-3.56,3.57" transform="translate(-18.75 -15)"/></g><path class="e" d="M21.56,74.29h3.68l-1.81-3Zm5.46,2H19.75a1,1,0,0,1-.85-1.53l3.7-5.87a1,1,0,0,1,.85-.47h0a1,1,0,0,1,.85.48l3.57,5.87A1,1,0,0,1,27,76.29Z" transform="translate(-18.75 -15)"/><polygon class="e" points="8.27 60.29 1 60.29 4.63 54.42 8.27 60.29"/><path class="e" d="M117,93.74h2.82V90.92H117Zm3.82,2H116a1,1,0,0,1-1-1V89.92a1,1,0,0,1,1-1h4.82a1,1,0,0,1,1,1v4.82a1,1,0,0,1-1,1Z" transform="translate(-18.75 -15)"/><polygon class="e" points="97.25 79.74 102.07 79.74 102.07 74.92 97.25 74.92 97.25 79.74"/><path class="e" d="M44,22.45A1.57,1.57,0,1,0,45.57,24,1.57,1.57,0,0,0,44,22.45m0,5.13A3.57,3.57,0,1,1,47.57,24,3.57,3.57,0,0,1,44,27.59" transform="translate(-18.75 -15)"/><path class="e" d="M132.5,22.07a1,1,0,0,1-.71-.29l-5-5a1,1,0,0,1,1.41-1.41l5,5a1,1,0,0,1-.71,1.71" transform="translate(-18.75 -15)"/><path class="e" d="M127.49,22.07a1,1,0,0,1-.71-1.71l5-5a1,1,0,1,1,1.41,1.41l-5,5a1,1,0,0,1-.71.29" transform="translate(-18.75 -15)"/><path class="e" d="M32,22.07a1,1,0,0,1-.71-.29l-5-5a1,1,0,1,1,1.41-1.41l5,5A1,1,0,0,1,32,22.07" transform="translate(-18.75 -15)"/><path class="e" d="M27,22.07a1,1,0,0,1-.71-1.71l5-5a1,1,0,1,1,1.41,1.41l-5,5a1,1,0,0,1-.71.29" transform="translate(-18.75 -15)"/><path class="e" d="M118.41,43.59a1,1,0,0,1-1-1V35.5a1,1,0,0,1,2,0v7.09a1,1,0,0,1-1,1" transform="translate(-18.75 -15)"/><path class="e" d="M122,40h-7.09a1,1,0,0,1,0-2H122a1,1,0,0,1,0,2" transform="translate(-18.75 -15)"/><path class="e" d="M23.38,93.33a1,1,0,0,1-1-1V85.24a1,1,0,0,1,2,0v7.09a1,1,0,0,1-1,1" transform="translate(-18.75 -15)"/><path class="e" d="M26.93,89.79H19.84a1,1,0,0,1,0-2h7.09a1,1,0,0,1,0,2" transform="translate(-18.75 -15)"/><path class="g" d="M61.81,74.5a1,1,0,0,1-.56-1.83l1-.65V65.68l-1.62-1.44a4,4,0,0,1-1.35-3v-9.6a5.46,5.46,0,0,1,.89-3c1.57-2.41,5-6.44,10.52-6.44a1,1,0,0,1,0,2c-4.56,0-7.5,3.47-8.85,5.53a3.47,3.47,0,0,0-.57,1.9v9.6a2,2,0,0,0,.68,1.52l2,1.74a1,1,0,0,1,.33.75v7.32a1,1,0,0,1-.44.83l-1.41.95a1,1,0,0,1-.56.17" transform="translate(-18.75 -15)"/><path class="g" d="M49.82,82.6a1,1,0,0,1-.56-1.83l10-6.73a1,1,0,0,1,1.12,1.66l-10,6.73a1,1,0,0,1-.56.17" transform="translate(-18.75 -15)"/><path class="g" d="M81.08,54.13a1,1,0,0,1-1-1V51.62a3.46,3.46,0,0,0-.57-1.9c-1.35-2.07-4.3-5.53-8.86-5.53a1,1,0,0,1,0-2c5.5,0,9,4,10.53,6.44a5.47,5.47,0,0,1,.9,3v1.51a1,1,0,0,1-1,1" transform="translate(-18.75 -15)"/><path class="g" d="M87.7,80a1,1,0,0,1-.56-.17l-9.6-6.49a1,1,0,0,1-.44-.83V65.23a1,1,0,0,1,.34-.75l2-1.74a2,2,0,0,0,.69-1.52V55.38a1,1,0,0,1,2,0v5.83a4,4,0,0,1-1.35,3L79.1,65.68V72l9.16,6.19A1,1,0,0,1,87.7,80" transform="translate(-18.75 -15)"/><path class="g" d="M91.5,82.6a1,1,0,0,1-.56-.17l-1.26-.85a1,1,0,1,1,1.12-1.66l1.26.85a1,1,0,0,1-.56,1.83" transform="translate(-18.75 -15)"/></svg>