<svg xmlns="http://www.w3.org/2000/svg" xmlns:xlink="http://www.w3.org/1999/xlink" viewBox="0 0 132.93 100"><defs><style>.a{fill:#fff;}.b{fill:#eff7ff;}.c{fill:#1a5099;}.d{fill:#4ba2f2;}.e{fill:#d8e8f8;}.f{mask:url(#a);}</style><mask id="a" x="120.87" y="58.91" width="12.05" height="9.6" maskUnits="userSpaceOnUse"><g transform="translate(-6.54 -1)"><polygon class="a" points="139.46 69.51 139.46 59.91 127.41 59.91 127.41 69.51 139.46 69.51"/></g></mask></defs><title>apps</title><polygon class="b" points="68.5 18 85 27.5 85 46.5 68.5 56 52 46.5 52 27.5 68.5 18"/><polygon class="b" points="95.5 62 112 71.5 112 90.5 95.5 100 79 90.5 79 71.5 95.5 62"/><polygon class="b" points="42.5 62 59 71.5 59 90.5 42.5 100 26 90.5 26 71.5 42.5 62"/><path class="c" d="M38.12,92.87l-9.36-5.55V70.08l14.55-8.62,1.56.92A1.1,1.1,0,0,0,46.39,62,1.16,1.16,0,0,0,46,60.41l-2.11-1.25a1.09,1.09,0,0,0-1.11,0L27.09,68.43a1.15,1.15,0,0,0-.56,1V88a1.15,1.15,0,0,0,.56,1L37,94.85a1.08,1.08,0,0,0,.56.15,1.11,1.11,0,0,0,1-.57,1.16,1.16,0,0,0-.41-1.56" transform="translate(-6.54 -1)"/><path class="d" d="M43.77,93a1.15,1.15,0,0,0,1.16-1.14V79.13l8-4.58A1.14,1.14,0,0,0,53.38,73a1.16,1.16,0,0,0-1.58-.42l-8,4.58-10.5-6a1.16,1.16,0,0,0-1.58.42,1.14,1.14,0,0,0,.42,1.56l10.5,6V91.86A1.15,1.15,0,0,0,43.77,93" transform="translate(-6.54 -1)"/><path class="c" d="M66.39,66.32a1.12,1.12,0,0,0-1.54-.43l-4.72,2.72-11-6.45a1.12,1.12,0,0,0-1.54.42A1.16,1.16,0,0,0,48,64.15l9.81,5.78-3,1.72a1.16,1.16,0,0,0-.43,1.57,1.12,1.12,0,0,0,1,.58,1.1,1.1,0,0,0,.55-.15L58.84,72V87.85L44.1,96.52l-2.87-1.69a1.11,1.11,0,0,0-1.54.42,1.16,1.16,0,0,0,.41,1.57l3.44,2a1.11,1.11,0,0,0,1.13,0l15.87-9.34a1.16,1.16,0,0,0,.56-1V70.7L66,67.89a1.16,1.16,0,0,0,.43-1.57" transform="translate(-6.54 -1)"/><path class="c" d="M113,68.34,97,59.15a1.14,1.14,0,0,0-1.13,0l-2.23,1.28a1.13,1.13,0,1,0,1.13,2l1.66-1L111.27,70V87L100,93.5h0l-1.26.73-.53.3h0l-1.78,1L81.65,87V71.44l2.87,1.62a1.13,1.13,0,1,0,1.12-2l-3-1.69,9.86-5.68a1.13,1.13,0,1,0-1.13-2l-11,6.35-5.11-2.89a1.13,1.13,0,1,0-1.12,2l5.27,3V87.68a1.13,1.13,0,0,0,.57,1l15.95,9.18a1.14,1.14,0,0,0,1.13,0l2.34-1.35h0L113,88.66a1.13,1.13,0,0,0,.57-1V69.32a1.13,1.13,0,0,0-.57-1" transform="translate(-6.54 -1)"/><path class="d" d="M96.3,93a1.15,1.15,0,0,0,1.16-1.14V79.13l10.5-6a1.14,1.14,0,0,0,.42-1.56,1.16,1.16,0,0,0-1.58-.42l-10.5,6-8-4.58a1.16,1.16,0,0,0-1.58.42,1.14,1.14,0,0,0,.42,1.56l8,4.58V91.86A1.15,1.15,0,0,0,96.3,93" transform="translate(-6.54 -1)"/><path class="b" d="M75.54,64a5,5,0,1,1-5-5,5,5,0,0,1,5,5" transform="translate(-6.54 -1)"/><path class="c" d="M70.54,60.28A3.72,3.72,0,1,0,74.26,64a3.72,3.72,0,0,0-3.72-3.72m0,9.72a6,6,0,1,1,6-6,6,6,0,0,1-6,6" transform="translate(-6.54 -1)"/><path class="c" d="M52.67,25.28l-.13,18.53a1.15,1.15,0,0,0,.56,1l2.2,1.31a1.11,1.11,0,0,0,1.54-.41,1.15,1.15,0,0,0-.4-1.56l-1.64-1L54.91,26l10-5.73,1.42-.82,3.37-1.94,11.1,6.61h0l1.25.74.52.31h0l1.75,1-.12,17.21L70.68,51.15V47.83a1.14,1.14,0,0,0-.15-.56,1.12,1.12,0,0,0-1-.58,1.13,1.13,0,0,0-1.12,1.14V51.3L58.7,45.5a1.11,1.11,0,0,0-1.54.41,1.15,1.15,0,0,0,.4,1.56l10.88,6.48v5.91a1.12,1.12,0,1,0,2.25,0V53.77L85.83,45a1.14,1.14,0,0,0,.57-1l.13-18.53a1.16,1.16,0,0,0-.15-.57,1.13,1.13,0,0,0-.41-.42l-2.31-1.38h0l-13.43-8a1.11,1.11,0,0,0-1.12,0l-3.94,2.27-1.42.82L53.24,24.3a1.14,1.14,0,0,0-.57,1" transform="translate(-6.54 -1)"/><path class="d" d="M83.39,27.59a1.14,1.14,0,0,0-1.57-.44L70.68,33.52,60.27,27.36a1.15,1.15,0,0,0-1.58.41,1.16,1.16,0,0,0,.41,1.59l10.41,6.16-.07,9.31a1.15,1.15,0,1,0,2.3,0l.07-9.3L83,29.17a1.17,1.17,0,0,0,.43-1.58" transform="translate(-6.54 -1)"/><path class="e" d="M101,33.28a2.22,2.22,0,1,0,2.22,2.22A2.22,2.22,0,0,0,101,33.28M101,40a4.5,4.5,0,1,1,4.5-4.5A4.51,4.51,0,0,1,101,40" transform="translate(-6.54 -1)"/><polygon class="e" points="132.93 68.51 132.93 58.91 120.88 58.91 120.88 68.51 132.93 68.51"/><g class="f"><path class="e" d="M130.69,67.31h5.53l-2.72-4.21Zm7.61,2.2h-9.72a1.18,1.18,0,0,1-1-.57,1,1,0,0,1,0-1.12l4.95-7.4a1.18,1.18,0,0,1,1-.51h0a1.18,1.18,0,0,1,1,.53l4.77,7.4a1,1,0,0,1,0,1.11,1.18,1.18,0,0,1-1,.56Z" transform="translate(-6.54 -1)"/></g><polygon class="e" points="131 68 122 68 126.5 60 131 68"/><path class="e" d="M11,80.28a2.22,2.22,0,1,0,2.22,2.22A2.22,2.22,0,0,0,11,80.28M11,87a4.5,4.5,0,1,1,4.5-4.5A4.51,4.51,0,0,1,11,87" transform="translate(-6.54 -1)"/><path class="e" d="M18.37,61a1.16,1.16,0,0,1-.82-.34L10.88,54a1.16,1.16,0,0,1,1.64-1.64L19.2,59a1.16,1.16,0,0,1-.82,2" transform="translate(-6.54 -1)"/><path class="e" d="M11.7,61a1.16,1.16,0,0,1-.82-2l6.68-6.68A1.16,1.16,0,0,1,19.2,54l-6.68,6.68a1.16,1.16,0,0,1-.82.34" transform="translate(-6.54 -1)"/><path class="e" d="M77.37,10a1.16,1.16,0,0,1-.82-.34L69.88,3a1.16,1.16,0,0,1,1.64-1.64L78.2,8a1.16,1.16,0,0,1-.82,2" transform="translate(-6.54 -1)"/><path class="e" d="M70.7,10a1.16,1.16,0,0,1-.82-2l6.68-6.68A1.16,1.16,0,0,1,78.2,3L71.52,9.66a1.16,1.16,0,0,1-.82.34" transform="translate(-6.54 -1)"/><path class="e" d="M123.08,100a1,1,0,0,1-1-1.09V90a1,1,0,1,1,2,0v8.86a1,1,0,0,1-1,1.09" transform="translate(-6.54 -1)"/><path class="e" d="M127.45,96h-8.83a1,1,0,1,1,0-2h8.83a1,1,0,1,1,0,2" transform="translate(-6.54 -1)"/></svg>