<svg xmlns="http://www.w3.org/2000/svg" xmlns:xlink="http://www.w3.org/1999/xlink" viewBox="0 0 113.32 83"><defs><style>.a{fill:#fff;}.b{fill:#eff7ff;}.c{mask:url(#a);}.d{fill:#d8e8f8;}.e{fill:#1a5099;}.f{fill:#4ba2f2;}</style><mask id="a" x="84.21" y="0" width="6.92" height="6.92" maskUnits="userSpaceOnUse"><g transform="translate(-8 -13.5)"><polygon class="a" points="92.21 13.5 99.14 13.5 99.14 20.42 92.21 20.42 92.21 13.5"/></g></mask></defs><title>code</title><rect class="b" x="30" y="19" width="74" height="64" rx="6" ry="6"/><g class="c"><path class="d" d="M95.67,15.5A1.46,1.46,0,1,0,97.13,17a1.46,1.46,0,0,0-1.46-1.46m0,4.92A3.46,3.46,0,1,1,99.13,17a3.47,3.47,0,0,1-3.46,3.46" transform="translate(-8 -13.5)"/></g><path class="d" d="M112.21,91.94h2.63V89.31h-2.63Zm3.63,2h-4.63a1,1,0,0,1-1-1V88.31a1,1,0,0,1,1-1h4.63a1,1,0,0,1,1,1v4.63a1,1,0,0,1-1,1Z" transform="translate(-8 -13.5)"/><polygon class="d" points="103.21 79.44 107.83 79.44 107.83 74.81 103.21 74.81 103.21 79.44"/><path class="d" d="M11.46,40.1a1.46,1.46,0,1,0,1.46,1.46,1.46,1.46,0,0,0-1.46-1.46m0,4.92a3.46,3.46,0,1,1,3.46-3.46A3.47,3.47,0,0,1,11.46,45" transform="translate(-8 -13.5)"/><path class="d" d="M120.32,23.25a1,1,0,0,1-.71-.29l-4.81-4.81a1,1,0,0,1,1.41-1.41L121,21.54a1,1,0,0,1-.71,1.71" transform="translate(-8 -13.5)"/><path class="d" d="M115.51,23.25a1,1,0,0,1-.71-1.71l4.81-4.81A1,1,0,1,1,121,18.14L116.22,23a1,1,0,0,1-.71.29" transform="translate(-8 -13.5)"/><path class="d" d="M30.61,23.25a1,1,0,0,1-.71-.29L25.1,18.14a1,1,0,0,1,1.41-1.41l4.81,4.81a1,1,0,0,1-.71,1.71" transform="translate(-8 -13.5)"/><path class="d" d="M25.8,23.25a1,1,0,0,1-.71-1.71l4.81-4.81a1,1,0,0,1,1.41,1.41L26.51,23a1,1,0,0,1-.71.29" transform="translate(-8 -13.5)"/><path class="d" d="M113.52,43.89a1,1,0,0,1-1-1v-6.8a1,1,0,0,1,2,0v6.8a1,1,0,0,1-1,1" transform="translate(-8 -13.5)"/><path class="d" d="M116.92,40.49h-6.8a1,1,0,0,1,0-2h6.8a1,1,0,1,1,0,2" transform="translate(-8 -13.5)"/><path class="d" d="M22.34,91.62a1,1,0,0,1-1-1v-6.8a1,1,0,0,1,2,0v6.8a1,1,0,0,1-1,1" transform="translate(-8 -13.5)"/><path class="d" d="M25.74,88.22h-6.8a1,1,0,0,1,0-2h6.8a1,1,0,0,1,0,2" transform="translate(-8 -13.5)"/><path class="e" d="M38,28.5a4,4,0,0,0-4,4v54a4,4,0,0,0,4,4h64a4,4,0,0,0,4-4v-54a4,4,0,0,0-4-4Zm0-2h64a6,6,0,0,1,6,6v54a6,6,0,0,1-6,6H38a6,6,0,0,1-6-6v-54A6,6,0,0,1,38,26.5Z" transform="translate(-8 -13.5)"/><polygon class="e" points="24 27 100 27 100 25 24 25 24 27"/><polygon class="e" points="39 18 39 27 41 27 41 18 39 18"/><polygon class="f" points="54.41 43.05 53.05 41.59 43.54 50.5 53.05 59.41 54.41 57.95 46.46 50.5 54.41 43.05"/><polygon class="f" points="70.59 57.95 71.95 59.41 81.46 50.5 71.95 41.59 70.59 43.05 78.54 50.5 70.59 57.95"/></svg>