<svg xmlns="http://www.w3.org/2000/svg" xmlns:xlink="http://www.w3.org/1999/xlink" viewBox="0 0 466 373.05"><defs><style>.a{fill:#fff;}.b{fill:url(#a);}.c{fill:url(#b);}.d{fill:#bbd0e5;}.e{fill:#1a5099;}.f{fill:#4ba2f2;}.g{fill:#4690db;}.h{fill:#e62b1c;}.i{fill:#f9bf3b;}.j{fill:#26a65b;}.k{fill:#d8e8f8;}.l{mask:url(#c);}.m{fill:#c0d7ee;}.n{fill:#68b4fb;}.o{fill:#114180;}.p{fill:#b3b3b3;}.q{fill:#3d7acc;}</style><linearGradient id="a" x1="-15.86" y1="437.66" x2="-15.07" y2="436.88" gradientTransform="matrix(466, 0, 0, -270, 7440, 118302)" gradientUnits="userSpaceOnUse"><stop offset="0" stop-color="#f6f9ff"/><stop offset="0.53" stop-color="#c4e9ff"/><stop offset="1" stop-color="#f6f9ff"/></linearGradient><linearGradient id="b" x1="-15.82" y1="437.59" x2="-15.11" y2="436.94" xlink:href="#a"/><mask id="c" x="364.32" y="110.21" width="21.9" height="218.55" maskUnits="userSpaceOnUse"><g transform="translate(0 -0.95)"><polygon class="a" points="386.22 329.71 386.22 111.15 364.32 111.15 364.32 329.71 386.22 329.71"/></g></mask></defs><title>lock</title><path class="b" d="M210.45,374l-1.13-1.95L464.87,224.69l1.13,1.95ZM188,360.31l-1.13-1.95L442.45,211l1.13,1.95Zm-23.67-12.44-1.13-1.95L418.77,198.56l1.13,1.95Zm-23.67-13.69-1.13-1.95L395.1,184.88l1.13,1.95ZM117,320.5l-1.13-1.95L371.42,171.19l1.13,1.95ZM94.58,306.81l-1.13-1.95L349,157.5l1.13,1.95ZM70.9,293.12l-1.13-1.95L325.32,143.82l1.13,1.95ZM47.23,280.68l-1.13-1.95L301.65,131.37l1.13,1.95ZM24.8,267,23.67,265,279.22,117.69l1.13,1.95ZM1.13,253.31,0,251.36,255.55,104l1.13,1.95Z" transform="translate(0 -0.95)"/><path class="c" d="M464.87,253.31,209.33,105.95l1.13-1.95L466,251.36ZM442.45,267,186.9,119.64l1.13-1.95L443.57,265Zm-23.67,13.69L163.22,133.32l1.13-1.95L419.9,278.74ZM395.1,293.12,139.55,145.76l1.13-1.95L396.22,291.18Zm-23.67,13.69L115.88,159.45,117,157.5,372.55,304.86ZM349,320.5,93.45,173.14l1.13-1.95L350.12,318.55Zm-23.67,13.69L69.78,186.82l1.13-1.95L326.45,332.24Zm-23.67,13.69L46.1,200.51l1.13-1.95L302.78,345.92Zm-22.43,12.44L23.67,213,24.8,211,280.35,358.37ZM255.55,374,0,226.64l1.13-1.95L256.67,372.05Z" transform="translate(0 -0.95)"/><polygon class="d" points="173 218.24 364 328.05 364 122.86 173 13.05 173 218.24"/><polygon class="a" points="359 321.05 178 216.3 178 49.05 359 153.81 359 321.05"/><polygon class="a" points="359 126.58 178 22.05 178 44.53 359 149.05 359 126.58"/><path class="e" d="M308.12,275.26l-78.5-45.31c-5.26-3-9.53-10.42-9.53-16.5V200.38c0-6.08,4.27-8.54,9.53-5.5l78.5,45.31c5.26,3,9.53,10.42,9.53,16.5v13.06c0,6.08-4.26,8.54-9.53,5.5" transform="translate(0 -0.95)"/><path class="f" d="M339.76,207.35,231.52,144.87c-3.34-1.93-6.05-.36-6.05,3.5v21.09a13.36,13.36,0,0,0,6.05,10.48l108.24,62.48c3.34,1.93,6.05.36,6.05-3.5V217.83a13.37,13.37,0,0,0-6.05-10.48" transform="translate(0 -0.95)"/><path class="f" d="M339.76,162.4,231.53,99.92c-3.34-1.93-6.05-.36-6.05,3.5V124.5A13.36,13.36,0,0,0,231.53,135l108.24,62.48c3.34,1.93,6.05.37,6.05-3.49V172.88a13.37,13.37,0,0,0-6.05-10.48" transform="translate(0 -0.95)"/><path class="g" d="M209.33,147.06l-9.12-5.26V138c0-2.9,2-4.08,4.56-2.63a10.1,10.1,0,0,1,4.56,7.9ZM207,160.52,202.56,158l1.19-4.89a6,6,0,0,1-1.68-3.86c0-1.73,1.21-2.42,2.71-1.57a6,6,0,0,1,2.71,4.69c0,1.31-.7,2-1.69,1.91Zm5.71-11.29h0v-4a17.5,17.5,0,0,0-7.92-13.72c-4.38-2.53-7.92-.48-7.92,4.57v4c-.76,0-1.29.53-1.29,1.55v13a4.79,4.79,0,0,0,2.17,3.76l14.08,8.13c1.2.69,2.17.13,2.17-1.25v-13a4.82,4.82,0,0,0-1.29-3Z" transform="translate(0 -0.95)"/><path class="g" d="M208.31,104.63c2.78-.16,4.51-2.88,3.66-7.47a17.18,17.18,0,0,0-5.45-9.4c-4.87-4.11-9.2-2.37-9.2,3a16.28,16.28,0,0,0,3.88,9.73c-4-1.17-7.43,0-8.83,2.88-1.16,2.37.1,7,2.46,8.36l19.85,11.46c2.36,1.36,3.69-1.8,2.46-5.51a28.47,28.47,0,0,0-8.83-13.09" transform="translate(0 -0.95)"/><path class="a" d="M246.48,174.53a2.45,2.45,0,0,1,.21,1c0,1-.82,1.19-1.59.74a2.36,2.36,0,0,1-1-1.18L242,170.22l-2.11,2.46c-.25.31-.55.25-.92,0a3.73,3.73,0,0,1-1.65-2.54.9.9,0,0,1,.34-.76l2.14-2.23-3.4-3.09a2.62,2.62,0,0,1-.89-2c0-.81.61-1.34,1.44-.87a1.33,1.33,0,0,1,.4.34l3.4,3.27-.15-4c0-1,.67-1.06,1.41-.64a2.79,2.79,0,0,1,1.41,2.27l-.15,3.87,3.43.64a1.05,1.05,0,0,1,.4.12,3.45,3.45,0,0,1,1.38,2.67c0,.61-.27,1-.92.81l-3.31-1Z" transform="translate(0 -0.95)"/><path class="a" d="M260.89,182.85a2.47,2.47,0,0,1,.21,1c0,1-.82,1.18-1.59.74a2.36,2.36,0,0,1-1-1.18l-2.08-4.85L254.3,181c-.25.31-.55.25-.92,0a3.73,3.73,0,0,1-1.65-2.54.89.89,0,0,1,.34-.76l2.14-2.23-3.4-3.09a2.63,2.63,0,0,1-.89-2c0-.81.61-1.34,1.44-.86a1.3,1.3,0,0,1,.4.33l3.4,3.27-.15-4c0-1,.67-1.06,1.41-.64a2.79,2.79,0,0,1,1.41,2.27l-.15,3.87,3.43.64a1,1,0,0,1,.4.13,3.44,3.44,0,0,1,1.38,2.67c0,.6-.27,1-.92.81l-3.31-1Z" transform="translate(0 -0.95)"/><path class="a" d="M275.29,191.16a2.49,2.49,0,0,1,.21,1c0,1-.82,1.19-1.59.74a2.36,2.36,0,0,1-1-1.18l-2.08-4.85-2.11,2.46c-.25.32-.55.25-.92,0a3.75,3.75,0,0,1-1.65-2.55.9.9,0,0,1,.34-.76l2.15-2.23-3.4-3.09a2.62,2.62,0,0,1-.89-2c0-.81.61-1.34,1.44-.87a1.38,1.38,0,0,1,.4.34l3.4,3.27-.15-4c0-1,.67-1.06,1.41-.64a2.8,2.8,0,0,1,1.41,2.27l-.15,3.87,3.43.64a1,1,0,0,1,.4.12,3.44,3.44,0,0,1,1.38,2.67c0,.61-.27,1-.92.81l-3.31-1Z" transform="translate(0 -0.95)"/><path class="a" d="M289.7,199.48a2.47,2.47,0,0,1,.21,1c0,1-.82,1.18-1.59.74a2.38,2.38,0,0,1-1-1.18l-2.08-4.85-2.11,2.46c-.25.31-.55.25-.92,0a3.73,3.73,0,0,1-1.65-2.54.89.89,0,0,1,.34-.76l2.14-2.23-3.4-3.09a2.63,2.63,0,0,1-.89-2c0-.81.61-1.34,1.44-.86a1.35,1.35,0,0,1,.4.33l3.4,3.27-.15-4c0-1,.67-1.06,1.41-.64a2.79,2.79,0,0,1,1.41,2.27l-.15,3.87,3.43.64a1,1,0,0,1,.4.13,3.44,3.44,0,0,1,1.38,2.67c0,.61-.27,1-.92.81l-3.31-1Z" transform="translate(0 -0.95)"/><path class="a" d="M304.1,207.79a2.49,2.49,0,0,1,.21,1c0,1-.82,1.19-1.59.74a2.36,2.36,0,0,1-1-1.18l-2.08-4.85-2.11,2.46c-.25.32-.55.25-.92,0a3.75,3.75,0,0,1-1.65-2.55.89.89,0,0,1,.34-.76l2.14-2.23-3.4-3.09a2.62,2.62,0,0,1-.89-2c0-.81.61-1.34,1.44-.86a1.33,1.33,0,0,1,.4.34l3.4,3.27-.15-4c0-1,.67-1.06,1.41-.64a2.8,2.8,0,0,1,1.41,2.27l-.15,3.87,3.43.64a1,1,0,0,1,.4.12,3.44,3.44,0,0,1,1.38,2.67c0,.61-.27,1-.92.81l-3.31-1Z" transform="translate(0 -0.95)"/><path class="a" d="M318.5,216.11a2.49,2.49,0,0,1,.21,1c0,1-.82,1.19-1.59.74a2.36,2.36,0,0,1-1-1.18L314,211.79l-2.11,2.46c-.25.32-.55.25-.92,0a3.73,3.73,0,0,1-1.65-2.55.9.9,0,0,1,.34-.76l2.14-2.23-3.4-3.09a2.62,2.62,0,0,1-.89-2c0-.81.61-1.34,1.44-.87a1.33,1.33,0,0,1,.4.34l3.4,3.27-.15-4c0-1,.67-1.06,1.41-.64a2.8,2.8,0,0,1,1.41,2.27l-.15,3.87,3.43.64a1,1,0,0,1,.4.12,3.44,3.44,0,0,1,1.38,2.67c0,.61-.27,1-.92.81l-3.31-1Z" transform="translate(0 -0.95)"/><path class="a" d="M242.91,125.9l-.61-3.62c-.2-1.06-.45-2.76-.62-3.89l-.08,0c-.2.93-.47,2.39-.67,3.18l-.7,2.84Zm-3,.61-.83,3.08-3.53-2,4.06-13.25,4.36,2.52,3.64,17.69-3.53-2-.81-4Z" transform="translate(0 -0.95)"/><path class="a" d="M253.28,135.4a4.79,4.79,0,0,0,.64.41c1.75,1,3.28.46,3.28-3.84,0-3.19-1-5.72-3.19-7a3.42,3.42,0,0,0-.72-.35Zm-3.64-15.06a27.49,27.49,0,0,1,3.7,1.84,16.38,16.38,0,0,1,5.2,4.39,12.37,12.37,0,0,1,2.45,7.7c0,3.15-1,4.83-2.61,5.09-1.25.29-3.11-.3-5.73-1.8-1.14-.66-2.28-1.41-3-1.89Z" transform="translate(0 -0.95)"/><path class="a" d="M274.74,144.73c-.08-1.53-.22-3.62-.17-5.25l-.08,0a36.94,36.94,0,0,1-1.2,4.1l-1.61,4.64-2.59-1.49-1.55-6.38c-.36-1.46-.86-3.69-1.14-5.54l-.08,0c-.06,1.66-.17,3.56-.28,5l-.3,5.24-3.14-1.82,1.36-14.8,3.83,2.22,1.5,6.51c.53,2.27,1,4.28,1.33,6.23l.06,0a42.62,42.62,0,0,1,1.19-4.77l1.48-4.79,3.83,2.22,1.14,16.25-3.25-1.88Z" transform="translate(0 -0.95)"/><polygon class="a" points="284.63 139.36 284.63 154.96 280.98 152.85 280.98 137.26 284.63 139.36"/><path class="a" d="M287.87,157.78V142.19l3.34,1.92,2.9,7.78c.55,1.52,1.47,4.06,2,5.71l.06,0c-.11-1.71-.36-4.56-.36-7.43v-3.45l3.2,1.84V164.2l-3.34-1.93-2.86-7.58c-.61-1.67-1.47-4.13-1.89-5.79l-.06,0c.08,1.62.22,4.11.22,7.23v3.52Z" transform="translate(0 -0.95)"/><polygon class="a" points="237.42 206.71 241.64 209.14 241.64 225.02 247.21 228.24 247.21 231.37 237.42 225.72 237.42 206.71"/><path class="a" d="M252.1,225.63c0,4.32.93,7.05,2.64,8s2.45-1.4,2.45-5.27c0-3.33-.58-6.68-2.48-7.78-1.67-1-2.61.93-2.61,5m9.5,5.14c0,7.16-2.9,8.4-7,6-4.93-2.84-6.86-8.52-6.86-13.74s2.35-8.32,7.15-5.55c5.25,3,6.73,8.93,6.73,13.28" transform="translate(0 -0.95)"/><path class="a" d="M276.31,248.61a20.18,20.18,0,0,1-4.51-1.92,17.37,17.37,0,0,1-5.8-5.24,16,16,0,0,1-2.8-9.28c.09-6.86,4.61-7.14,9.21-4.48a17.71,17.71,0,0,1,3.54,2.61l-.74,2.76a11,11,0,0,0-2.48-1.85c-2.86-1.65-5.15-1.25-5.15,3.71,0,4.57,2,7.38,4,8.51a3.67,3.67,0,0,0,.84.4v-4.6l-1.93-1.12v-3l5.83,3.37Z" transform="translate(0 -0.95)"/><polygon class="a" points="283.68 233.41 283.68 252.42 279.46 249.98 279.46 230.97 283.68 233.41"/><path class="a" d="M287.44,255.54v-19l3.86,2.23,3.35,9.38c.64,1.84,1.71,4.91,2.31,6.9l.07,0c-.13-2.08-.42-5.55-.42-9v-4.21l3.7,2.14v19l-3.86-2.23-3.32-9.13c-.71-2-1.71-5-2.19-7l-.06,0c.09,2,.26,5,.26,8.81v4.29Z" transform="translate(0 -0.95)"/><path class="h" d="M197.14,44.38c0,3.45-2.42,4.85-5.41,3.12a11.94,11.94,0,0,1-5.41-9.37c0-3.45,2.42-4.85,5.41-3.12a12,12,0,0,1,5.41,9.37" transform="translate(0 -0.95)"/><path class="i" d="M211.94,52.92c0,3.45-2.42,4.85-5.41,3.13a12,12,0,0,1-5.41-9.37c0-3.45,2.42-4.85,5.41-3.12a12,12,0,0,1,5.41,9.37" transform="translate(0 -0.95)"/><path class="j" d="M226.73,61.46c0,3.45-2.42,4.85-5.41,3.12a11.94,11.94,0,0,1-5.41-9.37c0-3.45,2.42-4.85,5.41-3.13a12,12,0,0,1,5.41,9.37" transform="translate(0 -0.95)"/><polygon class="k" points="364.32 122.85 173.42 12.64 195.32 0 386.22 110.21 364.32 122.85"/><g class="l"><polygon class="m" points="364.33 328.76 364.32 122.84 386.22 110.2 386.22 316.12 364.33 328.76"/></g><path class="n" d="M191.61,165.9,95.29,110.3c-4.09-2.36-7.8-2.59-10.48-1L57.34,125.12c2.69-1.54,6.39-1.32,10.49,1l96.31,55.6a29.62,29.62,0,0,1,9.75,9.94l27.47-15.85a29.64,29.64,0,0,0-9.75-9.95" transform="translate(0 -0.95)"/><path class="f" d="M173.9,191.7c3.09,4.92,5.08,10.62,5.08,15.74V313c0,4.73-1.66,8.05-4.34,9.6l27.46-15.86c2.69-1.55,4.35-4.87,4.35-9.6V191.58c0-5.12-2-10.82-5.08-15.74Z" transform="translate(0 -0.95)"/><path class="e" d="M164.15,181.76l-96.32-55.6c-8.19-4.72-14.83-.89-14.83,8.56V240.27c0,9.46,6.64,21,14.83,25.68l96.32,55.6c8.19,4.72,14.83.89,14.83-8.56V207.44c0-9.45-6.64-21-14.83-25.68" transform="translate(0 -0.95)"/><path class="o" d="M153.6,245.57c0,24-16.84,33.7-37.61,21.71s-37.61-41.15-37.61-65.13,16.84-33.7,37.61-21.71,37.61,41.15,37.61,65.13" transform="translate(0 -0.95)"/><path class="f" d="M118.78,265.41c-20.77-12-37.61-41.15-37.61-65.13,0-10.47,3.22-18.22,8.56-22.64-7,3.85-11.35,12.32-11.35,24.5,0,24,16.84,53.14,37.61,65.13,11.7,6.75,22.15,6.62,29,.92-6.78,3.73-16,3.11-26.26-2.79" transform="translate(0 -0.95)"/><path class="f" d="M127,219.32c0-7-4.93-15.55-11-19.06s-11-.66-11,6.35c0,5.32,2.83,11.49,6.84,15.7L107,242.24l18,10.42-4.86-25.53c4,.42,6.85-2.49,6.85-7.8" transform="translate(0 -0.95)"/><path class="k" d="M170.09,175.44a17,17,0,0,1-8.38-2c-2.58-1.49-4-3.58-4-5.87s1.42-4.39,4-5.88a18.31,18.31,0,0,1,16.76,0c2.58,1.49,4,3.58,4,5.88s-1.42,4.39-4,5.87a17,17,0,0,1-8.38,2" transform="translate(0 -0.95)"/><path class="k" d="M91.78,133a17,17,0,0,1-8.4-2c-2.58-1.49-4-3.58-4-5.88s1.42-4.39,4-5.89a18.32,18.32,0,0,1,16.79,0c2.58,1.49,4,3.58,4,5.89s-1.42,4.39-4,5.88a17,17,0,0,1-8.39,2" transform="translate(0 -0.95)"/><path class="p" d="M177.57,163.22c4.13,2.38,4.13,6.25,0,8.63a16.56,16.56,0,0,1-15,0c-4.13-2.39-4.13-6.25,0-8.63a16.51,16.51,0,0,1,15,0" transform="translate(0 -0.95)"/><path class="p" d="M99.27,120.8c4.13,2.39,4.13,6.26,0,8.65a16.58,16.58,0,0,1-15,0c-4.14-2.39-4.14-6.26,0-8.65a16.55,16.55,0,0,1,15,0" transform="translate(0 -0.95)"/><path class="p" d="M90.37,126.64l11.94-1.52V93.7c0-18.22,12.83-25.63,28.61-16.52s28.61,31.34,28.61,49.55v40.81L174.67,165c2,1.14,4.3.73,6,2.58V138.93c0-31.71-22.27-70.28-49.74-86.14h0c-27.47-15.86-49.74-3-49.74,28.72v43.62c1.69.11,7.21.38,9.18,1.52" transform="translate(0 -0.95)"/><path class="m" d="M177.57,163.22c4.13,2.38,4.13,6.25,0,8.63a16.56,16.56,0,0,1-15,0c-4.13-2.39-4.13-6.25,0-8.63a16.51,16.51,0,0,1,15,0" transform="translate(0 -0.95)"/><path class="m" d="M99.27,120.8c4.13,2.39,4.13,6.26,0,8.65a16.58,16.58,0,0,1-15,0c-4.14-2.39-4.14-6.26,0-8.65a16.55,16.55,0,0,1,15,0" transform="translate(0 -0.95)"/><path class="k" d="M90.37,126.64l11.94-1.52V93.7c0-18.22,12.83-25.63,28.61-16.52s28.61,31.34,28.61,49.55v40.81L174.67,165c2,1.14,4.3.73,6,2.58V138.93c0-31.71-22.27-70.28-49.74-86.14h0c-27.47-15.86-49.74-3-49.74,28.72v43.62c1.69.11,7.21.38,9.18,1.52" transform="translate(0 -0.95)"/><path class="m" d="M91.88,106.57v24.67a15.25,15.25,0,0,0,7.39-1.78c2.24-1.29,3.22-3,3-4.7V93.7c0-12.84,6.4-20.28,15.69-20.38-15.24-2.63-26.12,9.87-26.12,33.25" transform="translate(0 -0.95)"/><path class="q" d="M109.07,204.26a9.33,9.33,0,0,1,1.49-5.41c-3.31.27-5.57,3-5.57,7.77,0,5.31,2.83,11.49,6.84,15.7l4.08-2.35c-4-4.21-6.84-10.39-6.84-15.71" transform="translate(0 -0.95)"/><polygon class="q" points="124 246.41 111.06 238.94 106.97 241.29 125.01 251.71 124 246.41"/><polygon class="q" points="111.05 238.94 115.91 219.02 111.83 221.38 106.97 241.29 111.05 238.94"/></svg>