<?xml version="1.0" encoding="utf-8"?>
<!-- Generator: Adobe Illustrator 20.1.0, SVG Export Plug-In . SVG Version: 6.00 Build 0)  -->
<svg version="1.1" id="Layer_1" xmlns="http://www.w3.org/2000/svg" xmlns:xlink="http://www.w3.org/1999/xlink" x="0px" y="0px"
	 viewBox="0 0 2400 2400" style="enable-background:new 0 0 2400 2400;" xml:space="preserve">
<style type="text/css">
	.st0{fill:url(#SVGID_1_);}
	.st1{fill:url(#SVGID_2_);}
	.st2{fill:#FFFFFF;}
	.st3{fill:url(#SVGID_3_);}
</style>
<g>
	<linearGradient id="SVGID_1_" gradientUnits="userSpaceOnUse" x1="1576.4729" y1="938.298" x2="606.3676" y2="1498.3887">
		<stop  offset="0.45" style="stop-color:#17529A"/>
		<stop  offset="0.8" style="stop-color:#092241"/>
	</linearGradient>
	<path class="st0" d="M1554.9,1006.1H845.1c-61.6,0-112.1,50.4-112.1,112.1v569.7c0,34.4,15.7,65.2,40.2,85.8l862.4-733
		C1615.2,1019.5,1586.6,1006.1,1554.9,1006.1z"/>
	<linearGradient id="SVGID_2_" gradientUnits="userSpaceOnUse" x1="1796.5133" y1="1312.79" x2="829.4711" y2="1871.1121">
		<stop  offset="0.2" style="stop-color:#A0DBEF"/>
		<stop  offset="0.8" style="stop-color:#05539D"/>
	</linearGradient>
	<path class="st1" d="M773.2,1773.7c19.5,16.4,44.6,26.3,71.8,26.3h709.8c61.6,0,112.1-50.4,112.1-112.1v-569.7
		c0-30-12-57.3-31.4-77.5L773.2,1773.7z"/>
	<circle class="st2" cx="1209.3" cy="1403.1" r="121.4"/>
	<radialGradient id="SVGID_3_" cx="1618.1366" cy="479.9235" r="791.7161" gradientUnits="userSpaceOnUse">
		<stop  offset="0" style="stop-color:#000004"/>
		<stop  offset="0.7551" style="stop-color:#17529A"/>
		<stop  offset="0.9091" style="stop-color:#5C9CD4"/>
		<stop  offset="1" style="stop-color:#5C9CD4"/>
	</radialGradient>
	<path class="st3" d="M1045.9,1006.1V875.5c0-89.9,73.6-163.4,163.4-163.4s163.4,73.6,163.4,163.4v130.6h116.7V880.2
		c0-154.1-126.1-280.2-280.2-280.2S929.1,726.1,929.1,880.2v125.9H1045.9z"/>
</g>
</svg>
