<svg xmlns="http://www.w3.org/2000/svg" viewBox="0 0 459 89.11"><defs><style>.a{fill:#fff;}</style></defs><title>logo-mono</title><path class="a" d="M111.38,55a19.1,19.1,0,0,0,3.8,2.44,10.33,10.33,0,0,0,4.5.93,6,6,0,0,0,4.18-1.28A4.09,4.09,0,0,0,125.25,54a3.21,3.21,0,0,0-.58-1.92,5.77,5.77,0,0,0-1.48-1.42,10.84,10.84,0,0,0-2.06-1.07l-2.32-.93q-1.51-.52-3-1.19a12.06,12.06,0,0,1-2.7-1.63,8.22,8.22,0,0,1-1.94-2.24,5.94,5.94,0,0,1-.75-3.08,7.61,7.61,0,0,1,.67-3.16A7.29,7.29,0,0,1,113,34.79a9.08,9.08,0,0,1,3-1.68,13.61,13.61,0,0,1,9,.32,15.26,15.26,0,0,1,3.86,2.26l-2.26,3a15.17,15.17,0,0,0-3-1.8,8.34,8.34,0,0,0-3.43-.7,5.43,5.43,0,0,0-3.92,1.22A3.86,3.86,0,0,0,115,40.28,2.85,2.85,0,0,0,115.5,42a5,5,0,0,0,1.39,1.28,11.36,11.36,0,0,0,2,1l2.35.9q1.51.58,3,1.22a11.69,11.69,0,0,1,2.76,1.6,7.85,7.85,0,0,1,2,2.35,6.77,6.77,0,0,1,.78,3.37,8,8,0,0,1-.67,3.25,7.74,7.74,0,0,1-2,2.67,9.44,9.44,0,0,1-3.25,1.83,13.65,13.65,0,0,1-4.44.67,15.19,15.19,0,0,1-5.75-1.1A17.93,17.93,0,0,1,109,58.22Zm25.89-17.94h-4.18v-3.6l4.41-.29.58-7.9h4v7.9h7.6v3.89h-7.6V52.76a7.19,7.19,0,0,0,1,4,3.8,3.8,0,0,0,3.4,1.42,6.33,6.33,0,0,0,1.63-.23,12.38,12.38,0,0,0,1.57-.52l.93,3.6a24.68,24.68,0,0,1-2.53.73,11.82,11.82,0,0,1-2.7.32,9.21,9.21,0,0,1-3.8-.7A6.54,6.54,0,0,1,139,59.5a7.46,7.46,0,0,1-1.36-3,16.87,16.87,0,0,1-.41-3.83Zm16.14,10.28a17.09,17.09,0,0,1,1.07-6.24,14.61,14.61,0,0,1,2.84-4.67,12.34,12.34,0,0,1,4-2.93,11.37,11.37,0,0,1,4.7-1,11.81,11.81,0,0,1,4.79.93,9.34,9.34,0,0,1,3.54,2.67,12.25,12.25,0,0,1,2.18,4.18,18.42,18.42,0,0,1,.75,5.46,16.31,16.31,0,0,1-.17,2.61h-19a11.22,11.22,0,0,0,2.82,7.26,8.65,8.65,0,0,0,6.59,2.67,11.09,11.09,0,0,0,3.74-.61,16.57,16.57,0,0,0,3.28-1.6l1.68,3.13a24,24,0,0,1-4.12,2,14.32,14.32,0,0,1-5.17.87,13.81,13.81,0,0,1-5.31-1,12.59,12.59,0,0,1-4.3-2.9,13.44,13.44,0,0,1-2.87-4.62A17.28,17.28,0,0,1,153.41,47.36Zm19.74-2.15q0-4.35-1.83-6.65a6.2,6.2,0,0,0-5.14-2.29,7,7,0,0,0-2.87.61,8,8,0,0,0-2.47,1.74A9.29,9.29,0,0,0,159,41.41a12.88,12.88,0,0,0-1,3.8Zm9.06,2.15a17.09,17.09,0,0,1,1.07-6.24,14.6,14.6,0,0,1,2.84-4.67,12.34,12.34,0,0,1,4-2.93,11.37,11.37,0,0,1,4.7-1,11.81,11.81,0,0,1,4.79.93,9.34,9.34,0,0,1,3.54,2.67,12.25,12.25,0,0,1,2.18,4.18,18.42,18.42,0,0,1,.75,5.46,16.31,16.31,0,0,1-.17,2.61h-19a11.22,11.22,0,0,0,2.82,7.26,8.65,8.65,0,0,0,6.59,2.67,11.09,11.09,0,0,0,3.74-.61,16.57,16.57,0,0,0,3.28-1.6L205,59.21a24,24,0,0,1-4.12,2,14.32,14.32,0,0,1-5.17.87,13.81,13.81,0,0,1-5.31-1,12.59,12.59,0,0,1-4.3-2.9,13.44,13.44,0,0,1-2.87-4.62A17.28,17.28,0,0,1,182.2,47.36Zm19.74-2.15q0-4.35-1.83-6.65A6.2,6.2,0,0,0,195,36.27a7,7,0,0,0-2.87.61,8,8,0,0,0-2.47,1.74,9.29,9.29,0,0,0-1.83,2.79,12.88,12.88,0,0,0-1,3.8Zm11.15-12H217l.41,4.06h.17a19.49,19.49,0,0,1,4-3.4,8.74,8.74,0,0,1,4.73-1.36,8.09,8.09,0,0,1,5.08,1.42,8.25,8.25,0,0,1,2.7,4A23.81,23.81,0,0,1,238.6,34a8.61,8.61,0,0,1,4.85-1.48q4.35,0,6.47,2.79T252,43.53V61.41h-4.76V44.17q0-4-1.28-5.78a4.54,4.54,0,0,0-3.95-1.77q-3.19,0-7.08,4.35V61.41h-4.76V44.17q0-4-1.28-5.78a4.6,4.6,0,0,0-4-1.77q-3.19,0-7.08,4.35V61.41h-4.76ZM258.54,47a16,16,0,0,1,1.22-6.41A13.9,13.9,0,0,1,263,35.87a14.27,14.27,0,0,1,4.79-2.93,16.17,16.17,0,0,1,5.69-1,12.36,12.36,0,0,1,4.82.9,10.59,10.59,0,0,1,3.6,2.41L278,40.51a6.32,6.32,0,0,0-4-1.68A6,6,0,0,0,269.11,41a9.18,9.18,0,0,0-1.8,6,9.08,9.08,0,0,0,1.83,6,5.74,5.74,0,0,0,4.62,2.21,6.27,6.27,0,0,0,2.84-.64,13.88,13.88,0,0,0,2.32-1.45l3.43,5.4a13.49,13.49,0,0,1-4.64,2.73,15.2,15.2,0,0,1-10.54-.15,13,13,0,0,1-4.5-2.93,13.61,13.61,0,0,1-3-4.73A17.48,17.48,0,0,1,258.54,47ZM284,47a16.7,16.7,0,0,1,1.16-6.41,14.07,14.07,0,0,1,3.11-4.73,13.4,13.4,0,0,1,4.5-2.93,14.17,14.17,0,0,1,5.28-1,14,14,0,0,1,5.25,1,13.48,13.48,0,0,1,4.47,2.93,14.07,14.07,0,0,1,3.11,4.73A16.7,16.7,0,0,1,312.07,47a16.7,16.7,0,0,1-1.16,6.41,14.07,14.07,0,0,1-3.11,4.73,13.48,13.48,0,0,1-4.47,2.93,14,14,0,0,1-5.25,1,14.17,14.17,0,0,1-5.28-1,13.4,13.4,0,0,1-4.5-2.93,14.07,14.07,0,0,1-3.11-4.73A16.7,16.7,0,0,1,284,47Zm8.77,0a11.71,11.71,0,0,0,1.31,6A4.66,4.66,0,0,0,302,53a11.5,11.5,0,0,0,1.34-6A11.5,11.5,0,0,0,302,41a4.66,4.66,0,0,0-7.92,0A11.71,11.71,0,0,0,292.79,47Zm25.14-14.4h7l.58,3.66h.23a23.22,23.22,0,0,1,4.06-3,10,10,0,0,1,5.17-1.31q4.7,0,6.82,3.08t2.12,8.53V61.41h-8.53V44.63q0-3.13-.84-4.3a3.11,3.11,0,0,0-2.7-1.16,5.15,5.15,0,0,0-2.79.73A16.31,16.31,0,0,0,326.47,42V61.41h-8.53Zm33.21,0h7l.58,3.66h.23a23.22,23.22,0,0,1,4.06-3,10,10,0,0,1,5.17-1.31q4.7,0,6.82,3.08t2.12,8.53V61.41h-8.53V44.63q0-3.13-.84-4.3a3.11,3.11,0,0,0-2.7-1.16,5.15,5.15,0,0,0-2.79.73A16.31,16.31,0,0,0,359.67,42V61.41h-8.53ZM382.66,47a16.38,16.38,0,0,1,1.16-6.3,14.9,14.9,0,0,1,3-4.76,13.25,13.25,0,0,1,4.32-3,12.7,12.7,0,0,1,5.05-1,12.84,12.84,0,0,1,5.37,1,10.61,10.61,0,0,1,3.83,2.9,12.31,12.31,0,0,1,2.29,4.38,19.08,19.08,0,0,1,.75,5.49,17.7,17.7,0,0,1-.12,2.12q-.12,1-.23,1.48H390.9a7.2,7.2,0,0,0,2.58,4.79,8,8,0,0,0,4.91,1.48,11.85,11.85,0,0,0,6.21-1.92l2.84,5.17a18.91,18.91,0,0,1-4.91,2.38,17.24,17.24,0,0,1-5.31.87,16,16,0,0,1-5.75-1,13.25,13.25,0,0,1-4.64-3,13.54,13.54,0,0,1-3.08-4.73A17.25,17.25,0,0,1,382.66,47Zm18.58-3a6.91,6.91,0,0,0-1.1-4.06,4.22,4.22,0,0,0-3.72-1.57,5.22,5.22,0,0,0-3.57,1.36,7,7,0,0,0-2,4.27Zm11.49,3A16,16,0,0,1,414,40.6a13.9,13.9,0,0,1,3.28-4.73A14.27,14.27,0,0,1,422,32.94a16.17,16.17,0,0,1,5.69-1,12.36,12.36,0,0,1,4.82.9,10.59,10.59,0,0,1,3.6,2.41l-3.89,5.28a6.32,6.32,0,0,0-4-1.68A6,6,0,0,0,423.3,41a9.18,9.18,0,0,0-1.8,6,9.08,9.08,0,0,0,1.83,6,5.74,5.74,0,0,0,4.62,2.21,6.27,6.27,0,0,0,2.84-.64,13.88,13.88,0,0,0,2.32-1.45l3.43,5.4a13.49,13.49,0,0,1-4.64,2.73,15.2,15.2,0,0,1-10.54-.15,13,13,0,0,1-4.5-2.93,13.61,13.61,0,0,1-3-4.73A17.48,17.48,0,0,1,412.73,47Zm30-7.72h-3.95V33l4.41-.35,1-7.66h7.08v7.66h6.91v6.68h-6.91V50.85a5,5,0,0,0,1,3.51,3.54,3.54,0,0,0,2.7,1.07,6.08,6.08,0,0,0,1.42-.17,9.49,9.49,0,0,0,1.31-.41L459,61.06q-1.16.35-2.73.7a17,17,0,0,1-3.66.35,11.49,11.49,0,0,1-4.56-.81A8,8,0,0,1,445,59a9.21,9.21,0,0,1-1.74-3.51,17.61,17.61,0,0,1-.55-4.56Z"/><path class="a" d="M44.58,80A35.4,35.4,0,1,1,69,18.91a2.07,2.07,0,0,1-2.85,3,31.26,31.26,0,1,0,9.67,24.74H44.58a2.07,2.07,0,1,1,0-4.13H80v2.07A35.4,35.4,0,0,1,44.58,80"/><path class="a" d="M44.55,54.32a9.7,9.7,0,1,0-9.7-9.7,9.7,9.7,0,0,0,9.7,9.7"/><path class="a" d="M69.64,74A6,6,0,0,1,67,78.11l-.15.12a2.11,2.11,0,0,0-.29.15A40.37,40.37,0,0,1,5.45,54.58c-.09-.37-.18-.74-.27-1.12l-.06-.28q-.09-.43-.18-.86L4.88,52q-.08-.44-.15-.88l0-.28q-.09-.58-.17-1.17h0c0-.38-.09-.76-.13-1.15,0-.12,0-.23,0-.35q0-.41-.07-.83,0-.2,0-.4c0-.28,0-.55,0-.83,0-.12,0-.24,0-.37,0-.39,0-.79,0-1.18s0-.68,0-1c0-.11,0-.22,0-.33s0-.45,0-.68,0-.27,0-.4,0-.4,0-.6,0-.28,0-.42,0-.38.05-.57,0-.29,0-.44,0-.37.06-.55,0-.3.06-.45,0-.36.08-.54l.07-.45c0-.18.06-.35.09-.53l.08-.45.1-.52.09-.45.11-.51.1-.44.12-.51.11-.44.14-.5.12-.44.15-.49.14-.44.16-.49.14-.43L6.55,31l.16-.43.18-.48L7,29.65l.2-.48.17-.41.21-.48.18-.4L8,27.4,8.21,27l.24-.48.19-.37.27-.51.18-.33.44-.79.19-.33.31-.53.22-.36.28-.45.25-.38.27-.41.26-.38.28-.4.28-.38.28-.38.29-.38.28-.37.3-.38.29-.36.31-.37.3-.35.32-.37.3-.34.33-.36.31-.33.34-.36.32-.32.35-.35.32-.31.36-.35.32-.3.37-.34.33-.29.38-.34.33-.28.4-.33.33-.26.41-.33.32-.25.43-.33.31-.23.46-.33.28-.2.5-.34.19-.13q1-.66,2-1.27l.15-.09L25,9.26l.27-.15.53-.28.31-.16.52-.26L27,8.24,27.47,8l.35-.16.52-.23.36-.16.52-.22.37-.15.52-.2.38-.14L31,6.54l.38-.13.53-.18.38-.12.54-.17.39-.11.55-.16.39-.1.55-.14.39-.09.56-.13L36,5.1,36.61,5,37,4.91l.59-.11.37-.06.6-.1.36-.05.63-.09.32,0,.67-.07.25,0,.74-.06q1.51-.11,3-.11a40.2,40.2,0,0,1,22,6.53,2.11,2.11,0,0,0,.29.15L67,11a6,6,0,0,1,2.63,4.11,7.42,7.42,0,0,1-1.41,5.74c-2.35,3.08-7.09,3-10.13,1.21a2.06,2.06,0,0,0-.41-.19,26.08,26.08,0,0,0-16.51-3.3h0a26.05,26.05,0,0,0-11.9,4.71l-.08.06-.81.62-.14.11-.74.62-.18.15-.69.62-.2.19-.64.64-.2.21-.61.66-.19.22-.58.69-.16.2c-.19.24-.39.49-.58.74l-.05.07a26.43,26.43,0,0,0-1.64,2.53l-.22.37c-.11.2-.21.4-.31.6l-.25.49-.27.58-.25.54-.23.57-.23.58-.2.56-.21.61-.17.56q-.1.32-.18.64c-.05.18-.1.37-.15.56s-.11.45-.15.67-.08.37-.12.55-.09.47-.13.7-.06.36-.09.54-.07.5-.1.75,0,.34-.06.51,0,.57-.07.85,0,.29,0,.43c0,.43,0,.86,0,1.3s0,.85,0,1.27c0,.15,0,.29,0,.43s0,.55.06.82,0,.35.06.52.06.48.09.71.06.37.09.56.07.44.12.65.08.39.12.58.09.4.14.61.1.4.15.6.11.38.16.57.12.41.18.61.12.35.18.52.14.42.22.62h0a26.21,26.21,0,0,0,37.72,13.6A2.06,2.06,0,0,0,58.1,67c3-1.82,7.79-1.87,10.13,1.21A7.42,7.42,0,0,1,69.64,74M56.1,63.36a2.11,2.11,0,0,0-.41.18A22,22,0,0,1,23,49v0c-.07-.32-.12-.65-.18-1l0-.11c0-.3-.08-.61-.12-.92,0-.06,0-.12,0-.19,0-.29,0-.58-.07-.86,0-.09,0-.17,0-.26q0-.56,0-1.13c0-.36,0-.73,0-1.08,0-.12,0-.24,0-.36s0-.48.05-.71,0-.28,0-.42,0-.42.08-.63,0-.3.07-.44.07-.4.11-.6l.09-.45c0-.19.09-.38.13-.57l.12-.45.16-.55.14-.45.18-.54.16-.44.21-.52.18-.44.23-.51.2-.42.26-.51.26-.48c.14-.26.29-.51.44-.76l.29-.46.25-.39.33-.47.25-.36.35-.46.26-.33.38-.45.27-.31.41-.45.27-.28.44-.44.26-.25.48-.44.24-.21.53-.45.19-.15.61-.47.05,0a22.1,22.1,0,0,1,3.23-2l0,0,.77-.36.14-.07.75-.31.19-.07.75-.27.2-.07.76-.24.21-.06.78-.2.19,0,.82-.18.14,0,.89-.15a22,22,0,0,1,14.28,2.8,2.11,2.11,0,0,0,.41.18c4.7,2.71,11.71,2.57,15.47-2.36a11.62,11.62,0,0,0,2.2-9A10.2,10.2,0,0,0,69.3,7.48,2.17,2.17,0,0,0,69,7.32l-.13-.1A44.38,44.38,0,0,0,44.55,0q-1.76,0-3.49.14L40,.23l-.51.06-.58.07-.53.07L37.86.5l-.54.09-.54.09-.54.1-.53.1L35.18,1l-.53.11-.53.13-.52.13-.52.14-.51.14-.52.15-.51.15L31,2.1l-.5.16L30,2.44l-.5.18L29,2.8,28.52,3l-.5.2-.49.2L27,3.59l-.48.21L26.07,4l-.48.22-.47.23-.48.24-.47.24-.47.25-.46.24-.48.27-.44.25-.48.29-.42.25-.51.32L20.54,7l-.86.57-.33.23-.53.37-.38.28L18,8.82l-.39.3-.44.34-.39.31-.43.34-.39.32-.42.35-.38.33-.41.36-.37.34-.4.37-.37.35-.39.38-.36.36-.38.39-.35.37-.37.4-.34.37-.36.41-.33.38-.35.42-.32.39-.34.43-.31.39-.34.44-.3.39-.33.45-.28.39-.33.47-.27.39-.32.49L7,20.62l-.32.52-.23.37-.35.6-.18.3-.51.91-.1.19-.39.74-.18.35-.29.59-.19.4L4,26.16l-.19.42-.24.55-.18.44-.22.54L3,28.57l-.21.54-.17.46-.19.54-.16.47-.18.55-.15.48-.16.55-.14.48-.15.56-.12.48-.14.56-.11.49L1,35.29l-.1.49-.11.58-.09.49c0,.19-.07.39-.1.58s-.05.33-.08.49-.06.4-.08.59,0,.33-.07.49,0,.41-.07.61,0,.32-.05.48,0,.42-.06.63,0,.31,0,.47,0,.45,0,.67,0,.29,0,.44,0,.5,0,.75,0,.25,0,.37Q0,44,0,44.55c0,.41,0,.82,0,1.23,0,.13,0,.26,0,.39,0,.28,0,.56,0,.84s0,.3,0,.44,0,.52.06.79,0,.3,0,.44.05.53.08.79l0,.42q.05.42.11.83l.05.37c0,.31.1.62.15.93l0,.25q.21,1.22.49,2.41h0a44.56,44.56,0,0,0,67.7,27.2l.13-.1a2.17,2.17,0,0,0,.31-.16,10.2,10.2,0,0,0,4.47-6.91,11.62,11.62,0,0,0-2.2-9c-3.76-4.94-10.77-5.07-15.47-2.36"/></svg>