<svg xmlns="http://www.w3.org/2000/svg" viewBox="0 0 223.42 38.22"><defs><style>.a,.b{fill:#fff;}.a{stroke:#fff;stroke-width:0.5px;}</style></defs><title>logo-white</title><path class="a" d="M19.23,34.68A15.4,15.4,0,1,1,29.83,8.11a.9.9,0,0,1-1.24,1.3A13.6,13.6,0,1,0,32.8,20.18H19.23a.9.9,0,1,1,0-1.8h15.4v.9a15.4,15.4,0,0,1-15.4,15.4" transform="translate(0 -0.17)"/><path class="b" d="M19.11,23.44A4.16,4.16,0,1,0,15,19.28a4.16,4.16,0,0,0,4.16,4.16" transform="translate(0 -0.17)"/><path class="b" d="M29.87,31.91a2.59,2.59,0,0,1-1.13,1.76l-.06.05-.12.06A17.32,17.32,0,0,1,2.34,23.58c0-.16-.08-.32-.11-.48l0-.12-.08-.37,0-.14L2,22.09,2,22q0-.25-.07-.5h0c0-.16,0-.33-.05-.49v-.15q0-.18,0-.36V20.3c0-.12,0-.24,0-.35v-.16c0-.17,0-.34,0-.51s0-.29,0-.44,0-.1,0-.14,0-.19,0-.29v-.17c0-.09,0-.17,0-.26l0-.18,0-.25,0-.19,0-.24,0-.19,0-.23,0-.19,0-.23,0-.19,0-.22,0-.19,0-.22,0-.19.05-.22,0-.19.06-.21.05-.19.06-.21.06-.19.07-.21.06-.18.07-.21.07-.18L3,13.07,3,12.89l.08-.21.07-.18.09-.2.08-.17.1-.2.08-.17.1-.21.08-.16.12-.22L3.9,11l.19-.34.08-.14.13-.23.1-.15L4.52,10l.11-.16.12-.18.11-.16L5,9.3l.12-.16L5.21,9l.12-.16.12-.16.13-.16.12-.15.13-.16L6,8l.14-.16.13-.15.14-.16.13-.14.15-.15.14-.14L6.95,7l.14-.13.16-.15.14-.13.16-.15.14-.12.16-.14L8,6l.17-.14.14-.11.18-.14.14-.11.18-.14.13-.1.2-.14.12-.08.21-.15.08-.05q.43-.29.87-.55l.06,0,.24-.14.11-.06L11.06,4l.13-.07.22-.11.14-.07.22-.11.15-.07.22-.1.15-.07.22-.09.16-.06.22-.09.16-.06L13.3,3l.16-.06.23-.08.16-.05.23-.07.17,0,.23-.07.17,0,.24-.06.17,0,.24-.06.17,0,.25-.05.16,0,.25,0,.16,0,.26,0,.15,0,.27,0,.14,0,.29,0h.11l.32,0q.65,0,1.3,0a17.25,17.25,0,0,1,9.45,2.8l.12.06.06.05a2.59,2.59,0,0,1,1.13,1.76,3.18,3.18,0,0,1-.6,2.46,3.41,3.41,0,0,1-4.35.52l-.18-.08a11.19,11.19,0,0,0-7.08-1.42h0a11.18,11.18,0,0,0-5.1,2l0,0-.35.26-.06,0-.32.26-.08.07-.3.27-.08.08-.28.27-.09.09-.26.28-.08.09-.25.29-.07.09-.25.32,0,0a11.34,11.34,0,0,0-.7,1.09l-.09.16-.13.26L9,14.35l-.12.25-.11.23-.1.24-.1.25-.09.24-.09.26-.07.24-.08.27-.06.24-.07.29-.05.24c0,.1,0,.2-.05.3l0,.23c0,.11,0,.22,0,.32s0,.15,0,.22,0,.24,0,.36,0,.12,0,.18,0,.37,0,.56,0,.36,0,.55,0,.12,0,.19,0,.23,0,.35,0,.15,0,.22,0,.2,0,.31l0,.24,0,.28.05.25.06.26.06.26.07.24.08.26.08.23.09.27h0A11.24,11.24,0,0,0,24.75,29l.18-.08a3.41,3.41,0,0,1,4.35.52,3.18,3.18,0,0,1,.6,2.46m-5.81-4.56-.17.08a9.45,9.45,0,0,1-14-6.22v0c0-.14-.05-.28-.08-.42v0c0-.13,0-.26-.05-.39v-.08c0-.12,0-.25,0-.37s0-.07,0-.11,0-.32,0-.49,0-.31,0-.47,0-.1,0-.15,0-.2,0-.31l0-.18c0-.09,0-.18,0-.27l0-.19,0-.26,0-.19L9.94,17l.05-.19.07-.24.06-.19.08-.23.07-.19.09-.22.08-.19.1-.22.08-.18.11-.22.11-.21.19-.33.13-.2.11-.17.14-.2.11-.15.15-.2.11-.14.16-.2L12,13l.18-.19.11-.12.19-.19.11-.11.21-.19.1-.09.23-.19.08-.07.26-.2,0,0a9.48,9.48,0,0,1,1.38-.84h0l.33-.15.06,0,.32-.13.08,0,.32-.12.09,0,.32-.1.09,0,.33-.09.08,0,.35-.08h.06l.38-.06a9.43,9.43,0,0,1,6.13,1.2l.17.08c2,1.16,5,1.1,6.64-1a5,5,0,0,0,.95-3.86,4.37,4.37,0,0,0-1.92-3l-.13-.07-.05,0A19,19,0,0,0,19.11.17q-.76,0-1.5.06l-.44,0L17,.29l-.25,0-.23,0-.24,0L16,.42l-.23,0-.23,0-.23,0-.23,0-.23,0L14.64.7l-.22.05-.23.06L14,.87l-.22.06L13.53,1l-.22.07-.22.07-.22.07-.21.08-.22.08-.21.08L12,1.53l-.21.09-.21.09-.21.09-.21.09L11,2l-.2.1-.2.1-.2.1-.2.11-.2.1-.2.11-.19.11-.21.12L9.19,3,9,3.09l-.16.1-.37.24-.14.1-.23.16-.16.12L7.71,4l-.17.13-.19.14-.17.13L7,4.51l-.17.14-.18.15-.16.14-.17.15-.16.15L6,5.4l-.16.15-.17.16-.15.15L5.35,6l-.15.16L5,6.36l-.14.16-.16.18-.14.16L4.45,7l-.14.17-.15.18L4,7.55l-.14.19-.13.17-.14.19-.12.17-.14.2-.12.17-.14.21L3,9l-.14.22-.1.16-.15.26-.08.13-.22.39,0,.08-.17.32L2,10.73,1.9,11l-.08.17-.11.24-.08.18-.1.23L1.44,12l-.1.23-.08.19-.09.23-.07.2L1,13.08l-.07.2-.08.23-.06.2L.75,14l-.06.21-.06.24-.05.21-.06.24,0,.21-.05.24,0,.21,0,.25,0,.21,0,.25,0,.21,0,.25,0,.21,0,.26,0,.21,0,.27,0,.2c0,.1,0,.19,0,.29s0,.13,0,.19,0,.21,0,.32,0,.11,0,.16,0,.32,0,.48,0,.35,0,.53,0,.11,0,.17,0,.24,0,.36v.19c0,.11,0,.23,0,.34l0,.19q0,.17,0,.34l0,.18,0,.36,0,.16c0,.13,0,.27.06.4l0,.11q.09.52.21,1h0a19.12,19.12,0,0,0,29,11.67l.05,0,.13-.07a4.37,4.37,0,0,0,1.92-3,5,5,0,0,0-.95-3.86c-1.61-2.12-4.62-2.17-6.64-1" transform="translate(0 -0.17)"/><path class="b" d="M53.44,24.9a9.34,9.34,0,0,0,1.86,1.19,5,5,0,0,0,2.2.45,2.94,2.94,0,0,0,2-.62,2,2,0,0,0,.68-1.53,1.57,1.57,0,0,0-.28-.94,2.82,2.82,0,0,0-.72-.7,5.3,5.3,0,0,0-1-.53l-1.14-.45q-.74-.26-1.48-.58a5.9,5.9,0,0,1-1.32-.79,4,4,0,0,1-1-1.09A2.91,2.91,0,0,1,53,17.8a3.72,3.72,0,0,1,.33-1.55A3.56,3.56,0,0,1,54.22,15a4.44,4.44,0,0,1,1.49-.82,6.65,6.65,0,0,1,4.39.16A7.46,7.46,0,0,1,62,15.44l-1.11,1.48A7.42,7.42,0,0,0,59.4,16a4.08,4.08,0,0,0-1.67-.34,2.66,2.66,0,0,0-1.92.6,1.89,1.89,0,0,0-.61,1.39,1.4,1.4,0,0,0,.26.84,2.42,2.42,0,0,0,.68.62,5.55,5.55,0,0,0,1,.48l1.15.44,1.49.6a5.71,5.71,0,0,1,1.35.78,3.84,3.84,0,0,1,1,1.15,3.31,3.31,0,0,1,.38,1.65,3.89,3.89,0,0,1-.33,1.59,3.78,3.78,0,0,1-1,1.31,4.61,4.61,0,0,1-1.59.89,6.67,6.67,0,0,1-2.17.33,7.43,7.43,0,0,1-2.81-.54,8.77,8.77,0,0,1-2.33-1.36ZM66.1,16.12h-2V14.36l2.16-.14.28-3.86h2v3.86h3.72v1.9H68.46v7.66a3.51,3.51,0,0,0,.47,2,1.86,1.86,0,0,0,1.66.7,3.09,3.09,0,0,0,.79-.11,6.05,6.05,0,0,0,.77-.26l.45,1.76a12.07,12.07,0,0,1-1.23.35,5.78,5.78,0,0,1-1.32.16A4.5,4.5,0,0,1,68.19,28,3.2,3.2,0,0,1,67,27.08a3.65,3.65,0,0,1-.67-1.45,8.25,8.25,0,0,1-.2-1.87Zm7.89,5a8.36,8.36,0,0,1,.53-3.05,7.14,7.14,0,0,1,1.39-2.29,6,6,0,0,1,2-1.43,5.56,5.56,0,0,1,2.3-.5,5.78,5.78,0,0,1,2.34.45,4.57,4.57,0,0,1,1.73,1.31,6,6,0,0,1,1.06,2,9,9,0,0,1,.37,2.67,8,8,0,0,1-.09,1.28H76.29a5.48,5.48,0,0,0,1.38,3.55,4.23,4.23,0,0,0,3.22,1.31,5.42,5.42,0,0,0,1.83-.3,8.1,8.1,0,0,0,1.6-.78l.82,1.53a11.75,11.75,0,0,1-2,1,7,7,0,0,1-2.53.43,6.75,6.75,0,0,1-2.6-.5,6.16,6.16,0,0,1-2.1-1.42,6.57,6.57,0,0,1-1.41-2.26A8.45,8.45,0,0,1,74,21.15Zm9.65-1.05a5.12,5.12,0,0,0-.89-3.25,3,3,0,0,0-2.51-1.12,3.41,3.41,0,0,0-1.41.3,3.9,3.9,0,0,0-1.21.85,4.54,4.54,0,0,0-.89,1.36,6.3,6.3,0,0,0-.47,1.86Zm4.43,1.05a8.36,8.36,0,0,1,.53-3.05A7.14,7.14,0,0,1,90,15.81a6,6,0,0,1,2-1.43,5.56,5.56,0,0,1,2.3-.5,5.78,5.78,0,0,1,2.34.45,4.57,4.57,0,0,1,1.73,1.31,6,6,0,0,1,1.06,2,9,9,0,0,1,.37,2.67,8,8,0,0,1-.09,1.28H90.37a5.48,5.48,0,0,0,1.38,3.55A4.23,4.23,0,0,0,95,26.49a5.42,5.42,0,0,0,1.83-.3,8.1,8.1,0,0,0,1.6-.78l.82,1.53a11.75,11.75,0,0,1-2,1,7,7,0,0,1-2.53.43,6.75,6.75,0,0,1-2.6-.5A6.16,6.16,0,0,1,90,26.44a6.57,6.57,0,0,1-1.41-2.26A8.45,8.45,0,0,1,88.08,21.15Zm9.65-1.05a5.12,5.12,0,0,0-.89-3.25,3,3,0,0,0-2.51-1.12,3.41,3.41,0,0,0-1.41.3,3.9,3.9,0,0,0-1.21.85,4.54,4.54,0,0,0-.89,1.36,6.3,6.3,0,0,0-.47,1.86Zm5.45-5.88h1.93l.2,2h.09a9.53,9.53,0,0,1,2-1.66,4.27,4.27,0,0,1,2.31-.67,4,4,0,0,1,2.48.7,4,4,0,0,1,1.32,1.94,11.64,11.64,0,0,1,2.17-1.92,4.21,4.21,0,0,1,2.37-.72,3.72,3.72,0,0,1,3.17,1.36,6.59,6.59,0,0,1,1,4V28H119.9V19.59a4.93,4.93,0,0,0-.62-2.82,2.22,2.22,0,0,0-1.93-.87q-1.56,0-3.46,2.13V28h-2.33V19.59a4.93,4.93,0,0,0-.62-2.82,2.25,2.25,0,0,0-2-.87q-1.56,0-3.46,2.13V28h-2.33ZM125.4,21a7.83,7.83,0,0,1,.6-3.14,6.8,6.8,0,0,1,1.6-2.31,7,7,0,0,1,2.34-1.43,7.91,7.91,0,0,1,2.78-.5,6,6,0,0,1,2.36.44,5.18,5.18,0,0,1,1.76,1.18l-1.9,2.58a3.09,3.09,0,0,0-2-.82,3,3,0,0,0-2.41,1.08,4.49,4.49,0,0,0-.88,2.92,4.44,4.44,0,0,0,.89,2.92A2.81,2.81,0,0,0,132.84,25a3.07,3.07,0,0,0,1.39-.31,6.79,6.79,0,0,0,1.14-.71L137,26.6a6.6,6.6,0,0,1-2.27,1.33,7.43,7.43,0,0,1-5.15-.07,6.37,6.37,0,0,1-2.2-1.43,6.65,6.65,0,0,1-1.48-2.31A8.55,8.55,0,0,1,125.4,21Zm12.46,0a8.17,8.17,0,0,1,.57-3.14A6.88,6.88,0,0,1,140,15.53a6.55,6.55,0,0,1,2.2-1.43,6.93,6.93,0,0,1,2.58-.5,6.82,6.82,0,0,1,2.57.5,6.59,6.59,0,0,1,2.19,1.43A6.88,6.88,0,0,1,151,17.84a8.17,8.17,0,0,1,.57,3.14,8.17,8.17,0,0,1-.57,3.14,6.88,6.88,0,0,1-1.52,2.31,6.59,6.59,0,0,1-2.19,1.43,6.82,6.82,0,0,1-2.57.5,6.93,6.93,0,0,1-2.58-.5,6.55,6.55,0,0,1-2.2-1.43,6.88,6.88,0,0,1-1.52-2.31A8.17,8.17,0,0,1,137.87,21Zm4.29,0a5.73,5.73,0,0,0,.64,2.92,2.28,2.28,0,0,0,3.87,0,5.63,5.63,0,0,0,.65-2.92,5.63,5.63,0,0,0-.65-2.92,2.28,2.28,0,0,0-3.87,0A5.73,5.73,0,0,0,142.15,21Zm12.29-7h3.41l.28,1.79h.11a11.35,11.35,0,0,1,2-1.49,4.87,4.87,0,0,1,2.53-.64,3.76,3.76,0,0,1,3.34,1.5,7.28,7.28,0,0,1,1,4.17V28H163v-8.2a3.81,3.81,0,0,0-.41-2.1,1.52,1.52,0,0,0-1.32-.57,2.52,2.52,0,0,0-1.36.35,8,8,0,0,0-1.25,1V28h-4.17Zm16.24,0h3.41l.28,1.79h.11a11.35,11.35,0,0,1,2-1.49A4.87,4.87,0,0,1,179,13.6a3.76,3.76,0,0,1,3.34,1.5,7.28,7.28,0,0,1,1,4.17V28H179.2v-8.2a3.81,3.81,0,0,0-.41-2.1,1.52,1.52,0,0,0-1.32-.57,2.52,2.52,0,0,0-1.36.35,8,8,0,0,0-1.25,1V28h-4.17Zm15.41,7a8,8,0,0,1,.57-3.08,7.29,7.29,0,0,1,1.49-2.33,6.48,6.48,0,0,1,2.11-1.46,6.21,6.21,0,0,1,2.47-.51,6.28,6.28,0,0,1,2.63.51,5.19,5.19,0,0,1,1.87,1.42,6,6,0,0,1,1.12,2.14,9.33,9.33,0,0,1,.37,2.68,8.66,8.66,0,0,1-.06,1q-.06.47-.11.72h-8.43a3.52,3.52,0,0,0,1.26,2.34,3.92,3.92,0,0,0,2.4.72,5.79,5.79,0,0,0,3-.94l1.39,2.53a9.25,9.25,0,0,1-2.4,1.16,8.43,8.43,0,0,1-2.6.43,7.84,7.84,0,0,1-2.81-.5,6.48,6.48,0,0,1-2.27-1.45,6.62,6.62,0,0,1-1.5-2.31A8.44,8.44,0,0,1,186.1,21Zm9.08-1.45a3.38,3.38,0,0,0-.54-2,2.07,2.07,0,0,0-1.82-.77,2.55,2.55,0,0,0-1.75.67,3.41,3.41,0,0,0-1,2.09ZM200.8,21a7.83,7.83,0,0,1,.6-3.14,6.8,6.8,0,0,1,1.6-2.31,7,7,0,0,1,2.34-1.43,7.91,7.91,0,0,1,2.78-.5,6,6,0,0,1,2.36.44,5.18,5.18,0,0,1,1.76,1.18l-1.9,2.58a3.09,3.09,0,0,0-2-.82A3,3,0,0,0,206,18.05a4.49,4.49,0,0,0-.88,2.92A4.44,4.44,0,0,0,206,23.9,2.81,2.81,0,0,0,208.24,25a3.07,3.07,0,0,0,1.39-.31,6.78,6.78,0,0,0,1.14-.71l1.67,2.64a6.6,6.6,0,0,1-2.27,1.33,7.43,7.43,0,0,1-5.15-.07,6.37,6.37,0,0,1-2.2-1.43,6.65,6.65,0,0,1-1.48-2.31A8.55,8.55,0,0,1,200.8,21Zm14.65-3.78h-1.93V14.11l2.16-.17.48-3.75h3.46v3.75H223V17.2h-3.38v5.65a2.45,2.45,0,0,0,.5,1.72,1.73,1.73,0,0,0,1.32.53,3,3,0,0,0,.7-.09,4.64,4.64,0,0,0,.64-.2l.65,3q-.57.17-1.33.34a8.32,8.32,0,0,1-1.79.17,5.62,5.62,0,0,1-2.23-.4,3.9,3.9,0,0,1-1.5-1.11,4.5,4.5,0,0,1-.85-1.72,8.61,8.61,0,0,1-.27-2.23Z" transform="translate(0 -0.17)"/></svg>