<?xml version="1.0" encoding="utf-8"?>
<!-- Generator: Adobe Illustrator 20.1.0, SVG Export Plug-In . SVG Version: 6.00 Build 0)  -->
<svg version="1.1" id="Layer_1" xmlns="http://www.w3.org/2000/svg" xmlns:xlink="http://www.w3.org/1999/xlink" x="0px" y="0px"
	 viewBox="0 0 2400 2400" style="enable-background:new 0 0 2400 2400;" xml:space="preserve">
<style type="text/css">
	.st0{fill:#FFFFFF;}
</style>
<g>
	<path class="st0" d="M1007.9,941.9c0-106.9,87.1-192.7,192.7-192.7c51.5,0,100.3,19.8,136,56.8c37,37,56.8,84.5,56.8,136v53.5
		h150.5v-53.5c0-91.1-35.6-176.9-100.3-241.6c-11.5-11.5-23.8-22.1-36.5-31.7c-58.9-44.5-130.2-68.6-205-68.6
		c-77.1,0-148.2,25.5-205.4,68.6c-38.8,29.2-71.2,66.5-94.7,109.4c-26.7,48.7-41.9,104.5-41.9,163.9v53.5h41.9h106V941.9z"/>
	<path class="st0" d="M1636.3,1154.5c0-67.3-55.4-122.8-122.8-122.8H901.9h-14.1c-68.6,0-124.1,55.4-124.1,124.1v520.1
		c0,68.6,55.4,124.1,124.1,124.1h624.4c41.1,0,77.3-19.9,99.9-50.6c15.1-20.6,24.2-45.9,24.2-73.5V1154.5z M1200.7,1277.2
		c48.8,0,88.4,39.6,88.4,88.4c0,31.7-17.2,59.4-43.6,75.2c0,2.6,0,4,0,6.6v88.4c0,25.1-21.1,46.2-46.2,46.2
		c-25.1,0-46.2-21.1-46.2-46.2v-88.4c0-2.6,0-4,0-6.6c-23.8-15.8-40.9-43.6-40.9-75.2C1112.2,1316.8,1151.8,1277.2,1200.7,1277.2z"
		/>
</g>
</svg>
