<svg xmlns="http://www.w3.org/2000/svg" xmlns:xlink="http://www.w3.org/1999/xlink" viewBox="0 0 100.92 86.81"><defs><style>.a{fill:#fff;}.b{fill:#eff7ff;}.c{mask:url(#a);}.d{fill:#d8e8f8;}.e{fill:#4ba2f2;}.f{fill:#1a5099;}</style><mask id="a" x="18.79" y="75.88" width="6.92" height="6.92" maskUnits="userSpaceOnUse"><g transform="translate(-17.58 -16.69)"><polygon class="a" points="43.29 99.5 36.37 99.5 36.37 92.58 43.29 92.58 43.29 99.5"/></g></mask></defs><title>opensource</title><path class="b" d="M73.5,103.5c7.73,0,14-17.91,14-40s-6.27-39-14-39-14,16.91-14,39S65.77,103.5,73.5,103.5Z" transform="translate(-17.58 -16.69)"/><path class="b" d="M105.86,88.66c4.43-6.33-6.64-21.74-24.74-34.41S45.58,37,41.14,43.34,47,64.51,65.06,77.18,101.42,95,105.86,88.66Z" transform="translate(-17.58 -16.69)"/><g class="c"><path class="d" d="M39.83,97.5A1.46,1.46,0,1,0,38.37,96a1.46,1.46,0,0,0,1.46,1.46m0-4.92A3.46,3.46,0,1,1,36.37,96a3.47,3.47,0,0,1,3.46-3.46" transform="translate(-17.58 -16.69)"/></g><path class="d" d="M23.29,21.06H20.67v2.63h2.63Zm-3.63-2h4.63a1,1,0,0,1,1,1v4.63a1,1,0,0,1-1,1H19.67a1,1,0,0,1-1-1V20.06a1,1,0,0,1,1-1Z" transform="translate(-17.58 -16.69)"/><polygon class="d" points="6.71 3.37 2.09 3.37 2.09 8 6.71 8 6.71 3.37"/><path class="d" d="M115,58.5A1.46,1.46,0,1,0,113.58,57,1.46,1.46,0,0,0,115,58.5m0-4.92A3.46,3.46,0,1,1,111.58,57,3.47,3.47,0,0,1,115,53.58" transform="translate(-17.58 -16.69)"/><path class="d" d="M42.69,16.69a1,1,0,0,1,.71.29l4.81,4.81a1,1,0,0,1-1.41,1.41L42,18.4a1,1,0,0,1,.71-1.71" transform="translate(-17.58 -16.69)"/><path class="d" d="M47.5,16.69a1,1,0,0,1,.71,1.71L43.4,23.21A1,1,0,0,1,42,21.79L46.79,17a1,1,0,0,1,.71-.29" transform="translate(-17.58 -16.69)"/><path class="d" d="M104.89,89.75a1,1,0,0,1,.71.29l4.81,4.81A1,1,0,0,1,109,96.27l-4.81-4.81a1,1,0,0,1,.71-1.71" transform="translate(-17.58 -16.69)"/><path class="d" d="M109.7,89.75a1,1,0,0,1,.71,1.71l-4.81,4.81a1,1,0,1,1-1.41-1.41L109,90a1,1,0,0,1,.71-.29" transform="translate(-17.58 -16.69)"/><path class="d" d="M22,69.11a1,1,0,0,1,1,1v6.8a1,1,0,0,1-2,0v-6.8a1,1,0,0,1,1-1" transform="translate(-17.58 -16.69)"/><path class="d" d="M18.58,72.51h6.8a1,1,0,0,1,0,2h-6.8a1,1,0,0,1,0-2" transform="translate(-17.58 -16.69)"/><path class="d" d="M113.17,21.38a1,1,0,0,1,1,1v6.8a1,1,0,1,1-2,0v-6.8a1,1,0,0,1,1-1" transform="translate(-17.58 -16.69)"/><path class="d" d="M109.76,24.78h6.8a1,1,0,0,1,0,2h-6.8a1,1,0,0,1,0-2" transform="translate(-17.58 -16.69)"/><path class="e" d="M71,67.5A6.5,6.5,0,1,1,77.5,61,6.5,6.5,0,0,1,71,67.5Zm0-2A4.5,4.5,0,1,0,66.5,61,4.5,4.5,0,0,0,71,65.5Z" transform="translate(-17.58 -16.69)"/><path class="e" d="M59.78,38.94C62.37,28.6,66.33,22.5,70.37,22.5,77.29,22.5,83.5,39.32,83.5,60S77.29,97.5,70.37,97.5c-5.89,0-11.62-12.86-12.87-30.13l-2,.14c1.32,18.25,7.44,32,14.87,32C78.94,99.5,85.5,81.72,85.5,60S78.94,20.5,70.37,20.5c-5.33,0-9.73,6.78-12.53,18Z" transform="translate(-17.58 -16.69)"/><path class="f" d="M57.95,81c-10.14,3.38-17.61,3.31-19.74-.1-3.71-5.8,7.2-20.14,24.73-31.42s34.93-15.14,38.89-9.31c3.15,4.95-4.67,16.64-18.61,27l1.2,1.6c14.74-11,23.08-23.46,19.08-29.74C98.62,31.89,80.25,36,61.85,47.8S31.92,74.79,36.52,82c2.82,4.51,11.1,4.58,22.06.93Z" transform="translate(-17.58 -16.69)"/><path class="f" d="M70.82,43.38C54.58,35,40.54,32.9,36.53,39.09c-4.67,7.18,7,22.3,25.7,34.13S99.5,89.1,104.42,82c3.21-4.88-.92-13.17-10.34-22.17L92.7,61.24c8.77,8.38,12.51,15.89,10.06,19.61-4,5.81-21.67,1.94-39.46-9.32S34.46,46,38.21,40.18c3.18-4.92,16.33-3,31.68,5Z" transform="translate(-17.58 -16.69)"/></svg>