<?xml version="1.0" standalone="no"?>
<!DOCTYPE svg PUBLIC "-//W3C//DTD SVG 1.1//EN" "http://www.w3.org/Graphics/SVG/1.1/DTD/svg11.dtd" >
<!--
2013-9-30: Created.
-->
<svg>
<metadata>
Created by iconfont
</metadata>
<defs>

<font id="iconfont" horiz-adv-x="1024" >
  <font-face
    font-family="iconfont"
    font-weight="500"
    font-stretch="normal"
    units-per-em="1024"
    ascent="896"
    descent="-128"
  />
    <missing-glyph />
    
    <glyph glyph-name="arrow-left" unicode="&#58888;" d="M576 704L192 384l384-320v192h256V512H576V704z"  horiz-adv-x="1024" />

    
    <glyph glyph-name="arrow-down" unicode="&#58889;" d="M640 448V704H384v-256H192l320-384 320 384H640z"  horiz-adv-x="1024" />

    
    <glyph glyph-name="arrow-small-down" unicode="&#58890;" d="M576 448V576H448v-128H320l192-256 192 256H576z"  horiz-adv-x="1024" />

    
    <glyph glyph-name="arrow-right" unicode="&#58891;" d="M832 384L448 704v-192H192v-256h256v-192l384 320z"  horiz-adv-x="1024" />

    
    <glyph glyph-name="archive" unicode="&#58892;" d="M896 768H128v-128h768V768zM64 640a64 64 0 0 1 64-64v-576a64 64 0 0 1 64-64h640a64 64 0 0 1 64 64V576a64 64 0 0 1 64 64V768a64 64 0 0 1-64 64H128a64 64 0 0 1-64-64v-128z m128-64h640v-576H192V576z m128-192h384V448H320v-64z"  horiz-adv-x="1024" />

    
    <glyph glyph-name="arrow-small-left" unicode="&#58893;" d="M576 448V576L320 384l256-192V320h128V448H576z"  horiz-adv-x="1024" />

    
    <glyph glyph-name="arrow-small-right" unicode="&#58894;" d="M704 384L448 576v-128H320v-128h128v-128l256 192z"  horiz-adv-x="1024" />

    
    <glyph glyph-name="arrow-up" unicode="&#58895;" d="M512 704L192 320h192v-256h256V320h192L512 704z"  horiz-adv-x="1024" />

    
    <glyph glyph-name="bell" unicode="&#58896;" d="M959.36 128.576v-64H64v64l46.72 37.12c49.216 49.216 51.776 163.008 76.096 282.624 49.28 241.088 260.928 319.744 260.928 319.744 0 35.2 28.8 64 63.936 64 35.2 0 64-28.8 64-64 0 0 216.768-78.656 265.984-319.744 24.32-120.256 26.88-234.048 76.16-282.688l42.176-37.12h-0.64zM511.68-127.36c71.04 0 127.936 56.96 127.936 127.936H383.744c0-71.04 56.96-127.936 127.936-127.936z"  horiz-adv-x="1024" />

    
    <glyph glyph-name="beaker" unicode="&#58897;" d="M920.32-37.76L704 448V704h64V768H192v-64h64v-256L40.32-37.76A64 64 0 0 1 98.56-128h764.16c46.08 0 76.8 48 58.24 90.24h-0.64zM240 256L320 448V704h320v-256l80-192h-480zM512 384h64v-64H512V384zM448 448H384V512h64v-64z m0 192h64v-64H448V640z m0 192H384V896h64v-64z"  horiz-adv-x="1024" />

    
    <glyph glyph-name="bold" unicode="&#58898;" d="M256 768h245.12c158.72 0 275.2-48 275.2-188.8 0-72.96-40.32-142.72-106.88-167.04v-3.84c85.12-19.2 147.2-78.72 147.2-183.04 0-152.96-126.08-225.28-295.04-225.28H256V768z m234.24-316.8c106.88 0 152.32 42.24 152.32 108.16 0 74.88-49.92 103.04-149.76 103.04H392.32v-211.2h97.92z m17.28-344.96c113.28 0 176 40.96 176 126.72 0 81.28-60.8 115.84-176 115.84h-115.2v-243.2h115.2v0.64z"  horiz-adv-x="1024" />

    
    <glyph glyph-name="bookmark" unicode="&#58899;" d="M768 896H256C209.28 896 192 878.72 192 832v-960l320 197.76L832-128V832c0 46.72-17.28 64-64 64z m-49.92-272L599.04 536.96l46.08-138.24c3.84-14.08-1.28-17.92-12.8-10.88L512 473.6 391.68 387.84c-12.16-7.04-16-3.2-12.8 10.88l46.08 138.24-119.04 87.04c-10.88 10.24-8.96 14.72 5.76 14.72l147.2 1.92 44.8 138.24h16l44.8-138.24 147.2-1.92c14.72 0 17.28-5.12 5.76-14.72h0.64z"  horiz-adv-x="1024" />

    
    <glyph glyph-name="briefcase" unicode="&#58900;" d="M640 640V704c0 35.2-28.8 64-64 64H448c-35.2 0-64-28.8-64-64v-64H128c-35.2 0-64-28.8-64-64v-512c0-35.2 28.8-64 64-64h768c35.2 0 64 28.8 64 64V576c0 35.2-28.8 64-64 64H640zM448 704h128v-64H448V704z m448-384H576v-64H448V320H128V576h64v-192h640V576h64v-256z"  horiz-adv-x="1024" />

    
    <glyph glyph-name="book" unicode="&#58901;" d="M192 576h256v-64H192V576z m0-192h256V448H192v-64z m0-128h256V320H192v-64z m704 320h-256v-64h256V576z m0-128h-256v-64h256V448z m0-128h-256v-64h256V320z m128 384v-576c0-35.2-28.8-64-64-64H608l-64-64-64 64H128c-35.2 0-64 28.8-64 64V704c0 35.2 28.8 64 64 64h352l64-64 64 64H960c35.2 0 64-28.8 64-64z m-512-32L480 704H128v-576h384V672z m448 32H608l-32-32V128h384V704z"  horiz-adv-x="1024" />

    
    <glyph glyph-name="browser" unicode="&#58902;" d="M384 704h64v-64H384V704zM256 704h64v-64H256V704zM128 704h64v-64H128V704z m768-640H128V576h768v-512z m0 576H512V704h384v-64z m64 64c0 35.2-28.8 64-64 64H128c-35.2 0-64-28.8-64-64v-640c0-35.2 28.8-64 64-64h768c35.2 0 64 28.8 64 64V704z"  horiz-adv-x="1024" />

    
    <glyph glyph-name="broadcast" unicode="&#58903;" d="M576.23552 320H512.23552c35.2 0 64 28.8 64 64V448c0 35.2-28.8 64-64 64H448.23552c-35.2 0-64-28.8-64-64v-64c0-35.2 28.8-64 64-64H384.23552c-35.2 0-64-28.8-64-64v-128h64v-192c0-35.2 28.8-64 64-64h64c35.2 0 64 28.8 64 64v192h64v128c0 35.2-28.8 64-64 64zM448.23552 448h64v-64H448.23552V448z m128-256H512.23552v-256H448.23552v256H384.23552v64h192v-64z m133.76 224c0 126.72-103.04 229.76-229.76 229.76A229.952 229.952 0 0 1 256.23552 364.16v-126.72c-39.04 49.28-64 110.72-64 179.2 0 158.72 129.28 288 288 288S768.23552 575.36 768.23552 416.64c0-67.84-24.96-129.92-64-179.2V364.16c3.84 17.28 5.76 33.92 5.76 51.84z m250.24 0c0-184.32-104.32-344.32-256-424.32v67.2a419.392 419.392 0 0 1 197.76 357.12A421.76 421.76 0 0 1 480.23552 837.76 421.76 421.76 0 0 1 58.47552 416c0-151.04 78.72-282.88 197.76-357.12v-67.2A479.808 479.808 0 0 0 480.23552 896C745.19552 896 960.23552 680.96 960.23552 416z"  horiz-adv-x="1024" />

    
    <glyph glyph-name="calendar" unicode="&#58904;" d="M896 768h-64v-96c0-17.92-14.08-32-32-32h-128c-17.92 0-32 14.08-32 32V768H448v-96c0-17.92-14.08-32-32-32h-128c-17.92 0-32 14.08-32 32V768H192c-35.2 0-64-28.8-64-64v-704c0-35.2 28.8-64 64-64h704c35.2 0 64 28.8 64 64V704c0 35.2-28.8 64-64 64z m0-768H192V576h704v-576zM384 704H320V832h64v-128z m384 0h-64V832h64v-128zM448 448H384V512h64v-64z m128 0H512V512h64v-64z m128 0H640V512h64v-64z m128 0h-64V512h64v-64zM320 320H256V384h64v-64z m128 0H384V384h64v-64z m128 0H512V384h64v-64z m128 0H640V384h64v-64z m128 0h-64V384h64v-64z m-512-128H256v64h64v-64z m128 0H384v64h64v-64z m128 0H512v64h64v-64z m128 0H640v64h64v-64z m128 0h-64v64h64v-64z m-512-128H256v64h64v-64z m128 0H384v64h64v-64z m128 0H512v64h64v-64z m128 0H640v64h64v-64z"  horiz-adv-x="1024" />

    
    <glyph glyph-name="bug" unicode="&#58905;" d="M704 256h192V320h-192V384l202.88 65.92-21.76 60.16L704 448V512c0 35.2-28.8 64-64 64V640c0 30.72-23.04 56.32-53.12 62.08L652.8 768H768V832H627.2l-128-128h-37.76L332.8 832H192v-64h115.2l65.92-65.92C343.04 696.32 320 671.36 320 640v-64c-35.2 0-64-28.8-64-64v-64l-181.12 62.08-21.76-60.16L256 384v-64H64v-64h192v-64L53.12 126.08l21.76-60.16L256 128v-64c0-35.2 28.8-64 64-64h64l64 64V512h64v-448l64-64h64c35.2 0 64 28.8 64 64v64l181.12-62.08 21.76 60.16L704 192v64zM576 576H384V640h192v-64z"  horiz-adv-x="1024" />

    
    <glyph glyph-name="check" unicode="&#58906;" d="M896 576l-512-512-256 256 96 96L384 256l416 416L896 576z"  horiz-adv-x="1024" />

    
    <glyph glyph-name="chevron-down" unicode="&#58907;" d="M512 192L192 512l96 96L512 368 736 608 832 512l-320-320z"  horiz-adv-x="1024" />

    
    <glyph glyph-name="checklist" unicode="&#58908;" d="M1024 352l-384-384-192 192L544 256l96-96L928 448 1024 352zM364.8 115.2l51.2-51.2H128c-35.2 0-64 28.8-64 64V704c0 35.2 28.8 64 64 64h448c35.2 0 64-28.8 64-64v-416l-51.2 51.2c-24.96 24.96-65.92 24.96-90.88 0L364.8 204.8a63.744 63.744 0 0 1 0-90.24v0.64zM256 640h320V704H256v-64z m0-128h320V576H256v-64z m0-128h192V448H256v-64zM192 320H128v-64h64V320z m0 128H128v-64h64V448z m0 128H128v-64h64V576z m0 128H128v-64h64V704z"  horiz-adv-x="1024" />

    
    <glyph glyph-name="circle-slash" unicode="&#58909;" d="M512 832C264.96 832 64 631.04 64 384s200.96-448 448-448 448 200.96 448 448-200.96 448-448 448z m0-83.2c83.2 0 160-28.16 222.08-74.88l-512-512A368.32 368.32 0 0 0 147.2 384c0 200.96 163.84 364.8 364.8 364.8z m0-730.24c-83.2 0-160 28.16-222.08 74.88l512 512c46.72-62.08 74.88-138.88 74.88-222.08 0-200.96-163.84-364.8-364.8-364.8z"  horiz-adv-x="1024" />

    
    <glyph glyph-name="arrow-small-up" unicode="&#58910;" d="M512 576L320 320h128v-128h128V320h128L512 576z"  horiz-adv-x="1024" />

    
    <glyph glyph-name="chevron-up" unicode="&#58911;" d="M832 256l-96-96L512 400 288 160 192 256l320 320 320-320z"  horiz-adv-x="1024" />

    
    <glyph glyph-name="circuit-board" unicode="&#58912;" d="M256 576c0 35.2 28.8 64 64 64s64-28.8 64-64-28.8-64-64-64-64 28.8-64 64z m512 0c0 35.2-28.8 64-64 64s-64-28.8-64-64 28.8-64 64-64 64 28.8 64 64z m0-384c0 35.2-28.8 64-64 64s-64-28.8-64-64 28.8-64 64-64 64 28.8 64 64z m128 640H384v-138.88c23.04-12.16 40.96-30.08 53.12-53.12h149.76c26.88 49.92 85.12 81.92 149.76 67.2 48-12.16 87.04-51.2 97.92-99.2 19.84-88.32-46.08-165.76-131.2-165.76-51.2 0-94.72 28.16-117.12 69.76H437.12c-26.88-51.2-85.12-81.92-149.76-65.92-46.72 10.88-85.76 49.92-97.28 97.28C174.08 608.64 204.8 666.24 256 693.12V832H128c-35.2 0-64-28.8-64-64v-768c0-35.2 28.8-64 64-64l320 320h138.88c26.88 49.92 85.12 81.92 149.76 67.2 48-12.16 87.04-51.2 97.92-99.2 19.84-88.32-46.08-165.76-131.2-165.76-51.2 0-94.72 28.16-117.12 69.76H511.36L320-64h576c35.2 0 64 28.8 64 64V768c0 35.2-28.8 64-64 64z"  horiz-adv-x="1024" />

    
    <glyph glyph-name="alert" unicode="&#58913;" d="M569.152 800c-11.712 19.84-33.28 32-56.768 32s-44.992-12.16-56.704-32L8.832 32.064a62.72 62.72 0 0 1 0-64.064c12.352-19.84 33.92-32.064 56.704-32.064h893.696c23.488 0 45.056 12.16 56.128 32a65.92 65.92 0 0 1 0.64 64.128L569.152 800z m8.512-735.808H447.168v128.192h130.496v-128.192z m0 192.256H447.168V512.832h130.496v-256.384z"  horiz-adv-x="1024" />

    
    <glyph glyph-name="clippy" unicode="&#58914;" d="M192 64h256v-64H192v64z m320 384H192v-64h320V448z m128-192V384l-192-192 192-192v128h320v128H640zM352 320H192v-64h160V320zM192 128h160v64H192v-64z m576-64h64v-128c-1.28-17.92-7.04-33.28-19.2-44.8-12.16-11.52-26.88-17.92-44.8-19.2H128c-35.2 0-64 28.8-64 64V640c0 35.2 28.8 64 64 64h192c0 71.04 56.96 128 128 128 71.04 0 128-56.96 128-128h192c35.2 0 64-28.8 64-64v-320h-64V512H128v-576h640v128zM192 576h512c0 35.2-28.8 64-64 64H576c-35.2 0-64 28.8-64 64s-28.8 64-64 64-64-28.8-64-64-28.8-64-64-64H256c-35.2 0-64-28.8-64-64z"  horiz-adv-x="1024" />

    
    <glyph glyph-name="clock" unicode="&#58915;" d="M576 384h192v-128H512c-35.2 0-64 28.8-64 64V640h128v-256zM512 748.8c200.96 0 364.8-163.84 364.8-364.8s-163.84-364.8-364.8-364.8A365.44 365.44 0 0 0 147.2 384c0 200.96 163.84 364.8 364.8 364.8zM512 832C264.96 832 64 631.04 64 384s200.96-448 448-448 448 200.96 448 448-200.96 448-448 448z"  horiz-adv-x="1024" />

    
    <glyph glyph-name="cloud-upload" unicode="&#58916;" d="M448 320H320l192 192 192-192H576v-320H448V320z m320 256c0 28.16-58.24 192-288 192C325.12 768 192 645.12 192 512 65.28 512 0 414.72 0 320c0-97.92 64-192 192-192h192v83.2H192c-103.68 0-108.8 90.88-108.8 108.8 0 10.88 3.2 108.8 108.8 108.8h83.2V512c0 88.96 99.84 172.8 204.8 172.8 163.2 0 200.32-99.2 204.8-115.2v-76.8H768c51.84 0 172.8-14.08 172.8-140.8 0-133.76-144-140.8-172.8-140.8h-128V128h128c133.12 0 256 74.24 256 224C1024 508.16 901.12 576 768 576z"  horiz-adv-x="1024" />

    
    <glyph glyph-name="cloud-download" unicode="&#58917;" d="M576 128h128l-192-192-192 192h128V448h128v-320z m192 512c0 28.16-58.24 192-288 192C325.12 832 192 709.12 192 576 65.28 576 0 478.72 0 384c0-97.92 64-192 192-192h192V275.2H192C88.32 275.2 83.2 366.08 83.2 384c0 10.88 3.2 108.8 108.8 108.8h83.2V576c0 88.96 99.84 172.8 204.8 172.8 163.2 0 200.32-99.2 204.8-115.2v-76.8H768c51.84 0 172.8-14.08 172.8-140.8 0-133.76-144-140.8-172.8-140.8h-128V192h128c133.12 0 256 74.24 256 224C1024 572.16 901.12 640 768 640z"  horiz-adv-x="1024" />

    
    <glyph glyph-name="code" unicode="&#58918;" d="M672 704L576 608 800 384 576 160 672 64 960 384 672 704z m-320 0L64 384l288-320L448 160 224 384 448 608 352 704z"  horiz-adv-x="1024" />

    
    <glyph glyph-name="chevron-left" unicode="&#58919;" d="M608 704L704 608 464 384 704 160 608 64l-320 320 320 320z"  horiz-adv-x="1024" />

    
    <glyph glyph-name="comment" unicode="&#58920;" d="M896 832H128c-35.2 0-64-28.8-64-64v-512c0-35.2 28.8-64 64-64h128v-224L480 192H896c35.2 0 64 28.8 64 64V768c0 35.2-28.8 64-64 64z m0-576H448l-128-128v128H128V768h768v-512z"  horiz-adv-x="1024" />

    
    <glyph glyph-name="dash" unicode="&#58921;" d="M256 448v-128h512V448H256z"  horiz-adv-x="1024" />

    
    <glyph glyph-name="credit-card" unicode="&#58922;" d="M768 320H128V384h640v-64z m256 384v-576c0-35.2-28.8-64-64-64H64c-35.2 0-64 28.8-64 64V704c0 35.2 28.8 64 64 64h896c35.2 0 64-28.8 64-64z m-64-192H64v-384h896V512z m0 192H64v-64h896V704z m-576-448H128v-64h256v64z"  horiz-adv-x="1024" />

    
    <glyph glyph-name="dashboard" unicode="&#58923;" d="M576 576H512V640h64v-64z m256-192h-64v-64h64V384zM384 576H320v-64h64V576zM320 384H256v-64h64V384z m704 352l-32 32L576 448c-3.84 1.28-64 0-64 0-35.2 0-64-28.8-64-64v-64c0-35.2 28.8-64 64-64h64c35.2 0 64 28.8 64 64v58.88l384 357.12z m-101.76-261.76c12.16-39.04 19.2-80 19.2-122.24 0-218.88-177.92-396.8-396.8-396.8-218.88 0-397.44 177.92-397.44 396.8 0 218.88 177.92 396.8 396.8 396.8 76.8 0 147.84-21.76 209.28-60.16l60.16 60.16A477.376 477.376 0 0 1 544.64 832C279.04 832 64 616.96 64 352 64 87.04 279.04-128 544-128c264.96 0 480 215.04 480 480 0 65.92-12.8 129.28-37.76 186.24l-64-64z"  horiz-adv-x="1024" />

    
    <glyph glyph-name="desktop-download" unicode="&#58924;" d="M256 512h192V896h128v-384h192l-256-256-256 256z m704 256h-256v-64h256v-512H64V704h256V768H64c-35.2 0-64-28.8-64-64v-576c0-35.2 28.8-64 64-64h341.76c-16-39.04-55.04-88.96-149.76-128h512c-94.72 39.04-133.76 88.96-149.76 128H960c35.2 0 64 28.8 64 64V704c0 35.2-28.8 64-64 64z"  horiz-adv-x="1024" />

    
    <glyph glyph-name="comment-discussion" unicode="&#58925;" d="M960 832H384c-35.2 0-64-28.8-64-64v-128H64c-35.2 0-64-28.8-64-64v-384c0-35.2 28.8-64 64-64h64v-192l192 192h256c35.2 0 64 28.8 64 64V320h64l192-192V320h64c35.2 0 64 28.8 64 64V768c0 35.2-28.8 64-64 64zM576 192H288L192 96V192H64V576h256v-192c0-35.2 28.8-64 64-64h192v-128z m384 192h-128v-96L736 384H384V768h576v-384z"  horiz-adv-x="1024" />

    
    <glyph glyph-name="database" unicode="&#58926;" d="M512-64c-211.84 0-384 57.6-384 128v128c0 10.88 5.76 21.76 13.44 32 42.88-55.04 192-96 370.56-96s327.68 40.96 370.56 96c8.32-10.24 13.44-21.12 13.44-32v-128c0-70.4-172.16-128-384-128z m0 256c-211.84 0-384 57.6-384 128V448c0 7.04 2.56 13.44 5.76 19.84 1.92 3.84 4.48 8.32 7.68 12.16C184.32 424.96 333.44 384 512 384s327.68 40.96 370.56 96c3.2-3.84 5.76-8.32 7.68-12.16 3.2-6.4 5.76-13.44 5.76-19.84v-128c0-70.4-172.16-128-384-128z m0 256c-211.84 0-384 57.6-384 128V704c0 70.4 172.16 128 384 128s384-57.6 384-128v-128c0-70.4-172.16-128-384-128z m0 320c-141.44 0-256-28.8-256-64s114.56-64 256-64 256 28.8 256 64-114.56 64-256 64z"  horiz-adv-x="1024" />

    
    <glyph glyph-name="device-camera-video" unicode="&#58927;" d="M972.8 762.24L640 529.92V704c0 35.2-28.8 64-64 64H64c-35.2 0-64-28.8-64-64v-576c0-35.2 28.8-64 64-64h512c35.2 0 64 28.8 64 64V302.08l332.8-232.32c21.12-14.72 51.2 0 51.2 26.24v640c0 26.24-30.08 40.96-51.2 26.24z"  horiz-adv-x="1024" />

    
    <glyph glyph-name="device-camera" unicode="&#58928;" d="M960 704H448c0 35.2-28.8 64-64 64H128c-35.2 0-64-28.8-64-64-35.2 0-64-28.8-64-64v-576c0-35.2 28.8-64 64-64h896c35.2 0 64 28.8 64 64V640c0 35.2-28.8 64-64 64zM384 576H128V640h256v-64z m288-448C547.84 128 448 227.84 448 352S547.84 576 672 576 896 476.16 896 352 796.16 128 672 128zM832 352c0-88.32-72.32-160-160-160S512 264.32 512 352 584.32 512 672 512 832 439.68 832 352z"  horiz-adv-x="1024" />

    
    <glyph glyph-name="diff-added" unicode="&#58929;" d="M896 832H128c-35.2 0-64-28.8-64-64v-768c0-35.2 28.8-64 64-64h768c35.2 0 64 28.8 64 64V768c0 35.2-28.8 64-64 64z m0-832H128V768h768v-768zM448 320H256V448h192V640h128v-192h192v-128H576v-192H448V320z"  horiz-adv-x="1024" />

    
    <glyph glyph-name="device-desktop" unicode="&#58930;" d="M960 768H64c-35.2 0-64-28.8-64-64v-576c0-35.2 28.8-64 64-64h341.76c-16-39.04-55.04-88.96-149.76-128h512c-94.72 39.04-133.76 88.96-149.76 128H960c35.2 0 64 28.8 64 64V704c0 35.2-28.8 64-64 64z m0-576H64V704h896v-512z"  horiz-adv-x="1024" />

    
    <glyph glyph-name="diff-removed" unicode="&#58931;" d="M896 832H128c-35.2 0-64-28.8-64-64v-768c0-35.2 28.8-64 64-64h768c35.2 0 64 28.8 64 64V768c0 35.2-28.8 64-64 64z m0-832H128V768h768v-768z m-128 320H256V448h512v-128z"  horiz-adv-x="1024" />

    
    <glyph glyph-name="diff-ignored" unicode="&#58932;" d="M896 832H128c-35.2 0-64-28.8-64-64v-768c0-35.2 28.8-64 64-64h768c35.2 0 64 28.8 64 64V768c0 35.2-28.8 64-64 64z m0-832H128V768h768v-768z m-544 128H256v96L672 640H768v-96L352 128z"  horiz-adv-x="1024" />

    
    <glyph glyph-name="device-mobile" unicode="&#58933;" d="M768 896H256C220.8 896 192 867.2 192 832v-896c0-35.2 28.8-64 64-64h512c35.2 0 64 28.8 64 64V832c0 35.2-28.8 64-64 64zM512-83.2c-46.08 0-83.2 37.12-83.2 83.2 0 46.08 37.12 83.2 83.2 83.2 46.08 0 83.2-37.12 83.2-83.2 0-46.08-37.12-83.2-83.2-83.2zM768 128H256V768h512v-640z"  horiz-adv-x="1024" />

    
    <glyph glyph-name="diff-renamed" unicode="&#58934;" d="M448 320H256V448h192V640l320-256-320-256V320z m512 448v-768c0-35.2-28.8-64-64-64H128c-35.2 0-64 28.8-64 64V768c0 35.2 28.8 64 64 64h768c35.2 0 64-28.8 64-64z m-64 0H128v-768h768V768z"  horiz-adv-x="1024" />

    
    <glyph glyph-name="ellipsis" unicode="&#58935;" d="M832 576H192c-35.2 0-64-28.8-64-64v-256c0-35.2 28.8-64 64-64h640c35.2 0 64 28.8 64 64V512c0 35.2-28.8 64-64 64zM384 320H256V448h128v-128z m192 0H448V448h128v-128z m192 0H640V448h128v-128z"  horiz-adv-x="1024" />

    
    <glyph glyph-name="file-binary" unicode="&#58936;" d="M384 128h64v-64H256v64h64v128H256V320h128v-192z m512 480V0c0-35.2-28.8-64-64-64H192c-35.2 0-64 28.8-64 64V768c0 35.2 28.8 64 64 64h480L896 608zM832 576L640 768H192v-768h640V576zM640 640H512v-64h64v-128H512v-64h192V448H640V640zM256 640h192v-256H256V640z m64-192h64V576H320v-128z m192-128h192v-256H512V320z m64-192h64v128H576v-128z"  horiz-adv-x="1024" />

    
    <glyph glyph-name="diff-modified" unicode="&#58937;" d="M896 832H128c-35.2 0-64-28.8-64-64v-768c0-35.2 28.8-64 64-64h768c35.2 0 64 28.8 64 64V768c0 35.2-28.8 64-64 64z m0-832H128V768h768v-768zM320 384c0 106.24 85.76 192 192 192s192-85.76 192-192-85.76-192-192-192-192 85.76-192 192z"  horiz-adv-x="1024" />

    
    <glyph glyph-name="file-code" unicode="&#58938;" d="M672 832H192c-35.2 0-64-28.8-64-64v-768c0-35.2 28.8-64 64-64h640c35.2 0 64 28.8 64 64V608L672 832zM832 0H192V768h448l192-192v-576zM448 449.28L352 352 448 256l-32-64L256 352 416 512l32-62.72zM608 512L768 352 608 192l-32 62.72L672 352 576 448l32 64z"  horiz-adv-x="1024" />

    
    <glyph glyph-name="file-directory" unicode="&#58939;" d="M896 640H512V704c0 42.24-19.84 64-64 64H128c-35.2 0-64-28.8-64-64v-640c0-35.2 28.8-64 64-64h768c35.2 0 64 28.8 64 64V576c0 35.2-28.8 64-64 64zM448 640H128V704h320v-64z"  horiz-adv-x="1024" />

    
    <glyph glyph-name="file-media" unicode="&#58940;" d="M512 576h128v-128H512V576z m384 32V0c0-35.2-28.8-64-64-64H192c-35.2 0-64 28.8-64 64V768c0 35.2 28.8 64 64 64h480L896 608zM832 576L640 768H192v-704l192 320 128-256 128 128 192-192V576z"  horiz-adv-x="1024" />

    
    <glyph glyph-name="file-submodule" unicode="&#58941;" d="M704 448H320v-448h576c35.2 0 64 28.8 64 64V384h-256V448zM640 320H384V384h256v-64z m256 320H512V704c0 42.24-19.84 64-64 64H128c-35.2 0-64-28.8-64-64v-640c0-35.2 28.8-64 64-64h128V448c0 35.2 28.8 64 64 64h384c35.2 0 64-28.8 64-64h192V576c0 35.2-28.8 64-64 64zM448 640H128V704h320v-64z"  horiz-adv-x="1024" />

    
    <glyph glyph-name="file-symlink-directo" unicode="&#58942;" d="M896 640H512V704c0 42.24-19.84 64-64 64H128c-35.2 0-64-28.8-64-64v-640c0-35.2 28.8-64 64-64h768c35.2 0 64 28.8 64 64V576c0 35.2-28.8 64-64 64zM128 704h320v-64H128V704z m384-576v128c-62.72 1.28-117.76-14.08-163.2-44.8-45.44-30.72-76.16-80-92.8-147.2 1.28 104.96 24.96 184.32 72.32 238.72C375.04 356.48 436.48 384 512.64 384V512l256-192-256-192H512z"  horiz-adv-x="1024" />

    
    <glyph glyph-name="file-zip" unicode="&#58943;" d="M672 832H192a64 64 0 0 1-64-64v-768a64 64 0 0 1 64-64h640a64 64 0 0 1 64 64V608L672 832zM832 0H192V768h192v-64h64V768h192l192-192v-576zM448 640V704h64v-64H448zM384 640h64v-64H384V640z m64-128V576h64v-64H448zM384 512h64v-64H384V512z m64-128V448h64v-64H448zM384 302.08A128 128 0 0 1 320 192v-64h256v64a128 128 0 0 1-128 128V384H384v-81.92zM512 256v-64H384v64h128z"  horiz-adv-x="1024" />

    
    <glyph glyph-name="file-symlink-file" unicode="&#58944;" d="M672 832H192c-35.2 0-64-28.8-64-64v-768c0-35.2 28.8-64 64-64h640c35.2 0 64 28.8 64 64V608L672 832zM832 0H192V768h448l192-192v-576zM512 608l256-192-256-192v128c-62.72 1.28-117.76-14.08-163.2-44.8-45.44-30.72-76.16-80-92.8-147.2 1.28 104.96 24.96 184.32 72.32 238.72 46.72 53.76 108.16 81.28 184.32 81.28v128H512z"  horiz-adv-x="1024" />

    
    <glyph glyph-name="eye" unicode="&#58945;" d="M515.84 768C192 768 0 384 0 384s192-384 515.84-384C832 0 1024 384 1024 384s-192 384-508.16 384zM512 128c-140.8 0-256 113.92-256 256 0 140.8 115.2 256 256 256 142.08 0 256-115.2 256-256 0-142.08-113.92-256-256-256z m128 256c0-71.04-56.96-128-128-128-71.04 0-128 56.96-128 128 0 71.04 56.96 128 128 128 71.04 0 128-56.96 128-128z"  horiz-adv-x="1024" />

    
    <glyph glyph-name="flame" unicode="&#58946;" d="M451.20064 876.16c51.84-138.88 26.24-216.32-33.28-275.84C355.20064 533.12 254.72064 483.2 185.60064 385.28c-92.8-131.2-108.8-417.92 225.92-492.8-140.8 74.24-170.88 289.28-19.2 423.04-39.04-129.92 33.92-213.12 124.16-183.04 88.96 30.08 147.2-33.92 145.28-106.88-1.28-49.92-19.84-92.16-72.32-115.84 218.88 37.76 305.92 218.88 305.92 355.84 0 181.76-161.92 206.08-80 359.04-97.28-8.32-129.92-72.32-120.96-176 5.76-69.12-65.28-115.2-119.04-85.12-42.88 26.24-42.24 76.16-3.84 113.92C651.52064 556.16 683.52064 739.2 451.20064 875.52L449.92064 876.8l1.28-0.64z"  horiz-adv-x="1024" />

    
    <glyph glyph-name="fold" unicode="&#58947;" d="M512 320l192-192H576v-192H448v192H320l192 192z m192 384H576V896H448v-192H320l192-192 192 192z m256-128c0 35.2-28.8 64-64 64h-160l-64-64h192l-128-128h-448l-128 128h192l-64 64H128c-35.2 0-64-28.8-64-64l160-160L64 256c0-35.2 28.8-64 64-64h160l64 64h-192l128 128h448l128-128h-192l64-64H896c35.2 0 64 28.8 64 64l-160 160L960 576z"  horiz-adv-x="1024" />

    
    <glyph glyph-name="gift" unicode="&#58948;" d="M896 640h-88.32c12.16 21.12 21.12 42.88 23.04 58.24 3.84 42.88-7.04 78.08-33.28 103.04C774.4 825.6 745.6 832 710.4 832h-7.04c-33.92-1.28-71.04-16-97.92-37.12-26.88-21.12-46.72-46.08-62.08-76.8-14.72 30.72-35.2 56.32-62.08 76.8-26.88 20.48-64 37.12-97.92 37.12h-1.92c-35.84 0-67.84-5.76-92.16-30.72-26.24-24.96-37.12-60.16-33.28-103.04 1.92-14.72 10.88-37.12 23.04-58.24H190.72c-35.2 0-64-28.8-64-64v-192h64v-320c0-35.2 28.8-64 64-64h576c35.2 0 64 28.8 64 64V384h64V576c0 35.2-28.8 64-64 64H896z m-305.92 56.32c10.88 23.04 26.88 42.88 48 58.88 19.2 14.72 46.08 24.96 67.2 26.24h5.76c28.8 0 42.24-7.04 51.2-16s21.12-24.96 19.2-60.8c-3.2-12.16-16-39.04-32-64h-185.6l26.24 56.32v-0.64zM325.76 765.44c8.32 8.32 19.84 16 58.24 16 19.84 0 46.08-10.88 65.92-26.24 21.12-16 37.12-35.2 48-58.88L524.8 640H339.2c-16 24.96-28.8 51.84-32 64-1.92 35.84 10.24 51.84 19.2 60.8l-0.64 0.64zM512 64.64H256V384h256v-320 0.64z m0 384H192V576h320v-128 0.64z m320-384H576V384h256v-320 0.64z m64 384H576V576h320v-128 0.64z"  horiz-adv-x="1024" />

    
    <glyph glyph-name="gist-secret" unicode="&#58949;" d="M576 224L640 0H384l64 224L400 320h224L576 224zM704 512H320L192 448h640l-128 64zM640 768L512 704 384 768 320 576h384L640 768z m257.92-496L704 320l64-128-128-192h206.08c28.8 0 55.04 19.84 62.08 48l35.84 145.92c8.96 33.92-12.16 69.12-46.08 78.08zM320 320l-193.92-48c-33.92-8.96-55.04-44.16-46.08-78.08l35.84-145.92c7.04-28.16 33.28-48 62.08-48H384l-128 192 64 128z"  horiz-adv-x="1024" />

    
    <glyph glyph-name="gear" unicode="&#58950;" d="M960 334.72v102.4l-124.16 40.96-28.8 69.76 56.32 117.76-72.32 72.32-115.84-58.24-69.76 28.8-44.16 122.88h-102.4l-40.32-124.16-71.04-28.8-117.76 56.32-72.32-72.32 58.24-115.84-28.8-69.76L64 433.28v-101.76l124.16-40.96 28.8-69.76-56.32-117.76 72.32-72.32 115.84 58.24 69.76-28.8 44.16-122.88h101.76l40.32 124.16 71.04 28.8 117.76-56.32 72.32 72.32-58.88 115.84 30.08 69.76L960 336v-1.28zM512 192c-106.24 0-192 85.76-192 192s85.76 192 192 192 192-85.76 192-192-85.76-192-192-192z"  horiz-adv-x="1024" />

    
    <glyph glyph-name="file-pdf" unicode="&#58951;" d="M672 832H192a64 64 0 0 1-64-64v-768a64 64 0 0 1 64-64h640a64 64 0 0 1 64 64V608L672 832zM192 768h256a43.52 43.52 0 0 1-19.84-12.8 69.12 69.12 0 0 1-14.72-30.08 270.08 270.08 0 0 1-5.76-94.08c3.84-38.976 11.072-77.504 21.76-115.2A1393.92 1393.92 0 0 0 358.4 345.6c-32-64-51.2-106.24-58.24-117.76a458.304 458.304 0 0 1-44.16-19.2 268.16 268.16 0 0 1-64-40.96V768z m282.88-307.2a361.6 361.6 0 0 1 74.88-133.76c17.6-15.168 38.08-26.688 60.16-33.92-40.96-5.76-78.72-12.8-115.84-21.12a782.08 782.08 0 0 1-115.84-37.76c-37.568-15.552 14.08 28.16 39.04 80 23.36 47.36 42.88 96.64 58.24 147.2l-0.64-0.64zM832 0H224a47.552 47.552 0 0 0-10.88 0 135.68 135.68 0 0 1 46.72 28.16 648.96 648.96 0 0 1 113.92 152.32c19.84 8.32 37.12 14.72 51.84 19.84l26.88 8.96c28.8 8.32 60.16 14.72 92.16 21.12s64 10.24 94.72 12.8c28.608-13.824 58.368-25.216 88.96-33.92 25.792-7.04 52.096-12.032 78.72-14.72h24.32V0H832z m0 311.04a239.36 239.36 0 0 1-40.96 17.92 270.08 270.08 0 0 1-48 7.04c-26.304-0.192-52.608-1.92-78.72-5.12a192 192 0 0 0-64 40.96 388.48 388.48 0 0 0-82.56 149.12c7.104 42.368 11.392 85.12 12.8 128 1.28 16 1.28 32 0 48a67.2 67.2 0 0 1-12.8 56.32 52.48 52.48 0 0 1-39.04 14.72H640l192-192v-264.96z"  horiz-adv-x="1024" />

    
    <glyph glyph-name="gist" unicode="&#58952;" d="M608 576L768 416 608 256l-48 48L672 416 560 528 608 576z m-192 0L256 416 416 256l48 48L352 416l112 112L416 576zM128 64V768c0 35.2 28.8 64 64 64h640c35.2 0 64-28.8 64-64v-704c0-35.2-28.8-64-64-64H192c-35.2 0-64 28.8-64 64z m64 0h640V768H192v-704z"  horiz-adv-x="1024" />

    
    <glyph glyph-name="git-commit" unicode="&#58953;" d="M759.04 448c-28.8 110.08-128 192-247.04 192-119.04 0-218.24-81.92-247.04-192H64v-128h200.96c28.8-110.08 128-192 247.04-192 119.04 0 218.24 81.92 247.04 192H960V448h-200.96zM512 243.2c-78.08 0-140.8 62.72-140.8 140.8 0 78.08 62.72 140.8 140.8 140.8 78.08 0 140.8-62.72 140.8-140.8 0-78.08-62.72-140.8-140.8-140.8z"  horiz-adv-x="1024" />

    
    <glyph glyph-name="git-branch" unicode="&#58954;" d="M832 576c0 71.04-56.96 128-128 128a127.552 127.552 0 0 1-64-238.08v-19.2c-1.28-33.28-14.72-62.72-40.32-88.32-25.6-25.6-55.04-39.04-88.32-40.32-53.12-1.28-94.72-10.24-128-28.8V593.92a127.552 127.552 0 0 1-64 238.08C248.32 832 192 775.04 192 704a128 128 0 0 1 64-110.08v-419.84c-37.76-22.4-64-63.36-64-110.08 0-71.04 56.96-128 128-128 71.04 0 128 56.96 128 128 0 33.92-12.8 64-33.92 87.04 5.76 3.84 30.72 26.24 37.76 30.08 16 7.04 35.84 10.88 60.16 10.88 67.2 3.2 124.8 28.8 176 80S764.8 398.72 768 465.28h-1.28C805.76 488.32 832 529.28 832 576zM320 780.8c42.24 0 76.8-35.2 76.8-76.8 0-41.6-35.2-76.8-76.8-76.8C278.4 627.2 243.2 662.4 243.2 704c0 41.6 35.2 76.8 76.8 76.8z m0-794.24c-42.24 0-76.8 35.2-76.8 76.8 0 41.6 35.2 76.8 76.8 76.8 41.6 0 76.8-35.2 76.8-76.8 0-41.6-35.2-76.8-76.8-76.8z m384 512c-42.24 0-76.8 35.2-76.8 76.8 0 41.6 35.2 76.8 76.8 76.8 41.6 0 76.8-35.2 76.8-76.8 0-41.6-35.2-76.8-76.8-76.8z"  horiz-adv-x="1024" />

    
    <glyph glyph-name="git-merge" unicode="&#58955;" d="M768 448c-46.72 0-88.32-26.24-110.72-65.28V384C590.08 385.28 512 407.04 456.96 449.28c-48 37.12-96 103.04-120.96 156.16A127.552 127.552 0 0 1 256 832.64C184.96 832.64 128 775.04 128 704a128 128 0 0 1 64-110.08v-419.84c-37.76-22.4-64-63.36-64-110.08 0-71.04 56.96-128 128-128a127.552 127.552 0 0 1 64 238.08V405.12c42.88-44.8 92.16-81.28 147.2-108.16 55.04-26.88 129.92-40.32 190.08-40.96v1.28c23.04-39.04 64-65.28 110.72-65.28 71.04 0 128 56.96 128 128 0 71.04-56.96 128-128 128z m-435.2-384c0-42.24-35.2-76.8-76.8-76.8-41.6 0-76.8 35.2-76.8 76.8 0 41.6 35.2 76.8 76.8 76.8 41.6 0 76.8-35.2 76.8-76.8zM256 627.2C213.76 627.2 179.2 662.4 179.2 704c0 41.6 35.2 76.8 76.8 76.8 41.6 0 76.8-35.2 76.8-76.8 0-41.6-35.2-76.8-76.8-76.8z m512-384c-42.24 0-76.8 35.2-76.8 76.8 0 41.6 35.2 76.8 76.8 76.8 41.6 0 76.8-35.2 76.8-76.8 0-41.6-35.2-76.8-76.8-76.8z"  horiz-adv-x="1024" />

    
    <glyph glyph-name="globe" unicode="&#58956;" d="M512 832C264.96 832 64 631.04 64 384s200.96-448 448-448c30.72 0 60.16 3.2 88.32 8.96-10.88 5.12-12.8 46.72-1.28 69.76 12.16 26.24 51.84 92.8 12.8 115.2-39.04 22.4-28.16 32-51.84 58.24-23.68 26.24-14.08 30.08-16 37.12-5.12 21.76 23.04 56.96 24.96 60.16 1.28 3.84 1.28 17.28 0 21.12 0 5.12-17.28 14.08-21.76 14.72-3.84 0-7.04-7.04-12.8-8.32-5.76-1.28-32 16-37.76 21.12-5.76 5.12-8.96 14.72-17.28 21.76-8.32 8.32-8.96 1.92-21.12 7.04s-51.2 19.84-81.92 30.72c-30.72 12.16-33.28 30.08-33.28 42.24-1.28 12.8-19.2 30.08-26.88 42.88-8.96 12.8-10.24 30.08-12.8 26.24-2.56-3.84 16-49.92 12.8-51.84-3.2-1.28-10.24 12.8-19.2 24.32-8.96 12.16 8.96 5.76-19.2 60.8s8.96 83.2 10.88 112c1.92 28.8 24.32-10.88 12.16 8.32-12.16 19.2 0 56.96-8.96 71.04-8.32 14.08-56.32-16-56.32-16 1.28 14.08 44.16 37.12 74.24 58.88 30.08 21.76 49.92 3.84 74.24-3.2 24.96-8.32 26.24-5.76 17.92 3.2-8.32 8.32 3.84 10.88 23.04 8.32 17.92-3.2 24.32-26.24 53.12-23.04 30.08 1.92 3.2-5.76 7.04-14.08s-3.84-7.04-24.32-19.2c-19.2-12.8 1.28-14.08 35.2-39.04s24.32 16 19.84 35.2c-4.48 19.2 24.96 3.84 24.96 3.84 21.12-14.08 17.28-1.28 32-5.12 14.72-3.84 58.24-40.96 58.24-40.96-53.12-28.16-19.84-30.72-10.88-37.76 8.96-7.04-17.92-19.2-17.92-19.2-10.88 10.88-12.16-1.28-19.2-5.12-7.04-3.84-1.28-14.08-1.28-14.08-35.84-5.76-28.16-44.16-26.88-53.12 0-8.96-24.32-23.04-30.08-37.12-5.76-12.8 16-40.96 3.84-42.24-12.16-1.92-21.76 42.24-83.84 26.24-19.2-5.12-60.16-26.24-37.76-69.12 23.04-44.16 58.88 12.16 71.04 5.76 12.16-6.4-3.84-33.92-1.28-35.2 2.56-1.28 33.92-1.28 35.84-39.04 1.92-37.76 49.28-33.92 58.88-35.2 10.88 0 44.8 28.16 49.28 28.8 3.84 1.92 24.32 17.92 65.92-5.76 42.24-23.04 62.72-19.84 76.8-30.08 14.08-10.24 5.12-30.08 17.92-37.12 12.8-7.04 67.84 1.92 81.92-19.84 14.08-21.76-56.32-133.76-78.08-145.92-21.76-12.16-30.72-40.96-53.76-58.88s-51.84-40.96-81.28-58.24c-26.24-14.72-30.08-42.24-42.24-51.2 200.96 44.8 350.72 224 350.72 437.76 0 247.04-200.96 448-448 448L512 832z m104.96-419.84c-5.76-1.92-17.92-14.08-49.92 5.12-30.72 19.2-51.84 14.72-55.04 17.92 0 0-3.2 7.04 10.88 8.96 28.16 3.2 62.72-26.24 71.04-26.24 8.32 0 12.16 8.32 26.24 3.2 14.08-5.12 3.2-8.32-3.2-8.96zM469.76 787.2c-3.2 1.92 1.92 5.12 5.76 8.96 1.92 1.92 1.28 7.04 3.2 8.96 7.04 7.04 39.04 16 33.28-1.92-7.04-17.28-37.12-19.2-42.24-16z m78.72-56.96c-12.16 1.28-37.12 3.2-33.28 8.96 19.2 17.92-5.76 24.32-21.76 24.32-16 1.28-21.76 10.24-14.08 12.16 7.68 1.92 39.04-1.28 44.8-5.12 5.12-3.84 33.28-16 35.2-24.32 1.28-8.32 0-16-10.88-16z m94.08 3.2c-8.96-5.76-53.12 26.24-60.8 33.28-35.84 30.72-56.96 19.84-64 26.24-7.04 6.4-5.12 12.16 7.04 21.76 12.16 9.6 44.16-3.84 64-5.76 19.2-1.92 42.24-17.28 42.24-35.2 1.28-16 21.12-32 12.16-40.32h-0.64z"  horiz-adv-x="1024" />

    
    <glyph glyph-name="git-pull-request" unicode="&#58957;" d="M832 174.08V576c-1.92 49.92-21.76 94.08-60.16 131.84C733.44 745.6 689.92 766.08 640 768H576V896L384 704l192-192V640h64c17.28-1.28 30.72-7.04 44.16-19.84 13.44-12.8 19.2-26.88 19.84-44.16v-401.92A127.552 127.552 0 0 1 768-64a127.552 127.552 0 0 1 64 238.08z m-64-186.88c-42.24 0-76.8 35.2-76.8 76.8 0 41.6 35.2 76.8 76.8 76.8 41.6 0 76.8-35.2 76.8-76.8 0-41.6-35.2-76.8-76.8-76.8zM384 704c0 71.04-56.96 128-128 128a127.552 127.552 0 0 1-64-238.08v-419.84A127.552 127.552 0 0 1 256-64a127.552 127.552 0 0 1 64 238.08V593.92c37.76 21.76 64 62.72 64 110.08z m-51.2-640c0-42.24-35.2-76.8-76.8-76.8-41.6 0-76.8 35.2-76.8 76.8 0 41.6 35.2 76.8 76.8 76.8 41.6 0 76.8-35.2 76.8-76.8zM256 627.2C213.76 627.2 179.2 662.4 179.2 704c0 41.6 35.2 76.8 76.8 76.8 41.6 0 76.8-35.2 76.8-76.8 0-41.6-35.2-76.8-76.8-76.8z"  horiz-adv-x="1024" />

    
    <glyph glyph-name="grabber" unicode="&#58958;" d="M768 640v-64H256V640h512zM256 384h512V448H256v-64z m0-192h512v64H256v-64z"  horiz-adv-x="1024" />

    
    <glyph glyph-name="heart" unicode="&#58959;" d="M704 768c-62.08 0-108.16-26.88-140.8-64-32.64-37.12-49.92-58.88-51.2-64-1.28 5.12-17.92 26.88-51.2 64-33.28 37.12-74.88 64-140.8 64-104.448-5.504-189.056-85.312-192-192 0-33.28 5.76-97.28 42.88-170.88C208 331.52 320.64 216.96 512 64c190.72 152.96 305.28 266.88 341.76 341.12C890.24 479.36 896 544 896 576c-3.008 108.16-85.888 186.432-192 192z"  horiz-adv-x="1024" />

    
    <glyph glyph-name="home" unicode="&#58960;" d="M1024 320l-192 192V768h-128v-128L512 832 0 320h128l64-320c0-35.2 28.8-64 64-64h512c35.2 0 64 28.8 64 64l64 320h128z m-256-320H576v256H448v-256H256L179.84 403.84 512 736l332.16-332.16L768 0z"  horiz-adv-x="1024" />

    
    <glyph glyph-name="horizontal-rule" unicode="&#58961;" d="M256 448h128v-128h64V704H384v-192H256V704H192v-384h64V448z m576-128V448H768v-128h64z m0 192V640H768v-128h64zM640 512V640h128V704H576v-384h64V448h128V512H640z m-448-448h640v128H192v-128z"  horiz-adv-x="1024" />

    
    <glyph glyph-name="graph" unicode="&#58962;" d="M1024 0v-64H0V896h64v-896h960zM320 64H192V384h128v-320z m256 0H448V704h128v-640z m256 0h-128V512h128v-448z"  horiz-adv-x="1024" />

    
    <glyph glyph-name="inbox" unicode="&#58963;" d="M960 320l-72.32 456.96c-5.12 30.72-32 55.04-64 55.04H200.32c-32 0-58.88-24.32-64-55.04L64 320v-320c0-35.2 28.8-64 64-64h768c35.2 0 64 28.8 64 64V320z m-209.92-35.2l-28.16-56.96c-10.88-21.76-33.28-35.84-58.24-35.84H359.04c-24.32 0-46.08 14.08-56.96 35.2l-28.16 58.24c-10.88 21.12-33.28 35.2-56.96 35.2H128l64 448h640l64-448h-88.32c-24.96 0-46.72-14.08-58.24-35.2l0.64-0.64z"  horiz-adv-x="1024" />

    
    <glyph glyph-name="info" unicode="&#58964;" d="M467.2 531.84a60.288 60.288 0 0 0-17.92 44.8c0 17.92 5.76 33.28 17.92 44.8 12.16 11.52 26.88 17.92 44.8 17.92 17.92 0 33.28-5.76 44.8-17.92 11.52-12.16 17.92-26.88 17.92-44.8 0-17.92-5.76-33.28-17.92-44.8a64 64 0 0 0-44.8-19.2c-17.92 0-33.28 7.04-44.8 19.2zM576 384.64c-1.28 16-7.04 30.72-19.84 44.16-12.8 12.16-26.88 19.2-44.16 19.84H448c-17.28-1.28-30.72-8.32-44.16-19.84-12.8-12.8-19.2-28.16-19.84-44.16h64v-192c1.28-17.28 7.04-32 19.84-44.16 12.8-12.8 26.88-19.84 44.16-19.84h64c17.28 0 30.72 7.04 44.16 19.84 12.8 12.16 19.2 26.88 19.84 44.16H576V385.28v-0.64zM512 748.8c-200.96 0-364.8-162.56-364.8-363.52 0-200.96 163.84-364.8 364.8-364.8s364.8 163.2 364.8 364.8c0 201.6-163.84 364.16-364.8 364.16v-0.64zM512 833.28c247.04 0 448-200.96 448-448s-200.96-448-448-448-448 199.68-448 448 200.96 448 448 448z"  horiz-adv-x="1024" />

    
    <glyph glyph-name="history" unicode="&#58965;" d="M576 64H448V512h320v-128H576v-320zM512 832C371.84 832 247.68 766.72 165.76 666.24L64 768v-256h256L224 608C291.2 693.12 394.88 748.8 512 748.8c200.96 0 364.8-163.84 364.8-364.8s-163.84-364.8-364.8-364.8A365.44 365.44 0 0 0 147.2 384c0 21.76 1.92 42.88 5.76 64H69.12C65.92 426.88 64 405.76 64 384c0-247.04 200.96-448 448-448s448 200.96 448 448-200.96 448-448 448z"  horiz-adv-x="1024" />

    
    <glyph glyph-name="hubot" unicode="&#58966;" d="M256 512c-35.2 0-64-28.8-64-64v-128c0-35.2 28.8-64 64-64h512c35.2 0 64 28.8 64 64V448c0 35.2-28.8 64-64 64H256z m512-112L688 320h-96L512 400 432 320h-96L256 400V448h48L384 368 464 448h96L640 368 720 448H768v-48zM384 192h256v-64H384v64z m128 576C264.96 768 64 581.76 64 352V64c0-35.2 28.8-64 64-64h768c35.2 0 64 28.8 64 64V352C960 581.76 759.04 768 512 768z m384-704H128V352c0 197.76 168.96 357.76 384 357.76s384-160 384-357.76V64z"  horiz-adv-x="1024" />

    
    <glyph glyph-name="issue-reopened" unicode="&#58967;" d="M576 320H448V640h128v-320z m-128-192h128v128H448v-128z m405.12 128H704l96-96c-67.2-85.12-170.88-140.8-288-140.8A365.44 365.44 0 0 0 147.2 384c0 21.76 1.92 42.88 5.76 64H69.12C65.92 426.88 64 405.76 64 384c0-247.04 200.96-448 448-448 140.16 0 264.32 65.28 346.24 165.76L960 0v256h-106.88zM170.88 512H320L224 608C291.2 693.12 394.88 748.8 512 748.8c200.96 0 364.8-163.84 364.8-364.8 0-21.76-1.92-42.88-5.76-64h83.84c3.2 21.12 5.12 42.24 5.12 64 0 247.04-200.96 448-448 448-140.16 0-264.32-65.28-346.24-165.76L64 768v-256h106.88z"  horiz-adv-x="1024" />

    
    <glyph glyph-name="issue-closed" unicode="&#58968;" d="M448 256h128v-128H448v128z m128 384H448v-320h128V640z m96-96l-64-64L768 320l256 288-64 64L768 448l-96 96zM512 19.2A365.44 365.44 0 0 0 147.2 384c0 200.96 163.84 364.8 364.8 364.8 117.12 0 220.8-56.32 288-140.8l58.88 58.88A444.608 444.608 0 0 1 512 832C264.96 832 64 631.04 64 384s200.96-448 448-448 448 200.96 448 448l-97.28-97.28c-42.24-154.24-183.04-268.16-350.72-268.16v0.64z"  horiz-adv-x="1024" />

    
    <glyph glyph-name="kebab-horizontal" unicode="&#58969;" d="M192 320a96 96 0 1 1 0 192 96 96 0 0 1 0-192z m320 0a96 96 0 1 1 0 192 96 96 0 0 1 0-192zM928 416a96 96 0 1 0-192 0 96 96 0 0 0 192 0z"  horiz-adv-x="1024" />

    
    <glyph glyph-name="jersey" unicode="&#58970;" d="M352 512l-32-32v-320l32-32h128l32 32v320L480 512h-128zM448 192H384V448h64v-256z m401.28 464C835.2 744.32 829.44 824.32 832 896H641.28c0-17.28-8.32-30.72-24.96-44.16-16-12.8-40.32-19.2-72.32-19.2-32 0-56.32 5.76-72.32 19.2-14.72 12.8-23.04 26.88-23.04 44.16H256c3.2-72.32-1.92-152.32-16-240C227.2 567.68 188.8 519.68 128 512v-576c1.28-17.28 7.04-30.72 19.84-44.16 12.8-13.44 26.88-19.2 44.16-19.84h704c17.28 1.28 30.72 7.04 44.16 19.84 13.44 12.8 19.2 26.88 19.84 44.16V512c-60.8 8.32-97.92 56.32-112 144h1.28zM896-64H192V448c56.96 32 94.72 80 110.08 144S321.92 736 320 832h64c-1.28-49.92 10.24-94.08 33.28-131.84 23.04-37.12 65.28-56.96 128-60.16 62.72 1.28 104.96 21.12 128 60.16 23.04 37.76 32 81.92 30.72 131.84h64c1.28-90.88 8.32-163.2 21.12-216.32 12.8-51.84 44.16-128 106.88-168.32v-512V-64zM608 512l-32-32v-320l32-32h128l32 32v320l-32 32h-128z m96-320H640V448h64v-256z"  horiz-adv-x="1024" />

    
    <glyph glyph-name="key" unicode="&#58971;" d="M885.12 757.12C837.12 805.12 776.96 830.08 704 832c-72.32-1.92-133.12-26.88-181.12-74.88S450.56 648.96 448.64 576c0-19.2 1.92-37.76 5.76-56.96L64 128v-64l64-64h128l64 64v64h64v64h64v64h128l69.76 71.04c19.2-5.12 37.76-7.04 58.24-7.04 72.96 1.92 133.12 26.88 181.12 74.88S958.08 503.04 960 576c-1.92 72.96-26.88 133.12-74.88 181.12zM768 551.68c-49.28 0-88.32 39.04-88.32 88.32 0 49.28 39.04 88.32 88.32 88.32 49.28 0 88.32-39.04 88.32-88.32 0-49.28-39.04-88.32-88.32-88.32z"  horiz-adv-x="1024" />

    
    <glyph glyph-name="italic" unicode="&#58972;" d="M499.84 576h126.72L512 0H384l115.84 576z m23.04 172.8c0 44.8 37.12 83.2 85.12 83.2 35.84 0 72.32-24.32 72.32-65.92 0-48-37.76-83.2-85.12-83.2-37.12 0-72.32 24.32-72.32 65.92z"  horiz-adv-x="1024" />

    
    <glyph glyph-name="kebab-vertical" unicode="&#58973;" d="M416 736a96 96 0 1 1 192 0 96 96 0 0 1-192 0z m0-320a96 96 0 1 1 192 0 96 96 0 0 1-192 0zM512 0a96 96 0 1 0 0 192 96 96 0 0 0 0-192z"  horiz-adv-x="1024" />

    
    <glyph glyph-name="light-bulb" unicode="&#58974;" d="M544 896C350.72 896 192 755.84 192 576c0-58.88 35.2-144 64-192 85.76-144 113.92-177.92 128-256v-64h320v64c14.08 78.08 42.24 112 128 256 28.8 48 64 133.12 64 192 0 179.84-158.72 320-352 320z m232.96-478.72c-16-28.16-30.08-51.2-42.88-71.04-55.04-90.24-80-131.84-92.8-206.72-1.28-3.2-1.28-7.04-1.28-10.88H448c0 3.84 0 8.32-1.28 10.88-12.8 74.88-37.76 117.12-92.8 206.72-12.8 19.84-26.88 42.88-42.88 71.04C284.16 462.08 256 534.4 256 576c0 140.8 129.28 256 288 256 78.08 0 151.04-26.88 206.08-76.16C803.2 707.84 832 643.84 832 576c0-42.24-28.16-113.92-55.04-158.72zM384 0h320c-14.72-72.96-83.2-128-160-128s-145.28 55.04-160 128z"  horiz-adv-x="1024" />

    
    <glyph glyph-name="keyboard" unicode="&#58975;" d="M640 576H576V640h64v-64zM192 512H128v-64h64V512z m320 128H448v-64h64V640zM256 640H128v-64h128V640z m512-448h128v64h-128v-64zM512 448h64V512H512v-64z m-256-192H128v-64h128v64z m512 384h-64v-64h64V640z m128 0h-64v-64h64V640z m-128-320h128V512h-128v-192z m256 384v-576c0-35.2-28.8-64-64-64H64c-35.2 0-64 28.8-64 64V704c0 35.2 28.8 64 64 64h896c35.2 0 64-28.8 64-64z m-64 0H64v-576h896V704zM384 448h64V512H384v-64z m0 192H320v-64h64V640zM256 448h64V512H256v-64z m64-256h384v64H320v-64z m320 256h64V512h-64v-64zM192 384H128v-64h64V384z m320 0v-64h64V384H512zM384 384v-64h64V384H384zM320 384H256v-64h64V384z m320-64h64V384h-64v-64z"  horiz-adv-x="1024" />

    
    <glyph glyph-name="law" unicode="&#58976;" d="M512 640c-53.12 0-96 42.88-96 96S458.88 832 512 832s96-42.88 96-96S565.12 640 512 640z m448-384c0-71.04-56.96-128-128-128h-64c-71.04 0-128 56.96-128 128l128 256h-64c-35.2 0-64 28.8-64 64H576v-512c26.88 0 64-28.8 64-64h64c26.88 0 64-28.8 64-64H256c0 35.2 37.12 64 64 64h64c0 35.2 37.12 64 64 64h1.92L448 576H384c0-35.2-28.8-64-64-64H256l128-256c0-71.04-56.96-128-128-128H192c-71.04 0-128 56.96-128 128l128 256H128V576h192c0 35.2 28.8 64 64 64h256c35.2 0 64-28.8 64-64h192v-64h-64l128-256zM224 448L128 256h192L224 448zM896 256l-96 192-96-192h192z"  horiz-adv-x="1024" />

    
    <glyph glyph-name="list-unordered" unicode="&#58977;" d="M256 64c0-37.76 0-64-37.76-64H165.76C128 0 128 26.24 128 64c0 37.76 0 64 37.76 64h51.84c37.76 0 37.76-26.24 37.76-64H256z m165.76 576h435.84c37.76 0 37.76 26.24 37.76 64 0 37.76 0 64-37.76 64H421.76C384 768 384 741.76 384 704c0-37.76 0-64 37.76-64zM218.24 448H165.76C128 448 128 421.76 128 384c0-37.76 0-64 37.76-64h51.84c37.76 0 37.76 26.24 37.76 64 0 37.76 0 64-37.76 64h0.64z m0 320H165.76C128 768 128 741.76 128 704c0-37.76 0-64 37.76-64h51.84c37.76 0 37.76 26.24 37.76 64 0 37.76 0 64-37.76 64h0.64z m640-320H421.76C384 448 384 421.76 384 384c0-37.76 0-64 37.76-64h435.84c37.76 0 37.76 26.24 37.76 64 0 37.76 0 64-37.76 64h0.64z m0-320H421.76C384 128 384 101.76 384 64c0-37.76 0-64 37.76-64h435.84c37.76 0 37.76 26.24 37.76 64 0 37.76 0 64-37.76 64h0.64z"  horiz-adv-x="1024" />

    
    <glyph glyph-name="list-ordered" unicode="&#58978;" d="M896 64.64c0-37.696 0-63.872-37.76-63.872H422.144c-37.76 0-37.76 26.24-37.76 63.936 0 37.76 0 63.936 37.76 63.936H857.6c37.76 0 37.76-26.24 37.76-64H896zM422.144 640.256H857.6c37.76 0 37.76 26.24 37.76 64 0 37.696 0 63.936-37.76 63.936H422.144c-37.76 0-37.76-26.24-37.76-64 0-37.696 0-63.936 37.76-63.936zM857.6 448.384H422.144c-37.76 0-37.76-26.24-37.76-64 0-37.696 0-63.936 37.76-63.936H857.6c37.76 0 37.76 26.24 37.76 64 0 37.76 0 63.936-37.76 63.936zM256.512 832h-46.08C191.36 819.84 173.44 816 144.64 810.24V768h48v-136.832H138.88v-54.976h181.568v55.04h-63.936V832z m16-519.872c-10.88 0-28.8-1.92-42.24-3.84 33.92 35.84 72.96 79.936 72.96 120.832-1.28 49.92-35.84 83.136-87.04 83.136-37.696 0-61.952-12.8-88.192-40.96l37.12-37.056c12.16 12.16 24.32 24.32 40.896 24.32 17.92 0 30.72-10.24 30.72-33.28 0-33.92-49.28-76.736-108.736-131.712v-37.12h191.872l-5.76 56.32h-42.24l0.64-0.64z m-5.12-241.728v1.92c28.16 12.16 40.96 30.08 40.96 54.976 0 44.8-35.84 71.04-92.16 71.04-30.656 0-56.832-12.16-81.792-33.28l35.2-40.96c16 12.8 28.16 19.84 44.096 19.84 17.28 0 26.88-8.32 26.88-23.04 0-17.28-12.8-28.16-55.04-28.16v-47.936c53.12 0 62.72-10.88 62.72-30.08 0-16-14.72-24.32-37.12-24.32-17.92 0-35.84 8.96-51.84 24.32l-30.656-42.176c19.2-23.04 49.28-35.84 90.176-35.84 53.12 0 97.856 26.24 97.856 74.24 0 32-19.84 51.776-49.28 60.096v-0.64z"  horiz-adv-x="1024" />

    
    <glyph glyph-name="location" unicode="&#58979;" d="M512 896C300.16 896 128 736 128 544 128 254.72 512-128 512-128s384 382.72 384 672C896 736 723.84 896 512 896z m0-931.2C392.96 94.72 192 355.84 192 544 192 702.72 336 832 512 832c85.76 0 167.04-30.72 227.84-87.04 58.88-55.04 92.16-126.08 92.16-200.96 0-188.16-200.96-449.28-320-579.2zM640 544c0-71.04-56.96-128-128-128-71.04 0-128 56.96-128 128 0 71.04 56.96 128 128 128 71.04 0 128-56.96 128-128z"  horiz-adv-x="1024" />

    
    <glyph glyph-name="logo-github" unicode="&#58980;" d="M1185.92 126.08h-1.28c0.576 0 0.96-0.64 1.536-0.704h0.384l-0.64 0.64z m0.256-0.704c-5.952-0.064-20.928-3.2-36.736-3.2-49.92 0-67.2 23.04-67.2 53.12V375.68h101.76c5.76 0 10.24 5.12 10.24 12.16v108.8c0 5.76-5.12 10.88-10.24 10.88h-101.76V642.56c0 5.12-3.2 8.32-8.96 8.32h-138.24c-5.76 0-8.96-3.2-8.96-8.32v-138.88s-69.76-17.28-74.24-17.92c-5.12-1.28-8.32-5.76-8.32-10.88v-87.04c0-7.04 5.12-12.16 10.88-12.16h71.04v-209.92c0-156.16 108.8-172.16 183.04-172.16 33.92 0 74.88 10.88 81.28 14.08 3.84 1.28 5.76 5.76 5.76 10.24v96a11.328 11.328 0 0 1-9.344 11.52z m1516.544 140.8c0 115.84-46.72 131.2-96 126.08-38.4-2.56-69.12-21.76-69.12-21.76v-225.28s31.36-21.76 78.08-23.04c65.92-1.92 87.04 21.76 87.04 144z m155.52 10.24c0-219.52-71.04-282.24-195.2-282.24-104.96 0-161.28 53.12-161.28 53.12s-2.56-29.44-5.76-33.28c-1.92-3.84-5.12-5.12-8.96-5.12h-94.72c-6.4 0-12.16 5.12-12.16 10.88l1.28 711.04c0 5.76 5.12 10.88 10.88 10.88h136.32c5.76 0 10.88-5.12 10.88-10.88v-241.28s52.48 33.92 129.28 33.92l-0.64 1.28c76.8 0 190.08-28.8 190.08-248.32z m-558.08 231.04h-134.4c-7.04 0-10.88-5.12-10.88-12.16v-348.16s-35.2-24.96-83.2-24.96-62.08 21.76-62.08 69.76V496c0 5.76-5.12 10.88-10.88 10.88h-136.96c-5.76 0-10.88-5.12-10.88-10.88v-327.04c0-140.8 78.72-176 186.88-176 88.96 0 161.28 49.28 161.28 49.28s3.2-24.96 5.12-28.8c1.28-3.2 5.76-5.76 10.24-5.76h85.76c7.04 0 10.88 5.12 10.88 10.88l1.28 478.08c0 5.76-5.12 10.88-12.16 10.88z m-1516.8 0.64h-136.32c-5.76 0-10.88-5.76-10.88-12.8v-469.76c0-12.8 8.32-17.28 19.2-17.28h122.88c12.8 0 16 5.76 16 17.28V497.28c0 5.76-5.12 10.88-10.88 10.88z m-67.2 216.32c-49.28 0-88.32-39.04-88.32-88.32 0-49.28 39.04-88.32 88.32-88.32 48 0 87.04 39.04 87.04 88.32 0 49.28-39.04 88.32-87.04 88.32z m1055.36 16h-135.04c-5.76 0-10.88-5.12-10.88-10.88v-261.76h-211.84V729.6c0 5.76-5.12 10.88-10.88 10.88h-136.32c-5.76 0-10.88-5.12-10.88-10.88v-711.04c0-5.76 5.76-10.88 10.88-10.88h136.32c5.76 0 10.88 5.12 10.88 10.88V322.56h211.84l-1.28-304c0-5.76 5.12-10.88 10.88-10.88h136.32c5.76 0 10.88 5.12 10.88 10.88V729.6c0 5.76-5.12 10.88-10.88 10.88zM563.84 425.6v-367.36c0-2.56-0.64-7.04-3.84-8.32 0 0-80-56.96-211.84-56.96-159.36 0-348.16 49.92-348.16 378.88S165.12 768.64 326.4 768c139.52 0 195.84-31.36 204.8-37.12 2.56-3.2 3.84-5.76 3.84-8.96L508.16 608c0-5.76-5.76-12.8-12.8-10.88-23.04 7.04-57.6 21.12-138.88 21.12-94.08 0-195.2-26.88-195.2-238.72s96-236.8 165.12-236.8c58.88 0 80 7.04 80 7.04v147.2H312.32c-7.04 0-12.16 5.12-12.16 10.88V425.6c0 5.76 5.12 10.88 12.16 10.88h239.36c7.04 0 12.16-5.12 12.16-10.88z"  horiz-adv-x="2880" />

    
    <glyph glyph-name="mail-read" unicode="&#58981;" d="M448 576H320V640h128v-64z m192-64H320v-64h320V512z m320 30.72V0c0-35.2-28.8-64-64-64H128c-35.2 0-64 28.8-64 64V542.72c0 21.12 10.24 40.32 26.88 51.84L192 666.88V704c0 35.2 28.8 64 64 64h76.8L512 896l179.2-128H768c35.2 0 64-28.8 64-64v-37.12l101.12-72.32c17.28-12.16 26.88-30.72 26.88-51.84zM256 416L512 256l256 160V704H256v-288z m-128-384l288 192-288 192v-384z m704-32l-320 192-320-192h640z m64 416l-288-192 288-192v384z"  horiz-adv-x="1024" />

    
    <glyph glyph-name="mail" unicode="&#58982;" d="M64 640v-512c0-35.2 28.8-64 64-64h768c35.2 0 64 28.8 64 64V640c0 35.2-28.8 64-64 64H128c-35.2 0-64-28.8-64-64z m832 0L512 320 128 640h768zM128 544l256-192-256-192v384zM192 128l224 192L512 224 608 320l224-192H192z m704 32l-256 192 256 192v-384z"  horiz-adv-x="1024" />

    
    <glyph glyph-name="mark-github" unicode="&#58983;" d="M512 896C229.12 896 0 666.88 0 384c0-226.56 146.56-417.92 350.08-485.76 25.6-4.48 35.2 10.88 35.2 24.32 0 12.16-0.64 52.48-0.64 95.36-128.64-23.68-161.92 31.36-172.16 60.16-5.76 14.72-30.72 60.16-52.48 72.32-17.92 9.6-43.52 33.28-0.64 33.92 40.32 0.64 69.12-37.12 78.72-52.48 46.08-77.44 119.68-55.68 149.12-42.24 4.48 33.28 17.92 55.68 32.64 68.48-113.92 12.8-232.96 56.96-232.96 252.8 0 55.68 19.84 101.76 52.48 137.6-5.12 12.8-23.04 65.28 5.12 135.68 0 0 42.88 13.44 140.8-52.48 40.96 11.52 84.48 17.28 128 17.28 43.52 0 87.04-5.76 128-17.28 97.92 66.56 140.8 52.48 140.8 52.48 28.16-70.4 10.24-122.88 5.12-135.68 32.64-35.84 52.48-81.28 52.48-137.6 0-196.48-119.68-240-233.6-252.8 18.56-16 34.56-46.72 34.56-94.72 0-68.48-0.64-123.52-0.64-140.8 0-13.44 9.6-29.44 35.2-24.32A512.832 512.832 0 0 1 1024 384c0 282.88-229.12 512-512 512z"  horiz-adv-x="1024" />

    
    <glyph glyph-name="megaphone" unicode="&#58984;" d="M640 832c-10.88 0-23.04-3.2-33.28-8.96C514.56 766.72 288 602.88 192 576c-88.32 0-192-42.88-192-160S104.32 256 192 256c19.2-5.12 40.96-14.72 64-26.24V-64h128v220.8c85.76-55.04 172.16-117.12 222.72-147.84 10.24-5.76 21.76-8.96 33.28-8.96 33.28 0 64 26.88 64 64V768c0 37.12-30.72 64-64 64z m0-768c-24.32 14.72-56.96 37.12-96 64-10.24 7.04-21.12 14.08-32 21.76V684.16c10.24 7.04 19.84 12.8 30.08 19.84 39.04 26.24 74.24 49.28 97.92 64v-704z m128 384h256v-64h-256V448z m0-128l256-128v-64l-256 128V320z m256 384v-64l-256-128V576l256 128z"  horiz-adv-x="1024" />

    
    <glyph glyph-name="lock" unicode="&#58985;" d="M384 64H320v64h64v-64z m512 384v-448c0-35.2-28.8-64-64-64H192c-35.2 0-64 28.8-64 64V448c0 35.2 28.8 64 64 64h64V640c0 140.8 115.2 256 256 256s256-115.2 256-256v-128h64c35.2 0 64-28.8 64-64zM371.2 512h282.24V640c0 78.08-62.72 140.8-140.8 140.8-78.08 0-140.8-62.72-140.8-140.8v-128H371.2zM832 448H256v-448h576V448zM384 384H320v-64h64V384z m0-128H320v-64h64v64z"  horiz-adv-x="1024" />

    
    <glyph glyph-name="milestone" unicode="&#58986;" d="M576 768H448V896h128v-128z m256-320H192c-35.2 0-64 28.8-64 64V640c0 35.2 28.8 64 64 64h640l128-128-128-128zM576 640H448v-128h128V640zM448-128h128V384H448v-512z"  horiz-adv-x="1024" />

    
    <glyph glyph-name="mention" unicode="&#58987;" d="M485.12-64c80 0 161.28 19.84 227.84 60.16l-26.88 60.16c-53.76-33.28-120.96-53.12-193.92-53.12-206.72 0-360.96 133.12-360.96 366.08 0 279.68 206.72 459.52 421.12 459.52 220.8 0 334.08-140.16 334.08-332.8 0-152.96-85.76-247.04-160-247.04-67.2 0-87.04 46.72-67.2 140.16l46.72 240H638.72l-7.04-46.08c-26.24 40.32-60.16 53.12-99.84 53.12-140.16 0-234.24-152.96-234.24-280.32 0-106.88 60.16-167.04 147.2-167.04 53.76 0 106.88 33.92 147.2 80 7.04-60.16 60.16-92.8 126.72-92.8 106.88 0 241.28 106.88 241.28 320C960 728.96 805.76 896 565.12 896 298.24 896 64 682.88 64 362.88 64 82.56 250.88-64 485.12-64z m-19.84 320c-46.72 0-87.04 33.28-87.04 106.88 0 92.8 60.16 206.08 154.24 206.08 33.28 0 53.76-12.8 80-53.12l-33.28-193.28c-40.32-46.72-80-67.2-113.92-67.2V256z"  horiz-adv-x="1024" />

    
    <glyph glyph-name="mortar-board" unicode="&#58988;" d="M501.12 307.84L256 384c-256 512 0-96 0-160S371.2 128 512 128s256 32 256 96V384L522.88 307.84a46.72 46.72 0 0 0-23.04 0h1.28z m17.92 408.96a21.76 21.76 0 0 1-12.8 0L17.28 564.48a22.4 22.4 0 0 1 0-42.88L128 486.4v-113.28c-19.2-10.88-32-32-32-55.04 0-12.16 3.2-23.04 8.96-32-5.12-8.96-8.96-19.84-8.96-32v-165.12c0-35.2 128-35.2 128 0v165.12c0 12.16-3.2 23.04-8.96 32 5.12 8.96 8.96 19.84 8.96 32 0 24.32-12.8 44.16-32 55.04V465.92l312.96-97.92c3.84-1.28 8.96-1.28 12.8 0l488.96 152.32a22.4 22.4 0 0 1 0 42.88L518.4 716.16l0.64 0.64zM513.28 512c-35.2 0-64 14.08-64 32s28.8 32 64 32 64-14.08 64-32-28.8-32-64-32z"  horiz-adv-x="1024" />

    
    <glyph glyph-name="no-newline" unicode="&#58989;" d="M1024 576v-192c0-35.2-28.8-64-64-64h-192v-128L576 384l192 192v-128h128V576h128zM512 384c0-140.8-115.2-256-256-256s-256 115.2-256 256 115.2 256 256 256 256-115.2 256-256zM96 277.76L362.24 544C331.52 563.84 295.04 576 256 576 149.76 576 64 490.24 64 384c0-39.04 12.16-74.88 32-106.24zM448 384c0 39.04-12.16 74.88-32 106.24L149.76 224c30.72-19.84 67.2-32 106.24-32 106.24 0 192 85.76 192 192z"  horiz-adv-x="1024" />

    
    <glyph glyph-name="mirror" unicode="&#58990;" d="M992 595.2L544 896l-448-300.8c-19.2-12.16-32-28.8-32-51.2V-128l480 256 480-256V544c0 21.76-12.8 39.04-32 51.2z m-32-627.2l-384 208V256H512v-80L128-32v576l384 256V512h64V800l384-256v-576zM384 448h320V576l192-192-192-192V320H384v-128L192 384l192 192v-128z"  horiz-adv-x="1024" />

    
    <glyph glyph-name="octoface" unicode="&#58991;" d="M940.8 554.24c8.32 20.48 35.2 101.76-8.32 211.84 0 0-67.2 21.12-220.16-83.2-64 17.92-132.48 20.48-200.32 20.48s-136.32-2.56-200.32-20.48c-152.96 104.96-220.16 83.2-220.16 83.2-43.52-110.08-16.64-191.36-8.32-211.84C31.36 498.56 0 426.88 0 339.84 0 10.24 213.12-64 510.72-64S1024 10.24 1024 339.84c0 87.04-31.36 158.72-83.2 214.4zM512-1.28c-211.2 0-382.72 9.6-382.72 214.4 0 48.64 24.32 94.72 65.28 132.48 68.48 62.72 185.6 29.44 317.44 29.44 132.48 0 248.32 33.28 317.44-29.44 41.6-37.76 65.28-83.2 65.28-132.48 0-204.16-171.52-214.4-382.72-214.4zM351.36 319.36c-42.24 0-76.8-51.2-76.8-113.92s34.56-114.56 76.8-114.56c42.24 0 76.8 51.2 76.8 114.56s-34.56 113.92-76.8 113.92z m321.28 0c-42.24 0-76.8-50.56-76.8-113.92s34.56-114.56 76.8-114.56c42.24 0 76.8 51.2 76.8 114.56s-33.92 113.92-76.8 113.92z"  horiz-adv-x="1024" />

    
    <glyph glyph-name="note" unicode="&#58992;" d="M256 256h256V320H256v-64z m0 128h384V448H256v-64z m0 128h512V576H256v-64z m640-384H128V704h768v-576zM128 768c-35.2 0-64-28.8-64-64v-576c0-35.2 28.8-64 64-64h768c35.2 0 64 28.8 64 64V704c0 35.2-28.8 64-64 64H128z"  horiz-adv-x="1024" />

    
    <glyph glyph-name="organization" unicode="&#58993;" d="M1024 64.064c0-28.096-28.8-64-64-64H511.68c-34.496 0-63.616 28.608-63.68 63.936H64c-34.56 0-64 35.904-64 64 0 168.576 192 256 192 256s14.656 26.176 0 64c-53.824 39.744-67.712 37.76-64 192 3.712 154.816 87.488 192 160 192s156.288-37.12 160-192c3.712-154.24-10.176-152.256-64-192-14.656-37.76 0-64 0-64s99.136-45.504 154.88-133.632C588.544 296.384 640 320.064 640 320.064s14.656 26.176 0 64c-53.824 39.68-67.712 37.76-64 192 3.712 154.816 87.488 192 160 192s155.968-37.184 159.68-192c3.776-154.24-10.112-152.32-64-192-14.656-37.76 0-64 0-64s192.32-87.424 192.32-256z"  horiz-adv-x="1024" />

    
    <glyph glyph-name="mute" unicode="&#58994;" d="M512 716.16v-664.32c0-42.88-51.84-64-81.92-33.92L192 256H64c-35.2 0-64 28.8-64 64V448c0 35.2 28.8 64 64 64h128l238.08 238.08C460.16 780.16 512 759.04 512 716.16z m481.92-206.08l-67.84 67.84-126.08-126.08-126.08 126.08-67.84-67.84L732.16 384 606.08 257.92l67.84-67.84 126.08 126.08 126.08-126.08 67.84 67.84L867.84 384l126.08 126.08z"  horiz-adv-x="1024" />

    
    <glyph glyph-name="package" unicode="&#58995;" d="M64 622.72v-478.08c0-28.8 19.2-53.76 48-62.08l416-110.72c10.24-3.2 21.76-3.2 32 0l416 110.72c28.8 8.32 48 33.28 48 62.08V622.72c0 28.8-19.2 53.76-48 62.08l-416 111.36a89.6 89.6 0 0 1-32 0L112 684.8c-28.8-8.32-48-33.28-48-62.08z m448-581.76l-384 101.76V576l384-103.04v-432zM128 640l160 42.88L704 572.16l-160-42.88L128 640z m832-497.28l-384-101.76V472.96l128 35.2V352l128 33.92V542.08L960 576v-433.28z m-128 463.36L416 716.8l128 33.92L960 640l-128-33.92z"  horiz-adv-x="1024" />

    
    <glyph glyph-name="paintcan" unicode="&#58996;" d="M512 896C300.16 896 128 723.84 128 512v-64c0-35.2 28.8-64 64-64v-320c0-70.4 143.36-128 320-128s320 57.6 320 128V384c35.2 0 64 28.8 64 64V512c0 211.84-172.16 384-384 384z m192-640v-32c0-17.92-14.08-32-32-32s-32 14.08-32 32V256c0 17.92-14.08 32-32 32s-32-14.08-32-32v-160c0-17.92-14.08-32-32-32s-32 14.08-32 32v128c0 17.92-14.08 32-32 32s-32-14.08-32-32v-32c0-35.2-28.8-64-64-64s-64 28.8-64 64v64c-35.2 0-64 28.8-64 64V435.2c58.24-31.36 151.04-51.2 256-51.2 104.96 0 197.76 19.84 256 51.2V320c0-35.2-28.8-64-64-64zM512 448c-107.52 0-199.68 26.24-237.44 64C312.32 549.76 404.48 576 512 576c107.52 0 199.68-26.24 237.44-64-37.76-37.76-129.92-64-237.44-64z m0 192c-176.64 0-320-56.96-320-128 0 176.64 143.36 320 320 320s320-143.36 320-320c0 70.4-143.36 128-320 128z"  horiz-adv-x="1024" />

    
    <glyph glyph-name="pin" unicode="&#58997;" d="M640 819.2V768l32-64L384 512H140.8c-28.16 0-42.88-33.92-21.76-55.04L320 256l-256-320 320 256 200.96-200.96a32 32 0 0 1 55.04 21.76V256l192 288 64-32h51.2c28.16 0 42.88 33.92 21.76 55.04L695.04 840.96a32 32 0 0 1-55.04-21.76z"  horiz-adv-x="1024" />

    
    <glyph glyph-name="pencil" unicode="&#58998;" d="M64 128v-192h192l512 512-192 192-512-512z m192-128H128v128h64v-64h64v-64z m659.2 595.2L832 512 640 704l83.2 83.2a63.744 63.744 0 0 0 90.24 0l101.76-101.76c24.96-24.96 24.96-65.28 0-90.24z"  horiz-adv-x="1024" />

    
    <glyph glyph-name="person" unicode="&#58999;" d="M896-0.128a63.872 63.872 0 0 0-63.872-63.872H192.064A64 64 0 0 0 128 0.064V64c0 168.512 256 256 256 256s14.656 26.176 0 64c-53.824 39.68-60.416 101.76-64 256 11.072 154.432 119.488 192 192 192s180.928-37.504 192-192c-3.584-154.24-10.176-216.32-64-256-14.656-37.76 0-64 0-64s256-87.488 256-256v-64.128z"  horiz-adv-x="1024" />

    
    <glyph glyph-name="plus" unicode="&#59000;" d="M896 320H576v-320H448V320H128V448h320V768h128v-320h320v-128z"  horiz-adv-x="1024" />

    
    <glyph glyph-name="plug" unicode="&#59001;" d="M960 512V576h-256V704H576v-64H448c-65.92 0-113.28-51.84-128-128L256 448c-106.24 0-192-85.76-192-192v-128h64v128c0 71.04 56.96 128 128 128l64-64c16-74.24 62.72-128 128-128h128v-64h128v128h256V320h-256V512h256z"  horiz-adv-x="1024" />

    
    <glyph glyph-name="project" unicode="&#59002;" d="M672 128h192V768h-192v-640z m-256 128h192V768H416v-512z m-256-256h192V768H160v-768z m-64-64h832V832H96v-896zM928 896H96a64 64 0 0 1-64-64v-896a64 64 0 0 1 64-64h832a64 64 0 0 1 64 64V832a64 64 0 0 1-64 64z"  horiz-adv-x="1024" />

    
    <glyph glyph-name="pulse" unicode="&#59003;" d="M800 384L627.2 550.4 486.4 352 416 793.6 216.32 384H64v-128h230.4l57.6 115.2 57.6-345.6L640 352l102.4-96H960V384h-160z"  horiz-adv-x="1024" />

    
    <glyph glyph-name="question" unicode="&#59004;" d="M448 256h128v-128H448v128z m256 224C704 343.04 576 320 576 320H448c0 35.2 28.8 64 64 64h32c17.92 0 32 14.08 32 32v64c0 17.92-14.08 32-32 32h-64c-17.92 0-32-14.08-32-32V448H320c0 96 96 192 192 192s192-64 192-160zM512 748.8c200.96 0 364.8-163.84 364.8-364.8s-163.84-364.8-364.8-364.8A365.44 365.44 0 0 0 147.2 384c0 200.96 163.84 364.8 364.8 364.8zM512 832C264.96 832 64 631.04 64 384s200.96-448 448-448 448 200.96 448 448-200.96 448-448 448z"  horiz-adv-x="1024" />

    
    <glyph glyph-name="quote" unicode="&#59005;" d="M458.24 672C302.72 572.16 227.2 469.12 227.2 296.96c10.24 3.2 19.2 3.2 28.16 3.2 81.28 0 160-55.04 160-154.24 0-103.04-65.92-167.04-160-167.04-121.6 0-191.36 97.28-191.36 272 0 243.2 112 417.92 321.28 538.88L458.24 672z m448 0c-155.52-99.84-231.04-202.88-231.04-375.04 10.24 3.2 19.2 3.2 28.16 3.2 81.28 0 160-55.04 160-154.24 0-103.04-65.92-167.04-160-167.04-120.96 0-190.72 97.28-190.72 272 0 243.2 112 417.92 321.28 538.88l72.96-117.76h-0.64z"  horiz-adv-x="1024" />

    
    <glyph glyph-name="radio-tower" unicode="&#59006;" d="M306.56 504.96c16 16 16 42.88 0 58.88-20.48 21.12-30.72 48.64-30.72 76.16 0 27.52 10.24 55.04 30.72 76.16 16 16.64 16 42.88 0 58.88a39.232 39.232 0 0 1-28.8 12.16c-10.24 0-21.12-3.84-28.8-12.16-36.48-37.12-54.4-86.4-54.4-135.04 0-48.64 18.56-97.92 54.4-135.04 16-16 42.24-16 57.6 0zM149.12 862.72a41.664 41.664 0 0 1-58.88 0C30.72 801.28 0.64 720.64 0.64 640.64c0-80.64 30.08-161.28 89.6-222.72 16-16.64 42.24-16.64 58.24 0s16 43.52 0 60.16c-43.52 44.8-65.28 103.68-65.28 162.56 0 58.88 21.76 117.76 65.28 162.56a42.24 42.24 0 0 1 0.64 59.52z m364.16-326.4A103.68 103.68 0 1 1 409.6 640c-0.64-56.96 46.08-103.68 103.68-103.68zM933.76 862.08a40.192 40.192 0 0 1-58.24 0c-16-16.64-16-43.52 0-60.16 43.52-44.8 65.28-103.68 65.28-162.56 0-58.88-21.76-117.12-65.28-162.56-16-16.64-16-43.52 0-60.16a41.664 41.664 0 0 1 58.88 0c59.52 61.44 89.6 142.08 89.6 222.72A323.072 323.072 0 0 1 933.76 862.08zM513.28 453.12c-26.24 0-53.12 6.4-76.8 19.2l-201.6-535.68h95.36l55.04 64h256l53.76-64h95.36L589.44 472.32c-24.32-12.8-49.92-19.2-76.16-19.2z m-0.64-30.72L577.28 192h-128l63.36 230.4z m-127.36-357.76l64 64h128l64-64h-256z m332.16 710.4c-16-16-16-42.88 0-58.88 20.48-21.12 30.72-48.64 30.72-76.16 0-27.52-10.24-55.04-30.72-76.16-16-16.64-16-42.88 0-58.88a40.32 40.32 0 0 1 57.6 0c36.48 37.12 54.4 86.4 54.4 135.04 0 48.64-17.92 97.92-54.4 135.04a40.576 40.576 0 0 1-57.6 0z"  horiz-adv-x="1024" />

    
    <glyph glyph-name="reply" unicode="&#59007;" d="M448 672c250.88-28.16 512-200 512-640-147.968 323.968-304 384-512 384V192L96 544 448 896v-224z"  horiz-adv-x="1024" />

    
    <glyph glyph-name="repo-clone" unicode="&#59008;" d="M960 896H576v-448c0-35.2 28.8-64 64-64h64v-64h64V384h192c35.2 0 64 28.8 64 64V832c0 35.2-28.8 64-64 64z m-256-448h-64V512h64v-64z m256 0h-192V512h192v-64z m0 128h-256V832h256v-256zM256 576H192V640h64v-64z m0 128H192V768h64v-64zM128 832h384V896H64C28.8 896 0 867.2 0 832v-768c0-35.2 28.8-64 64-64h128v-128l96 96L384-128v128h320c35.2 0 64 28.8 64 64v192H128V832z m576-640v-128H384v64H192v-64H64v128h640zM192 384h64v-64H192V384z m64 64H192V512h64v-64z"  horiz-adv-x="1024" />

    
    <glyph glyph-name="repo-force-push" unicode="&#59009;" d="M768 320H640v-448H512V320H384l144 192H384l192 256 192-256H624L768 320z m64 576H192C156.8 896 128 867.2 128 832v-768c0-35.2 28.8-64 64-64h256v64H192v128h256v64H256V832h576v-576H704v-64h128v-128H704v-64h128c35.2 0 64 28.8 64 64V832c0 35.2-28.8 64-64 64z"  horiz-adv-x="1024" />

    
    <glyph glyph-name="primitive-square" unicode="&#59010;" d="M768 128H256V640h512v-512z"  horiz-adv-x="1024" />

    
    <glyph glyph-name="repo-forked" unicode="&#59011;" d="M704 832a127.552 127.552 0 0 1-64-238.08V512L512 384 384 512V593.92A127.552 127.552 0 0 1 320 832a127.552 127.552 0 0 1-64-238.08V480l192-192v-113.92A127.552 127.552 0 0 1 512-64a127.552 127.552 0 0 1 64 238.08V288l192 192V593.92A127.552 127.552 0 0 1 704 832zM320 627.2C277.76 627.2 243.2 662.4 243.2 704c0 41.6 35.2 76.8 76.8 76.8 41.6 0 76.8-35.2 76.8-76.8 0-41.6-35.2-76.8-76.8-76.8z m192-640c-42.24 0-76.8 35.2-76.8 76.8 0 41.6 35.2 76.8 76.8 76.8 41.6 0 76.8-35.2 76.8-76.8 0-41.6-35.2-76.8-76.8-76.8z m192 640c-42.24 0-76.8 35.2-76.8 76.8 0 41.6 35.2 76.8 76.8 76.8 41.6 0 76.8-35.2 76.8-76.8 0-41.6-35.2-76.8-76.8-76.8z"  horiz-adv-x="1024" />

    
    <glyph glyph-name="repo-pull" unicode="&#59012;" d="M832 384V512H448V640h384V768l192-192-192-192zM256 768H192v-64h64V768z m448-320h64v-384c0-35.2-28.8-64-64-64H384v-128l-96 96L192-128v128H64c-35.2 0-64 28.8-64 64V832c0 35.2 28.8 64 64 64h640c35.2 0 64-28.8 64-64v-128h-64V832H128v-576h576V448z m0-256H64v-128h128v64h192v-64h320v128zM256 512H192v-64h64V512z m0 128H192v-64h64V640zM192 320h64V384H192v-64z"  horiz-adv-x="1024" />

    
    <glyph glyph-name="primitive-dot" unicode="&#59013;" d="M256 384c0 140.8 115.2 256 256 256s256-115.2 256-256-115.2-256-256-256-256 115.2-256 256z"  horiz-adv-x="1024" />

    
    <glyph glyph-name="repo-push" unicode="&#59014;" d="M384 704H320V768h64v-64zM320 576h64V640H320v-64z m256 0L384 320h128v-448h128V320h128L576 576z m256 320H192C156.8 896 128 867.2 128 832v-768c0-35.2 28.8-64 64-64h256v64H192v128h256v64H256V832h577.28L832 256H704v-64h128v-128H704v-64h128c35.2 0 64 28.8 64 64V832c0 35.2-28.8 64-64 64z"  horiz-adv-x="1024" />

    
    <glyph glyph-name="repo" unicode="&#59015;" d="M384 320H320V384h64v-64z m0 192H320v-64h64V512z m0 128H320v-64h64V640z m0 128H320v-64h64V768z m512 64v-768c0-35.2-28.8-64-64-64H512v-128l-96 96L320-128v128H192c-35.2 0-64 28.8-64 64V832c0 35.2 28.8 64 64 64h640c35.2 0 64-28.8 64-64z m-64-640H192v-128h128v64h192v-64h320v128z m0 640H256v-576h576V832z"  horiz-adv-x="1024" />

    
    <glyph glyph-name="report" unicode="&#59016;" d="M0 768a64 64 0 0 0 64 64h896a64 64 0 0 0 64-64v-576a64 64 0 0 0-64-64H448l-256-256v256H64a64 64 0 0 0-64 64V768z m64 0h896v-576H416L256 32V192H64V768z m384-384h128v-128H448V384z m0 320h128v-256H448V704z"  horiz-adv-x="1024" />

    
    <glyph glyph-name="rocket" unicode="&#59017;" d="M778.88 650.88c-17.28 17.28-30.08 35.2-40.32 56.32-10.24 19.84-17.28 42.24-21.76 65.28-37.12-21.12-74.24-44.8-110.72-72.32-37.12-28.16-72.96-60.16-108.16-94.72-44.8-44.8-85.12-115.84-113.92-156.8H192L0 256h192l128 128c-21.76-49.28-65.28-190.72-64-192l64-64c1.28-1.28 142.72 40.96 192 64l-128-128v-192l192 192v192c40.96 28.8 112 69.76 156.8 113.92 35.2 35.2 67.2 72.32 94.08 108.8 28.16 37.12 51.84 74.24 72.96 110.08-23.04 5.12-44.8 12.16-65.92 21.76a216.96 216.96 0 0 0-55.04 40.32zM1024 896s-5.76-24.32-19.2-67.84c-12.8-44.8-35.2-101.12-67.84-170.24-44.8 5.12-81.28 21.12-106.24 46.08-24.96 24.96-40.32 60.16-44.8 104.96C855.04 842.24 910.72 865.28 954.88 878.08 999.68 890.88 1024 896 1024 896z"  horiz-adv-x="1024" />

    
    <glyph glyph-name="rss" unicode="&#59018;" d="M320 64H192v128c71.04 0 128-56.96 128-128zM192 704v-64a576 576 0 0 0 576-576h64C832 417.28 545.28 704 192 704z m0-256v-64c176 0 320-144 320-320h64c0 211.84-172.16 384-384 384z"  horiz-adv-x="1024" />

    
    <glyph glyph-name="ruby" unicode="&#59019;" d="M832 512l-320-320V640h192l128-128z m192 0l-512-512-512 512 256 256h512l256-256z m-512-416L928 512l-192 192h-448l-192-192L512 96z"  horiz-adv-x="1024" />

    
    <glyph glyph-name="screen-full" unicode="&#59020;" d="M896 256h64v-192c0-35.008-28.992-64-64-64h-192v64h192v192zM128 256H64v-192c0-35.008 28.992-64 64-64h192v64H128v192z m0 448h192V768H128c-35.008 0-64-28.992-64-64v-192h64V704z m64-64h640v-512H192V640z m128-384h384V512H320v-256z m384 512v-64h192v-192h64V704c0 35.008-28.992 64-64 64h-192z"  horiz-adv-x="1024" />

    
    <glyph glyph-name="screen-normal" unicode="&#59021;" d="M192 640H64V704h128V832h64v-128c0-35.008-28.992-64-64-64z m0-512H64v-64h128v-128h64v128c0 35.008-28.992 64-64 64z m576 128c0-35.008-28.992-64-64-64H320c-35.008 0-64 28.992-64 64V512c0 35.008 28.992 64 64 64h384c35.008 0 64-28.992 64-64v-256zM640 448H384v-128h256V448z m128-384v-128h64v128h128v64h-128c-35.008 0-64-28.992-64-64z m64 640V832h-64v-128c0-35.008 28.992-64 64-64h128V704h-128z"  horiz-adv-x="1024" />

    
    <glyph glyph-name="search" unicode="&#59022;" d="M1004.8 44.8l-243.84 245.12A379.52 379.52 0 0 1 832 512c0 211.84-172.16 384-384 384S64 723.84 64 512s172.16-384 384-384c83.2 0 158.72 26.24 222.08 71.04l245.12-243.84c12.16-12.8 28.8-19.2 44.8-19.2 16 0 33.28 5.76 44.8 19.2a63.744 63.744 0 0 1 0 90.24v-0.64zM448 211.2c-165.76 0-300.8 135.04-300.8 300.8 0 165.76 135.04 300.8 300.8 300.8 165.76 0 300.8-135.04 300.8-300.8 0-165.76-135.04-300.8-300.8-300.8z"  horiz-adv-x="1024" />

    
    <glyph glyph-name="server" unicode="&#59023;" d="M832 512H192c-35.2 0-64-28.8-64-64v-128c0-35.2 28.8-64 64-64h640c35.2 0 64 28.8 64 64V448c0 35.2-28.8 64-64 64zM256 320H192V448h64v-128z m128 0H320V448h64v-128z m128 0H448V448h64v-128z m128 0H576V448h64v-128z m192 512H192c-35.2 0-64-28.8-64-64v-128c0-35.2 28.8-64 64-64h640c35.2 0 64 28.8 64 64V768c0 35.2-28.8 64-64 64zM256 640H192V768h64v-128z m128 0H320V768h64v-128z m128 0H448V768h64v-128z m128 0H576V768h64v-128z m192 64h-64V768h64v-64z m0-512H192c-35.2 0-64-28.8-64-64v-128c0-35.2 28.8-64 64-64h640c35.2 0 64 28.8 64 64v128c0 35.2-28.8 64-64 64z m-576-192H192v128h64v-128z m128 0H320v128h64v-128z m128 0H448v128h64v-128z m128 0H576v128h64v-128z"  horiz-adv-x="1024" />

    
    <glyph glyph-name="settings" unicode="&#59024;" d="M256 448H192V768h64v-320z m-64-448h64v192H192v-192z m320 0h64V384H512v-384z m320 0h64v128h-64v-128z m64 768h-64v-384h64V768zM576 768H512v-128h64V768zM320 384H128c-35.2 0-64-28.8-64-64s28.8-64 64-64h192c35.2 0 64 28.8 64 64s-28.8 64-64 64z m320 192H448c-35.2 0-64-28.8-64-64s28.8-64 64-64h192c35.2 0 64 28.8 64 64s-28.8 64-64 64z m320-256h-192c-35.2 0-64-28.8-64-64s28.8-64 64-64h192c35.2 0 64 28.8 64 64s-28.8 64-64 64z"  horiz-adv-x="1024" />

    
    <glyph glyph-name="shield" unicode="&#59025;" d="M512 896L64 768v-385.28C64 83.84 403.84-128 512-128c108.16 0 448 211.84 448 510.72V768L512 896zM384 192l72.96 179.2a36.352 36.352 0 0 1-16 37.76C405.12 432 384 469.76 384 512c0 69.76 56.96 128 126.72 128C579.84 640 640 581.76 640 512c0-42.24-21.12-80-56.96-103.04-12.16-8.32-19.2-23.04-16-37.76L640 192H384z"  horiz-adv-x="1024" />

    
    <glyph glyph-name="sign-in" unicode="&#59026;" d="M512 464V128h256V384h64v-256c0-35.2-28.8-64-64-64H512v-192l-348.8 174.08c-21.12 10.88-35.2 33.28-35.2 58.24V832c0 35.2 28.8 64 64 64h576c35.2 0 64-28.8 64-64v-192h-64V832H256l256-128v-144L704 704v-128h256v-128h-256v-128L512 464z"  horiz-adv-x="1024" />

    
    <glyph glyph-name="sign-out" unicode="&#59027;" d="M767.488 320.384V448.256H511.68v128h255.808V704.064l255.872-191.872-255.872-191.872z m-127.872-191.872H383.744V704.128L128 832h511.68v-191.872h64V832c0 35.2-28.8 63.936-64 63.936H63.936A64.064 64.064 0 0 1 0 832v-727.808c0-24.96 14.08-46.72 35.2-58.24L383.744-128v192.512h255.872c35.2 0 64 28.8 64 64V384.256h-64v-255.872z"  horiz-adv-x="1024" />

    
    <glyph glyph-name="smiley" unicode="&#59028;" d="M512 896C229.12 896 0 666.88 0 384s229.12-512 512-512 512 229.12 512 512-229.12 512-512 512z m307.84-819.84a430.08 430.08 0 0 0-138.88-92.8c-53.12-23.04-110.08-33.92-168.96-33.92-58.88 0-115.84 10.88-168.96 33.92-51.84 21.76-99.2 53.12-138.88 92.8a433.472 433.472 0 0 0-92.8 138.88A421.76 421.76 0 0 0 77.44 384c0 58.88 10.88 115.84 33.92 168.96 21.76 51.84 53.12 99.2 92.8 138.88 39.68 39.68 87.04 71.04 138.88 92.8A421.76 421.76 0 0 0 512 818.56c58.88 0 115.84-10.88 168.96-33.92 51.84-21.76 99.2-53.12 138.88-92.8 39.68-39.68 71.04-87.04 92.8-138.88 23.04-53.12 33.92-110.08 33.92-168.96 0-58.88-10.88-115.84-33.92-168.96-21.76-51.84-53.12-99.2-92.8-138.88zM256 460.8v37.76c0 42.24 33.92 76.16 76.8 76.16h37.76c42.24 0 76.16-33.92 76.16-76.16v-37.76c0-42.88-33.92-76.8-76.16-76.8H332.8C289.92 384 256 417.92 256 460.8z m320 0v37.76c0 42.24 33.92 76.16 76.8 76.16h37.76c42.24 0 76.16-33.92 76.16-76.16v-37.76c0-42.88-33.92-76.8-76.16-76.8h-37.76C609.92 384 576 417.92 576 460.8z m256-204.8c-46.08-120.32-186.24-192-320-192s-273.92 72.32-320 192c-8.96 24.96 14.72 64 42.24 64h549.76c26.24 0 56.96-39.04 48-64z"  horiz-adv-x="1024" />

    
    <glyph glyph-name="squirrel" unicode="&#59029;" d="M768 832C626.56 832 512 748.16 512 645.12c0-124.16 32-193.92 0-389.12 0 288-177.28 405.76-256 405.76 3.2 32-30.72 42.24-30.72 42.24s-14.08-7.04-19.2-21.76c-17.28 19.84-35.84 17.28-35.84 17.28l-8.32-37.12S44.8 621.44 43.52 456.32c12.8-21.12 97.92-38.4 158.08-27.52 56.96-3.2 42.88-50.56 30.08-63.36C177.92 311.68 128 384 64 384S0 320 64 320s64-64 192-64c-197.76-76.8 0-256 0-256H192c-64 0-64-64-64-64h384c192 0 320 64 320 222.08 0 54.4-27.52 114.56-64 161.92-71.04 93.44 14.72 171.52 64 128 49.28-43.52 192-64 192 128 0 141.44-114.56 256-256 256zM160 512c-17.92 0-32 14.08-32 32s14.08 32 32 32 32-14.08 32-32-14.08-32-32-32z"  horiz-adv-x="1024" />

    
    <glyph glyph-name="star" unicode="&#59030;" d="M960 512l-313.6 40.96L512 832 377.6 552.96 64 512l230.4-208.64L234.88 0 512 149.12 789.12 0l-59.52 303.36L960 512z"  horiz-adv-x="1024" />

    
    <glyph glyph-name="sync" unicode="&#59031;" d="M783.36 422.4a265.6 265.6 0 0 0-76.8-230.4 278.144 278.144 0 0 0-346.24-34.56L435.2 230.4 160 268.8l38.4-268.8 83.84 80.64c151.04-111.36 364.8-100.48 501.76 34.56a376.064 376.064 0 0 1 111.36 285.44l-112 21.76zM317.44 576a278.144 278.144 0 0 0 346.24 34.56L588.8 537.6l275.2-38.4-38.4 268.8-83.84-80.64c-151.04 111.36-364.8 100.48-502.4-34.56C160 574.08 124.16 470.4 128.64 367.36l112-22.4A266.88 266.88 0 0 0 317.44 576z"  horiz-adv-x="1024" />

    
    <glyph glyph-name="stop" unicode="&#59032;" d="M704 832H320L64 576v-384l256-256h384l256 256V576l-256 256z m192-608L672 0h-320L128 224v320L352 768h320L896 544v-320zM448 640h128v-320H448V640z m0-384h128v-128H448v128z"  horiz-adv-x="1024" />

    
    <glyph glyph-name="tag" unicode="&#59033;" d="M555.84 785.92a159.36 159.36 0 0 1-112.64 46.464H286.72A160 160 0 0 1 127.616 673.28v-157.184c0-41.984 17.216-82.688 46.464-112.64l385.536-385.536a63.36 63.36 0 0 1 89.728 0l292.032 292.032a63.36 63.36 0 0 1 0 89.728L555.84 785.92zM215.424 444.928A98.56 98.56 0 0 0 185.6 516.8V673.28c0 55.936 45.824 101.12 101.12 101.12h157.184c26.752 0 52.8-10.176 71.872-29.888l390.656-390.016-300.928-300.928-390.016 391.296z m40.064 260.224h127.296v-127.296H254.848V705.152h0.64z"  horiz-adv-x="1024" />

    
    <glyph glyph-name="telescope" unicode="&#59034;" d="M576 320l192-384h-64l-128 256v-320H512v384l-128-320H320l128 320 128 64zM512 896H448v-64h64V896zM384 704H320v-64h64V704zM192 832H128v-64h64V832zM104.32 320a33.28 33.28 0 0 1-10.24-42.88l35.2-58.88c8.32-14.72 26.24-19.84 40.96-12.8l88.96 42.24-74.24 128-81.28-55.04 0.64-0.64z m504.96 344.96l-371.2-252.8L316.8 275.2l405.12 193.92-113.28 195.84h0.64z m270.08-81.92l-94.08 161.28a32.64 32.64 0 0 1-46.08 10.88l-76.8-53.12 117.76-204.8 85.12 40.96c17.28 8.32 23.04 28.16 14.08 44.8z"  horiz-adv-x="1024" />

    
    <glyph glyph-name="tasklist" unicode="&#59035;" d="M986.24 320H485.76C448 320 448 346.24 448 384c0 37.76 0 64 37.76 64h499.84c37.76 0 37.76-26.24 37.76-64 0-37.76 0-64-37.76-64h0.64zM613.76 640C576 640 576 666.24 576 704c0 37.76 0 64 37.76 64h371.84c37.76 0 37.76-26.24 37.76-64 0-37.76 0-64-37.76-64H613.76zM0 645.76l90.24 83.2L192 627.2 453.76 896 544 805.76 192 453.76l-192 192zM485.76 128h499.84c37.76 0 37.76-26.24 37.76-64 0-37.76 0-64-37.76-64H485.76C448 0 448 26.24 448 64c0 37.76 0 64 37.76 64z"  horiz-adv-x="1024" />

    
    <glyph glyph-name="terminal" unicode="&#59036;" d="M512 256h256v-64H512v64z m-192-64l192 192-192 192-48-48L416 384l-144-144L320 192z m640 512v-640c0-35.2-28.8-64-64-64H128c-35.2 0-64 28.8-64 64V704c0 35.2 28.8 64 64 64h768c35.2 0 64-28.8 64-64z m-64 0H128v-640h768V704z"  horiz-adv-x="1024" />

    
    <glyph glyph-name="plus-small" unicode="&#59037;" d="M544 640H480v-192H288v-64h192v-192h64V384h192V448H544V640z"  horiz-adv-x="1024" />

    
    <glyph glyph-name="text-size" unicode="&#59038;" d="M871.68 314.88L774.4 661.76h-3.84l-96-346.88h197.12zM364.8 247.68S299.52 478.72 289.92 510.72h-5.12l-72.32-263.04H364.8zM1107.84 0h-144l-60.8 208h-260.48L581.76 0H437.76l-44.16 149.12H183.68L138.88 0H0l211.2 613.76h160l138.88-405.76L695.04 768h161.28l252.16-768h-0.64z"  horiz-adv-x="1152" />

    
    <glyph glyph-name="three-bars" unicode="&#59039;" d="M858.24 320H165.76C128 320 128 346.24 128 384c0 37.76 0 64 37.76 64H857.6c37.76 0 37.76-26.24 37.76-64 0-37.76 0-64-37.76-64h0.64z m0 256H165.76C128 576 128 602.24 128 640c0 37.76 0 64 37.76 64H857.6c37.76 0 37.76-26.24 37.76-64 0-37.76 0-64-37.76-64h0.64zM165.76 192H857.6c37.76 0 37.76-26.24 37.76-64 0-37.76 0-64-37.76-64H165.76C128 64 128 90.24 128 128c0 37.76 0 64 37.76 64z"  horiz-adv-x="1024" />

    
    <glyph glyph-name="thumbsdown" unicode="&#59040;" d="M1022.08 395.2L960 775.68C949.12 864.064 839.872 896 767.616 896H363.904c-12.8 0-24.32-3.2-33.92-8.96L238.016 832h-110.08C60.16 832 0 771.968 0 704.192v-255.872c0-67.776 60.16-129.152 127.936-127.872h127.936c58.176 0 88.896-28.8 152.832-99.2 58.24-63.936 56.32-115.072 40.32-209.088-5.12-32 3.84-64 26.88-90.88 24.96-30.08 62.656-49.216 99.712-49.216 117.12 0 191.936 237.952 191.936 321.088l-1.28 62.72h130.432c74.24 0 124.736 51.136 126.656 125.952 0 3.84 1.28 8.32-1.28 12.8v0.64z m-126.016-76.16h-127.296c-44.8 0-65.856-17.92-65.856-62.016l1.92-65.92c0-81.152-74.88-255.808-127.936-255.808-32 0-69.056 32-63.936 64 16 101.056 21.76 177.792-56.96 264.768-65.216 72.32-113.152 120.256-200.128 120.256V768.064l106.752 64h404.928c46.656 0 124.672-19.84 127.872-64l1.28-1.28 64-383.744c-1.92-40.96-24.32-64-64-64h-0.64z"  horiz-adv-x="1024" />

    
    <glyph glyph-name="thumbsup" unicode="&#59041;" d="M895.424 0.576c-3.2-44.16-81.216-64-127.872-64H362.624l-106.752 64V384.32c86.976 0 134.912 48 200.192 120.256 78.656 86.976 72.896 163.712 56.256 264.128-5.12 32 32 64 64 64 53.056 0 127.872-174.656 127.872-255.872l-1.28-65.92c0-44.096 21.12-62.016 65.28-62.016H896c40.32 0 62.72-23.04 64-63.936l-64-383.744-0.64-0.64z m0 511.68h-129.152l1.28 62.72C767.552 657.984 692.672 896 575.616 896c-37.12 0-74.816-19.2-99.776-49.28-23.04-26.24-32-58.176-26.88-90.176 16-94.656 17.92-145.792-40.256-209.792-64-69.696-94.72-99.136-152.832-99.136h-128C60.16 448.256 0 388.16 0 320.384v-255.872c0-67.84 60.16-127.936 127.936-127.936h110.016l92.096-55.04c10.24-5.696 21.12-8.896 33.28-8.896h404.8c72.32 0 181.696 32 191.936 120.256l62.656 380.544c1.28 5.12 1.28 8.96 1.28 12.8-1.92 74.88-53.76 126.016-127.936 126.016h-0.64z"  horiz-adv-x="1024" />

    
    <glyph glyph-name="trashcan" unicode="&#59042;" d="M832 768H704c0 35.2-28.8 64-64 64H448c-35.2 0-64-28.8-64-64H256c-35.2 0-64-28.8-64-64v-64c0-35.2 28.8-64 64-64v-576c0-35.2 28.8-64 64-64h448c35.2 0 64 28.8 64 64V576c35.2 0 64 28.8 64 64V704c0 35.2-28.8 64-64 64z m-64-768H320V576h64v-512h64V576h64v-512h64V576h64v-512h64V576h64v-576z m64 640H256V704h576v-64z"  horiz-adv-x="1024" />

    
    <glyph glyph-name="tools" unicode="&#59043;" d="M286.72 430.72c16.64-16.64 81.92-85.12 81.92-85.12l35.84 37.12-56.32 58.24 108.16 115.2s-48.64 47.36-27.52 28.8c20.48 76.16 1.92 160.64-55.68 220.16C315.52 864 234.24 883.2 161.28 863.36l123.52-128-32.64-125.44-120.96-33.28-123.52 128C-12.16 629.12 6.4 545.28 64 486.4c60.16-62.72 146.56-80.64 222.72-55.68z m412.16-124.16l-149.12-147.2 245.76-254.72c19.84-21.12 46.72-31.36 72.96-31.36 26.24 0 52.48 10.24 72.96 31.36 40.32 41.6 40.32 108.8 0 150.4l-242.56 251.52zM1024 734.08L867.2 896 405.12 418.56l56.32-58.24-275.84-285.44-63.36-33.92-88.96-145.28 22.4-23.68 140.8 92.16 32.64 65.28L505.6 314.88l56.32-58.24L1024 734.08z"  horiz-adv-x="1024" />

    
    <glyph glyph-name="triangle-down" unicode="&#59044;" d="M128 576l384-384 384 384H128z"  horiz-adv-x="1024" />

    
    <glyph glyph-name="triangle-left" unicode="&#59045;" d="M704 768L320 384l384-384V768z"  horiz-adv-x="1024" />

    
    <glyph glyph-name="triangle-right" unicode="&#59046;" d="M320 0l384 384-384 384v-768z"  horiz-adv-x="1024" />

    
    <glyph glyph-name="triangle-up" unicode="&#59047;" d="M896 192L512 576l-384-384h768z"  horiz-adv-x="1024" />

    
    <glyph glyph-name="unfold" unicode="&#59048;" d="M800 416L960 256c0-35.2-28.8-64-64-64H640v64h224l-128 128h-448l-128-128H384v-64H128c-35.2 0-64 28.8-64 64l160 160L64 576c0 35.2 28.8 64 64 64h256v-64H160l128-128h448l128 128H640V640h256c35.2 0 64-28.8 64-64l-160-160zM448 512h128V704h128L512 896 320 704h128v-192z m128-192H448v-192H320l192-192 192 192H576V320z"  horiz-adv-x="1024" />

    
    <glyph glyph-name="unmute" unicode="&#59049;" d="M768 382.72c0-69.76-28.8-133.76-74.88-181.12l-42.88 42.88c35.2 35.84 56.96 83.84 56.96 138.24 0 54.4-21.76 103.04-56.96 138.24l42.88 42.88A255.36 255.36 0 0 0 768 382.72zM494.08 750.08L256 512H128c-35.2 0-64-28.8-64-64v-128c0-35.2 28.8-64 64-64h128l238.08-238.08c30.08-30.08 81.92-8.96 81.92 33.92V716.16c0 42.88-51.84 64-81.92 33.92z m380.16-5.12l-42.88-42.88a447.744 447.744 0 0 0 131.84-318.72c0-124.16-49.92-236.8-131.84-318.72l42.88-42.88A510.272 510.272 0 0 1 1024 384c0 142.08-56.96 270.08-149.76 362.24v-1.28z m-90.24-90.24l-44.16-42.88a323.2 323.2 0 0 0 94.72-229.12c0-88.96-35.84-170.24-94.72-227.84l44.16-42.88A382.08 382.08 0 0 1 896 382.72c0 105.6-42.88 202.24-112 272z"  horiz-adv-x="1024" />

    
    <glyph glyph-name="verified" unicode="&#59050;" d="M1002.817324 443.804262l-69.11568 85.754641a95.994 95.994 0 0 0-19.774764 49.27692l-12.15924 108.665208a96.63396 96.63396 0 0 1-85.050685 85.114681l-108.729204 12.15924c-19.1988 1.91988-35.83776 10.175364-49.91688 21.054684L572.444222 874.88132a96.249984 96.249984 0 0 1-120.184488 0l-85.754641-69.11568a95.994 95.994 0 0 0-49.27692-19.83876l-108.665208-12.15924c-44.7972-5.11968-79.995-40.31748-85.114681-85.050685l-12.15924-108.729204c-1.91988-19.1988-10.175364-35.83776-21.054684-49.91688L21.11868 444.508218a96.249984 96.249984 0 0 1 0-120.184488l69.11568-85.754641c10.87932-14.07912 17.91888-30.71808 19.83876-49.27692l12.15924-108.665208c5.11968-44.7972 40.31748-79.995 85.050685-85.114681l108.729204-12.15924c19.1988-1.91988 35.83776-10.175364 49.91688-21.054684l85.690645-69.11568c35.1978-28.094244 85.050684-28.094244 120.184488 0l85.754641 69.11568c14.07912 10.87932 30.71808 17.91888 49.27692 19.83876l108.665208 12.15924c44.7972 5.11968 79.995 40.31748 85.114681 85.050685l12.15924 108.729204c1.91988 19.1988 10.175364 35.83776 21.054684 49.91688l69.11568 85.690645a96.249984 96.249984 0 0 1 0 120.184488z m-586.459346-315.884257L192.499969 351.714018l95.994 95.994 127.864009-127.992 319.788013 319.788013 95.930004-99.129804-415.718017-412.454222z"  horiz-adv-x="1024" />

    
    <glyph glyph-name="versions" unicode="&#59051;" d="M896 704H512c-35.2 0-64-28.8-64-64v-512c0-35.2 28.8-64 64-64h384c35.2 0 64 28.8 64 64V640c0 35.2-28.8 64-64 64z m-64-512H576V576h256v-384zM320 640h64v-64H320v-384h64v-64H320c-35.2 0-64 28.8-64 64V576c0 35.2 28.8 64 64 64zM128 576h64v-64H128v-256h64v-64H128c-35.2 0-64 28.8-64 64V512c0 35.2 28.8 64 64 64z"  horiz-adv-x="1024" />

    
    <glyph glyph-name="unverified" unicode="&#59052;" d="M1002.817324 443.804262l-69.11568 85.754641a95.994 95.994 0 0 0-19.774764 49.27692l-12.15924 108.665208a96.63396 96.63396 0 0 1-85.050685 85.114681l-108.729204 12.15924c-19.1988 1.91988-35.83776 10.175364-49.91688 21.054684L572.444222 874.88132a96.249984 96.249984 0 0 1-120.184488 0l-85.754641-69.11568a95.994 95.994 0 0 0-49.27692-19.83876l-108.665208-12.15924c-44.7972-5.11968-79.995-40.31748-85.114681-85.050685l-12.15924-108.729204c-1.91988-19.1988-10.175364-35.83776-21.054684-49.91688L21.11868 444.508218a96.249984 96.249984 0 0 1 0-120.184488l69.11568-85.754641c10.87932-14.07912 17.91888-30.71808 19.83876-49.27692l12.15924-108.665208c5.11968-44.7972 40.31748-79.995 85.050685-85.114681l108.729204-12.15924c19.1988-1.91988 35.83776-10.175364 49.91688-21.054684l85.690645-69.11568c35.1978-28.094244 85.050684-28.094244 120.184488 0l85.754641 69.11568c14.07912 10.87932 30.71808 17.91888 49.27692 19.83876l108.665208 12.15924c44.7972 5.11968 79.995 40.31748 85.114681 85.050685l12.15924 108.729204c1.91988 19.1988 10.175364 35.83776 21.054684 49.91688l69.11568 85.690645a96.249984 96.249984 0 0 1 0 120.184488z m-426.597338-283.950253c0-17.91888-14.07912-31.998-31.998-31.998h-63.932004c-17.27892 0-31.998 14.07912-31.998 31.998v63.996c0 17.91888 14.71908 31.998 31.998 31.998h63.996c17.91888 0 31.998-14.07912 31.998-31.998v-63.996z m99.833761 312.748453c-3.83976-10.87932-10.87932-21.11868-19.1988-30.07812-8.31948-10.23936-8.95944-12.15924-21.118681-24.31848-10.23936-10.87932-19.83876-19.1988-33.27792-28.7982-7.03956-5.695644-12.7992-12.095244-17.91888-17.214924-5.11968-5.11968-8.95944-10.87932-12.15924-17.27892-3.1998-6.3996-5.11968-12.15924-7.03956-19.1988-1.91988-7.03956-1.91988-8.31948-1.91988-15.999H456.675458c0 14.07912 0 19.83876 1.91988 30.71808 1.91988 12.15924 5.11968 23.03856 8.95944 33.27792 3.83976 8.95944 8.95944 17.91888 15.999 26.87832 7.03956 8.31948 14.71908 15.999 26.174364 24.31848 17.27892 12.15924 23.03856 19.1988 30.71808 33.27792 7.67952 14.015124 12.7992 24.254484 12.7992 37.693644 0 17.27892-3.83976 28.7982-12.7992 37.117681-8.31948 8.31948-19.83876 12.15924-37.11768 12.15924-5.75964 0-12.15924-1.27992-19.1988-3.1998-7.03956-1.91988-10.87932-5.75964-15.999-10.23936-5.11968-4.47972-8.95944-7.03956-12.7992-12.7992a26.23836 26.23836 0 0 1-5.75964-17.918881H321.771889c0 24.31848 8.31948 35.83776 17.27892 53.116681 10.23936 17.27892 23.03856 31.934004 39.03756 42.813324 15.999 10.87932 35.133804 19.1988 56.252485 24.31848 21.11868 5.11968 44.7972 8.31948 69.75564 8.31948 28.094244 0 53.052684-3.1998 74.747328-8.31948 21.75864-5.75964 40.31748-14.07912 56.31648-24.95844 14.71908-10.87932 26.23836-24.31848 35.197801-40.31748 8.31948-15.999 12.15924-35.1978 12.15924-56.316481 0-14.07912 0-26.814324-5.11968-37.693644l-1.27992 0.63996z"  horiz-adv-x="1024" />

    
    <glyph glyph-name="watch" unicode="&#59053;" d="M512 384h128v-64H448V576h64v-192z m384 0c0-142.08-76.8-266.24-192-332.16V-64c0-35.2-28.8-64-64-64H384c-35.2 0-64 28.8-64 64v115.84C204.8 117.76 128 241.92 128 384s76.8 266.24 192 332.16V832c0 35.2 28.8 64 64 64h256c35.2 0 64-28.8 64-64v-115.84c115.2-65.92 192-190.08 192-332.16z m-64 0c0 177.28-142.72 320-320 320S192 561.28 192 384s142.72-320 320-320 320 142.72 320 320z"  horiz-adv-x="1024" />

    
    <glyph glyph-name="x" unicode="&#59054;" d="M606.72 384l240-240-94.72-94.72L512 289.28l-240-240-94.72 94.72L417.28 384 177.28 624l94.72 94.72L512 478.72l240 240 94.72-94.72L606.72 384z"  horiz-adv-x="1024" />

    
    <glyph glyph-name="zap" unicode="&#59055;" d="M832 448H576l192 448-576-576h256l-192-448 576 576z"  horiz-adv-x="1024" />

    
    <glyph glyph-name="link-external" unicode="&#59056;" d="M832 256h64v-192c0-35.2-28.8-64-64-64H192c-35.2 0-64 28.8-64 64V704c0 35.2 28.8 64 64 64h192v-64H192v-640h640v192zM512 768l144-144L448 416 544 320l208 208L896 384V768H512z"  horiz-adv-x="1024" />

    
    <glyph glyph-name="file" unicode="&#59057;" d="M512 576H256V640h256v-64zM256 384h448V448H256v-64z m0-128h448V320H256v-64z m0-128h448v64H256v-64z m640 480V0c0-35.2-28.8-64-64-64H192c-35.2 0-64 28.8-64 64V768c0 35.2 28.8 64 64 64h480L896 608zM832 576L640 768H192v-768h640V576z"  horiz-adv-x="1024" />

    
    <glyph glyph-name="diff" unicode="&#59058;" d="M480 448h128v-64H480v-128H416V384H288V448h128V576h64v-128z m-192-384h320v64H288v-64zM576 768L800 544V-64c0-35.2-28.8-64-64-64H160c-35.2 0-64 28.8-64 64V704c0 35.2 28.8 64 64 64h416zM736 512L544 704H160v-768h576V512zM640 896H288v-64h320l256-256v-512h64V608L640 896z"  horiz-adv-x="1024" />

    
    <glyph glyph-name="issue-opened" unicode="&#59059;" d="M512 748.8c200.96 0 364.8-163.84 364.8-364.8s-163.84-364.8-364.8-364.8A365.44 365.44 0 0 0 147.2 384c0 200.96 163.84 364.8 364.8 364.8zM512 832C264.96 832 64 631.04 64 384s200.96-448 448-448 448 200.96 448 448-200.96 448-448 448z m64-192H448v-320h128V640z m0-384H448v-128h128v128z"  horiz-adv-x="1024" />

    
    <glyph glyph-name="link" unicode="&#59060;" d="M256 320h64v-64H256c-96 0-192 108.16-192 224S163.2 704 256 704h256c92.8 0 192-108.16 192-224 0-90.24-58.24-174.08-128-208V346.24c37.12 28.8 64 81.28 64 133.76C640 561.92 574.72 640 512 640H256c-62.72 0-128-78.08-128-160S192 320 256 320z m576 192h-64v-64h64c64 0 128-78.08 128-160S894.72 128 832 128H576c-62.72 0-128 78.08-128 160 0 53.12 26.88 104.96 64 133.76V496c-69.76-33.92-128-117.76-128-208C384 172.16 483.2 64 576 64h256c92.8 0 192 108.16 192 224S928 512 832 512z"  horiz-adv-x="1024" />

    
    <glyph glyph-name="chevron-right" unicode="&#59061;" d="M736 384l-320-320L320 160 560 384 320 608 416 704l320-320z"  horiz-adv-x="1024" />

    
    <glyph glyph-name="git-compare" unicode="&#59062;" d="M384 128H320c-17.28 1.28-30.72 7.04-44.16 19.84-13.44 12.8-19.2 26.88-19.84 44.16V593.92A127.552 127.552 0 0 1 192 832a127.552 127.552 0 0 1-64-238.08V192c1.92-49.92 21.76-94.08 60.16-131.84 38.4-37.76 81.92-58.24 131.84-60.16h64v-128l192 192-192 192v-128zM192 780.8c42.24 0 76.8-35.2 76.8-76.8 0-41.6-35.2-76.8-76.8-76.8C150.4 627.2 115.2 662.4 115.2 704c0 41.6 35.2 76.8 76.8 76.8z m704-606.72V576c-1.92 49.92-21.76 94.08-60.16 131.84-38.4 37.76-81.92 58.24-131.84 60.16H640V896L448 704l192-192V640h64c17.28-1.28 30.72-7.04 44.16-19.84 13.44-12.8 19.2-26.88 19.84-44.16v-401.92A127.552 127.552 0 0 1 832-64a127.552 127.552 0 0 1 64 238.08z m-64-186.88c-42.24 0-76.8 35.2-76.8 76.8 0 41.6 35.2 76.8 76.8 76.8 41.6 0 76.8-35.2 76.8-76.8 0-41.6-35.2-76.8-76.8-76.8z"  horiz-adv-x="1024" />

    
    <glyph glyph-name="logo-gist" unicode="&#59063;" d="M300.8 337.28h156.8v-257.28c-35.2-17.28-104.96-21.76-161.92-21.76-163.84 0-222.08 140.8-222.08 323.2 0 182.4 58.24 323.84 222.72 323.84 81.92 0 131.84-14.72 209.92-46.72V725.76C465.28 746.88 400 768 296.32 768 72.32 768 0 595.84 0 382.08c0-213.76 71.04-385.92 296.32-385.92 104.96 0 179.84 17.28 229.76 40.96V401.28H300.8v-64z m408.96-238.08V508.16h-67.2v-401.92c0-80 37.12-110.08 110.08-110.08v56.96c-30.72 0-42.88 10.24-42.88 44.8v1.28z m16 558.08c0 28.16-21.12 49.92-49.92 49.92s-49.28-21.76-49.28-49.92 21.12-49.92 49.28-49.92 49.92 21.76 49.92 49.92z m277.76-364.16c-96 8.32-113.92 30.72-113.92 74.88 0 49.28 21.12 85.76 120.32 85.76 67.2 0 106.24-10.24 145.28-23.04v60.16c-44.16 19.2-97.28 24.96-144 24.96-140.8 0-186.88-76.8-186.88-147.84 0-69.12 30.08-120.32 174.72-133.12 99.2-8.32 113.28-40.32 113.28-85.76 0-46.72-28.16-90.88-131.84-90.88-71.04 0-119.04 12.16-149.12 23.04v-60.16c32-12.8 101.12-24.96 149.12-24.96 152.32 0 200.96 76.8 200.96 154.24 0 81.92-33.92 129.92-176 142.72h-1.92z m549.12 158.08v55.04h-154.88v160l-69.12-19.84v-135.04l-99.84-28.16v-30.72h99.84v-320c0-97.92 76.16-136.32 160-136.32 12.16 0 33.28 1.28 44.16 3.2v56.96c-12.16-1.92-26.24-1.92-39.04-1.92-62.08 0-96 24.96-96 85.76V451.84h154.88v-1.28 0.64z"  horiz-adv-x="1600" />

    
    <glyph glyph-name="markdown" unicode="&#59064;" d="M950.4 704H73.6C33.28 704 0 670.72 0 630.4v-492.16C0 97.28 33.28 64 73.6 64h876.16c40.96 0 73.6 33.28 73.6 73.6v492.8C1024 670.72 990.72 704 950.4 704zM576 192H448V384L352 261.12 256 384v-192H128V576h128l96-128L448 576h128v-384z m191.36-32L608 384H704V576h128v-192h96l-160.64-224z"  horiz-adv-x="1024" />

    


  </font>
</defs>
</svg>
