<svg xmlns="http://www.w3.org/2000/svg" width="21" height="21" viewBox="0 0 21 21">
    <g fill="none" fill-rule="nonzero">
        <path fill="#4BA2F2" d="M11 5.505A5.456 5.456 0 0 1 15.495 10H21C20.633 4.679 16.321.367 11 0v5.505z"/>
        <path fill="#1A5099" d="M15.627 11c-.448 2.545-2.597 4.545-5.284 4.545a5.271 5.271 0 0 1-3.313-1.181L3 18c1.88 1.818 4.478 3 7.343 3 5.642 0 10.21-4.455 10.657-10h-5.373zM6.273 13.44c-.546-.801-.818-1.78-.818-2.848 0-2.67 2-4.807 4.545-5.252V0C4.455.445 0 4.984 0 10.592 0 12.995.818 15.22 2.273 17l4-3.56z"/>
    </g>
</svg>
