<svg xmlns="http://www.w3.org/2000/svg" width="23" height="23" viewBox="0 0 23 23">
    <g fill="none" fill-rule="nonzero" stroke="#C0C3C8" stroke-linecap="round" stroke-linejoin="round" stroke-width="2">
        <path d="M12 6.505A5.456 5.456 0 0 1 16.495 11H22c-.367-5.321-4.679-9.633-10-10v5.505zM16.627 12c-.448 2.545-2.597 4.545-5.284 4.545a5.271 5.271 0 0 1-3.313-1.181L4 19c1.88 1.818 4.478 3 7.343 3 5.642 0 10.21-4.455 10.657-10h-5.373zM7.273 14.44c-.546-.801-.818-1.78-.818-2.848 0-2.67 2-4.807 4.545-5.252V1C5.455 1.445 1 5.984 1 11.592c0 2.403.818 4.628 2.273 6.408l4-3.56z"/>
    </g>
</svg>
